<?xml version="1.0" standalone="no"?>
<!DOCTYPE svg PUBLIC "-//W3C//DTD SVG 1.1//EN" "http://www.w3.org/Graphics/SVG/1.1/DTD/svg11.dtd" >
<svg xmlns="http://www.w3.org/2000/svg" xmlns:xlink="http://www.w3.org/1999/xlink" version="1.1">
<metadata>
Created by FontForge 20170731 at Fri Jan  1 02:30:17 1904
 By Aleksey,,,
(c) !22! Soft 1992
</metadata>
<defs>
<font id="GaramondNarrowItalic" horiz-adv-x="819" >
  <font-face 
    font-family="Garamond Narrow"
    font-weight="400"
    font-style="italic"
    font-stretch="normal"
    units-per-em="2048"
    panose-1="2 11 5 0 0 0 0 0 0 0"
    ascent="1638"
    descent="-410"
    x-height="938"
    cap-height="1292"
    bbox="-367 -483 1874 1636"
    underline-thickness="94"
    underline-position="-366"
    unicode-range="U+0020-2219"
  />
<missing-glyph horiz-adv-x="1536" 
d="M256 0v1280h1024v-1280h-1024zM1248 32v1216h-960v-1216h960z" />
    <glyph glyph-name=".notdef" horiz-adv-x="1536" 
d="M256 0v1280h1024v-1280h-1024zM1248 32v1216h-960v-1216h960z" />
    <glyph glyph-name=".null" horiz-adv-x="0" 
 />
    <glyph glyph-name="nonmarkingreturn" horiz-adv-x="1618" 
 />
    <glyph glyph-name="space" unicode=" " horiz-adv-x="410" 
 />
    <glyph glyph-name="exclam" unicode="!" horiz-adv-x="455" 
d="M401 1159l-260 -809q-7 -22 -13 -31q-6 -6 -15 -6q-7 0 -11 7t-4 18q0 10 1 15.5t3 17.5l136 686q29 147 53 189q26 44 67 44q26 0 41 -17.5t15 -47.5q0 -12 -3 -27q-4 -20 -10 -39zM-6 57q0 47 23 79t55 32q27 0 42 -21t15 -59q0 -43 -23.5 -75.5t-56.5 -32.5
q-27 0 -41 20t-14 57z" />
    <glyph glyph-name="quotedbl" unicode="&#x22;" horiz-adv-x="672" 
d="M643 1188l-53 -324h-39l-51 324q0 3 -0.5 6.5t-1.5 5.5l-2 25v0q0 51 19 76q20 26 56 26q38 0 57 -25t19 -73q0 -12 -1 -18q-2 -14 -3 -23zM317 1188l-53 -324h-41l-51 324q-1 5 -1 17q-1 5 -1 20q0 52 18.5 77t55.5 25t56 -25t19 -73v-26q0 -7 -2 -15z" />
    <glyph glyph-name="numbersign" unicode="#" horiz-adv-x="1270" 
d="M479 860l154 430h100l-151 -430h258l153 430h101l-152 -430h279l-31 -86h-279l-92 -262h301l-33 -86h-301l-149 -426h-100l149 426h-258l-152 -426h-100l150 426h-293l33 86h292l93 262h-318l31 86h315zM811 774h-262l-92 -262h262z" />
    <glyph glyph-name="dollar" unicode="$" 
d="M473 1272l62 256q2 5 7 8.5t11 3.5q6 2 10 2q10 0 14 -4q5 -5 5 -10v-2l-62 -252h43q9 0 19 -1q14 -1 24 -3l64 258q2 5 7 8.5t11 3.5q6 2 10 2q10 0 14 -4q5 -5 5 -10v-2l-66 -269q88 -37 113 -55q22 -18 22 -39q0 -42 -21 -114t-38 -72t-33 85q-16 86 -57 138
l-125 -516q79 -93 106 -150q29 -63 29 -124q0 -123 -78 -224q-77 -99 -215 -149l-65 -262q-1 -3 -8.5 -8t-12.5 -5h-10q-6 0 -12 2q-4 1 -4 7q0 2 1 3t1 3l61 252h-24q-16 0 -25 1q-13 0 -39 3l-63 -258q0 -4 -6.5 -8.5t-12.5 -4.5h-10q-8 0 -13.5 3t-5.5 8l1.5 1.5t1.5 2.5
l63 264q-109 29 -155 61q-48 33 -48 78q0 55 27 137t41 82q9 0 15 -10q5 -12 5 -27q0 -7 -1 -12t-1 -8q0 -116 32 -178t97 -74l140 576q-75 76 -106.5 140t-31.5 136q0 126 79 217t208 113zM543 1227h-35l-105 -434l70 -72l123 502q-14 2 -22.5 3t-30.5 1zM365 831l96 390
q-79 -22 -124 -82q-46 -59 -46 -144q0 -46 18 -87t56 -77zM432 557l-70 70l-133 -547h7q23 -4 38 -4q12 0 19 1q17 3 24 5zM471 518l-104 -426q81 32 129 99q47 68 47 151q0 41 -13 74t-59 102z" />
    <glyph glyph-name="percent" unicode="%" horiz-adv-x="1161" 
d="M131 -6l815 1304q10 15 18 19t27 4q9 0 17 -5t8 -9q0 -1 -2 -9l-2 -2l-813 -1304q-10 -15 -19 -20q-12 -5 -26 -5q-12 0 -19 5q-6 4 -6 16q0 4 2 6zM72 928q0 164 91 282q90 119 212 119q87 0 141.5 -75.5t54.5 -196.5q0 -159 -92 -277q-91 -118 -209 -118
q-86 0 -142 74.5t-56 191.5zM381 1292q-79 0 -144 -134.5t-65 -301.5q0 -74 24.5 -114t69.5 -40q78 0 142 135q65 135 65 298q0 76 -23.5 116.5t-68.5 40.5zM573 229q0 162 91 280t213 118q86 0 141 -75.5t55 -195.5q0 -157 -92.5 -276t-208.5 -119q-87 0 -142 76
q-57 75 -57 192zM883 588q-80 0 -145.5 -135.5t-65.5 -305.5q0 -68 26 -108q26 -39 70 -39q78 0 142 133q65 133 65 295q0 79 -23.5 119.5t-68.5 40.5z" />
    <glyph glyph-name="ampersand" unicode="&#x26;" horiz-adv-x="1090" 
d="M410 825h6h6q59 9 88 9q48 0 73 -13t25 -39q0 -24 -16.5 -34.5t-48.5 -10.5t-68 11q-38 12 -72 32q-99 -40 -157 -143q-58 -101 -58 -242q0 -165 86 -269q85 -103 222 -103q148 0 255 104q105 104 105 250q0 67 -31 98t-100 31q-110 0 -184 -98q-18 -25 -25 -25t-11 7
q-5 8 -5 16q0 47 72.5 116.5t164.5 77.5q24 2 90 4q112 1 152 23q30 16 49 47t29 31q5 0 10 -8q4 -7 4 -21q0 -87 -47.5 -140t-128.5 -53h-16q8 -28 12 -51q4 -20 4 -43q0 -189 -128 -308q-127 -120 -325 -120q-173 0 -286 119.5t-113 302.5q0 156 87 272.5t237 159.5
q-25 50 -36 93q-12 44 -12 89q0 144 88 238t222 94q97 0 163 -39t66 -100q0 -60 -12 -98.5t-31 -38.5q-6 7 -25 30t-46 54q-70 84 -156 84q-93 0 -159 -74q-67 -73 -67 -182q0 -41 11.5 -74.5t36.5 -65.5z" />
    <glyph glyph-name="quotesingle" unicode="'" horiz-adv-x="346" 
d="M317 1188l-53 -324h-41l-51 324q-1 5 -1 17q-1 5 -1 20q0 52 18.5 77t55.5 25t56 -25t19 -73v-26q0 -7 -2 -15z" />
    <glyph glyph-name="parenleft" unicode="(" horiz-adv-x="631" 
d="M780 1327q16 0 20 -3q5 -3 5 -11q0 -14 -79 -53q-82 -40 -140 -91q-83 -71 -147 -176q-62 -101 -113 -252q-60 -177 -93 -354q-34 -174 -34 -307q0 -137 36 -234.5t109 -158.5q9 -8 33 -25q41 -30 41 -43q0 -8 -4 -12t-13 -4q-12 0 -47 26q-40 28 -71 62q-92 93 -142 232
q-49 135 -49 298q0 264 90.5 491t261.5 400q85 85 197 151q109 64 139 64z" />
    <glyph glyph-name="parenright" unicode=")" horiz-adv-x="631" 
d="M156 1327q14 0 55 -32q44 -36 82 -78q85 -97 129 -233q43 -133 43 -300q0 -263 -105 -503t-290 -404q-80 -71 -174 -123q-97 -53 -125 -53q-11 0 -15 4q-6 4 -6 12q0 13 81 51t140 90q82 70 145.5 174.5t114.5 253.5q59 173 94 356q33 179 33 306q0 135 -36 233.5
t-107 157.5q-3 3 -15 13t-20 16q-41 29 -41 41q0 10 4 14t13 4z" />
    <glyph glyph-name="asterisk" unicode="*" 
d="M463 950q66 19 132.5 87.5t100.5 68.5q28 0 44 -21.5t16 -56.5q0 -32 -25 -53t-67 -21q-14 0 -35 4q-25 3 -37 3q-20 0 -49 -6q-26 -5 -74 -21q38 -54 136 -104q97 -49 97 -109q0 -28 -18 -51t-41 -23q-38 0 -85 105q-47 106 -99 166q-6 -31 -9 -57q-4 -23 -4 -48
q0 -28 9 -82q8 -59 8 -82q0 -41 -17 -70q-16 -28 -40 -28q-31 0 -47.5 19t-16.5 53q0 29 44 123q43 90 58 174q-65 -21 -132.5 -88.5t-100.5 -67.5q-26 0 -42 22q-17 23 -17 58q0 31 25 53q26 21 65 21q10 0 34 -3q21 -4 37 -4q24 0 51.5 6.5t73.5 20.5q-40 54 -136.5 102.5
t-96.5 108.5q0 29 16.5 51.5t40.5 22.5q42 0 87 -105t100 -160q2 11 4 26t4 34q2 30 2 43q0 33 -7 82q-8 56 -8 78q0 45 16 71q15 27 40 27q32 0 48 -18q17 -19 17 -52q0 -34 -44 -127q-44 -92 -58 -172z" />
    <glyph glyph-name="plus" unicode="+" horiz-adv-x="1280" 
d="M590 694v465h100v-465h463v-98h-463v-467h-100v467h-465v98h465z" />
    <glyph glyph-name="comma" unicode="," horiz-adv-x="410" 
d="M66 164q35 0 56 -34t21 -93q0 -115 -87 -247t-132 -132q-7 0 -11 7q-5 8 -5 16q0 14 30 39.5t48 48.5q43 52 69 107q25 53 25 87q0 13 -10 20t-29 7q-27 0 -41 17.5t-14 53.5q0 45 23 74t57 29z" />
    <glyph glyph-name="hyphen" unicode="-" horiz-adv-x="449" 
d="M47 514h303q6 0 9 -3.5t3 -8.5v-7l-2 -6l-32 -75q-6 -14 -12.5 -20.5t-14.5 -6.5h-301q-7 0 -10.5 3.5t-3.5 8.5q0 6 1 8q0 3 1 5l32 75q9 16 14 21q6 6 13 6z" />
    <glyph glyph-name="period" unicode="." horiz-adv-x="410" 
d="M6 57q0 48 24 79q23 32 56 32q27 0 42 -21t15 -59q0 -42 -24 -77q-24 -34 -56 -34q-26 0 -41 22q-16 20 -16 58z" />
    <glyph glyph-name="slash" unicode="/" horiz-adv-x="455" 
d="M-61 -166l477 1464q4 14 14.5 21.5t28.5 7.5q14 0 21 -3.5t7 -10.5q0 -4 -2 -10l-477 -1463q-4 -14 -15 -22q-13 -8 -30 -8q-14 0 -19 4q-7 3 -7 10q0 2 2 10z" />
    <glyph glyph-name="zero" unicode="0" 
d="M16 367q0 163 42 329q43 168 118 305q45 84 91 144t96 101q100 83 206 83q100 0 158.5 -113t58.5 -311q0 -159 -42 -326q-44 -169 -121 -311q-83 -146 -181 -228q-100 -83 -192 -83q-110 0 -171 109q-63 110 -63 301zM561 1286q-86 0 -160 -93q-75 -95 -141 -286
q-63 -182 -99 -365q-36 -181 -36 -309q0 -111 33 -171t94 -60q78 0 152 92t135 266q65 186 103 371q36 183 36 320q0 111 -31.5 173t-85.5 62z" />
    <glyph glyph-name="one" unicode="1" 
d="M639 1153l-246 -924q-12 -47 -14 -64q-4 -20 -4 -42q0 -29 13.5 -48t41.5 -24q5 -1 15 -1q5 -1 22 -1q35 0 45 -6.5t10 -22.5q0 -13 -10 -19.5t-31 -6.5q-3 0 -57 6t-105 6q-120 0 -227 -10l-20 -2v0q-18 0 -25.5 6.5t-7.5 22.5q0 11 10.5 18.5t32.5 7.5h22
q109 0 160 199l4 12l219 821q5 15 6 24q1 6 1 15q0 16 -3 21.5t-10 5.5q-29 0 -94.5 -31t-85.5 -31q-10 0 -14 7q-6 8 -6 18q0 23 65 47q53 20 113 47q72 35 132 72q58 37 62 37q11 0 18 -5q5 -5 5 -16q0 -16 -15 -66q-15 -45 -22 -73z" />
    <glyph glyph-name="two" unicode="2" 
d="M51 147h367q57 0 90 13q34 13 59 43q21 24 37 62q17 38 33 38q6 0 9 -5.5t3 -16.5q0 -15 -21 -78q-22 -62 -34 -113l-2 -10q-20 -80 -49 -80h-594q-28 0 -42 7q-16 7 -16 20t7 26q5 11 18 25l311 305q14 12 21.5 19.5t19.5 21.5l2 2q381 371 381 600q0 104 -54 173
t-134 69q-51 0 -106 -32.5t-93 -86.5q-34 -47 -64.5 -98.5t-41.5 -51.5q-6 0 -11 5q-4 4 -4 14q0 22 30 74q28 50 75 104q58 67 125 101t141 34q121 0 200 -91t79 -236q0 -104 -47 -196q-49 -94 -142 -169q-20 -17 -59 -47.5t-56 -44.5q-298 -233 -438 -400z" />
    <glyph glyph-name="three" unicode="3" 
d="M326 696h32q163 0 252 -82q90 -82 90 -229q0 -110 -52 -218.5t-150.5 -202t-200 -140.5t-203.5 -47t-164.5 39.5t-62.5 101.5q0 27 16.5 46.5t40.5 19.5q23 0 46 -15q22 -17 42 -49q6 -8 8 -14q56 -80 130 -80q152 0 282 163q131 163 131 369q0 140 -63 218.5t-174 78.5
q-75 0 -179 -53q-30 -14 -34 -14q-7 0 -11 4t-4 10q0 30 107 78q60 26 80 37q183 91 254 177q69 86 69 204q0 82 -37 128t-102 46q-39 0 -81.5 -21t-94.5 -67q-24 -21 -49.5 -52.5t-38.5 -31.5q-7 0 -9.5 2t-2.5 6q0 57 112 139q110 82 223 82q101 0 161.5 -61t60.5 -164
q0 -105 -104 -206q-55 -52 -136 -103t-184 -99z" />
    <glyph glyph-name="four" unicode="4" 
d="M35 471h411q22 0 33 8t15 31l100 418q6 19 14 27t23 12l74 24h8q6 0 8 -1.5t2 -4.5q0 -6 -1 -9.5t-3 -14.5l-107 -443q-1 -2 -1 -7q-1 -3 -1 -11q0 -13 8 -21t21 -8h94q7 0 12 -4.5t5 -7.5q0 -6 -1 -9.5t-1 -7.5l-3 -14q-2 -14 -8 -19.5t-28 -5.5h-95q-13 0 -23.5 -10.5
t-15.5 -27.5l-55 -220q-1 -6 -4 -22l-2 -14q0 -40 72 -54h4q53 -11 53 -35q0 -13 -10.5 -20.5t-26.5 -7.5q-10 0 -60 7t-104 7q-60 0 -122 -6q-23 -2 -40 -3.5t-22 -2.5q-17 0 -28 8t-11 18q0 27 51 31q33 3 58 8q36 10 53 30q17 18 27 67l49 206q0 1 2 7l2 18q0 8 -9 12
q-8 4 -26 4h-410q-24 0 -34 10q-11 11 -11 31q0 21 18 51q16 29 50 66l717 795q13 16 25.5 21t29.5 5q14 0 25 -4q12 -4 12 -10q0 -2 -53 -57q-77 -76 -173.5 -177t-191 -205t-195.5 -221t-200 -237z" />
    <glyph glyph-name="five" unicode="5" 
d="M311 1268l471 57h11q10 0 14 -3.5t4 -12.5q0 -16 -7 -44t-20 -59q-7 -19 -21 -27q-13 -7 -48 -12l-332 -30q-78 -8 -99 -23t-38 -67l-41 -127q-1 -6 -5 -18q-2 -6 -2.5 -7t-0.5 -2q0 -19 86 -24q83 -4 147 -23q126 -38 196 -138t70 -243q0 -263 -222.5 -445t-545.5 -182
q-27 0 -40 6.5t-13 20.5q0 13 7 19q8 5 24 5q5 0 13 -1t24 -1q268 0 444 158t176 393q0 145 -85 218t-251 73v0l-36 -2q-38 -2 -50 -2q-15 0 -20.5 5.5t-5.5 21.5q0 4 2 14q2 8 4 14l127 402q2 8 6 18q19 63 57 68z" />
    <glyph glyph-name="six" unicode="6" 
d="M866 1440q16 0 23.5 -5.5t7.5 -19.5q0 -20 -98 -44q-102 -26 -183 -71q-105 -57 -190.5 -146.5t-149.5 -209.5q-129 -243 -129 -532q0 -184 53.5 -291t143.5 -107q106 0 183 137t77 334q0 137 -45 219t-117 82q-33 0 -68 -18q-34 -18 -38 -18q-10 0 -14 4q-5 5 -5 12
q0 25 49.5 53.5t102.5 28.5q112 0 187 -109t75 -276q0 -213 -112.5 -355.5t-272.5 -142.5q-139 0 -230 139q-91 137 -91 357q0 235 111 449q109 214 302 354q104 74 238.5 125t189.5 51z" />
    <glyph glyph-name="seven" unicode="7" 
d="M293 1290h440q30 0 58.5 4t37.5 4q17 0 25 -4.5t8 -13.5q0 -18 -102 -206q-97 -178 -178 -353l-375 -811q-9 -20 -18.5 -24.5t-30.5 -4.5q-14 0 -19.5 4.5t-5.5 14.5q0 2 2 8t4 10l551 1169q4 10 5 14t1 11q0 11 -14 16q-17 5 -47 5h-451q-20 0 -28.5 5.5t-8.5 20.5v6
l11 88q3 31 8 42.5t12 11.5q2 0 5 -1t7 -1q11 -6 41 -11q23 -4 62 -4z" />
    <glyph glyph-name="eight" unicode="8" 
d="M457 741q126 46 192 124q64 76 64 186q0 102 -59 172q-58 69 -144 69q-92 0 -161.5 -81.5t-69.5 -190.5q0 -78 45 -149q46 -73 133 -130zM498 713q125 -99 170 -175q47 -79 47 -176q0 -167 -110.5 -285t-270.5 -118q-154 0 -256.5 103.5t-102.5 265.5q0 121 83.5 205.5
t265.5 146.5q-99 88 -135 151q-35 62 -35 138q0 146 110 253t262 107q130 0 220 -87.5t90 -213.5q0 -106 -72.5 -175.5t-265.5 -139.5zM365 647q-121 -25 -195 -125.5t-74 -236.5q0 -128 62.5 -205.5t165.5 -77.5q109 0 182 94q74 95 74 236q0 85 -50 161q-52 75 -165 154z
" />
    <glyph glyph-name="nine" unicode="9" 
d="M72 823q0 198 116 350q116 150 269 150q131 0 223 -131q92 -133 92 -330q0 -240 -129 -482q-130 -241 -332 -374q-99 -66 -217 -110q-114 -43 -170 -43q-12 0 -18 6.5t-6 19.5q0 20 103 45q104 26 190 80q201 126 326.5 376t125.5 523q0 168 -51 266.5t-135 98.5
q-107 0 -185 -138q-79 -137 -79 -337q0 -125 38.5 -196t106.5 -71q31 0 66.5 23.5t39.5 23.5q8 0 12 -4q5 -5 5 -10q0 -29 -44 -59q-43 -31 -97 -31q-102 0 -176 102q-74 103 -74 252z" />
    <glyph glyph-name="colon" unicode=":" horiz-adv-x="449" 
d="M141 610q0 50 23.5 83.5t56.5 33.5q27 0 42.5 -21.5t15.5 -60.5q0 -43 -24 -75.5t-56 -32.5q-25 0 -42 20q-16 19 -16 53zM18 53q0 49 23.5 82t56.5 33q27 0 42 -20q14 -22 14 -60q0 -43 -23.5 -77t-54.5 -34q-25 0 -42 21q-16 20 -16 55z" />
    <glyph glyph-name="semicolon" unicode=";" horiz-adv-x="449" 
d="M143 610q0 50 23.5 83.5t56.5 33.5q27 0 42.5 -21.5t15.5 -60.5q0 -43 -24 -75.5t-56 -32.5q-25 0 -42 20q-16 19 -16 53zM84 164q36 0 57 -34t21 -93q0 -117 -88 -247q-89 -132 -131 -132q-8 0 -12 7q-5 8 -5 16q0 16 31 41q30 26 47 47q43 52 69 107q25 53 25 87
q0 13 -10 20t-29 7q-27 0 -41 17t-14 50q0 47 23 78q23 29 57 29z" />
    <glyph glyph-name="less" unicode="&#x3c;" horiz-adv-x="1280" 
d="M281 643l876 -356v-109l-1032 424v82l1032 424v-109z" />
    <glyph glyph-name="equal" unicode="=" horiz-adv-x="1280" 
d="M1153 408h-1028v98h1028v-98zM1153 782h-1028v99h1028v-99z" />
    <glyph glyph-name="greater" unicode="&#x3e;" horiz-adv-x="1280" 
d="M1001 643l-876 356v109l1032 -424v-82l-1032 -424v109z" />
    <glyph glyph-name="question" unicode="?" horiz-adv-x="539" 
d="M86 375l41 219q17 95 109 154q16 10 23 15t11 7q120 83 175 158q55 73 55 149q0 65 -30 110q-32 44 -75 44q-55 0 -119 -82q-66 -82 -83 -82q-14 0 -25 11q-10 10 -10 26q0 88 48 137q46 49 134 49q92 0 159.5 -83t67.5 -197q0 -69 -28 -132q-27 -60 -88 -128
q-49 -54 -133 -113q-79 -56 -93 -68q-64 -52 -88 -149q-26 -98 -39 -98q-5 0 -10 8q-4 7 -4 18t1 15q0 7 1 12zM-23 57q0 48 24 79q23 32 56 32q28 0 43 -21t15 -59q0 -43 -24 -75.5t-56 -32.5q-27 0 -42.5 19.5t-15.5 57.5z" />
    <glyph glyph-name="at" unicode="@" horiz-adv-x="2019" 
d="M1094 969q-57 0 -101 -31q-46 -31 -94 -102q-71 -107 -116 -236q-44 -126 -44 -221q0 -97 43 -152q44 -57 115 -57q68 0 129 45q61 43 119 133q57 91 91 200q34 106 34 200t-50.5 157.5t-125.5 63.5zM1192 340q-58 -106 -138 -160q-79 -55 -173 -55q-121 0 -196 92.5
t-75 243.5q0 108 49 213q50 107 138 194q68 66 144 102q77 36 151 36q86 0 142.5 -51t78.5 -148l55 182h131l-170 -606q-12 -43 -14 -61q-4 -20 -4 -43q0 -53 26 -82t74 -29t109 30q62 30 114 81q92 88 145 219q52 129 52 278q0 143 -48.5 257t-145.5 201q-194 173 -511 173
q-178 0 -328 -58q-154 -59 -272 -171q-133 -126 -201 -296q-69 -169 -69 -376q0 -175 56 -304.5t177 -232.5q114 -99 265 -151q149 -51 321 -51q165 0 324 53q156 52 293 155l30 -34q-144 -107 -311 -164q-166 -56 -342 -56q-91 0 -175 11t-165 35q-154 47 -274 139
q-151 115 -229 276q-79 159 -79 355q0 203 86 380q28 57 66.5 113.5t83 104t100.5 94.5q134 111 290.5 166t340.5 55q345 0 552.5 -187t207.5 -497q0 -158 -58 -295t-165 -235q-57 -54 -123 -83q-63 -28 -131 -28q-96 0 -147.5 53.5t-57.5 161.5z" />
    <glyph glyph-name="A" unicode="A" horiz-adv-x="936" 
d="M610 1274l187 -1141q9 -60 49 -79q39 -21 39 -34q0 -10 -10 -17t-25 -7q-5 0 -48 5t-71 5t-84 -6q-55 -6 -80 -6q-20 0 -28.5 5.5t-8.5 18.5q0 30 61.5 42t61.5 65v16q0 2 -1 9.5t-3 19.5l-49 322h-367l-106 -246q-13 -36 -17 -50q-6 -22 -6 -42q0 -36 17 -59
q16 -21 51 -29q6 0 9 -1q2 0 6 -1t10 -3h2q41 -8 41 -32q0 -16 -6.5 -22.5t-22.5 -6.5v0l-27 2q-73 6 -139 6q-74 0 -147 -10l-23 -2v0q-9 0 -13.5 7t-4.5 15q0 28 53 54q20 8 31 14q30 17 60 57q31 44 71 127l485 1010l2 6q11 29 29 29q16 0 20 -33q2 -6 2 -8zM592 553
l-78 530l-254 -530h332z" />
    <glyph glyph-name="B" unicode="B" horiz-adv-x="983" 
d="M401 985l-43 -184q-5 -26 -5.5 -32t-2.5 -13q-2 -14 -2 -17q0 -8 14 -13q15 -5 39 -5q187 0 291.5 92.5t104.5 255.5q0 94 -52 134t-176 40q-14 0 -29 -1q-7 0 -25.5 -2t-35.5 -3q-25 -65 -45 -131q-20 -64 -33 -121zM571 700q140 -18 213.5 -98t73.5 -215
q0 -186 -113 -288q-112 -103 -319 -103q-85 0 -182 7t-127 7q-75 0 -156 -12l-24 -2v0q-12 0 -19.5 6t-7.5 14q0 10 4 15q3 6 8 8l45 14q77 26 111 162q1 7 4 16l225 889q7 33 8 43q2 26 2 33q0 24 -15.5 36.5t-45.5 12.5h-14q-21 0 -29 5t-8 16t10.5 18.5t30.5 7.5h16
q4 0 8 -0.5t6 -1.5h9q83 -6 149 -6q13 0 95 2q80 2 85 2q166 0 241 -57.5t75 -183.5q0 -131 -99 -229q-100 -97 -260 -118zM324 670l-95 -408q-1 -9 -6 -24q-18 -76 -18 -103q0 -51 29.5 -72.5t103.5 -21.5q183 0 282 101t99 284q0 122 -74 187q-76 65 -215 65q-22 0 -84 -6
q-18 -2 -22 -2z" />
    <glyph glyph-name="C" unicode="C" horiz-adv-x="999" 
d="M946 1331q56 0 78 -12q23 -14 23 -43q0 -10 -17 -84q-11 -46 -18 -76t-11 -49v-2q-13 -78 -38 -78q-11 0 -15 7t-4 38v17q2 74 2 110q0 60 -13 81.5t-54 21.5q-90 0 -198 -45q-111 -45 -198 -121q-147 -129 -224 -292q-79 -164 -79 -347q0 -194 85 -313q85 -121 216 -121
q89 0 168 58q78 56 125 157q17 35 31 77q21 60 41 60q8 0 12 -7t4 -18q0 -7 -10 -51t-18 -86q-6 -29 -12 -73q-6 -43 -11 -56q-19 -45 -117 -81q-97 -36 -211 -36q-203 0 -321 136q-119 137 -119 368q0 186 76 342q77 158 223 279q66 54 140.5 98.5t157.5 77.5
q161 63 306 63z" />
    <glyph glyph-name="D" unicode="D" horiz-adv-x="1176" 
d="M88 229l199 856q3 15 7 45q3 26 3 48q0 54 -57 63h-2q-21 1 -28 7.5t-7 17.5q0 12 8.5 19t26.5 7q4 0 9 -1t15 -1q23 -5 49 -6q36 -2 58 -2h24q26 0 116 3q89 3 153 3q223 0 342.5 -132.5t119.5 -379.5q0 -159 -60 -308q-62 -151 -171 -263q-102 -105 -220 -154
q-117 -49 -272 -49q-37 0 -115 3t-120 3q-94 0 -199 -12l-35 -2v0q-23 0 -29 6q-7 4 -7 18q0 13 6.5 19t31.5 12q1 1 27 10q23 7 45 17q52 25 78 133q1 5 1.5 8.5t1.5 6.5t1 5zM438 1145l-223 -930q-7 -30 -8 -39q-2 -18 -2 -24q0 -61 25 -83t124 -22h25q121 0 228 48.5
t184 137.5q80 95 138 269.5t58 333.5q0 109 -33 197q-35 89 -94 138q-42 36 -101 53q-58 15 -186 15q-66 0 -94 -20q-27 -19 -41 -74z" />
    <glyph glyph-name="E" unicode="E" horiz-adv-x="922" 
d="M946 1219l-51 -191q-8 -26 -14.5 -34.5t-18.5 -8.5q-10 0 -17 10t-7 25q0 24 1 37q1 6 1 12v6q0 85 -46 122q-47 38 -147 38q-50 0 -180 -8h-6l-115 -518h164q62 0 97 11q32 10 59 40q25 28 47 74q22 49 41 49q6 0 11 -8t5 -19q0 -4 -25 -85q-28 -89 -47 -171
q-6 -24 -16 -84q-16 -88 -41 -88q-10 0 -18 9q-7 8 -7 24q0 15 1 26t1 23v10q0 94 -25 115.5t-95 21.5h-170l-99 -389q-13 -58 -19 -93q-5 -30 -5 -44q0 -43 21 -63q20 -19 69 -19h151q71 0 124 22q54 23 96 66q40 43 65 98q26 56 43 56q7 0 15 -8q6 -7 6 -19l-2 -12
q-1 -7 -5 -21l-43 -157q-2 -9 -6 -23q-16 -61 -37 -61v0l-12 2q-123 14 -297 14q-247 0 -438 -12l-23 -2v0q-19 0 -26.5 6t-7.5 20q0 15 10 22q11 8 43 9q8 0 26 2q13 2 23 6q24 9 39 35q15 28 35 109l213 884q4 20 9 50q3 26 3 47q0 50 -57 59q-22 1 -30 8q-7 4 -7 17
q0 12 8 20q8 6 25 6h9q3 0 6 -0.5t5 -1.5q1 0 23 -2q187 -8 370 -8q127 0 242 6l20 2v0q27 0 35 -5q6 -6 6 -26v0l-2 -13q-2 -12 -6 -25z" />
    <glyph glyph-name="F" unicode="F" horiz-adv-x="850" 
d="M920 1255l-48 -223q-4 -21 -12 -32t-20 -11q-13 0 -19 14t-6 39q0 14 1 22t1 15q0 85 -45 122q-47 38 -147 38q-39 0 -89 -2q-37 -1 -75 -6l-127 -512h188q52 0 82 10t43 31q14 21 35 67q26 56 47 56q8 0 12 -3t4 -8q0 -19 -27 -99q-28 -78 -42 -142q-10 -46 -21 -117
q-9 -76 -30 -76q-7 0 -14 10q-7 8 -7 19q0 6 3 28q3 23 3 42q0 83 -33 108q-32 25 -145 25q-22 0 -78 -6q-14 -2 -20.5 -3t-14.5 -2l-104 -454q0 -1 -1 -6l-3 -15q-10 -43 -10 -67q0 -40 21 -55t73 -15q32 0 39.5 -5.5t7.5 -18.5t-7 -19t-24 -6q-6 0 -74 6q-67 6 -126 6
q-41 0 -107 -8t-78 -8q-16 0 -23 6q-7 4 -7 18q0 23 45 27q38 5 59 12q23 9 40 36q15 27 36 110l211 887q4 20 9 50q3 27 3 46q0 50 -57 59h-4q-33 8 -33 27q0 13 8 18.5t25 5.5q11 0 34 -4h3q2 1 4 0q2 0 20 -2q55 -4 100 -4h240q40 0 114 2q72 2 109 4h21q25 0 32 -4
t7 -18v-8q0 -1 -0.5 -3t-1.5 -4z" />
    <glyph glyph-name="G" unicode="G" horiz-adv-x="1112" 
d="M1087 1278l-59 -264q-3 -13 -10 -20t-19 -7t-18 11t-6 32v0l2 44q2 46 2 61q0 88 -17 111q-16 22 -69 22q-97 0 -204.5 -46t-196.5 -126q-140 -124 -218 -296q-77 -172 -77 -358q0 -198 89.5 -311t245.5 -113q67 0 109 13q43 14 70 41q30 106 49 198l2 11v0l31 155
q1 8 2.5 17t1.5 13l2 15v0q0 29 -10 44.5t-33 21.5q-8 2 -13 3t-26 1q-29 0 -37 6t-8 21q0 13 8.5 18.5t28.5 5.5q19 0 71 -4t101 -4q46 0 98 6q53 6 57 6q11 0 19 -5q6 -6 6 -15q0 -25 -36.5 -31t-51.5 -18q-23 -20 -39 -58q-16 -37 -31 -114l-22 -115q0 -4 -2.5 -13
t-4.5 -16q-13 -72 -18 -101.5t-8 -72.5q-74 -45 -152 -66.5t-172 -21.5q-214 0 -349 139q-136 137 -136 359q0 200 93 372q46 86 113.5 162.5t157.5 143.5q62 46 133.5 83.5t147.5 62.5q153 52 303 52q55 0 79 -9.5t24 -31.5v-9q-2 -4 -3 -5z" />
    <glyph glyph-name="H" unicode="H" horiz-adv-x="1202" 
d="M1126 1145l-204 -940q-10 -47 -11 -55q-4 -17 -4 -31q0 -31 9.5 -45.5t31.5 -20.5q9 -2 39 -4q47 -2 47 -26q0 -14 -9 -19.5t-30 -5.5q-7 0 -16 1t-25 1q-30 5 -63 6q-46 2 -70 2q-60 0 -119 -7t-69 -7q-16 0 -22 6q-7 4 -7 18q0 23 45 27q23 3 37 6q36 7 56 29
q19 19 28 63l113 525h-561l-107 -463q-9 -37 -11 -52q-3 -22 -3 -40q0 -34 22 -50q23 -18 62 -18q25 0 37 -5q10 -6 10 -20q0 -8 -8 -16t-19 -8v0l-20 2q-81 10 -172 10q-59 0 -124 -6t-67 -6q-15 0 -20.5 5t-5.5 17q0 23 45 27q22 3 36 6q36 7 54 28q15 18 26 62l234 989
q3 15 4 19q6 24 6 35q0 24 -12 37q-14 14 -47 18h-4q-33 8 -33 25q0 15 8.5 21.5t30.5 6.5v0l26 -2q86 -10 170 -10q59 0 125 8l15 2v0q10 0 15 -5q5 -7 5 -17q0 -13 -8 -19t-37 -8q-5 -1 -17 -3q-6 -1 -20 -3q-37 -8 -53 -27t-27 -63l-106 -426h563l78 366q5 23 6 46
q2 32 2 40q0 61 -46 70t-46 27q0 12 9.5 18t29.5 6q4 0 57.5 -6t101.5 -6q43 0 100 5l52 5v0q12 0 17 -5q4 -4 4 -17q0 -14 -7 -20.5t-32 -8.5q-1 0 -6 -0.5t-8 -1.5l-15 -2v0q-29 -8 -42 -25.5t-24 -64.5z" />
    <glyph glyph-name="I" unicode="I" horiz-adv-x="524" 
d="M449 1157l-222 -952q-3 -15 -4 -19q-12 -52 -12 -73q0 -28 12 -43t39 -21q3 0 8.5 -0.5t9.5 -1.5l17 -2v0q29 0 37 -5.5t8 -19.5q0 -8 -8 -16q-10 -8 -21 -8v0l-14 2q-80 10 -176 10q-60 0 -123 -6t-68 -6q-14 0 -19 5t-5 17q0 23 45 27q25 3 37 6q36 7 53 27.5t27 62.5
l233 989q4 16 5 25t1 33q0 40 -55 53h-2q-22 4 -30 11q-7 6 -7 16q0 11 9.5 17.5t25.5 6.5v0l24 -2q96 -8 175 -8q32 0 63 4t41 4q12 0 19 -5q6 -4 6 -15q0 -15 -56 -27t-73 -86z" />
    <glyph glyph-name="J" unicode="J" horiz-adv-x="516" 
d="M455 1139l-246 -1047q-59 -245 -155 -372q-97 -130 -222 -130q-62 0 -101.5 39t-39.5 99q0 35 19 57t48 22q43 0 71.5 -78.5t59.5 -78.5q35 0 71.5 42.5t62.5 114.5q23 66 42 180q19 112 27 148l217 991q5 26 5 28q1 8 1 17q0 38 -16 53t-59 15q-32 0 -44 6t-12 21
q0 13 9 19.5t28 6.5h9q3 0 6 -0.5t4 -1.5h14q114 -8 215 -8q22 0 60 2q26 1 46 6q2 1 5.5 1.5t5.5 0.5h10q9 0 15.5 -7t6.5 -15q0 -24 -40 -31h-3q-12 0 -32 -4h-6q-36 -6 -53 -28q-18 -21 -29 -68z" />
    <glyph glyph-name="K" unicode="K" horiz-adv-x="928" 
d="M840 1112l-361 -356l221 -523q1 -2 13 -28q46 -114 82 -133q16 -9 47 -19q43 -13 43 -33q0 -10 -8.5 -16t-22.5 -6q-5 0 -29 3t-43 3h-14q-3 0 -9 -1l-18 -3q-10 0 -18 -1t-18 -1q-33 0 -47 14t-35 66l-240 581l-88 -81l-88 -414q-2 -9 -4 -28q-2 -18 -2 -23
q0 -28 12 -43t39 -21q29 -4 35 -4q45 0 45 -25q0 -8 -8 -16q-10 -8 -21 -8v0l-14 2q-81 10 -176 10q-60 0 -123 -6q-65 -6 -68 -6q-15 0 -20.5 5t-5.5 17q0 23 45 27q22 3 36 6q36 7 54 28q15 18 26 62l234 989q5 15 6 30q2 20 2 28q0 40 -55 53h-2q-23 4 -31 10.5t-8 16.5
q0 11 9 17.5t26 6.5h12q3 0 6.5 -0.5t5.5 -1.5q1 0 25 -2q86 -6 151 -6q31 0 62 4t41 4q11 0 18 -5q6 -4 6 -15q0 -15 -54 -27q-53 -12 -73 -86l-121 -487l445 444q35 37 43 49q10 14 10 29q0 33 -49 49h-2q-21 5 -28 12q-9 6 -9 17q0 9 7.5 16.5t19.5 7.5q7 0 57 -8
q48 -8 80 -8q50 0 91 4t48 4q14 0 21.5 -5.5t7.5 -14.5q0 -8 -75 -47q-74 -38 -144 -107z" />
    <glyph glyph-name="L" unicode="L" horiz-adv-x="739" 
d="M438 1145l-223 -940q-10 -48 -11 -57q-3 -21 -3 -35q0 -36 19 -49q20 -15 65 -15q96 0 152.5 17t97.5 55t71 106q28 64 41 64q6 0 11.5 -7.5t5.5 -15.5t-1 -13q0 -2 -1.5 -7t-2.5 -10l-43 -189q-6 -30 -21 -41q-16 -10 -50 -10v0l-31 2q-190 8 -379 8q-93 0 -184 -10
l-29 -2v0q-15 0 -20.5 5t-5.5 17q0 23 45 27q22 3 36 6q36 7 54 28q15 18 26 62l234 989q4 15 5 29q1 11 1 33q0 21 -11 34q-13 12 -44 13h-4q-35 8 -35 27q0 13 10 20q11 6 31 6q4 0 59 -6q56 -6 107 -6q80 0 153 6l15 2v0q8 0 15 -6t7 -14q0 -24 -43 -27q-25 -3 -39 -6
q-36 -8 -52 -27q-18 -21 -28 -63z" />
    <glyph glyph-name="M" unicode="M" horiz-adv-x="1296" 
d="M514 1229l29 -950q31 52 80.5 139t95.5 169t98 179q46 84 74.5 138t46 87t74 143.5t78.5 155.5q44 -1 73 -3q19 -1 54 -1q20 0 51 4h6q15 0 27.5 1t27.5 1q14 0 23.5 -5.5t9.5 -14.5q0 -25 -51 -27q-8 -1 -15 -1t-10 -1q-30 -3 -46 -22q-18 -20 -26 -58l-188 -1001
q-1 -8 -4 -31q-2 -18 -2 -25q0 -32 15 -49q13 -16 44 -16q26 0 33.5 -5.5t7.5 -19.5q0 -7 -9 -15q-10 -7 -24 -7v0l-55 5q-58 5 -100 5q-75 0 -148 -10l-20 -2v0q-11 0 -19 8t-8 18q0 23 39 27q22 3 31 6q60 17 84 135l2 7l201 1009l-607 -1155q-9 -19 -18.5 -28t-19.5 -9
q-9 0 -14 11q-6 13 -7 47l-47 1083q-118 -361 -203 -669q-80 -290 -80 -341q0 -66 57 -87q56 -23 56 -36q0 -12 -9.5 -20t-21.5 -8q-4 0 -57.5 8t-95.5 8q-40 0 -85 -6t-51 -6q-11 0 -18.5 5.5t-7.5 14.5q0 21 53 35q7 2 33 8q43 13 64 43q19 28 51 136l260 892q3 10 6 29
q2 22 2 35q0 49 -52 56q-53 8 -53 26q0 13 7 17q8 5 24 5h14q91 -8 187 -8q51 0 53 -53v-6z" />
    <glyph glyph-name="N" unicode="N" horiz-adv-x="1128" 
d="M465 1257l336 -976q89 323 147 576q58 251 58 296q0 31 -14 50q-15 17 -48 24q-1 1 -4 1q-4 0 -8 1q-43 7 -43 31q0 11 11 19.5t24 8.5v0l18 -2q63 -6 125 -6q43 0 91 6t52 6q13 0 23 -5q8 -6 8 -15q0 -19 -35 -27h-2h-2q-27 -5 -39 -10q-35 -14 -54 -43
q-20 -32 -48 -137l-111 -414q-53 -198 -106 -433q-51 -226 -70 -226q-8 0 -13 5q-4 4 -9 21q0 2 -1 3t-3 7l-394 1133l-47 -184q-27 -102 -62.5 -246t-49.5 -202t-29 -127q-47 -211 -47 -265q0 -57 67 -70h2q29 -5 35 -11q8 -8 8 -19t-10 -18t-26 -7q-11 0 -50.5 4t-85.5 4
q-62 0 -135 -12q-17 -4 -24 -4q-9 0 -16 7t-7 15q0 23 42.5 33t62.5 21q22 12 49 81.5t61 202.5q4 14 9 32t8 30l192 731q4 13 5 25q1 9 1 26q0 43 -55 47q-25 3 -33 9t-8 18q0 13 7 19q8 5 24 5q13 0 46 -4t64 -4q24 0 31 1q11 0 16 1h21q19 0 29 -7t16 -26z" />
    <glyph glyph-name="O" unicode="O" horiz-adv-x="1176" 
d="M664 1329q197 0 326 -165q128 -167 128 -425q0 -153 -44 -293q-43 -138 -128 -247q-87 -114 -200 -176t-230 -62q-205 0 -332 166q-129 167 -129 436q0 315 183 540.5t426 225.5zM979 834q0 200 -87 318t-230 118q-101 0 -183.5 -64.5t-150.5 -195.5q-64 -123 -98 -267
q-35 -148 -35 -278q0 -204 88 -322q87 -120 233 -120q97 0 182 61q85 62 140 172q67 137 103 286q38 157 38 292z" />
    <glyph glyph-name="P" unicode="P" horiz-adv-x="932" 
d="M444 1227l-135 -611h13q43 -4 65 -4q172 0 289 120t117 288q0 113 -61 164t-202 51q-14 0 -42 -2q-21 -1 -44 -6zM301 569l-86 -364q-9 -42 -11 -55q-3 -21 -3 -37q0 -25 10 -38q12 -15 35 -22q4 -1 14 -3q5 -1 23 -1h4q45 -3 45 -29q0 -9 -11 -17q-11 -7 -30 -7v0l-27 2
q-76 10 -151 10q-50 0 -109 -6t-63 -6q-14 0 -19.5 5t-5.5 17q0 17 62.5 32t80.5 91l228 944q6 28 8 43q2 28 2 41q0 34 -12 52q-14 18 -49 22q-21 3 -27 8.5t-6 16.5q0 13 9 17q10 5 30 5v0l18 -2q80 -8 150 -8q53 0 124 4t115 4q133 0 203 -72q70 -71 70 -208
q0 -204 -145.5 -322.5t-397.5 -118.5q-36 0 -47 1q-22 0 -31 1z" />
    <glyph glyph-name="Q" unicode="Q" horiz-adv-x="1176" 
d="M979 831q0 101 -21.5 180t-64.5 136q-87 117 -231 117q-100 0 -183 -63q-85 -66 -151 -193q-64 -126 -97 -266q-36 -145 -36 -277q0 -203 87.5 -321.5t233.5 -118.5q96 0 181 61q84 62 141 172q67 131 104 282t37 291zM303 -168q99 0 239 -73q142 -74 216 -74q49 0 95 23
q44 23 93 73q22 21 43 54.5t37 33.5q8 0 11 -5t3 -16q0 -24 -24 -67q-28 -48 -68 -92q-60 -67 -131 -105q-71 -37 -141 -37q-107 0 -273 125q-26 22 -51 41q-82 66 -106 66q-29 0 -108.5 -67.5t-123.5 -67.5q-20 0 -32.5 12t-12.5 33q0 56 68 100q66 42 168 47q46 46 104 81
q52 32 125 56q-180 42 -279.5 196.5t-99.5 395.5q0 311 181.5 534.5t427.5 223.5q197 0 325.5 -164t128.5 -422q0 -261 -121 -461q-121 -202 -323 -280q-33 -13 -99 -29q-191 -51 -272 -135z" />
    <glyph glyph-name="R" unicode="R" horiz-adv-x="934" 
d="M449 1233l-138 -615q209 3 343 119q132 116 132 289q0 116 -57 165q-59 50 -197 50q-12 0 -40 -2q-22 -1 -43 -6zM557 616q11 -21 19 -40.5t13 -29.5q12 -31 15 -44l76 -269q22 -74 40 -108q19 -37 44 -53q14 -9 46 -21q32 -14 32 -31q0 -10 -8 -16q-7 -6 -21 -6
q-6 0 -11 1t-14 1q-14 4 -22.5 5t-26.5 1q-12 0 -35 -3q-22 -3 -32 -3q-22 0 -36 14t-24 43l-131 414q-21 65 -40 87t-50 22q-5 0 -9 -1t-9 -1l-72 -9l-86 -364q-6 -27 -10 -54q-4 -20 -4 -38q0 -50 53 -64h2q21 -1 29 -8.5t8 -20.5q0 -6 -5 -13q-4 -7 -12 -7v0l-18 2
q-58 6 -115 6q-85 0 -172 -10l-30 -2v0q-14 0 -19.5 5t-5.5 17q0 17 63 33q62 17 80 90l228 944q6 28 8 43q2 28 2 41q0 34 -12 52q-14 18 -49 22q-21 3 -27 8.5t-6 16.5q0 12 9.5 18t29.5 6h14h8q110 -8 211 -8q10 0 88 2t86 2q132 0 202.5 -65.5t70.5 -190.5
q0 -131 -91 -234q-92 -105 -274 -182z" />
    <glyph glyph-name="S" unicode="S" horiz-adv-x="717" 
d="M750 1229v-8l-31 -174q-3 -19 -9.5 -28t-17.5 -9q-9 0 -13.5 10t-4.5 27v53q0 89 -45 136.5t-129 47.5q-98 0 -166 -72q-68 -74 -68 -178q0 -49 18 -91q16 -41 56 -91l121 -143q3 -3 10 -11.5t18 -21.5q142 -160 142 -305q0 -167 -117 -289q-118 -121 -278 -121
q-52 0 -115 17q-61 16 -113 47q-19 12 -25 22q-8 11 -8 31v14l7 178q0 25 5 38q5 11 13 11q21 0 31 -69q5 -51 12 -84q13 -65 72 -112q58 -46 135 -46q104 0 176 87t72 212q0 58 -23 112q-22 53 -102 150l-103 125q-55 68 -84 132q-28 63 -28 128q0 169 102.5 272t267.5 103
q90 0 157 -29q65 -30 65 -71z" />
    <glyph glyph-name="T" unicode="T" horiz-adv-x="899" 
d="M270 1290h592q81 0 112 34t32 34q8 0 11 -4t3 -15q0 -13 -1 -18q0 -4 -1 -8l-2 -8l-70 -265q-3 -10 -10 -17t-14 -7q-10 0 -16.5 10.5t-6.5 24.5q0 2 2 32t2 33q0 72 -21 96.5t-81 24.5h-133q-16 0 -25 -9q-11 -11 -18 -38l-256 -1026q-2 -11 -3.5 -17t-4.5 -19
q-3 -16 -3 -28q0 -33 56.5 -44.5t56.5 -32.5q0 -13 -9.5 -19t-29.5 -6q-5 0 -10.5 1t-13.5 1q-19 5 -45 6q-34 2 -52 2q-78 0 -147.5 -7t-75.5 -7q-16 0 -22 6q-7 4 -7 18q0 23 45 27q23 3 37 6q36 7 53 27t27 63l266 1041q4 15 5 20q2 12 2 17q0 10 -10 14q-9 4 -29 4h-99
q-70 0 -109 -19q-41 -19 -75 -65q-22 -30 -41 -78q-21 -51 -41 -51q-9 0 -15.5 7t-6.5 18v0l2 12q1 10 6 22l78 256q6 21 11 28q5 5 13 5q9 0 20 -41t72 -41z" />
    <glyph glyph-name="U" unicode="U" horiz-adv-x="1079" 
d="M422 1145l-148 -561q-30 -113 -49 -214q-18 -97 -18 -143q0 -103 66 -162q67 -59 184 -59q146 0 228 91q82 89 142 354l142 616q4 19 11 58q3 26 3 42q0 57 -59.5 71t-59.5 30q0 12 9 19q7 7 22 7l16 -2l11 -2v0q2 0 20 -2q56 -6 96 -6q17 0 47 2q23 2 45 6q1 1 3 1.5
t4 0.5q22 2 24 2q9 0 16 -7t7 -17q0 -24 -40 -31q-41 -9 -52 -16q-40 -24 -72 -156l-2 -12l-154 -639q-64 -267 -159 -362q-97 -95 -275 -95q-159 0 -248.5 80.5t-89.5 224.5q0 83 45 264l2 7l142 571q5 16 7.5 29t3.5 19q3 20 3 30q0 21 -9 36q-9 16 -22 17q-2 1 -6 1
q-5 0 -11 1q-4 1 -9.5 1.5t-8.5 0.5q-25 0 -34 6t-9 21q0 13 10 20q10 8 23 8v0l17 -2q93 -10 213 -10q17 0 40 4q14 2 15 2l6 2q24 2 25 2q23 0 36 -6.5t13 -17.5q0 -14 -9 -20.5t-38 -8.5q-13 0 -20 -1q-10 -1 -19 -5q-31 -9 -48.5 -29.5t-27.5 -60.5z" />
    <glyph glyph-name="V" unicode="V" horiz-adv-x="918" 
d="M272 1126l142 -899l372 871q17 39 23 57q8 24 8 33q0 27 -59.5 39t-59.5 35q0 15 12 22q13 8 33 8q2 0 49 -5q45 -5 76 -5q28 0 74 2q33 1 59 6q3 1 6.5 1.5t6.5 0.5h12q20 0 29.5 -6.5t9.5 -19.5t-9 -21q-9 -7 -38 -12h-2q-19 -3 -39 -10q-31 -13 -58 -46t-73 -133
l-477 -1032l-2 -4q-16 -31 -27 -31q-16 0 -21 27l-2 6l-188 1161q-7 47 -46 67q-38 18 -38 30q0 10 10 16q11 6 29 6h18q20 -2 40 -3q15 -1 46 -1q43 0 64 1q40 2 61 3q3 1 8.5 1.5t8.5 0.5h20q19 0 28 -6.5t9 -19.5q0 -17 -60 -28q-61 -10 -61 -54l2 -20q1 -9 2.5 -19.5
t1.5 -18.5z" />
    <glyph glyph-name="W" unicode="W" horiz-adv-x="1354" 
d="M674 1165l57 -348l146 291q14 29 21 52q7 21 7 34q0 14 -7 22q-6 8 -34 19q-22 8 -30 15q-7 7 -7 18t7.5 18.5t17.5 7.5q4 0 9 -1t13 -1q43 -6 58 -7q27 -3 55 -3q27 0 58 4t42 4q18 0 25.5 -5.5t7.5 -18.5q0 -25 -45 -33q-22 -4 -41 -10q-57 -24 -127 -166l-6 -10
l-156 -310l86 -524l429 911q11 24 17.5 42t6.5 28q0 20 -31 36q-32 17 -32 34q0 11 7.5 18.5t20.5 7.5q14 0 38.5 -3t35.5 -3h2q12 -2 16 -2q23 0 68 5t55 5q19 0 28 -6.5t9 -19.5q0 -25 -45 -33q-30 -5 -43 -10q-31 -13 -58 -46t-73 -133l-494 -1028q-11 -22 -16 -27
q-7 -7 -14 -7q-8 0 -14 9.5t-9 26.5l-90 508l-262 -510l-2 -4q-15 -30 -29 -30q-9 0 -13 10q-6 9 -9 26l-215 1164q-8 39 -45 55q-39 17 -39 31q0 8 10 15q8 7 20 7q10 0 41 -4q29 -4 60 -4q76 0 155 6l19 2v0q16 0 23.5 -5.5t7.5 -18.5q0 -18 -59 -29q-60 -10 -60 -45
q0 -17 6 -55q1 -2 1.5 -5t0.5 -6l166 -927l213 409l-96 570q-8 47 -58.5 64t-50.5 30q0 10 5.5 16t15.5 6h6q1 0 2.5 -0.5t1.5 -1.5h8q74 -8 141 -8q49 0 107 6l18 2v0q12 0 19.5 -5.5t7.5 -16.5q0 -20 -45 -32.5t-45 -47.5q0 -11 1 -14q0 -7 1 -11z" />
    <glyph glyph-name="X" unicode="X" horiz-adv-x="967" 
d="M393 1149l129 -406l180 220q61 71 102.5 142t41.5 95q0 37 -68 45q-29 3 -38 8.5t-9 16.5t10.5 18.5t26.5 7.5q4 0 10.5 -1t18.5 -1q52 -6 66 -7q29 -3 59 -3q43 0 110 8q26 2 27 2q2 1 5 1.5t5 0.5h10q12 0 19 -7q8 -8 8 -17q0 -13 -7.5 -19.5t-31.5 -7.5
q-1 0 -5.5 -1.5t-12.5 -3.5t-11.5 -3t-7.5 -2q-33 -12 -82 -58q-53 -50 -123 -137l-278 -340l184 -507l3.5 -10.5t4 -12.5t4.5 -14q29 -83 60 -95q23 -7 43 -10q43 -7 43 -28q0 -12 -10.5 -19.5t-24.5 -7.5q-6 0 -54 7t-100 7q-59 0 -132 -5q-21 -1 -38.5 -2.5t-21.5 -2
t-6 -0.5q-16 0 -24.5 6t-8.5 17q0 23 73 33q72 11 72 48q0 11 -3 27q-9 33 -17 57l-135 402l-256 -334q-43 -55 -68 -99q-22 -40 -22 -61q0 -32 59 -37q34 0 45 -7q12 -7 12 -25q0 -13 -9.5 -21t-26.5 -8q-7 0 -59.5 7t-113.5 7q-62 0 -118 -10l-17 -2v0q-15 0 -23.5 6.5
t-8.5 16.5q0 14 9 21q9 8 40 15q5 4 11 5q3 1 7 2.5t8 1.5q37 10 74 37q35 26 78 81l358 451l-164 475v2q-31 83 -63 109q-7 5 -23 13q-13 5 -28 9q-21 8 -25 13q-6 5 -6 14t7.5 16.5t19.5 7.5l26 -2q5 -1 9 -1t6 -1q27 -4 53 -6q34 -2 53 -2q49 0 89 3q32 1 71 7q2 1 4 1.5
t4 0.5h6q12 0 19 -6q8 -8 8 -16q0 -22 -49 -29h-4q-70 -4 -70 -45q0 -16 10 -45z" />
    <glyph glyph-name="Y" unicode="Y" horiz-adv-x="834" 
d="M297 1139l131 -518l248 342q143 199 143 237t-57 44t-57 26q0 12 10 19t26 7q11 0 50.5 -4t85.5 -4q68 0 129 6l12 2v0q12 0 19 -7t7 -17q0 -12 -7 -18q-9 -7 -29 -11v0l-13 -2.5t-20 -5.5q-29 -12 -72 -56q-35 -37 -115 -139l-352 -471l-92 -364q-6 -25 -10 -53
q-4 -21 -4 -39q0 -27 10 -40q11 -14 33 -20q4 -1 14 -3q5 -1 23 -1h4q43 -3 43 -29q0 -11 -9.5 -16.5t-27.5 -5.5q-7 0 -15.5 1t-21.5 1q-32 5 -65 6q-46 2 -72 2q-57 0 -114 -7t-69 -7q-15 0 -21.5 6t-6.5 18q0 24 45 27q25 3 37 6q32 7 50 28q16 21 26 62l114 459
l-153 565q-17 60 -52.5 77t-35.5 28q0 12 9 19q7 7 23 7v0l13 -2q59 -8 116 -8q68 0 142 8l14 2q14 0 21 -6q8 -6 8 -16q0 -22 -61.5 -28t-61.5 -50q0 -8 2 -28q2 -16 6 -29z" />
    <glyph glyph-name="Z" unicode="Z" horiz-adv-x="909" 
d="M958 1212l-856 -1155q31 -4 65 -6q42 -2 83 -2h33q193 0 271.5 18t119.5 62q52 58 79 132q25 73 44 73q6 0 11 -8t5 -19q0 -10 -1 -17q0 -5 -1 -10.5t-2 -11.5l-41 -225q-4 -24 -18 -35q-13 -10 -43 -10v0l-27 2q-181 8 -363 8q-121 0 -224 -4t-122 -4q-36 0 -45.5 6
t-9.5 23q0 19 39 65q15 20 18.5 24.5t8.5 10.5l819 1108h-215q-125 0 -187 -15q-60 -15 -104 -51q-53 -44 -79.5 -112t-43.5 -68q-7 0 -10 9q-4 7 -4 24q0 13 1 17.5t2 8.5t1 7l43 190q4 22 22 34q19 11 45 11h19q4 0 8 -0.5t6 -1.5q3 0 29 -2q99 -6 176 -6h328q15 0 45 2
q22 1 43 6l6 2l24 2q12 0 20.5 -9.5t8.5 -20.5q0 -18 -24 -47q-2 -4 -3 -5z" />
    <glyph glyph-name="bracketleft" unicode="[" horiz-adv-x="631" 
d="M457 1327h182q7 0 12 -8q4 -7 4 -21q0 -12 -6 -20q-8 -8 -16 -8h-113q-26 0 -39 -16t-24 -60l-346 -1462q-5 -22 -5 -23q-2 -14 -2 -20q0 -12 14 -20q13 -7 38 -7h90q8 0 13 -8t5 -21q0 -12 -6 -19q-6 -9 -14 -9h-205q-15 0 -29 14t-14 27q0 11 3 29q1 9 7 36l365 1542
q9 41 30 57q20 17 56 17z" />
    <glyph glyph-name="backslash" unicode="\" horiz-adv-x="455" 
d="M293 -156l-209 1450v11q0 11 7 17q8 5 22 5q16 0 22.5 -5.5t9.5 -27.5l209 -1450v-10q0 -14 -6 -18q-6 -6 -20 -6q-18 0 -25 6.5t-10 27.5z" />
    <glyph glyph-name="bracketright" unicode="]" horiz-adv-x="631" 
d="M295 1327h203q13 0 30 -14q15 -13 15 -27q0 -9 -3 -27q-2 -12 -8 -38l-364 -1540q-10 -40 -30.5 -58t-55.5 -18h-184q-6 0 -11 8q-4 7 -4 20t6 21t15 8h114q25 0 39.5 17t24.5 59l346 1464l2 8t1 8q1 5 1 25q0 13 -12.5 20t-36.5 7h-90q-8 0 -13.5 8t-5.5 20q0 13 6.5 21
t14.5 8z" />
    <glyph glyph-name="asciicircum" unicode="^" horiz-adv-x="2048" 
d="M412 897l528 565h166l526 -565h-88l-522 451l-524 -451h-86z" />
    <glyph glyph-name="underscore" unicode="_" horiz-adv-x="1024" 
d="M0 -483v100h1024v-100h-1024z" />
    <glyph glyph-name="grave" unicode="`" horiz-adv-x="1024" 
d="M545 1331l160 -282h-46l-180 223l-4 6q-43 50 -43 78q0 22 13 35q12 14 30 14q15 0 32 -17q14 -14 38 -57z" />
    <glyph glyph-name="a" unicode="a" horiz-adv-x="961" 
d="M586 901q-69 0 -161 -85q-94 -85 -177 -228q-68 -120 -105 -221.5t-37 -176.5q0 -55 26 -87.5t69 -32.5q53 0 123 65q70 67 163 207q114 169 163 268q52 105 52 166q0 59 -30.5 92t-85.5 33zM860 881l-172 -625q-10 -37 -14 -62q-6 -28 -6 -42q0 -21 6 -32t16 -11
q19 0 42 22q25 22 54 64q8 10 29 47q17 30 31 30q5 0 8 -3q2 -6 2 -11q0 -22 -16 -55q-15 -32 -49 -80q-55 -80 -105 -121t-94 -41q-31 0 -48.5 23t-17.5 63q0 68 43 215v4l62 228q-163 -283 -279 -408t-211 -125q-77 0 -121.5 60t-44.5 165q0 117 54.5 244.5t158.5 257.5
q95 119 202 186q109 68 198 68q44 0 90 -21q44 -22 47 -22q5 0 32.5 29.5t63.5 29.5q31 0 40 -6.5t9 -25.5q0 -4 -2 -18q0 -2 -8 -27z" />
    <glyph glyph-name="b" unicode="b" horiz-adv-x="850" 
d="M414 1397l-240 -926q125 243 226 354q102 113 196 113q77 0 125 -69q47 -71 47 -187q0 -118 -40 -247q-40 -131 -110 -234q-77 -117 -178 -179q-103 -63 -215 -63q-97 0 -154 66.5t-57 179.5q0 57 16 139.5t54 226.5l168 643q3 12 11 47q3 20 3 33q0 16 -13 26
q-14 11 -34 11q-6 0 -11 -1t-11 -1q-17 0 -24 4.5t-7 16.5t11 20q11 6 32 6q78 0 138 30t61 30q5 0 8 -4q2 -6 2 -13v-4q-1 -1 -1 -2t-1 -2v-2v-7q0 -1 -0.5 -2.5t-1.5 -2.5zM643 702q0 65 -24 102q-26 38 -66 38q-61 0 -126 -64q-65 -62 -155 -207q-84 -135 -126 -242
q-44 -111 -44 -184q0 -69 32 -107t91 -38q73 0 143 57q70 55 130 162q65 117 105 252q40 133 40 231z" />
    <glyph glyph-name="c" unicode="c" horiz-adv-x="768" 
d="M541 956q78 0 127 -33.5t49 -84.5q0 -25 -17 -42q-16 -16 -45 -16q-49 0 -100 60q-53 59 -78 59q-107 0 -217 -174q-110 -176 -110 -391q0 -130 51.5 -200.5t146.5 -70.5q47 0 100 32q55 33 107 91q16 18 38 54q18 32 32 32q5 0 9.5 -5t4.5 -15q0 -19 -23 -57
q-23 -35 -65 -84q-66 -76 -134 -115q-65 -37 -136 -37q-120 0 -200 99q-79 98 -79 255q0 116 46 230q47 116 132 213q79 91 177.5 145.5t183.5 54.5z" />
    <glyph glyph-name="d" unicode="d" horiz-adv-x="928" 
d="M967 1397l-312 -1141q-11 -49 -13 -61q-5 -32 -5 -48q0 -12 8 -23t19 -11q17 0 39 21q20 18 49 63q11 17 24 45q16 37 33 37q7 0 8 -3q2 -6 2 -14q0 -17 -21 -61q-23 -47 -55 -92q-50 -74 -94 -111q-45 -39 -80 -39q-34 0 -51.5 23t-17.5 65q0 52 35 186q3 17 8 33
l55 221q-153 -274 -264 -399t-203 -125q-73 0 -116 58q-44 59 -44 159q0 122 52 260q53 140 141 252q90 117 199 184q110 66 206 66q36 0 69 -13q36 -14 69 -40l86 325q2 9 10 49q4 20 4 31q0 16 -14 27q-13 10 -35 10q-7 0 -13.5 -1t-13.5 -1q-17 0 -25 5t-8 16q0 23 62 26
q59 6 69 8q42 7 82.5 29.5t49.5 22.5q4 0 7 -4t3 -13q0 -7 -1 -10q0 -3 -1 -6zM559 901q-64 0 -152 -85q-86 -83 -167 -228q-64 -115 -99 -219.5t-35 -180.5q0 -54 25 -85q24 -33 64 -33q50 0 117 65q66 66 155 207q107 164 157 272q48 104 48 172q0 53 -31 84t-82 31z" />
    <glyph glyph-name="e" unicode="e" horiz-adv-x="758" 
d="M143 436q205 9 324 103q119 95 119 241q0 58 -28 92q-29 35 -75 35q-98 0 -193 -129q-94 -129 -147 -342zM139 387q-1 -10 -2 -20.5t-1 -17.5q0 -8 -1 -16q-2 -30 -2 -34q0 -110 49 -174t131 -64q55 0 109.5 32t105.5 93q19 24 35 54q17 32 31 32q6 0 9 -5q3 -4 3 -15
q0 -18 -16 -49q-15 -29 -47 -72q-66 -85 -135 -129q-70 -43 -142 -43q-113 0 -188 100q-76 98 -76 254q0 113 44 228t126 215q77 92 160 141t166 49q91 0 149 -57.5t58 -147.5q0 -152 -144.5 -242.5t-421.5 -111.5z" />
    <glyph glyph-name="f" unicode="f" horiz-adv-x="451" 
d="M324 901h151q5 0 8.5 -4t3.5 -8q0 -20 -6 -31q-6 -10 -18 -10h-154l-116 -551q-107 -493 -188 -630q-83 -140 -218 -140q-58 0 -96 32q-37 31 -37 81q0 39 18 62.5t49 23.5q24 0 44 -15q20 -17 24 -37q4 -15 4 -49q5 -59 45 -59q38 0 74 81q35 79 76 261l207 940h-105
q-6 0 -10 3.5t-4 8.5q0 21 6 31t18 10h107q21 117 56.5 210.5t88.5 166.5q104 141 232 141q58 0 90 -31q33 -31 33 -85q0 -35 -19.5 -57.5t-46.5 -22.5q-23 0 -40 15q-15 14 -26 46q0 1 -1 5.5t-3 10.5q-16 66 -53 66q-45 0 -95 -116q-50 -118 -99 -349z" />
    <glyph glyph-name="g" unicode="g" horiz-adv-x="760" 
d="M393 915q-100 0 -169 -116q-70 -115 -70 -281q0 -92 42 -148q42 -55 111 -55q97 0 167 121q71 122 71 281q0 90 -42 144t-110 54zM582 907h143q28 0 37.5 -8.5t9.5 -28.5q0 -18 -12 -30.5t-29 -12.5h-135q35 -54 52 -102q16 -45 16 -94q0 -147 -102 -255t-236 -108
q-64 0 -123 36q-58 36 -60 36q-17 0 -34 -23t-17 -51q0 -34 27 -60.5t92 -53.5l162 -68q127 -54 180 -116t53 -152q0 -132 -107 -212q-106 -81 -286 -81q-172 0 -278 77q-105 76 -105 197q0 95 70 155q68 59 229 103q-54 19 -84 58q-29 38 -29 88q0 61 44 117t44 71
q0 4 -33 74q-34 68 -34 143q0 139 97.5 245.5t230.5 106.5q50 0 112 -25q63 -26 105 -26zM397 -63l-188 81q-5 3 -19 7q-14 2 -24 2q-25 0 -75 -18q-52 -20 -85 -44q-35 -26 -56.5 -69t-21.5 -93q0 -106 87 -173q88 -68 227 -68q118 0 191 58t73 151q0 61 -26 102
q-26 39 -83 64z" />
    <glyph glyph-name="h" unicode="h" horiz-adv-x="877" 
d="M436 1397l-239 -926q22 44 57.5 107.5t61 103t57 81t50.5 62.5q102 113 195 113q78 0 124 -69q46 -68 46 -187q0 -114 -37 -240t-104 -237q-67 -109 -146.5 -173.5t-144.5 -64.5q-50 0 -79 26t-29 68q0 30 15.5 49t39.5 19t54 -46q28 -46 59 -46q36 0 68 41q32 42 75 149
q49 120 78 251q29 134 29 220q0 69 -25 107q-25 39 -68 39q-86 0 -196 -149q-111 -148 -207 -398q-39 -104 -68 -193l-32 -94q-5 -9 -19 -14q-12 -4 -39 -4q-26 0 -33 7q-8 8 -8 26l2 14q1 5 2.5 10.5t1.5 9.5l297 1155q3 11 11 48q4 17 4 32q0 16 -13 26q-14 11 -34 11
q-6 0 -11 -1t-12 -1q-16 0 -24.5 5t-8.5 16q0 23 58 26q53 6 63 8q41 8 78 30t45 22q5 0 8 -4q2 -6 2 -13v-4q-1 -1 -1 -2t-1 -2v-2v-7q0 -1 -0.5 -2.5t-1.5 -2.5z" />
    <glyph glyph-name="i" unicode="i" horiz-adv-x="506" 
d="M319 1167q0 50 30 91.5t67 41.5q26 0 42.5 -20t16.5 -53q0 -59 -28.5 -102.5t-65.5 -43.5q-28 0 -45 23t-17 63zM324 655l-2 -6l-146 -454q-6 -22 -13 -51q-5 -22 -5 -29q0 -20 8 -31.5t20 -11.5q25 0 54 28t57 76q6 10 15.5 27t23.5 43q18 37 24 37q7 0 11 -4t4 -11
q0 -16 -21 -58q-26 -48 -61 -101q-41 -67 -91 -107q-47 -37 -91 -37q-42 0 -62 26t-20 77q0 43 18 112q17 71 66 209l84 246l4 10q39 119 39 154q0 26 -6 35q-8 8 -23 8q-37 0 -94 -83q-59 -83 -66 -83q-4 0 -7 5t-3 13q0 10 20 45q22 38 50 72q50 65 98 99q47 32 86 32
q35 0 55.5 -23t20.5 -63q0 -54 -47 -201z" />
    <glyph glyph-name="j" unicode="j" horiz-adv-x="451" 
d="M309 1167q0 51 29 92t65 41q27 0 43.5 -20t16.5 -53q0 -59 -27 -103q-28 -43 -65 -43q-28 0 -45 23t-17 63zM336 750l-205 -766q-55 -210 -152 -334q-96 -123 -198 -123q-61 0 -104.5 36.5t-43.5 84.5q0 30 18 50q16 19 42 19q34 0 68.5 -65.5t62.5 -65.5q73 0 199 471
q10 37 16.5 62t17.5 65l148 545q8 31 12 52.5t4 33.5t-6 18q-8 5 -22 5q-31 0 -88 -81t-64 -81q-5 0 -8 6q-4 4 -4 12q0 9 20 43q21 35 51 74q56 70 99 100q43 31 86 31q33 0 52 -21.5t19 -58.5q0 -20 -4 -43q-2 -10 -16 -69z" />
    <glyph glyph-name="k" unicode="k" horiz-adv-x="887" 
d="M459 1397l-250 -912q124 233 238 350q112 115 217 115q62 0 102.5 -50t40.5 -132q0 -152 -126.5 -253.5t-346.5 -123.5q67 -36 112 -149l3 -4l34 -91q21 -55 54 -87.5t67 -32.5q30 0 50 23q18 23 18 63q0 22 -30 48.5t-30 51.5q0 19 12 32q10 13 27 13q29 0 48 -33
q20 -34 20 -82q0 -68 -48 -118q-50 -50 -118 -50q-82 0 -139 61q-57 62 -99 193q-25 84 -48 111q-25 26 -64 29q-31 -58 -62 -172q-4 -13 -6 -21l-37 -137v-2q-13 -43 -78 -43q-22 0 -29 6q-9 5 -9 18q0 5 2 23q1 12 6 29l299 1144q6 20 9 40.5t3 39.5q0 17 -12.5 27
t-32.5 10q-7 0 -13.5 -1t-13.5 -1q-16 0 -24 5t-8 16q0 23 59 26q60 7 68 8q41 8 81 30q38 22 48 22q4 0 7 -4t3 -13q0 -7 -1 -10q0 -3 -1 -6zM229 428q8 -2 29 -3q23 -3 35 -3q150 0 271.5 109.5t121.5 232.5q0 41 -24.5 68.5t-59.5 27.5q-75 0 -178 -118
q-105 -118 -195 -314z" />
    <glyph glyph-name="l" unicode="l" horiz-adv-x="461" 
d="M463 1397l-316 -1192q-2 -9 -10 -49q-4 -20 -4 -33q0 -20 8 -30q8 -9 23 -9q21 0 57 41q38 44 76 111q6 9 16 30q18 29 25 29q6 0 9 -3.5t3 -10.5q0 -16 -20 -54q-21 -40 -72 -116q-41 -63 -92.5 -100.5t-91.5 -37.5q-35 0 -53 24q-19 22 -19 66t11 110q9 57 32 142
l250 899q3 12 11 47q3 20 3 33q0 17 -13 27t-34 10q-7 0 -12 -1t-12 -1q-17 0 -25 5t-8 16q0 23 57 26q58 6 68 8q42 8 80.5 30t48.5 22q5 0 8 -4q2 -6 2 -15q-2 -9 -6 -20z" />
    <glyph glyph-name="m" unicode="m" horiz-adv-x="1403" 
d="M297 582l-37 -125q149 259 249 371t177 112q52 0 79 -35q26 -37 26 -108q0 -33 -7 -74q-9 -52 -20 -90l-45 -176q72 129 131 219.5t113 152.5q101 113 184 113q50 0 78 -36.5t28 -100.5q0 -34 -7 -75.5t-23 -96.5l-138 -467q-2 -6 -4 -20q-2 -12 -2 -17q0 -18 8 -31
q8 -12 21 -12q28 0 59.5 28.5t73.5 94.5q10 16 17 27.5t16 27.5q25 43 35 43q7 0 10 -3q2 -6 2 -15q0 -13 -24 -57q-29 -52 -64 -103q-52 -76 -105 -117q-55 -41 -100 -41q-36 0 -56 26t-20 75q0 31 8 77q7 42 23 91l135 448q10 34 13 53q4 24 4 45q0 30 -13 46t-39 16
q-61 0 -159 -128q-37 -49 -67 -97.5t-62.5 -110.5t-61.5 -127q-41 -92 -79 -198q-35 -93 -50 -156q-4 -25 -14 -31q-9 -6 -33 -6h-29q-21 0 -32 5.5t-11 16.5q0 5 2 19q1 8 9 31l32 104q65 213 107.5 390t42.5 218q0 35 -13 52q-13 18 -38 18q-56 0 -163 -137
q-105 -135 -196 -336q-58 -129 -106 -305q-10 -41 -17 -58q-5 -11 -17 -15q-15 -5 -44 -5q-31 0 -42 5.5t-11 18.5q0 4 2 16q1 5 1.5 9t2.5 10l135 473q32 106 45 172q14 68 14 103q0 20 -7 28q-7 9 -21 9q-41 0 -102.5 -91.5t-69.5 -91.5q-4 0 -8 7q-5 8 -5 14q0 10 23 48
q19 32 57 83q55 72 101 106q47 35 86 35q31 0 49 -27t18 -75q0 -38 -14 -106q-12 -61 -41 -156z" />
    <glyph glyph-name="n" unicode="n" horiz-adv-x="1001" 
d="M324 657l-56 -200q65 115 129 205t128 156q122 122 225 122q57 0 90.5 -31t33.5 -84q0 -31 -9 -75q-13 -55 -29 -101l-160 -473q-7 -24 -7 -27q-3 -12 -3 -20q0 -20 8 -33q8 -12 22 -12q29 0 58 28q32 29 77 97q18 27 38.5 62.5t29.5 35.5q7 0 10 -4q2 -6 2 -14
q0 -13 -25 -59q-31 -56 -65 -103q-51 -74 -104 -113q-56 -41 -101 -41q-35 0 -54 25q-19 23 -19 70q0 53 25 152q27 106 73 237l84 245q10 27 15 53q5 28 5 44q0 32 -15 48q-17 17 -44 17q-66 0 -191 -143q-126 -142 -216 -338q-52 -113 -93 -248q-40 -135 -63 -135h-88
q-6 0 -11.5 6t-5.5 12q0 3 2.5 12t6.5 19l141 475q35 121 47 177q14 65 14 96q0 21 -6.5 30t-21.5 9q-44 0 -110 -91q-68 -92 -75 -92q-4 0 -9 6q-5 7 -5 13q0 11 25 51q26 39 61 82q64 75 110 107q49 34 91 34q33 0 51 -25t18 -71q0 -27 -9 -80q-10 -60 -25 -113z" />
    <glyph glyph-name="o" unicode="o" horiz-adv-x="883" 
d="M473 938q140 0 229 -110q89 -112 89 -289q0 -225 -150.5 -399.5t-333.5 -174.5q-135 0 -224 110t-89 281q0 234 149 409q149 173 330 173zM664 631q0 123 -47.5 190.5t-133.5 67.5q-66 0 -130.5 -46.5t-112.5 -127.5q-57 -95 -89 -206t-32 -214q0 -129 50 -203t134 -74
q137 0 249 185.5t112 427.5z" />
    <glyph glyph-name="p" unicode="p" horiz-adv-x="874" 
d="M377 1073l-37 -155q50 11 85 15q40 5 67 5q142 0 218 -82t76 -235q0 -118 -42 -237.5t-121 -221.5q-75 -96 -154.5 -145.5t-157.5 -49.5q-51 0 -94 21.5t-84 66.5l-72 -352q-2 -14 -3 -19t-1 -16q0 -47 74 -67l4 -2q22 -4 34 -11q9 -6 9 -16q0 -9 -6.5 -16t-15.5 -7
q-1 0 -76 8q-66 7 -135 7q-48 0 -94 -7q-54 -8 -58 -8q-15 0 -25 4.5t-10 12.5q0 19 45 31q22 5 50 16q61 25 84 121l2 8l262 1081q-28 -14 -47 -24q-53 -31 -64 -31q-6 0 -11 3t-5 7q0 24 30.5 45.5t110.5 53.5l45 196q6 22 13.5 29.5t29.5 7.5h27q33 0 43 -2q8 -3 8 -10
q0 -13 -4 -25zM328 860l-129 -522q-18 -72 -24 -111q-7 -36 -7 -67q0 -65 33.5 -102.5t91.5 -37.5q72 0 133 48q60 45 109 139q63 122 99 243q36 122 36 212q0 104 -56 163q-55 58 -159 58q-25 0 -57 -6q-29 -6 -70 -17z" />
    <glyph glyph-name="q" unicode="q" horiz-adv-x="852" 
d="M563 903q-68 0 -145 -56q-76 -55 -146 -157q-85 -124 -134 -263q-50 -141 -50 -251q0 -63 23.5 -95t70.5 -32q49 0 125 73q73 69 158 200q88 137 141 269t53 202q0 54 -24.5 82t-71.5 28zM698 473l-178 -727q-6 -26 -7 -39q-3 -21 -3 -41q0 -50 74 -67h2q26 -4 36 -11
q9 -6 9 -16q0 -8 -8 -16q-7 -7 -19 -7q-5 0 -71 9q-70 8 -125 8q-41 0 -102 -8q-58 -9 -70 -9q-16 0 -20 4q-5 5 -5 15t8 18q7 5 39 13l10 2q24 6 43 12q62 24 86 121l2 6l170 688q-119 -222 -233 -345q-113 -122 -199 -122q-79 0 -123.5 62t-44.5 172q0 123 62.5 272.5
t165.5 269.5q83 95 177.5 150t176.5 55q37 0 90.5 -14.5t65.5 -14.5q27 0 64 23q34 22 44 22q5 0 10 -5q4 -4 4 -13q0 -4 -12 -43q-64 -204 -119 -424z" />
    <glyph glyph-name="r" unicode="r" horiz-adv-x="694" 
d="M319 655l-77 -297q66 158 117 262t99 174q92 134 173 134q37 0 61.5 -28t24.5 -75t-24 -82q-24 -34 -56 -34q-25 0 -40 16q-15 17 -15 43q0 22 -10 35q-11 14 -23 14q-40 0 -138 -179q-50 -93 -98.5 -199.5t-109.5 -264.5q-14 -35 -33 -92q-28 -84 -82 -84q-25 0 -37 6
t-12 19l2 8q0 2 0.5 4.5t1.5 6.5t2 7l152 578q18 74 24 108q6 35 6 58q0 19 -7 28.5t-23 9.5q-41 0 -104.5 -90t-69.5 -90t-10.5 7t-4.5 14q0 11 26 52q27 43 62 85q56 66 102 99q47 32 85 32q31 0 49 -25t18 -69q0 -26 -8 -82q-7 -51 -23 -109z" />
    <glyph glyph-name="s" unicode="s" horiz-adv-x="584" 
d="M246 608l108 -139q60 -73 83.5 -126.5t23.5 -104.5q0 -109 -85 -191t-196 -82q-84 0 -162 42q-79 40 -79 83q0 64 13 100q12 37 32 37q23 0 45 -55q10 -31 20 -47q31 -56 74 -87q41 -30 88 -30q58 0 98 49q41 50 41 117q0 40 -17 82q-16 40 -57 88l-86 105
q-54 66 -77 117q-25 51 -25 102q0 104 80 187t182 83q86 0 149 -31q64 -31 64 -76q0 -50 -9.5 -74t-29.5 -24q-11 0 -84 76t-139 76q-49 0 -84 -39.5t-35 -93.5q0 -34 15 -67.5t49 -76.5z" />
    <glyph glyph-name="t" unicode="t" horiz-adv-x="473" 
d="M377 1073l-49 -172h149q6 0 10 -4q5 -5 5 -8q0 -19 -6 -28t-19 -9h-150l-110 -416l-12 -45q-56 -213 -56 -248q0 -17 8.5 -31t20.5 -14q15 0 39 27q25 26 59 80q13 19 32 57q15 33 26 33q7 0 12 -5q4 -4 4 -16q0 -15 -17 -47q-16 -32 -53 -86q-48 -73 -101 -118
q-50 -43 -89 -43q-32 0 -51 28t-19 76q0 49 20 144q21 99 58 231l111 393h-125q-6 0 -10 4q-5 5 -5 8q0 19 6 28t19 9h129l51 193q8 26 24 36q17 9 58 9q18 0 29.5 -5.5t11.5 -15.5l-2 -14q-5 -19 -8 -31z" />
    <glyph glyph-name="u" unicode="u" horiz-adv-x="1001" 
d="M274 453l-84 -246q-13 -46 -16 -59q-6 -24 -6 -37q0 -33 15.5 -49.5t43.5 -16.5q67 0 192 143q62 70 118 158t98 180q56 124 95 254q41 135 65 135h79q9 0 16 -6t7 -12q0 -3 -1 -6q-2 -5 -3 -14l-148 -492q-30 -98 -46 -169q-15 -66 -15 -99q0 -23 6.5 -33t22.5 -10
q46 0 112 91q64 91 74 91q4 0 8 -7t4 -13q0 -11 -25 -51q-28 -45 -61 -83q-56 -66 -108 -103q-51 -36 -90 -36q-34 0 -52 25q-18 26 -18 71q0 31 10 81q10 58 25 114l53 199q-64 -115 -130.5 -208.5t-125.5 -152.5q-121 -123 -225 -123q-56 0 -91 32q-34 31 -34 83
q0 34 10 75q8 41 29 101l160 475q8 25 8 27q2 14 2 18q0 20 -8 33q-7 12 -21 12q-49 0 -107 -85t-65 -85q-5 0 -10 5q-4 4 -4 12q0 12 17 44q18 34 46 72q56 76 106 112q52 38 95 38q35 0 54 -24q20 -25 20 -66q0 -56 -24 -157q-26 -104 -73 -238z" />
    <glyph glyph-name="v" unicode="v" horiz-adv-x="801" 
d="M66 293l133 418q10 32 14 49.5t4 36.5q0 16 -6 23t-18 7q-33 0 -85 -82q-54 -83 -73 -83q-4 0 -6 3q-2 4 -2 11q0 11 12 32q10 19 57 85q61 81 102 113t83 32q29 0 48 -22t19 -58q0 -28 -8 -68q-7 -36 -35 -124l-102 -328q-2 -6 -10 -35q-39 -121 -39 -164q0 -53 24 -80
q22 -28 68 -28t113 54q66 52 124 138q80 119 125 238t45 207q0 40 -23 101q-24 59 -24 91q0 39 16 61q15 23 40 23q31 0 51 -38q18 -37 18 -105q0 -112 -39 -237q-42 -130 -119 -267q-91 -162 -196.5 -250t-206.5 -88q-60 0 -96 46q-37 44 -37 120q0 39 7 80q8 46 22 88z
" />
    <glyph glyph-name="w" unicode="w" horiz-adv-x="1212" 
d="M535 360q-97 -192 -194 -290q-96 -99 -187 -99q-53 0 -85 39q-32 40 -32 107q0 33 8 83q7 42 23 93l131 418q7 21 12 46q4 20 4 38q0 17 -5 24q-4 6 -17 6q-33 0 -86 -81q-52 -82 -70 -82q-6 0 -7 4q-3 5 -3 12q0 8 14 33q8 14 49 73q59 83 104 119q46 35 89 35
q30 0 48 -23q17 -25 17 -65q0 -28 -10 -68q-9 -39 -33 -116l-102 -328l-2 -6q-47 -150 -47 -191t18.5 -63.5t50.5 -22.5q89 0 198 174t191 461l52 178q0 2 2 4q10 43 79 43q22 0 32 -6q11 -8 11 -20v-11q0 -2 -2 -8l-92 -323q-43 -157 -63 -249q-19 -91 -19 -153
q0 -48 17.5 -71t54.5 -23q45 0 113 59q65 58 129 158q67 107 105 215t38 185q0 41 -24 101q-25 57 -25 91q0 39 16 61q17 23 41 23q36 0 52 -37q16 -36 16 -114q0 -117 -48 -258q-48 -143 -136 -283q-41 -66 -88 -121.5t-91 -92.5q-94 -79 -170 -79q-54 0 -83 38.5
t-29 113.5q0 33 8 97q8 61 27 152z" />
    <glyph glyph-name="x" unicode="x" horiz-adv-x="834" 
d="M367 766l55 -186q43 81 88 151.5t83 114.5q78 90 138 90q37 0 59 -27q23 -28 23 -69q0 -60 -22.5 -94.5t-57.5 -34.5q-23 0 -39 19q-16 17 -16 44q0 10 3 25t3 20q0 8 -5.5 15.5t-12.5 7.5q-34 0 -97 -85q-66 -87 -135 -227l62 -268q26 -120 44.5 -150t49.5 -30
q22 0 45 26q20 25 31 66q3 16 6 43q3 41 18 41q4 0 10 -12q5 -15 5 -29q0 -87 -50 -166q-51 -78 -114 -78q-92 0 -148 234l-2 8l-43 180q-106 -197 -204 -313q-99 -115 -162 -115q-52 0 -77 28q-26 29 -26 85q0 52 24 83q24 32 62 32q26 0 46 -23q18 -24 18 -57
q0 -13 -4 -28q-5 -18 -5 -24q0 -7 5 -14q5 -6 10 -6q39 0 127 117q86 116 172 295l-64 235q-21 82 -42 112q-23 29 -56 29q-38 0 -67 -44q-29 -46 -29 -105q0 -25 -4 -34q-5 -11 -15 -11q-7 0 -11.5 10t-4.5 25q0 104 60 186t128 82q48 0 79 -36q31 -38 59 -138z" />
    <glyph glyph-name="y" unicode="y" horiz-adv-x="758" 
d="M197 -123q5 51 8 102q2 50 3 68q3 69 3 125q0 169 -5 306q-5 136 -15 211q-19 151 -66 151q-15 0 -36 -27q-23 -29 -44 -76q-10 -23 -16 -43q-13 -37 -29 -37q-8 0 -11 5t-3 16q0 59 67.5 156.5t128.5 97.5q78 0 116 -155q36 -156 36 -494v-145v-54q-1 -29 -2 -45
q137 216 205 373q71 163 71 260q0 41 -19 102q-20 63 -20 86q0 35 18 58.5t44 23.5q32 0 50.5 -33.5t18.5 -93.5q0 -123 -75 -308q-75 -184 -230 -437q-89 -146 -156.5 -243t-128.5 -166q-114 -128 -194 -128q-53 0 -88 31q-37 31 -37 74q0 27 15.5 44t37.5 17q38 0 77 -51
q37 -51 50 -51q44 0 116 83q73 84 110 197z" />
    <glyph glyph-name="z" unicode="z" horiz-adv-x="780" 
d="M690 774q-128 -147 -301 -334q-100 -106 -174.5 -182.5t-122.5 -124.5q52 13 72 16q32 5 53 5q43 0 107 -13q10 -2 16 -3l4 -1v0l90 -18q10 -2 34 -4q22 -2 34 -2q59 0 93 30.5t34 79.5q0 11 -5.5 28.5t-5.5 20.5q0 8 5.5 14.5t11.5 6.5q14 0 22 -20q7 -18 7 -68
q0 -96 -68.5 -170t-159.5 -74q-73 0 -189.5 59.5t-166.5 75.5q-56 -58 -95 -88q-34 -28 -53 -28q-15 0 -25.5 9.5t-10.5 22.5q0 43 36 71q37 29 107 44q76 103 139 179.5t143 164.5q152 165 314 303q-39 -19 -67 -25q-37 -8 -70 -8q-17 0 -37 3q-28 4 -53 10l-129 30
q-21 6 -39 9q-26 2 -35 2q-41 0 -70.5 -23t-42.5 -65q-5 -18 -5 -46q-1 -30 -15 -30q-7 0 -12 14q-5 15 -5 39q0 113 59.5 185.5t149.5 72.5q55 0 176 -66q119 -67 176 -67q10 0 16 1q7 1 25 3l35 45q40 53 63 71q20 15 40 15q18 0 28 -10q11 -11 11 -27q0 -29 -37.5 -63.5
t-106.5 -69.5z" />
    <glyph glyph-name="braceleft" unicode="{" horiz-adv-x="768" 
d="M391 784l49 215q51 221 131.5 284t253.5 63q14 0 26 -5q9 -6 9 -14q0 -26 -55 -33h-2q-6 0 -31 -4q-4 0 -9.5 -1.5t-10.5 -2.5q-130 -28 -177 -235q-1 -5 -4 -19l-34 -145q-54 -229 -132 -309q-79 -79 -243 -111q117 -23 167 -74q50 -53 50 -147q0 -33 -7 -72
q-9 -50 -28 -129l-33 -145l-2 -9q-20 -88 -20 -116q0 -66 30.5 -96t108.5 -41h8q1 0 2.5 -1.5l1.5 -1.5q24 -1 32 -6q7 -4 7 -12q0 -13 -11 -21t-34 -8q-132 0 -197 47.5t-65 145.5q0 28 6 69q4 36 17 84l51 218q10 38 14 66.5t4 53.5q0 68 -31 102q-32 35 -106 52
q-13 3 -33 6q-37 4 -37 25q0 35 68 49q34 5 43 8q99 26 144 80q48 57 79 190z" />
    <glyph glyph-name="bar" unicode="|" horiz-adv-x="1024" 
d="M459 -483v2048h108v-2048h-108z" />
    <glyph glyph-name="braceright" unicode="}" horiz-adv-x="768" 
d="M281 152l-52 -215q-49 -220 -131 -285q-82 -64 -254 -64q-15 0 -23.5 4.5t-8.5 14.5q0 25 57 33h6q35 6 43 8q132 30 180 243l2 11l33 145q27 117 59.5 193t73.5 119q80 80 244 110q-118 23 -167.5 75t-49.5 146q0 30 8 80t25 119l34 145q14 60 17 81q4 24 4 44
q0 65 -31 96q-30 30 -108 41q-5 0 -6 1q-4 0 -5 1q-24 1 -33 7q-8 5 -8 14q0 13 13 20t35 7q134 0 198 -48t64 -147q0 -22 -6 -60q-7 -43 -19 -90l-49 -217q-10 -46 -16 -79q-4 -24 -4 -43q0 -67 31.5 -102t105.5 -52q11 -3 32 -6q37 -4 37 -25q0 -35 -69 -49q-20 -3 -41 -8
q-99 -25 -145 -79q-46 -53 -76 -189z" />
    <glyph glyph-name="asciitilde" unicode="~" horiz-adv-x="1024" 
d="M811 1317h33q-20 -91 -52 -135q-34 -45 -83 -45q-9 0 -25 2q-11 1 -25 6l-106 33q-27 9 -35 11q-13 3 -22 3q-33 0 -52 -19t-28 -61h-33q13 88 47 132q32 42 86 42q11 0 27 -3t35 -9l110 -35q10 -4 22 -6q14 -2 19 -2q32 0 52.5 22t29.5 64z" />
    <glyph glyph-name="Agrave" horiz-adv-x="371" 
d="M307 700l-172 -247l76 -256q1 -1 1.5 -3.5t0.5 -5.5v-12q0 -10 -3 -15t-9 -5q-15 0 -72 106q-56 103 -123 199q100 92 191 189q94 100 106 100q6 0 10 -3t4 -8q0 -10 -3 -21q-3 -13 -7 -18z" />
    <glyph glyph-name="quoteleft" horiz-adv-x="410" 
d="M379 1325q8 0 13 -5q5 -7 5 -13q0 -8 -71.5 -88.5t-71.5 -145.5q0 -9 7 -16q5 -7 30 -19q35 -12 49 -32q14 -22 14 -54q0 -39 -19.5 -64.5t-49.5 -25.5q-43 0 -72 44t-29 110q0 104 74 206.5t121 102.5z" />
    <glyph glyph-name="quoteright" horiz-adv-x="410" 
d="M229 1241q0 38 20.5 62t51.5 24q43 0 70.5 -42t27.5 -109q0 -104 -72 -208q-74 -104 -120 -104q-8 0 -14 6q-7 4 -7 13t72 88q72 80 72 145q0 11 -7 18q-9 9 -28 17l-2 2q-64 31 -64 88z" />
    <glyph glyph-name="quotedblleft" horiz-adv-x="627" 
d="M344 1325q7 0 15 -5q6 -6 6 -13q0 -8 -72 -88.5t-72 -145.5q0 -15 33 -33l2 -2q35 -12 49 -32q14 -22 14 -54q0 -39 -19.5 -64.5t-49.5 -25.5q-42 0 -71 44t-29 110q0 106 73 207q74 102 121 102zM614 1327q8 0 13.5 -6.5t5.5 -13.5q0 -8 -72 -88q-72 -79 -72 -146
q0 -9 7 -16q6 -6 30 -19q36 -12 50 -32q14 -22 14 -54q0 -38 -20 -64t-50 -26q-43 0 -71 43q-29 44 -29 111q0 104 73.5 207.5t120.5 103.5z" />
    <glyph glyph-name="quotedblright" horiz-adv-x="627" 
d="M211 1241q0 37 20 61.5t50 24.5q44 0 72 -42q28 -41 28 -109q0 -108 -73 -209q-73 -103 -122 -103q-7 0 -12.5 5.5t-5.5 13.5q0 9 72 88q71 80 71 145q0 11 -7 18q-9 9 -28 17l-2 2q-63 32 -63 88zM481 1239q0 38 20 64q20 24 50 24q44 0 72 -42q28 -41 28 -109
q0 -108 -73 -209q-73 -103 -121 -103q-8 0 -13.5 5.5t-5.5 13.5q0 10 72 89q72 80 72 144q0 11 -8 19q-6 6 -29 16q-37 16 -50.5 36.5t-13.5 51.5z" />
    <glyph glyph-name="_extra1" horiz-adv-x="631" 
d="M295 1327h203q13 0 30 -14q15 -13 15 -27q0 -9 -3 -27q-2 -12 -8 -38l-364 -1540q-10 -40 -30.5 -58t-55.5 -18h-184q-6 0 -11 8q-4 7 -4 20t6 21t15 8h114q25 0 39.5 17t24.5 59l346 1464l2 8t1 8q1 5 1 25q0 13 -12.5 20t-36.5 7h-90q-8 0 -13.5 8t-5.5 20q0 13 6.5 21
t14.5 8z" />
    <glyph glyph-name="endash" horiz-adv-x="1024" 
d="M-74 428l21 43q4 12 14 20q7 7 19 7h987q9 0 13 -3q5 -5 5 -10q0 -2 -1 -5q-2 -6 -3 -7l-20 -43q-5 -11 -14 -20q-8 -7 -19 -7h-987q-10 0 -14.5 3.5t-4.5 9.5v0l2 5q1 2 1 4t1 3z" />
    <glyph glyph-name="emdash" horiz-adv-x="1331" 
d="M-82 428l21 43q4 12 14 20q7 7 18 7h1332q9 0 13 -3q5 -5 5 -10q0 -2 -1 -5q-2 -6 -3 -7l-21 -43q-3 -10 -13 -20q-8 -7 -19 -7h-1332q-8 0 -12 3.5t-4 9.5q0 5 1 7q0 4 1 5z" />
    <glyph glyph-name="_extra2" horiz-adv-x="584" 
d="M246 608l108 -139q60 -73 83.5 -126.5t23.5 -104.5q0 -109 -85 -191t-196 -82q-84 0 -162 42q-79 40 -79 83q0 64 13 100q12 37 32 37q23 0 45 -55q10 -31 20 -47q31 -56 74 -87q41 -30 88 -30q58 0 98 49q41 50 41 117q0 40 -17 82q-16 40 -57 88l-86 105
q-54 66 -77 117q-25 51 -25 102q0 104 80 187t182 83q86 0 149 -31q64 -31 64 -76q0 -50 -9.5 -74t-29.5 -24q-11 0 -84 76t-139 76q-49 0 -84 -39.5t-35 -93.5q0 -34 15 -67.5t49 -76.5z" />
    <glyph glyph-name="trademark" horiz-adv-x="1683" 
d="M250 1114l10 176h438l11 -176h-25q-7 79 -40 115.5t-99 36.5h-23v-426q0 -23 14 -40q13 -16 33 -16h33v-26h-246v26h33q20 0 32.5 15.5t12.5 40.5v426h-22q-64 0 -97 -36q-34 -38 -41 -116h-24zM795 1264v26h176l143 -407l154 407h168v-24l-31 -2q-22 0 -34 -14
q-13 -13 -13 -40v-370q0 -26 13 -40q13 -16 34 -16h31v-26h-234v26h33q21 0 34 16t13 40v399l-182 -483h-13l-174 483v-399q0 -23 14 -40q13 -16 34 -16h32v-26h-198v24l32 2q22 0 34.5 14.5t12.5 39.5v370q0 23 -14 40q-13 16 -35 16h-30z" />
    <glyph glyph-name="Atilde" horiz-adv-x="371" 
d="M268 444q-99 -92 -190 -188q-94 -100 -107 -100q-6 0 -10 1.5t-4 6.5q0 12 4 24q5 15 6 17l172 248l-76 256q-1 2 -1 7q-1 2 -1 11q0 12 4 17q5 6 11 6q12 0 68.5 -105t123.5 -201z" />
    <glyph glyph-name="ydieresis" unicode="&#xa1;" horiz-adv-x="1025" 
d="M525 576l235 404q8 14 22 37.5t23.5 40t18.5 36.5q34 73 37 87q1 4 1 8q0 30 -47 38q-49 8 -49 30q0 3 1 6q2 11 11.5 17.5t25.5 6.5q4 0 50 -6q48 -6 93 -6q35 0 78 5l41 5v0q13 0 19 -6q3 -5 3 -11q0 -4 -1 -9q-4 -18 -13 -25q-10 -9 -38 -10q-3 -1 -6 -1.5t-5.5 -1
t-4.5 -1.5q-3 0 -6 -0.5t-5 -1.5q-46 -13 -87 -63q-11 -14 -34 -53.5t-41 -69.5l-449 -765q-34 -59 -67 -109q-41 -60 -65 -86q-31 -38 -73 -64q-47 -27 -85 -27q-47 0 -69 24q-25 25 -25 57q0 37 35 66q24 20 66 20q22 0 41.5 -7t37.5 -7q21 0 43 13q20 11 44 37
q18 22 30 46q19 34 23 56q5 22 5 49q1 28 -5 61l-121 739q-4 23 -27 63q-17 26 -34 33q-8 3 -35 6q-25 1 -25 16v4q3 14 16 24q14 9 30 9v0l26 -2q102 -8 189 -8q53 0 97 4l12 2v0q14 0 18 -6q3 -5 3 -11q0 -4 -1 -9q-6 -26 -55 -36.5t-55 -39.5q-1 -7 -1 -17q-1 -10 1 -24
q1 -11 6 -32.5t5 -23.5l75 -507q1 -17 7 -32q6 -14 13 -14q8 0 22 12q16 14 25 30z" />
    <glyph glyph-name="Ydieresis" unicode="&#xa2;" horiz-adv-x="758" 
d="M197 -123q5 51 8 102q2 50 3 68q3 69 3 125q0 169 -5 306q-5 136 -15 211q-19 151 -66 151q-15 0 -36 -27q-23 -29 -44 -76q-10 -23 -16 -43q-13 -37 -29 -37q-8 0 -11 5t-3 16q0 59 67.5 156.5t128.5 97.5q78 0 116 -155q36 -156 36 -494v-145v-54q-1 -29 -2 -45
q137 216 205 373q71 163 71 260q0 41 -19 102q-20 63 -20 86q0 35 18 58.5t44 23.5q32 0 50.5 -33.5t18.5 -93.5q0 -123 -75 -308q-75 -184 -230 -437q-89 -146 -156.5 -243t-128.5 -166q-114 -128 -194 -128q-53 0 -88 31q-37 31 -37 74q0 27 15.5 44t37.5 17q38 0 77 -51
q37 -51 50 -51q44 0 116 83q73 84 110 197z" />
    <glyph glyph-name="lozenge" unicode="&#xa3;" horiz-adv-x="627" 
d="M-49 66q0 37 19.5 62.5t49.5 25.5q45 0 73 -43t28 -111q0 -105 -72 -207q-74 -102 -121 -102q-8 0 -14 6q-6 4 -6 12q0 9 71.5 89t71.5 145q0 15 -33 32l-2 2q-37 16 -51 38q-14 20 -14 51zM221 66q0 37 19.5 62.5t50.5 25.5q44 0 72 -42.5t28 -109.5q0 -107 -72.5 -209
t-119.5 -102q-8 0 -14 6q-7 4 -7 12q0 9 72 88.5t72 145.5q0 10 -8 18q-9 9 -29 16q-37 16 -50.5 36.5t-13.5 52.5z" />
    <glyph glyph-name="caron" unicode="&#xa4;" horiz-adv-x="1241" 
d="M90 1350l66 65l204 -207q60 48 123.5 70t137.5 22q71 0 140 -23q67 -23 122 -69l204 207l66 -65l-207 -205q45 -59 67.5 -124t22.5 -136t-22 -134q-23 -65 -68 -124l207 -207l-66 -66l-204 207q-56 -44 -123 -67t-139 -23q-74 0 -137 22q-66 23 -124 68l-204 -207l-66 66
l207 207q-43 56 -67 124q-23 66 -23 134q0 69 23 136q24 68 67 124zM623 1208q-133 0 -227.5 -94.5t-94.5 -226.5q0 -135 94 -229q95 -95 228 -95t228 95t95 229t-94 227.5t-229 93.5z" />
    <glyph glyph-name="brokenbar" unicode="&#xa6;" horiz-adv-x="1024" 
d="M459 -483v2048h108v-2048h-108z" />
    <glyph glyph-name="section" unicode="&#xa7;" 
d="M432 852l82 -127q66 -101 92 -173q25 -69 25 -140q0 -95 -58 -160.5t-139 -65.5q-15 0 -32.5 3t-36.5 10q56 -79 84 -153q28 -72 28 -142q0 -111 -67.5 -181.5t-169.5 -70.5q-93 0 -154 61t-61 152q0 44 23 76q23 30 54 30q30 0 50 -23t20 -61q0 -28 -28.5 -68.5
t-28.5 -58.5q0 -28 35 -48.5t83 -20.5q69 0 115 52q47 52 47 126q0 46 -23 103q-22 55 -98 173l-81 127q-65 101 -87 163q-24 62 -24 122q0 109 55 179q56 69 142 69q8 0 24 -3q21 -4 43 -9q-56 78 -85 147q-28 66 -28 129q0 118 67 188t179 70q80 0 135.5 -56t55.5 -136
q0 -49 -20 -78t-54 -29q-30 0 -50 21q-20 22 -20 53q0 34 25 71q24 38 24 50q0 24 -30.5 44.5t-69.5 20.5q-72 0 -117 -46t-45 -124q0 -46 21 -97q20 -49 98 -169zM547 383q0 40 -15 83q-15 44 -57 120q-62 113 -98 145q-37 33 -86 33q-54 0 -90 -45q-37 -44 -37 -111
q0 -40 17 -89q18 -52 52 -113q56 -101 97 -138q41 -39 90 -39q53 0 90 45q37 43 37 109z" />
    <glyph glyph-name="guilsinglright" unicode="&#xa8;" horiz-adv-x="922" 
d="M946 1219l-51 -191q-8 -26 -14.5 -34.5t-18.5 -8.5q-10 0 -17 10t-7 25q0 24 1 37q1 6 1 12v6q0 85 -46 122q-47 38 -147 38q-50 0 -180 -8h-6l-115 -518h164q62 0 97 11q32 10 59 40q25 28 47 74q22 49 41 49q6 0 11 -8t5 -19q0 -4 -25 -85q-28 -89 -47 -171
q-6 -24 -16 -84q-16 -88 -41 -88q-10 0 -18 9q-7 8 -7 24q0 15 1 26t1 23v10q0 94 -25 115.5t-95 21.5h-170l-99 -389q-13 -58 -19 -93q-5 -30 -5 -44q0 -43 21 -63q20 -19 69 -19h151q71 0 124 22q54 23 96 66q40 43 65 98q26 56 43 56q7 0 15 -8q6 -7 6 -19l-2 -12
q-1 -7 -5 -21l-43 -157q-2 -9 -6 -23q-16 -61 -37 -61v0l-12 2q-123 14 -297 14q-247 0 -438 -12l-23 -2v0q-19 0 -26.5 6t-7.5 20q0 15 10 22q11 8 43 9q8 0 26 2q13 2 23 6q24 9 39 35q15 28 35 109l213 884q4 20 9 50q3 26 3 47q0 50 -57 59q-22 1 -30 8q-7 4 -7 17
q0 12 8 20q8 6 25 6h9q3 0 6 -0.5t5 -1.5q1 0 23 -2q187 -8 370 -8q127 0 242 6l20 2v0q27 0 35 -5q6 -6 6 -26v0l-2 -13q-2 -12 -6 -25z" />
    <glyph glyph-name="copyright" unicode="&#xa9;" horiz-adv-x="1683" 
d="M844 1327q133 0 258.5 -52t220.5 -147q94 -94 147.5 -222.5t53.5 -260.5q0 -136 -52 -261t-149 -222q-95 -95 -221.5 -148t-259.5 -53q-137 0 -260 52q-126 53 -222 149q-95 97 -148 222q-52 123 -52 261q0 119 40 229q39 108 113 201q98 119 237 186q140 66 294 66z
M844 1253q-250 0 -425 -178q-177 -178 -177 -430q0 -251 176 -430q175 -178 424 -178q248 0 425 179.5t177 428.5q0 251 -176.5 429.5t-423.5 178.5zM1114 1051h31v-303h-37q-30 131 -101 199.5t-176 68.5q-122 0 -184.5 -93.5t-62.5 -275.5q0 -183 68 -278t200 -95
q82 0 152.5 44t123.5 128l33 -24q-58 -101 -141 -151t-195 -50q-159 0 -273 120t-114 288q0 180 113 305q113 123 276 123q73 0 144 -34q69 -34 80 -34q27 0 43 16t20 46z" />
    <glyph glyph-name="guillemotleft" unicode="&#xab;" horiz-adv-x="602" 
d="M307 700l-172 -247l76 -256q1 -1 1.5 -3.5t0.5 -5.5v-12q0 -10 -3 -15t-9 -5q-15 0 -72 106q-56 103 -123 199q100 92 191 189q94 100 106 100q6 0 10 -3t4 -8q0 -10 -3 -21q-3 -13 -7 -18zM526 700l-172 -247l74 -256q1 -1 1 -2q0 -2 1 -5l2 -12q0 -11 -3.5 -16.5
t-10.5 -5.5q-11 0 -70 105q-58 104 -125 200q90 83 192 188q96 101 107 101q6 0 9.5 -3t3.5 -8q0 -9 -3 -21t-6 -18z" />
    <glyph glyph-name="logicalnot" unicode="&#xac;" horiz-adv-x="1280" 
d="M125 797v98h1028v-428h-96v330h-932z" />
    <glyph glyph-name="softhyphen" unicode="&#xad;" horiz-adv-x="1024" 
d="M0 -483v100h1024v-100h-1024z" />
    <glyph glyph-name="registered" unicode="&#xae;" horiz-adv-x="1683" 
d="M844 1327q117 0 228 -40t204 -116q116 -95 182 -234q66 -141 66 -294q0 -119 -40 -227q-39 -108 -118 -205q-97 -119 -234 -184q-135 -64 -292 -64q-118 0 -228 39q-109 39 -200 113q-123 98 -187.5 236t-64.5 294q0 119 40 229q39 108 113 201q98 119 237 186
q140 66 294 66zM844 1253q-250 0 -425 -178q-177 -178 -177 -430q0 -251 176 -430q175 -178 424 -178t425.5 179t176.5 429q0 251 -176 430q-175 178 -424 178zM477 1008v39h385q143 0 225 -52t82 -143q0 -73 -66 -120q-67 -46 -216 -75q96 -32 141 -77t68 -129
q7 -35 12 -62q12 -86 57 -86q35 0 52.5 32t17.5 97h39v-26q0 -74 -40 -115q-40 -43 -112 -43q-44 0 -77 18t-48 49q-7 19 -12 44q-4 21 -4 73q0 1 -2 19q-1 46 -8 69q-20 65 -71.5 97t-133.5 32q-10 0 -19 -1t-20 -1v-244q0 -54 27 -75q28 -22 100 -23v-39h-377v39
q76 3 102.5 24t26.5 74v504q0 54 -27 76q-28 20 -102 25zM727 940v-258q17 0 55 -2h9q117 0 180 44.5t63 127.5q0 73 -53 117q-52 43 -147 43q-53 0 -80 -18.5t-27 -53.5z" />
    <glyph glyph-name="integral" unicode="&#xaf;" horiz-adv-x="744" 
d="M449 1157l-222 -952q-3 -15 -4 -19q-12 -52 -12 -73q0 -28 12 -43t39 -21q3 0 8.5 -0.5t9.5 -1.5l17 -2v0q29 0 37 -5.5t8 -19.5q0 -8 -8 -16q-10 -8 -21 -8v0l-14 2q-80 10 -176 10q-60 0 -123 -6t-68 -6q-14 0 -19 5t-5 17q0 23 45 27q25 3 37 6q36 7 53 27.5t27 62.5
l233 989q4 16 5 25t1 33q0 40 -55 53h-2q-22 4 -30 11q-7 6 -7 16q0 11 9.5 17.5t25.5 6.5v0l24 -2q96 -8 175 -8q32 0 63 4t41 4q12 0 19 -5q6 -4 6 -15q0 -15 -56 -27t-73 -86z" />
    <glyph glyph-name="degree" unicode="&#xb0;" horiz-adv-x="674" 
d="M338 1452q115 0 196 -81q80 -83 80 -197t-81 -197q-82 -82 -197 -82q-117 0 -197 81q-80 82 -80 198t81.5 197t197.5 81zM338 1382q-86 0 -147.5 -61.5t-61.5 -146.5q0 -87 61 -147q62 -60 148 -60q87 0 147 60t60 147q0 86 -60.5 147t-146.5 61z" />
    <glyph glyph-name="plusminus" unicode="&#xb1;" horiz-adv-x="1280" 
d="M125 129v100h1030v-100h-1030zM690 473h-100v293h-465v98h465v295h100v-295h465v-98h-465v-293z" />
    <glyph glyph-name="germandbls" unicode="&#xb2;" horiz-adv-x="524" 
d="M449 1157l-222 -952q-3 -15 -4 -19q-12 -52 -12 -73q0 -28 12 -43t39 -21q3 0 8.5 -0.5t9.5 -1.5l17 -2v0q29 0 37 -5.5t8 -19.5q0 -8 -8 -16q-10 -8 -21 -8v0l-14 2q-80 10 -176 10q-60 0 -123 -6t-68 -6q-14 0 -19 5t-5 17q0 23 45 27q25 3 37 6q36 7 53 27.5t27 62.5
l233 989q4 16 5 25t1 33q0 40 -55 53h-2q-22 4 -30 11q-7 6 -7 16q0 11 9.5 17.5t25.5 6.5v0l24 -2q96 -8 175 -8q32 0 63 4t41 4q12 0 19 -5q6 -4 6 -15q0 -15 -56 -27t-73 -86zM428 1616q31 0 54 -26q21 -27 21 -68q0 -40 -22 -68t-53 -28t-53 28q-23 29 -23 68t23 66.5
t53 27.5z" />
    <glyph glyph-name="threesuperior" unicode="&#xb3;" horiz-adv-x="506" 
d="M319 1167q0 50 30 91.5t67 41.5q26 0 42.5 -20t16.5 -53q0 -59 -28.5 -102.5t-65.5 -43.5q-28 0 -45 23t-17 63zM324 655l-2 -6l-146 -454q-6 -22 -13 -51q-5 -22 -5 -29q0 -20 8 -31.5t20 -11.5q25 0 54 28t57 76q6 10 15.5 27t23.5 43q18 37 24 37q7 0 11 -4t4 -11
q0 -16 -21 -58q-26 -48 -61 -101q-41 -67 -91 -107q-47 -37 -91 -37q-42 0 -62 26t-20 77q0 43 18 112q17 71 66 209l84 246l4 10q39 119 39 154q0 26 -6 35q-8 8 -23 8q-37 0 -94 -83q-59 -83 -66 -83q-4 0 -7 5t-3 13q0 10 20 45q22 38 50 72q50 65 98 99q47 32 86 32
q35 0 55.5 -23t20.5 -63q0 -54 -47 -201z" />
    <glyph glyph-name="acute.0" unicode="&#xb4;" horiz-adv-x="410" 
d="M229 1241q0 38 20.5 62t51.5 24q43 0 70.5 -42t27.5 -109q0 -104 -72 -208q-74 -104 -120 -104q-8 0 -14 6q-7 4 -7 13t72 88q72 80 72 145q0 11 -7 18q-9 9 -28 17l-2 2q-64 31 -64 88z" />
    <glyph glyph-name="paragraph" unicode="&#xb6;" horiz-adv-x="1024" 
d="M477 1290h463v-71h-127v-1219h-82v1219h-186v-1219h-84v594q-171 6 -274 100.5t-103 245.5q0 157 107.5 253.5t285.5 96.5z" />
    <glyph glyph-name="bullet" unicode="&#xb7;" horiz-adv-x="1208" 
d="M307 762q0 124 87 209q88 86 210 86q121 0 209 -86q86 -88 86 -209q0 -122 -87.5 -209.5t-209.5 -87.5q-123 0 -209 87q-86 88 -86 210z" />
    <glyph glyph-name="fi" unicode="&#xb8;" horiz-adv-x="838" 
d="M143 436q205 9 324 103q119 95 119 241q0 58 -28 92q-29 35 -75 35q-98 0 -193 -129q-94 -129 -147 -342zM139 387q-1 -10 -2 -20.5t-1 -17.5q0 -8 -1 -16q-2 -30 -2 -34q0 -110 49 -174t131 -64q55 0 109.5 32t105.5 93q19 24 35 54q17 32 31 32q6 0 9 -5q3 -4 3 -15
q0 -18 -16 -49q-15 -29 -47 -72q-66 -85 -135 -129q-70 -43 -142 -43q-113 0 -188 100q-76 98 -76 254q0 113 44 228t126 215q77 92 160 141t166 49q91 0 149 -57.5t58 -147.5q0 -152 -144.5 -242.5t-421.5 -111.5z" />
    <glyph glyph-name="guilsinglleft" unicode="&#xb9;" horiz-adv-x="1973" 
d="M465 1257l336 -976q89 323 147 576q58 251 58 296q0 31 -14 50q-15 17 -48 24q-1 1 -4 1q-4 0 -8 1q-43 7 -43 31q0 11 11 19.5t24 8.5v0l18 -2q63 -6 125 -6q43 0 91 6t52 6q13 0 23 -5q8 -6 8 -15q0 -19 -35 -27h-2h-2q-27 -5 -39 -10q-35 -14 -54 -43
q-20 -32 -48 -137l-111 -414q-53 -198 -106 -433q-51 -226 -70 -226q-8 0 -13 5q-4 4 -9 21q0 2 -1 3t-3 7l-394 1133l-47 -184q-27 -102 -62.5 -246t-49.5 -202t-29 -127q-47 -211 -47 -265q0 -57 67 -70h2q29 -5 35 -11q8 -8 8 -19t-10 -18t-26 -7q-11 0 -50.5 4t-85.5 4
q-62 0 -135 -12q-17 -4 -24 -4q-9 0 -16 7t-7 15q0 23 42.5 33t62.5 21q22 12 49 81.5t61 202.5q4 14 9 32t8 30l192 731q4 13 5 25q1 9 1 26q0 43 -55 47q-25 3 -33 9t-8 18q0 13 7 19q8 5 24 5q13 0 46 -4t64 -4q24 0 31 1q11 0 16 1h21q19 0 29 -7t16 -26z" />
    <glyph glyph-name="guillemotright" unicode="&#xbb;" horiz-adv-x="602" 
d="M276 444q-61 -57 -104.5 -99.5t-86.5 -87.5q-96 -101 -108 -101q-5 0 -9 2q-3 2 -3 6q0 12 4 24q5 15 6 17l172 248l-75 256q-1 2 -1 7q-1 2 -1 11q0 12 4 17q3 6 10 6q12 0 69 -105t123 -201zM496 444q-100 -90 -192 -187q-96 -101 -107 -101q-7 0 -11 1.5t-4 6.5
q0 12 4 23q3 13 7 18l172 248l-74 256q-3 8 -3.5 11t-0.5 7q0 9 4 16t10 7q15 0 72 -106q55 -102 123 -200z" />
    <glyph glyph-name="divide" unicode="&#xbc;" horiz-adv-x="1280" 
d="M1153 596h-1028v98h1028v-98zM639 1104q46 0 77 -31q32 -32 32 -76q0 -43 -31.5 -74.5t-77.5 -31.5q-45 0 -76 30.5t-31 75.5q0 44 31.5 75.5t75.5 31.5zM639 399q43 0 77 -32q32 -32 32 -76q0 -43 -32 -75t-77 -32t-76 30.5t-31 76.5q0 44 32 76t75 32z" />
    <glyph glyph-name="dieresis" unicode="&#xbd;" horiz-adv-x="1280" 
d="M641 717l377 377l69 -70l-376 -377l376 -377l-69 -69l-377 377l-377 -377l-69 69l376 377l-376 377l69 70z" />
    <glyph glyph-name="ellipsis" unicode="&#xbe;" horiz-adv-x="2048" 
d="M143 57q0 48 24 79q23 32 56 32q27 0 42 -21t15 -59q0 -42 -24 -77q-24 -34 -56 -34q-26 0 -41 22q-16 20 -16 58zM825 57q0 48 24 79q23 32 56 32q27 0 42 -21t15 -59q0 -42 -24 -77q-24 -34 -56 -34q-26 0 -41 22q-16 20 -16 58zM1509 57q0 48 24 79q23 32 56 32
q27 0 42 -21t15 -59q0 -42 -24 -77q-24 -34 -56 -34q-26 0 -41 22q-16 20 -16 58z" />
    <glyph glyph-name="ordfeminine" unicode="&#xbf;" horiz-adv-x="506" 
d="M51 1160q0 33 26.5 59.5t59.5 26.5q34 0 62 -26q26 -26 26 -60q0 -39 -25.5 -64.5t-62.5 -25.5q-34 0 -60 26.5t-26 63.5zM393 1158q0 33 26 60.5t60 27.5t62 -26q26 -26 26 -60q0 -39 -25.5 -64.5t-62.5 -25.5q-34 0 -60 26t-26 62zM324 655l-2 -6l-146 -454
q-6 -22 -13 -51q-5 -22 -5 -29q0 -20 8 -31.5t20 -11.5q25 0 54 28t57 76q6 10 15.5 27t23.5 43q18 37 24 37q7 0 11 -4t4 -11q0 -16 -21 -58q-26 -48 -61 -101q-41 -67 -91 -107q-47 -37 -91 -37q-42 0 -62 26t-20 77q0 43 18 112q17 71 66 209l84 246l4 10q39 119 39 154
q0 26 -6 35q-8 8 -23 8q-37 0 -94 -83q-59 -83 -66 -83q-4 0 -7 5t-3 13q0 10 20 45q22 38 50 72q50 65 98 99q47 32 86 32q35 0 55.5 -23t20.5 -63q0 -54 -47 -201z" />
    <glyph glyph-name="Adieresis" unicode="&#xc0;" horiz-adv-x="936" 
d="M610 1274l187 -1141q9 -60 49 -79q39 -21 39 -34q0 -10 -10 -17t-25 -7q-5 0 -48 5t-71 5t-84 -6q-55 -6 -80 -6q-20 0 -28.5 5.5t-8.5 18.5q0 30 61.5 42t61.5 65v16q0 2 -1 9.5t-3 19.5l-49 322h-367l-106 -246q-13 -36 -17 -50q-6 -22 -6 -42q0 -36 17 -59
q16 -21 51 -29q6 0 9 -1q2 0 6 -1t10 -3h2q41 -8 41 -32q0 -16 -6.5 -22.5t-22.5 -6.5v0l-27 2q-73 6 -139 6q-74 0 -147 -10l-23 -2v0q-9 0 -13.5 7t-4.5 15q0 28 53 54q20 8 31 14q30 17 60 57q31 44 71 127l485 1010l2 6q11 29 29 29q16 0 20 -33q2 -6 2 -8zM592 553
l-78 530l-254 -530h332z" />
    <glyph glyph-name="Adieresis" unicode="&#x410;" horiz-adv-x="936" 
d="M610 1274l187 -1141q9 -60 49 -79q39 -21 39 -34q0 -10 -10 -17t-25 -7q-5 0 -48 5t-71 5t-84 -6q-55 -6 -80 -6q-20 0 -28.5 5.5t-8.5 18.5q0 30 61.5 42t61.5 65v16q0 2 -1 9.5t-3 19.5l-49 322h-367l-106 -246q-13 -36 -17 -50q-6 -22 -6 -42q0 -36 17 -59
q16 -21 51 -29q6 0 9 -1q2 0 6 -1t10 -3h2q41 -8 41 -32q0 -16 -6.5 -22.5t-22.5 -6.5v0l-27 2q-73 6 -139 6q-74 0 -147 -10l-23 -2v0q-9 0 -13.5 7t-4.5 15q0 28 53 54q20 8 31 14q30 17 60 57q31 44 71 127l485 1010l2 6q11 29 29 29q16 0 20 -33q2 -6 2 -8zM592 553
l-78 530l-254 -530h332z" />
    <glyph glyph-name="Aring" unicode="&#xc1;" horiz-adv-x="983" 
d="M473 1231q-23 -57 -34.5 -98t-26.5 -105l-54 -227q-5 -21 -8 -45q-2 -14 -2 -17q0 -8 14 -13q15 -5 39 -5q145 0 239 -31q92 -31 145 -88q73 -79 73 -215q0 -186 -113.5 -288.5t-318.5 -102.5q-85 0 -182 7t-127 7q-75 0 -156 -12l-24 -2v0q-12 0 -19.5 6t-7.5 14
q0 10 4 15q3 6 8 8l45 14q39 13 68.5 60t46.5 118l217 859q2 7 9 50q3 27 3 46q0 50 -57 59h-4q-33 8 -33 27q0 13 8 18.5t25 5.5q11 0 34 -4h3q2 1 4 0q2 0 20 -2q55 -4 100 -4h240q40 0 114 2q72 2 109 4h21q25 0 32 -4t7 -18v-8q0 -1 -0.5 -3t-1.5 -4l-48 -223
q-4 -21 -12 -32t-20 -11q-13 0 -19 14t-6 39q0 14 1 22t1 15q0 85 -45 122q-47 38 -147 38q-39 0 -89 -2q-37 -1 -75 -6zM229 262q-24 -106 -24 -127q0 -51 29.5 -72.5t103.5 -21.5q183 0 282 101t99 284q0 122 -74 187q-39 33 -90 49t-93 16q-54 0 -116 -6q-18 -2 -22 -2z
" />
    <glyph glyph-name="Aring" unicode="&#x411;" horiz-adv-x="983" 
d="M473 1231q-23 -57 -34.5 -98t-26.5 -105l-54 -227q-5 -21 -8 -45q-2 -14 -2 -17q0 -8 14 -13q15 -5 39 -5q145 0 239 -31q92 -31 145 -88q73 -79 73 -215q0 -186 -113.5 -288.5t-318.5 -102.5q-85 0 -182 7t-127 7q-75 0 -156 -12l-24 -2v0q-12 0 -19.5 6t-7.5 14
q0 10 4 15q3 6 8 8l45 14q39 13 68.5 60t46.5 118l217 859q2 7 9 50q3 27 3 46q0 50 -57 59h-4q-33 8 -33 27q0 13 8 18.5t25 5.5q11 0 34 -4h3q2 1 4 0q2 0 20 -2q55 -4 100 -4h240q40 0 114 2q72 2 109 4h21q25 0 32 -4t7 -18v-8q0 -1 -0.5 -3t-1.5 -4l-48 -223
q-4 -21 -12 -32t-20 -11q-13 0 -19 14t-6 39q0 14 1 22t1 15q0 85 -45 122q-47 38 -147 38q-39 0 -89 -2q-37 -1 -75 -6zM229 262q-24 -106 -24 -127q0 -51 29.5 -72.5t103.5 -21.5q183 0 282 101t99 284q0 122 -74 187q-39 33 -90 49t-93 16q-54 0 -116 -6q-18 -2 -22 -2z
" />
    <glyph glyph-name="Ccedilla" unicode="&#xc2;" horiz-adv-x="983" 
d="M401 985l-43 -184q-5 -26 -5.5 -32t-2.5 -13q-2 -14 -2 -17q0 -8 14 -13q15 -5 39 -5q187 0 291.5 92.5t104.5 255.5q0 94 -52 134t-176 40q-14 0 -29 -1q-7 0 -25.5 -2t-35.5 -3q-25 -65 -45 -131q-20 -64 -33 -121zM571 700q140 -18 213.5 -98t73.5 -215
q0 -186 -113 -288q-112 -103 -319 -103q-85 0 -182 7t-127 7q-75 0 -156 -12l-24 -2v0q-12 0 -19.5 6t-7.5 14q0 10 4 15q3 6 8 8l45 14q77 26 111 162q1 7 4 16l225 889q7 33 8 43q2 26 2 33q0 24 -15.5 36.5t-45.5 12.5h-14q-21 0 -29 5t-8 16t10.5 18.5t30.5 7.5h16
q4 0 8 -0.5t6 -1.5h9q83 -6 149 -6q13 0 95 2q80 2 85 2q166 0 241 -57.5t75 -183.5q0 -131 -99 -229q-100 -97 -260 -118zM324 670l-95 -408q-1 -9 -6 -24q-18 -76 -18 -103q0 -51 29.5 -72.5t103.5 -21.5q183 0 282 101t99 284q0 122 -74 187q-76 65 -215 65q-22 0 -84 -6
q-18 -2 -22 -2z" />
    <glyph glyph-name="Ccedilla" unicode="&#x412;" horiz-adv-x="983" 
d="M401 985l-43 -184q-5 -26 -5.5 -32t-2.5 -13q-2 -14 -2 -17q0 -8 14 -13q15 -5 39 -5q187 0 291.5 92.5t104.5 255.5q0 94 -52 134t-176 40q-14 0 -29 -1q-7 0 -25.5 -2t-35.5 -3q-25 -65 -45 -131q-20 -64 -33 -121zM571 700q140 -18 213.5 -98t73.5 -215
q0 -186 -113 -288q-112 -103 -319 -103q-85 0 -182 7t-127 7q-75 0 -156 -12l-24 -2v0q-12 0 -19.5 6t-7.5 14q0 10 4 15q3 6 8 8l45 14q77 26 111 162q1 7 4 16l225 889q7 33 8 43q2 26 2 33q0 24 -15.5 36.5t-45.5 12.5h-14q-21 0 -29 5t-8 16t10.5 18.5t30.5 7.5h16
q4 0 8 -0.5t6 -1.5h9q83 -6 149 -6q13 0 95 2q80 2 85 2q166 0 241 -57.5t75 -183.5q0 -131 -99 -229q-100 -97 -260 -118zM324 670l-95 -408q-1 -9 -6 -24q-18 -76 -18 -103q0 -51 29.5 -72.5t103.5 -21.5q183 0 282 101t99 284q0 122 -74 187q-76 65 -215 65q-22 0 -84 -6
q-18 -2 -22 -2z" />
    <glyph glyph-name="Eacute" unicode="&#xc3;" horiz-adv-x="850" 
d="M461 1231l-246 -1026q0 -1 -1 -6l-3 -15q-10 -43 -10 -67q0 -40 21 -55t73 -15q32 0 39.5 -5.5t7.5 -18.5t-7 -19t-24 -6q-6 0 -74 6q-67 6 -126 6q-41 0 -107 -8t-78 -8q-16 0 -23 6q-7 4 -7 18q0 23 45 27q38 5 59 12q23 9 40 36q15 27 36 110l211 887q4 20 9 50
q3 27 3 46q0 50 -57 59h-4q-33 8 -33 27q0 13 8 18.5t25 5.5q11 0 34 -4h3q2 1 4 0q2 0 20 -2q55 -4 100 -4h240q40 0 114 2q72 2 109 4h21q25 0 32 -4t7 -18v-8q0 -1 -0.5 -3t-1.5 -4l-48 -223q-4 -21 -12 -32t-20 -11q-13 0 -19 14t-6 39q0 14 1 22t1 15q0 85 -45 122
q-47 38 -147 38q-39 0 -89 -2q-37 -1 -75 -6z" />
    <glyph glyph-name="Eacute" unicode="&#x413;" horiz-adv-x="850" 
d="M461 1231l-246 -1026q0 -1 -1 -6l-3 -15q-10 -43 -10 -67q0 -40 21 -55t73 -15q32 0 39.5 -5.5t7.5 -18.5t-7 -19t-24 -6q-6 0 -74 6q-67 6 -126 6q-41 0 -107 -8t-78 -8q-16 0 -23 6q-7 4 -7 18q0 23 45 27q38 5 59 12q23 9 40 36q15 27 36 110l211 887q4 20 9 50
q3 27 3 46q0 50 -57 59h-4q-33 8 -33 27q0 13 8 18.5t25 5.5q11 0 34 -4h3q2 1 4 0q2 0 20 -2q55 -4 100 -4h240q40 0 114 2q72 2 109 4h21q25 0 32 -4t7 -18v-8q0 -1 -0.5 -3t-1.5 -4l-48 -223q-4 -21 -12 -32t-20 -11q-13 0 -19 14t-6 39q0 14 1 22t1 15q0 85 -45 122
q-47 38 -147 38q-39 0 -89 -2q-37 -1 -75 -6z" />
    <glyph glyph-name="Ntilde" unicode="&#xc4;" horiz-adv-x="1202" 
d="M1087 1280q43 0 100 5l52 5v0q12 0 17 -5q4 -4 4 -17t-7 -20q-6 -6 -32 -9q-2 0 -14 -2l-15 -2v0q-29 -8 -42 -25q-11 -15 -22 -62l-206 -943q-2 -12 -14 -55q-10 -35 -10 -47q0 -3 1 -5q6 -18 38 -28q19 -6 43 -7q41 -4 41 -27q0 -3 -1 -7l-47 -217q-6 -26 -14 -39
q-7 -12 -20 -12q-17 0 -24 55q-8 57 -30 99q-14 26 -26 37.5t-34 22.5q-48 24 -131 24h-440q-74 0 -134 -24q-65 -27 -106 -74q-29 -31 -61 -85q-31 -55 -48 -55q-12 0 -16 12v7q-1 12 4 32l39 177q4 20 24 34t57 33q30 16 63 46q42 40 79 94q53 84 79 130q64 120 108 222
q48 115 95 254q23 69 43 149q20 78 35 149q10 45 10 76q0 13 -2 24q-5 17 -48 25q-16 4 -47 6q-41 4 -41 25q0 3 1 6q3 14 11.5 21t25.5 7q6 0 53.5 -5t56.5 -5h552zM768 188l211 943q2 8 2 40q0 31 -22.5 45.5t-55.5 14.5h-203q-22 0 -42 -4q-34 -8 -47 -22
q-7 -7 -21.5 -49.5t-25.5 -87.5q-11 -50 -18.5 -80.5t-14.5 -53.5q-26 -94 -43 -142q-20 -58 -36.5 -102t-29 -76.5t-30.5 -78.5q-28 -74 -100 -219q-58 -110 -74 -142q-35 -69 -41 -92v-6q0 -24 43 -24h419q30 0 46 8q32 14 50 36q16 17 33 92z" />
    <glyph glyph-name="Ntilde" unicode="&#x414;" horiz-adv-x="1202" 
d="M1087 1280q43 0 100 5l52 5v0q12 0 17 -5q4 -4 4 -17t-7 -20q-6 -6 -32 -9q-2 0 -14 -2l-15 -2v0q-29 -8 -42 -25q-11 -15 -22 -62l-206 -943q-2 -12 -14 -55q-10 -35 -10 -47q0 -3 1 -5q6 -18 38 -28q19 -6 43 -7q41 -4 41 -27q0 -3 -1 -7l-47 -217q-6 -26 -14 -39
q-7 -12 -20 -12q-17 0 -24 55q-8 57 -30 99q-14 26 -26 37.5t-34 22.5q-48 24 -131 24h-440q-74 0 -134 -24q-65 -27 -106 -74q-29 -31 -61 -85q-31 -55 -48 -55q-12 0 -16 12v7q-1 12 4 32l39 177q4 20 24 34t57 33q30 16 63 46q42 40 79 94q53 84 79 130q64 120 108 222
q48 115 95 254q23 69 43 149q20 78 35 149q10 45 10 76q0 13 -2 24q-5 17 -48 25q-16 4 -47 6q-41 4 -41 25q0 3 1 6q3 14 11.5 21t25.5 7q6 0 53.5 -5t56.5 -5h552zM768 188l211 943q2 8 2 40q0 31 -22.5 45.5t-55.5 14.5h-203q-22 0 -42 -4q-34 -8 -47 -22
q-7 -7 -21.5 -49.5t-25.5 -87.5q-11 -50 -18.5 -80.5t-14.5 -53.5q-26 -94 -43 -142q-20 -58 -36.5 -102t-29 -76.5t-30.5 -78.5q-28 -74 -100 -219q-58 -110 -74 -142q-35 -69 -41 -92v-6q0 -24 43 -24h419q30 0 46 8q32 14 50 36q16 17 33 92z" />
    <glyph glyph-name="Odieresis" unicode="&#xc5;" horiz-adv-x="922" 
d="M946 1219l-51 -191q-8 -26 -14.5 -34.5t-18.5 -8.5q-10 0 -17 10t-7 25q0 24 1 37q1 6 1 12v6q0 85 -46 122q-47 38 -147 38q-50 0 -180 -8h-6l-115 -518h164q62 0 97 11q32 10 59 40q25 28 47 74q22 49 41 49q6 0 11 -8t5 -19q0 -4 -25 -85q-28 -89 -47 -171
q-6 -24 -16 -84q-16 -88 -41 -88q-10 0 -18 9q-7 8 -7 24q0 15 1 26t1 23v10q0 94 -25 115.5t-95 21.5h-170l-99 -389q-13 -58 -19 -93q-5 -30 -5 -44q0 -43 21 -63q20 -19 69 -19h151q71 0 124 22q54 23 96 66q40 43 65 98q26 56 43 56q7 0 15 -8q6 -7 6 -19l-2 -12
q-1 -7 -5 -21l-43 -157q-2 -9 -6 -23q-16 -61 -37 -61v0l-12 2q-123 14 -297 14q-247 0 -438 -12l-23 -2v0q-19 0 -26.5 6t-7.5 20q0 15 10 22q11 8 43 9q8 0 26 2q13 2 23 6q24 9 39 35q15 28 35 109l213 884q4 20 9 50q3 26 3 47q0 50 -57 59q-22 1 -30 8q-7 4 -7 17
q0 12 8 20q8 6 25 6h9q3 0 6 -0.5t5 -1.5q1 0 23 -2q187 -8 370 -8q127 0 242 6l20 2v0q27 0 35 -5q6 -6 6 -26v0l-2 -13q-2 -12 -6 -25z" />
    <glyph glyph-name="Odieresis" unicode="&#x415;" horiz-adv-x="922" 
d="M946 1219l-51 -191q-8 -26 -14.5 -34.5t-18.5 -8.5q-10 0 -17 10t-7 25q0 24 1 37q1 6 1 12v6q0 85 -46 122q-47 38 -147 38q-50 0 -180 -8h-6l-115 -518h164q62 0 97 11q32 10 59 40q25 28 47 74q22 49 41 49q6 0 11 -8t5 -19q0 -4 -25 -85q-28 -89 -47 -171
q-6 -24 -16 -84q-16 -88 -41 -88q-10 0 -18 9q-7 8 -7 24q0 15 1 26t1 23v10q0 94 -25 115.5t-95 21.5h-170l-99 -389q-13 -58 -19 -93q-5 -30 -5 -44q0 -43 21 -63q20 -19 69 -19h151q71 0 124 22q54 23 96 66q40 43 65 98q26 56 43 56q7 0 15 -8q6 -7 6 -19l-2 -12
q-1 -7 -5 -21l-43 -157q-2 -9 -6 -23q-16 -61 -37 -61v0l-12 2q-123 14 -297 14q-247 0 -438 -12l-23 -2v0q-19 0 -26.5 6t-7.5 20q0 15 10 22q11 8 43 9q8 0 26 2q13 2 23 6q24 9 39 35q15 28 35 109l213 884q4 20 9 50q3 26 3 47q0 50 -57 59q-22 1 -30 8q-7 4 -7 17
q0 12 8 20q8 6 25 6h9q3 0 6 -0.5t5 -1.5q1 0 23 -2q187 -8 370 -8q127 0 242 6l20 2v0q27 0 35 -5q6 -6 6 -26v0l-2 -13q-2 -12 -6 -25z" />
    <glyph glyph-name="Udieresis" unicode="&#xc6;" horiz-adv-x="1624" 
d="M822 193q-13 -55 -13 -81q0 -10 2 -15q8 -18 50 -29q7 -3 12.5 -4t23.5 -1q30 -1 36 -9q5 -5 5 -13q0 -4 -1 -8q-4 -16 -18 -24q-13 -9 -35 -9q-2 0 -67 5t-109 5t-111 -5l-67 -5q-20 0 -31 8q-8 5 -8 15q0 3 1 6q5 17 14 25q10 7 41 9q15 0 20 1q12 2 16 4q45 10 63 28
q16 16 36 97l81 342q4 16 4 24q0 3 -1 5q0 8 -7 20l-39 69q-2 5 -6 8q-3 3 -6 3t-15 -13q-1 -1 -3 -2l-361 -418q-40 -48 -68 -86q-25 -40 -31 -59q-1 -3 -1 -6q0 -11 11 -17q16 -8 45 -8q22 0 32 -7q10 -6 10 -15q0 -2 -1 -4q-3 -13 -18 -20q-15 -9 -36 -9q-1 0 -54 5
q-52 5 -92 5q-41 0 -108 -5t-70 -5q-26 0 -34 7q-7 5 -7 15q0 3 1 7q5 23 39 26q31 5 44 11q24 9 59 38q35 30 76 78l502 584q4 6 5 8q2 2 2 4v6q1 3 0 7q-1 6 -6 12l-172 293q-58 97 -131 129q-70 30 -70 37v0q3 13 12 20q10 8 22 8l58 -8t106 -8q45 0 103 8q59 8 61 8
q12 0 18 -8q4 -5 4 -12q0 -4 -1 -8q-6 -26 -60.5 -32t-63.5 -44q-1 -6 -1.5 -12.5t1.5 -13.5q4 -17 10 -32l247 -446q4 -6 5 -9t3 -7q4 -7 7 -7q2 0 5 5.5t6 15.5l107 450q9 40 9 61q0 9 -2 14q-7 15 -37 22q-12 2 -40 4q-41 4 -41 25q0 3 1 6q3 12 13 20q11 8 25 8v0l63 -8
q64 -8 117 -8q49 0 113 8t67 8q15 0 21 -7q4 -5 4 -12q0 -4 -1 -9q-6 -26 -54 -31q-31 -1 -51 -6q-32 -10 -43 -25q-13 -20 -24 -70l-107 -450q-2 -7 -2 -15q0 -6 3 -6q2 0 9 7l9.5 9.5l6.5 6.5l459 446q17 19 26 32t12 26q1 6 1 11q0 28 -43 33q-47 5 -47 27q0 2 1 5
q3 12 13 20t22 8q1 0 57 -8q54 -8 99 -8q49 0 110 8t62 8q12 0 18 -8q3 -4 3 -11q0 -4 -1 -9q-1 -7 -88 -37q-88 -32 -191 -129l-312 -293q-7 -6 -12 -12q-5 -8 -6 -13v-4q1 -2 1 -8l224 -584q18 -48 40 -78q19 -28 41 -38q11 -6 38 -11q28 -3 28 -20q0 -3 -1 -6
q-3 -14 -16 -22q-14 -7 -38 -7q-5 0 -68 5t-106 5q-39 0 -94.5 -5l-55.5 -5v0q-20 0 -32 9q-9 5 -9 14q0 3 1 6q4 12 17 19q15 7 36 7q30 0 49 8q17 8 20 23q2 6 2 16q0 17 -5 43q-7 37 -26 86l-163 418q0 1 -1 2q-6 13 -9 13q-2 0 -8 -3.5t-10 -7.5l-71 -69q-9 -8 -17 -20
q-7 -13 -11 -29z" />
    <glyph glyph-name="Udieresis" unicode="&#x416;" horiz-adv-x="1624" 
d="M822 193q-13 -55 -13 -81q0 -10 2 -15q8 -18 50 -29q7 -3 12.5 -4t23.5 -1q30 -1 36 -9q5 -5 5 -13q0 -4 -1 -8q-4 -16 -18 -24q-13 -9 -35 -9q-2 0 -67 5t-109 5t-111 -5l-67 -5q-20 0 -31 8q-8 5 -8 15q0 3 1 6q5 17 14 25q10 7 41 9q15 0 20 1q12 2 16 4q45 10 63 28
q16 16 36 97l81 342q4 16 4 24q0 3 -1 5q0 8 -7 20l-39 69q-2 5 -6 8q-3 3 -6 3t-15 -13q-1 -1 -3 -2l-361 -418q-40 -48 -68 -86q-25 -40 -31 -59q-1 -3 -1 -6q0 -11 11 -17q16 -8 45 -8q22 0 32 -7q10 -6 10 -15q0 -2 -1 -4q-3 -13 -18 -20q-15 -9 -36 -9q-1 0 -54 5
q-52 5 -92 5q-41 0 -108 -5t-70 -5q-26 0 -34 7q-7 5 -7 15q0 3 1 7q5 23 39 26q31 5 44 11q24 9 59 38q35 30 76 78l502 584q4 6 5 8q2 2 2 4v6q1 3 0 7q-1 6 -6 12l-172 293q-58 97 -131 129q-70 30 -70 37v0q3 13 12 20q10 8 22 8l58 -8t106 -8q45 0 103 8q59 8 61 8
q12 0 18 -8q4 -5 4 -12q0 -4 -1 -8q-6 -26 -60.5 -32t-63.5 -44q-1 -6 -1.5 -12.5t1.5 -13.5q4 -17 10 -32l247 -446q4 -6 5 -9t3 -7q4 -7 7 -7q2 0 5 5.5t6 15.5l107 450q9 40 9 61q0 9 -2 14q-7 15 -37 22q-12 2 -40 4q-41 4 -41 25q0 3 1 6q3 12 13 20q11 8 25 8v0l63 -8
q64 -8 117 -8q49 0 113 8t67 8q15 0 21 -7q4 -5 4 -12q0 -4 -1 -9q-6 -26 -54 -31q-31 -1 -51 -6q-32 -10 -43 -25q-13 -20 -24 -70l-107 -450q-2 -7 -2 -15q0 -6 3 -6q2 0 9 7l9.5 9.5l6.5 6.5l459 446q17 19 26 32t12 26q1 6 1 11q0 28 -43 33q-47 5 -47 27q0 2 1 5
q3 12 13 20t22 8q1 0 57 -8q54 -8 99 -8q49 0 110 8t62 8q12 0 18 -8q3 -4 3 -11q0 -4 -1 -9q-1 -7 -88 -37q-88 -32 -191 -129l-312 -293q-7 -6 -12 -12q-5 -8 -6 -13v-4q1 -2 1 -8l224 -584q18 -48 40 -78q19 -28 41 -38q11 -6 38 -11q28 -3 28 -20q0 -3 -1 -6
q-3 -14 -16 -22q-14 -7 -38 -7q-5 0 -68 5t-106 5q-39 0 -94.5 -5l-55.5 -5v0q-20 0 -32 9q-9 5 -9 14q0 3 1 6q4 12 17 19q15 7 36 7q30 0 49 8q17 8 20 23q2 6 2 16q0 17 -5 43q-7 37 -26 86l-163 418q0 1 -1 2q-6 13 -9 13q-2 0 -8 -3.5t-10 -7.5l-71 -69q-9 -8 -17 -20
q-7 -13 -11 -29z" />
    <glyph glyph-name="aacute" unicode="&#xc7;" horiz-adv-x="964" 
d="M218 -39q-33 0 -97 17q-61 16 -113 47q-19 12 -25 22q-8 11 -8 31v14l7 178q0 25 5 38q5 11 13 11q21 0 31 -69q5 -51 12 -84q13 -65 72 -112q56 -46 119 -46q84 0 171.5 36.5t157 114t98.5 195.5q15 63 15 108q0 74 -37 124q-28 41 -72 60t-120 22q-30 1 -30 23
q0 20 43 29q123 26 202.5 86.5t105.5 164.5q14 61 14 103q0 53 -22.5 97.5t-67.5 72.5t-105 28q-62 0 -129 -37q-69 -38 -128 -115q-19 -23 -46 -69q-25 -43 -41 -43q-7 0 -12 8q-1 4 -1 8q-1 5 1 10q23 97 41 146q23 60 35 71q28 26 120 52q82 22 157 22q112 0 190 -43
t114.5 -107t36.5 -124q0 -99 -73 -187.5t-238 -151.5q67 -19 110.5 -48.5t69.5 -76.5q34 -57 34 -119q0 -64 -12 -112q-21 -85 -79 -163t-143.5 -134t-182.5 -79q-75 -19 -193 -19z" />
    <glyph glyph-name="aacute" unicode="&#x417;" horiz-adv-x="964" 
d="M218 -39q-33 0 -97 17q-61 16 -113 47q-19 12 -25 22q-8 11 -8 31v14l7 178q0 25 5 38q5 11 13 11q21 0 31 -69q5 -51 12 -84q13 -65 72 -112q56 -46 119 -46q84 0 171.5 36.5t157 114t98.5 195.5q15 63 15 108q0 74 -37 124q-28 41 -72 60t-120 22q-30 1 -30 23
q0 20 43 29q123 26 202.5 86.5t105.5 164.5q14 61 14 103q0 53 -22.5 97.5t-67.5 72.5t-105 28q-62 0 -129 -37q-69 -38 -128 -115q-19 -23 -46 -69q-25 -43 -41 -43q-7 0 -12 8q-1 4 -1 8q-1 5 1 10q23 97 41 146q23 60 35 71q28 26 120 52q82 22 157 22q112 0 190 -43
t114.5 -107t36.5 -124q0 -99 -73 -187.5t-238 -151.5q67 -19 110.5 -48.5t69.5 -76.5q34 -57 34 -119q0 -64 -12 -112q-21 -85 -79 -163t-143.5 -134t-182.5 -79q-75 -19 -193 -19z" />
    <glyph glyph-name="agrave" unicode="&#xc8;" horiz-adv-x="1202" 
d="M1126 1145l-204 -940q-10 -47 -11 -55q-4 -17 -4 -31q0 -31 9.5 -45.5t31.5 -20.5q9 -2 39 -4q47 -2 47 -26q0 -14 -9 -19.5t-30 -5.5q-7 0 -16 1t-25 1q-30 5 -63 6q-46 2 -70 2q-60 0 -119 -7t-69 -7q-16 0 -22 6q-7 4 -7 18q0 23 45 27q23 3 37 6q36 7 56 29
q19 19 28 63l178 829l-720 -720l-13 -47q-9 -37 -11 -52q-3 -22 -3 -40q0 -34 22 -50q23 -18 62 -18q25 0 37 -5q10 -6 10 -20q0 -8 -8 -16t-19 -8v0l-20 2q-81 10 -172 10q-59 0 -124 -6t-67 -6q-15 0 -20.5 5t-5.5 17q0 23 45 27q22 3 36 6q36 7 54 28q15 18 26 62
l234 989q3 15 4 19q6 24 6 35q0 24 -12 37q-14 14 -47 18h-4q-33 8 -33 25q0 15 8.5 21.5t30.5 6.5v0l26 -2q86 -10 170 -10q59 0 125 8l15 2v0q10 0 15 -5q5 -7 5 -17q0 -13 -8 -19t-37 -8q-5 -1 -17 -3q-6 -1 -20 -3q-37 -8 -53 -27t-27 -63l-195 -818l720 717l10 41
q5 23 6 46q2 32 2 40q0 61 -46 70t-46 27q0 12 9.5 18t29.5 6q4 0 57.5 -6t101.5 -6q43 0 100 5l52 5v0q12 0 17 -5q4 -4 4 -17q0 -14 -7 -20.5t-32 -8.5q-1 0 -6 -0.5t-8 -1.5l-15 -2v0q-29 -8 -42 -25.5t-24 -64.5z" />
    <glyph glyph-name="agrave" unicode="&#x418;" horiz-adv-x="1202" 
d="M1126 1145l-204 -940q-10 -47 -11 -55q-4 -17 -4 -31q0 -31 9.5 -45.5t31.5 -20.5q9 -2 39 -4q47 -2 47 -26q0 -14 -9 -19.5t-30 -5.5q-7 0 -16 1t-25 1q-30 5 -63 6q-46 2 -70 2q-60 0 -119 -7t-69 -7q-16 0 -22 6q-7 4 -7 18q0 23 45 27q23 3 37 6q36 7 56 29
q19 19 28 63l178 829l-720 -720l-13 -47q-9 -37 -11 -52q-3 -22 -3 -40q0 -34 22 -50q23 -18 62 -18q25 0 37 -5q10 -6 10 -20q0 -8 -8 -16t-19 -8v0l-20 2q-81 10 -172 10q-59 0 -124 -6t-67 -6q-15 0 -20.5 5t-5.5 17q0 23 45 27q22 3 36 6q36 7 54 28q15 18 26 62
l234 989q3 15 4 19q6 24 6 35q0 24 -12 37q-14 14 -47 18h-4q-33 8 -33 25q0 15 8.5 21.5t30.5 6.5v0l26 -2q86 -10 170 -10q59 0 125 8l15 2v0q10 0 15 -5q5 -7 5 -17q0 -13 -8 -19t-37 -8q-5 -1 -17 -3q-6 -1 -20 -3q-37 -8 -53 -27t-27 -63l-195 -818l720 717l10 41
q5 23 6 46q2 32 2 40q0 61 -46 70t-46 27q0 12 9.5 18t29.5 6q4 0 57.5 -6t101.5 -6q43 0 100 5l52 5v0q12 0 17 -5q4 -4 4 -17q0 -14 -7 -20.5t-32 -8.5q-1 0 -6 -0.5t-8 -1.5l-15 -2v0q-29 -8 -42 -25.5t-24 -64.5z" />
    <glyph glyph-name="acircumflex" unicode="&#xc9;" horiz-adv-x="1202" 
d="M1126 1145l-204 -940q-10 -47 -11 -55q-4 -17 -4 -31q0 -31 9.5 -45.5t31.5 -20.5q9 -2 39 -4q47 -2 47 -26q0 -14 -9 -19.5t-30 -5.5q-7 0 -16 1t-25 1q-30 5 -63 6q-46 2 -70 2q-60 0 -119 -7t-69 -7q-16 0 -22 6q-7 4 -7 18q0 23 45 27q23 3 37 6q36 7 56 29
q19 19 28 63l178 829l-720 -720l-13 -47q-9 -37 -11 -52q-3 -22 -3 -40q0 -34 22 -50q23 -18 62 -18q25 0 37 -5q10 -6 10 -20q0 -8 -8 -16t-19 -8v0l-20 2q-81 10 -172 10q-59 0 -124 -6t-67 -6q-15 0 -20.5 5t-5.5 17q0 23 45 27q22 3 36 6q36 7 54 28q15 18 26 62
l234 989q3 15 4 19q6 24 6 35q0 24 -12 37q-14 14 -47 18h-4q-33 8 -33 25q0 15 8.5 21.5t30.5 6.5v0l26 -2q86 -10 170 -10q59 0 125 8l15 2v0q10 0 15 -5q5 -7 5 -17q0 -13 -8 -19t-37 -8q-5 -1 -17 -3q-6 -1 -20 -3q-37 -8 -53 -27t-27 -63l-195 -818l720 717l10 41
q5 23 6 46q2 32 2 40q0 61 -46 70t-46 27q0 12 9.5 18t29.5 6q4 0 57.5 -6t101.5 -6q43 0 100 5l52 5v0q12 0 17 -5q4 -4 4 -17q0 -14 -7 -20.5t-32 -8.5q-1 0 -6 -0.5t-8 -1.5l-15 -2v0q-29 -8 -42 -25.5t-24 -64.5z" />
    <glyph glyph-name="acircumflex" unicode="&#x419;" horiz-adv-x="1202" 
d="M1126 1145l-204 -940q-10 -47 -11 -55q-4 -17 -4 -31q0 -31 9.5 -45.5t31.5 -20.5q9 -2 39 -4q47 -2 47 -26q0 -14 -9 -19.5t-30 -5.5q-7 0 -16 1t-25 1q-30 5 -63 6q-46 2 -70 2q-60 0 -119 -7t-69 -7q-16 0 -22 6q-7 4 -7 18q0 23 45 27q23 3 37 6q36 7 56 29
q19 19 28 63l178 829l-720 -720l-13 -47q-9 -37 -11 -52q-3 -22 -3 -40q0 -34 22 -50q23 -18 62 -18q25 0 37 -5q10 -6 10 -20q0 -8 -8 -16t-19 -8v0l-20 2q-81 10 -172 10q-59 0 -124 -6t-67 -6q-15 0 -20.5 5t-5.5 17q0 23 45 27q22 3 36 6q36 7 54 28q15 18 26 62
l234 989q3 15 4 19q6 24 6 35q0 24 -12 37q-14 14 -47 18h-4q-33 8 -33 25q0 15 8.5 21.5t30.5 6.5v0l26 -2q86 -10 170 -10q59 0 125 8l15 2v0q10 0 15 -5q5 -7 5 -17q0 -13 -8 -19t-37 -8q-5 -1 -17 -3q-6 -1 -20 -3q-37 -8 -53 -27t-27 -63l-195 -818l720 717l10 41
q5 23 6 46q2 32 2 40q0 61 -46 70t-46 27q0 12 9.5 18t29.5 6q4 0 57.5 -6t101.5 -6q43 0 100 5l52 5v0q12 0 17 -5q4 -4 4 -17q0 -14 -7 -20.5t-32 -8.5q-1 0 -6 -0.5t-8 -1.5l-15 -2v0q-29 -8 -42 -25.5t-24 -64.5z" />
    <glyph glyph-name="adieresis" unicode="&#xca;" horiz-adv-x="928" 
d="M840 1112l-361 -356l221 -523q1 -2 13 -28q46 -114 82 -133q16 -9 47 -19q43 -13 43 -33q0 -10 -8.5 -16t-22.5 -6q-5 0 -29 3t-43 3h-14q-3 0 -9 -1l-18 -3q-10 0 -18 -1t-18 -1q-33 0 -47 14t-35 66l-240 581l-88 -81l-88 -414q-2 -9 -4 -28q-2 -18 -2 -23
q0 -28 12 -43t39 -21q29 -4 35 -4q45 0 45 -25q0 -8 -8 -16q-10 -8 -21 -8v0l-14 2q-81 10 -176 10q-60 0 -123 -6q-65 -6 -68 -6q-15 0 -20.5 5t-5.5 17q0 23 45 27q22 3 36 6q36 7 54 28q15 18 26 62l234 989q5 15 6 30q2 20 2 28q0 40 -55 53h-2q-23 4 -31 10.5t-8 16.5
q0 11 9 17.5t26 6.5h12q3 0 6.5 -0.5t5.5 -1.5q1 0 25 -2q86 -6 151 -6q31 0 62 4t41 4q11 0 18 -5q6 -4 6 -15q0 -15 -54 -27q-53 -12 -73 -86l-121 -487l445 444q35 37 43 49q10 14 10 29q0 33 -49 49h-2q-21 5 -28 12q-9 6 -9 17q0 9 7.5 16.5t19.5 7.5q7 0 57 -8
q48 -8 80 -8q50 0 91 4t48 4q14 0 21.5 -5.5t7.5 -14.5q0 -8 -75 -47q-74 -38 -144 -107z" />
    <glyph glyph-name="adieresis" unicode="&#x41a;" horiz-adv-x="928" 
d="M840 1112l-361 -356l221 -523q1 -2 13 -28q46 -114 82 -133q16 -9 47 -19q43 -13 43 -33q0 -10 -8.5 -16t-22.5 -6q-5 0 -29 3t-43 3h-14q-3 0 -9 -1l-18 -3q-10 0 -18 -1t-18 -1q-33 0 -47 14t-35 66l-240 581l-88 -81l-88 -414q-2 -9 -4 -28q-2 -18 -2 -23
q0 -28 12 -43t39 -21q29 -4 35 -4q45 0 45 -25q0 -8 -8 -16q-10 -8 -21 -8v0l-14 2q-81 10 -176 10q-60 0 -123 -6q-65 -6 -68 -6q-15 0 -20.5 5t-5.5 17q0 23 45 27q22 3 36 6q36 7 54 28q15 18 26 62l234 989q5 15 6 30q2 20 2 28q0 40 -55 53h-2q-23 4 -31 10.5t-8 16.5
q0 11 9 17.5t26 6.5h12q3 0 6.5 -0.5t5.5 -1.5q1 0 25 -2q86 -6 151 -6q31 0 62 4t41 4q11 0 18 -5q6 -4 6 -15q0 -15 -54 -27q-53 -12 -73 -86l-121 -487l445 444q35 37 43 49q10 14 10 29q0 33 -49 49h-2q-21 5 -28 12q-9 6 -9 17q0 9 7.5 16.5t19.5 7.5q7 0 57 -8
q48 -8 80 -8q50 0 91 4t48 4q14 0 21.5 -5.5t7.5 -14.5q0 -8 -75 -47q-74 -38 -144 -107z" />
    <glyph glyph-name="atilde" unicode="&#xcb;" horiz-adv-x="1205" 
d="M928 193q-12 -55 -12 -80q0 -10 2 -15q7 -18 38 -28q19 -6 43 -7q42 -4 42 -28q0 -3 -1 -6q-3 -13 -15 -21q-14 -8 -35 -8v0l-61 5q-63 5 -109 5q-44 0 -109 -5l-65 -5v0q-19 0 -30 9q-9 7 -9 20v4q6 27 52 30q26 2 36 5q45 11 59 28q17 18 33 97l193 937q8 38 8 59
q0 8 -1 13q-5 15 -30 23q-24 6 -48 6h-203q-22 0 -42 -4q-30 -7 -54 -43q-17 -25 -38 -116q-102 -441 -211.5 -682.5t-200 -321t-164.5 -79.5q-39 0 -64.5 20.5t-25.5 55.5q0 38 23.5 64.5t64.5 26.5q27 0 56 -10l29 -10q69 0 149.5 129t159 350t142.5 493q6 31 6 70
q0 35 -52 50q-13 3 -50 7q-41 4 -41 31q0 11 12 21q10 7 25 7q5 0 51 -5t59 -5h604q16 0 67 5t54 5q15 0 19 -7q4 -5 4 -12q0 -4 -1 -9q-4 -26 -51 -31q-31 -2 -42 -4q-34 -8 -47 -22q-14 -17 -26 -75z" />
    <glyph glyph-name="atilde" unicode="&#x41b;" horiz-adv-x="1205" 
d="M928 193q-12 -55 -12 -80q0 -10 2 -15q7 -18 38 -28q19 -6 43 -7q42 -4 42 -28q0 -3 -1 -6q-3 -13 -15 -21q-14 -8 -35 -8v0l-61 5q-63 5 -109 5q-44 0 -109 -5l-65 -5v0q-19 0 -30 9q-9 7 -9 20v4q6 27 52 30q26 2 36 5q45 11 59 28q17 18 33 97l193 937q8 38 8 59
q0 8 -1 13q-5 15 -30 23q-24 6 -48 6h-203q-22 0 -42 -4q-30 -7 -54 -43q-17 -25 -38 -116q-102 -441 -211.5 -682.5t-200 -321t-164.5 -79.5q-39 0 -64.5 20.5t-25.5 55.5q0 38 23.5 64.5t64.5 26.5q27 0 56 -10l29 -10q69 0 149.5 129t159 350t142.5 493q6 31 6 70
q0 35 -52 50q-13 3 -50 7q-41 4 -41 31q0 11 12 21q10 7 25 7q5 0 51 -5t59 -5h604q16 0 67 5t54 5q15 0 19 -7q4 -5 4 -12q0 -4 -1 -9q-4 -26 -51 -31q-31 -2 -42 -4q-34 -8 -47 -22q-14 -17 -26 -75z" />
    <glyph glyph-name="aring" unicode="&#xcc;" horiz-adv-x="1296" 
d="M514 1229l29 -950q31 52 80.5 139t95.5 169t98 179q46 84 74.5 138t46 87t74 143.5t78.5 155.5q44 -1 73 -3q19 -1 54 -1q20 0 51 4h6q15 0 27.5 1t27.5 1q14 0 23.5 -5.5t9.5 -14.5q0 -25 -51 -27q-8 -1 -15 -1t-10 -1q-30 -3 -46 -22q-18 -20 -26 -58l-188 -1001
q-1 -8 -4 -31q-2 -18 -2 -25q0 -32 15 -49q13 -16 44 -16q26 0 33.5 -5.5t7.5 -19.5q0 -7 -9 -15q-10 -7 -24 -7v0l-55 5q-58 5 -100 5q-75 0 -148 -10l-20 -2v0q-11 0 -19 8t-8 18q0 23 39 27q22 3 31 6q60 17 84 135l2 7l201 1009l-607 -1155q-9 -19 -18.5 -28t-19.5 -9
q-9 0 -14 11q-6 13 -7 47l-47 1083q-118 -361 -203 -669q-80 -290 -80 -341q0 -66 57 -87q56 -23 56 -36q0 -12 -9.5 -20t-21.5 -8q-4 0 -57.5 8t-95.5 8q-40 0 -85 -6t-51 -6q-11 0 -18.5 5.5t-7.5 14.5q0 21 53 35q7 2 33 8q43 13 64 43q19 28 51 136l260 892q3 10 6 29
q2 22 2 35q0 49 -52 56q-53 8 -53 26q0 13 7 17q8 5 24 5h14q91 -8 187 -8q51 0 53 -53v-6z" />
    <glyph glyph-name="aring" unicode="&#x41c;" horiz-adv-x="1296" 
d="M514 1229l29 -950q31 52 80.5 139t95.5 169t98 179q46 84 74.5 138t46 87t74 143.5t78.5 155.5q44 -1 73 -3q19 -1 54 -1q20 0 51 4h6q15 0 27.5 1t27.5 1q14 0 23.5 -5.5t9.5 -14.5q0 -25 -51 -27q-8 -1 -15 -1t-10 -1q-30 -3 -46 -22q-18 -20 -26 -58l-188 -1001
q-1 -8 -4 -31q-2 -18 -2 -25q0 -32 15 -49q13 -16 44 -16q26 0 33.5 -5.5t7.5 -19.5q0 -7 -9 -15q-10 -7 -24 -7v0l-55 5q-58 5 -100 5q-75 0 -148 -10l-20 -2v0q-11 0 -19 8t-8 18q0 23 39 27q22 3 31 6q60 17 84 135l2 7l201 1009l-607 -1155q-9 -19 -18.5 -28t-19.5 -9
q-9 0 -14 11q-6 13 -7 47l-47 1083q-118 -361 -203 -669q-80 -290 -80 -341q0 -66 57 -87q56 -23 56 -36q0 -12 -9.5 -20t-21.5 -8q-4 0 -57.5 8t-95.5 8q-40 0 -85 -6t-51 -6q-11 0 -18.5 5.5t-7.5 14.5q0 21 53 35q7 2 33 8q43 13 64 43q19 28 51 136l260 892q3 10 6 29
q2 22 2 35q0 49 -52 56q-53 8 -53 26q0 13 7 17q8 5 24 5h14q91 -8 187 -8q51 0 53 -53v-6z" />
    <glyph glyph-name="ccedilla" unicode="&#xcd;" horiz-adv-x="1202" 
d="M1126 1145l-204 -940q-10 -47 -11 -55q-4 -17 -4 -31q0 -31 9.5 -45.5t31.5 -20.5q9 -2 39 -4q47 -2 47 -26q0 -14 -9 -19.5t-30 -5.5q-7 0 -16 1t-25 1q-30 5 -63 6q-46 2 -70 2q-60 0 -119 -7t-69 -7q-16 0 -22 6q-7 4 -7 18q0 23 45 27q23 3 37 6q36 7 56 29
q19 19 28 63l113 525h-561l-107 -463q-9 -37 -11 -52q-3 -22 -3 -40q0 -34 22 -50q23 -18 62 -18q25 0 37 -5q10 -6 10 -20q0 -8 -8 -16t-19 -8v0l-20 2q-81 10 -172 10q-59 0 -124 -6t-67 -6q-15 0 -20.5 5t-5.5 17q0 23 45 27q22 3 36 6q36 7 54 28q15 18 26 62l234 989
q3 15 4 19q6 24 6 35q0 24 -12 37q-14 14 -47 18h-4q-33 8 -33 25q0 15 8.5 21.5t30.5 6.5v0l26 -2q86 -10 170 -10q59 0 125 8l15 2v0q10 0 15 -5q5 -7 5 -17q0 -13 -8 -19t-37 -8q-5 -1 -17 -3q-6 -1 -20 -3q-37 -8 -53 -27t-27 -63l-106 -426h563l78 366q5 23 6 46
q2 32 2 40q0 61 -46 70t-46 27q0 12 9.5 18t29.5 6q4 0 57.5 -6t101.5 -6q43 0 100 5l52 5v0q12 0 17 -5q4 -4 4 -17q0 -14 -7 -20.5t-32 -8.5q-1 0 -6 -0.5t-8 -1.5l-15 -2v0q-29 -8 -42 -25.5t-24 -64.5z" />
    <glyph glyph-name="ccedilla" unicode="&#x41d;" horiz-adv-x="1202" 
d="M1126 1145l-204 -940q-10 -47 -11 -55q-4 -17 -4 -31q0 -31 9.5 -45.5t31.5 -20.5q9 -2 39 -4q47 -2 47 -26q0 -14 -9 -19.5t-30 -5.5q-7 0 -16 1t-25 1q-30 5 -63 6q-46 2 -70 2q-60 0 -119 -7t-69 -7q-16 0 -22 6q-7 4 -7 18q0 23 45 27q23 3 37 6q36 7 56 29
q19 19 28 63l113 525h-561l-107 -463q-9 -37 -11 -52q-3 -22 -3 -40q0 -34 22 -50q23 -18 62 -18q25 0 37 -5q10 -6 10 -20q0 -8 -8 -16t-19 -8v0l-20 2q-81 10 -172 10q-59 0 -124 -6t-67 -6q-15 0 -20.5 5t-5.5 17q0 23 45 27q22 3 36 6q36 7 54 28q15 18 26 62l234 989
q3 15 4 19q6 24 6 35q0 24 -12 37q-14 14 -47 18h-4q-33 8 -33 25q0 15 8.5 21.5t30.5 6.5v0l26 -2q86 -10 170 -10q59 0 125 8l15 2v0q10 0 15 -5q5 -7 5 -17q0 -13 -8 -19t-37 -8q-5 -1 -17 -3q-6 -1 -20 -3q-37 -8 -53 -27t-27 -63l-106 -426h563l78 366q5 23 6 46
q2 32 2 40q0 61 -46 70t-46 27q0 12 9.5 18t29.5 6q4 0 57.5 -6t101.5 -6q43 0 100 5l52 5v0q12 0 17 -5q4 -4 4 -17q0 -14 -7 -20.5t-32 -8.5q-1 0 -6 -0.5t-8 -1.5l-15 -2v0q-29 -8 -42 -25.5t-24 -64.5z" />
    <glyph glyph-name="eacute" unicode="&#xce;" horiz-adv-x="1176" 
d="M664 1329q197 0 326 -165q128 -167 128 -425q0 -153 -44 -293q-43 -138 -128 -247q-87 -114 -200 -176t-230 -62q-205 0 -332 166q-129 167 -129 436q0 315 183 540.5t426 225.5zM979 834q0 200 -87 318t-230 118q-101 0 -183.5 -64.5t-150.5 -195.5q-64 -123 -98 -267
q-35 -148 -35 -278q0 -204 88 -322q87 -120 233 -120q97 0 182 61q85 62 140 172q67 137 103 286q38 157 38 292z" />
    <glyph glyph-name="eacute" unicode="&#x41e;" horiz-adv-x="1176" 
d="M664 1329q197 0 326 -165q128 -167 128 -425q0 -153 -44 -293q-43 -138 -128 -247q-87 -114 -200 -176t-230 -62q-205 0 -332 166q-129 167 -129 436q0 315 183 540.5t426 225.5zM979 834q0 200 -87 318t-230 118q-101 0 -183.5 -64.5t-150.5 -195.5q-64 -123 -98 -267
q-35 -148 -35 -278q0 -204 88 -322q87 -120 233 -120q97 0 182 61q85 62 140 172q67 137 103 286q38 157 38 292z" />
    <glyph glyph-name="egrave" unicode="&#xcf;" horiz-adv-x="1202" 
d="M918 1234h-394q-37 0 -59 -26q-16 -19 -27 -63l-223 -940q-9 -37 -11 -52q-3 -22 -3 -40q0 -34 22 -50q23 -18 62 -18q25 0 37 -5q10 -6 10 -20q0 -8 -8 -16t-19 -8v0l-20 2q-81 10 -172 10q-59 0 -124 -6t-67 -6q-15 0 -20.5 5t-5.5 17q0 23 45 27q22 3 36 6q36 7 54 28
q15 18 26 62l234 989q3 15 4 19q6 24 6 35q0 24 -12 37q-14 14 -47 18h-4q-33 8 -33 25q0 15 8.5 21.5t30.5 6.5v0l26 -2q86 -10 170 -10h647q43 0 100 5l52 5v0q12 0 17 -5q4 -4 4 -17q0 -14 -7 -20.5t-32 -8.5q-1 0 -6 -0.5t-8 -1.5l-15 -2v0q-29 -8 -42 -25.5t-24 -64.5
l-204 -940q-10 -47 -11 -55q-4 -17 -4 -31q0 -31 9.5 -45.5t31.5 -20.5q9 -2 39 -4q47 -2 47 -26q0 -14 -9 -19.5t-30 -5.5q-7 0 -16 1t-25 1q-30 5 -63 6q-46 2 -70 2q-60 0 -119 -7t-69 -7q-16 0 -22 6q-7 4 -7 18q0 23 45 27q23 3 37 6q36 7 56 29q19 19 28 63l203 942
q5 23 6 46q2 32 2 40q0 29 -18 46t-45 17z" />
    <glyph glyph-name="egrave" unicode="&#x41f;" horiz-adv-x="1202" 
d="M918 1234h-394q-37 0 -59 -26q-16 -19 -27 -63l-223 -940q-9 -37 -11 -52q-3 -22 -3 -40q0 -34 22 -50q23 -18 62 -18q25 0 37 -5q10 -6 10 -20q0 -8 -8 -16t-19 -8v0l-20 2q-81 10 -172 10q-59 0 -124 -6t-67 -6q-15 0 -20.5 5t-5.5 17q0 23 45 27q22 3 36 6q36 7 54 28
q15 18 26 62l234 989q3 15 4 19q6 24 6 35q0 24 -12 37q-14 14 -47 18h-4q-33 8 -33 25q0 15 8.5 21.5t30.5 6.5v0l26 -2q86 -10 170 -10h647q43 0 100 5l52 5v0q12 0 17 -5q4 -4 4 -17q0 -14 -7 -20.5t-32 -8.5q-1 0 -6 -0.5t-8 -1.5l-15 -2v0q-29 -8 -42 -25.5t-24 -64.5
l-204 -940q-10 -47 -11 -55q-4 -17 -4 -31q0 -31 9.5 -45.5t31.5 -20.5q9 -2 39 -4q47 -2 47 -26q0 -14 -9 -19.5t-30 -5.5q-7 0 -16 1t-25 1q-30 5 -63 6q-46 2 -70 2q-60 0 -119 -7t-69 -7q-16 0 -22 6q-7 4 -7 18q0 23 45 27q23 3 37 6q36 7 56 29q19 19 28 63l203 942
q5 23 6 46q2 32 2 40q0 29 -18 46t-45 17z" />
    <glyph glyph-name="ecircumflex" unicode="&#xd0;" horiz-adv-x="932" 
d="M444 1227l-135 -611h13q43 -4 65 -4q172 0 289 120t117 288q0 113 -61 164t-202 51q-14 0 -42 -2q-21 -1 -44 -6zM301 569l-86 -364q-9 -42 -11 -55q-3 -21 -3 -37q0 -25 10 -38q12 -15 35 -22q4 -1 14 -3q5 -1 23 -1h4q45 -3 45 -29q0 -9 -11 -17q-11 -7 -30 -7v0l-27 2
q-76 10 -151 10q-50 0 -109 -6t-63 -6q-14 0 -19.5 5t-5.5 17q0 17 62.5 32t80.5 91l228 944q6 28 8 43q2 28 2 41q0 34 -12 52q-14 18 -49 22q-21 3 -27 8.5t-6 16.5q0 13 9 17q10 5 30 5v0l18 -2q80 -8 150 -8q53 0 124 4t115 4q133 0 203 -72q70 -71 70 -208
q0 -204 -145.5 -322.5t-397.5 -118.5q-36 0 -47 1q-22 0 -31 1z" />
    <glyph glyph-name="ecircumflex" unicode="&#x420;" horiz-adv-x="932" 
d="M444 1227l-135 -611h13q43 -4 65 -4q172 0 289 120t117 288q0 113 -61 164t-202 51q-14 0 -42 -2q-21 -1 -44 -6zM301 569l-86 -364q-9 -42 -11 -55q-3 -21 -3 -37q0 -25 10 -38q12 -15 35 -22q4 -1 14 -3q5 -1 23 -1h4q45 -3 45 -29q0 -9 -11 -17q-11 -7 -30 -7v0l-27 2
q-76 10 -151 10q-50 0 -109 -6t-63 -6q-14 0 -19.5 5t-5.5 17q0 17 62.5 32t80.5 91l228 944q6 28 8 43q2 28 2 41q0 34 -12 52q-14 18 -49 22q-21 3 -27 8.5t-6 16.5q0 13 9 17q10 5 30 5v0l18 -2q80 -8 150 -8q53 0 124 4t115 4q133 0 203 -72q70 -71 70 -208
q0 -204 -145.5 -322.5t-397.5 -118.5q-36 0 -47 1q-22 0 -31 1z" />
    <glyph glyph-name="edieresis" unicode="&#xd1;" horiz-adv-x="999" 
d="M946 1331q56 0 78 -12q23 -14 23 -43q0 -10 -17 -84q-11 -46 -18 -76t-11 -49v-2q-13 -78 -38 -78q-11 0 -15 7t-4 38v17q2 74 2 110q0 60 -13 81.5t-54 21.5q-90 0 -198 -45q-111 -45 -198 -121q-147 -129 -224 -292q-79 -164 -79 -347q0 -194 85 -313q85 -121 216 -121
q89 0 168 58q78 56 125 157q17 35 31 77q21 60 41 60q8 0 12 -7t4 -18q0 -7 -10 -51t-18 -86q-6 -29 -12 -73q-6 -43 -11 -56q-19 -45 -117 -81q-97 -36 -211 -36q-203 0 -321 136q-119 137 -119 368q0 186 76 342q77 158 223 279q66 54 140.5 98.5t157.5 77.5
q161 63 306 63z" />
    <glyph glyph-name="edieresis" unicode="&#x421;" horiz-adv-x="999" 
d="M946 1331q56 0 78 -12q23 -14 23 -43q0 -10 -17 -84q-11 -46 -18 -76t-11 -49v-2q-13 -78 -38 -78q-11 0 -15 7t-4 38v17q2 74 2 110q0 60 -13 81.5t-54 21.5q-90 0 -198 -45q-111 -45 -198 -121q-147 -129 -224 -292q-79 -164 -79 -347q0 -194 85 -313q85 -121 216 -121
q89 0 168 58q78 56 125 157q17 35 31 77q21 60 41 60q8 0 12 -7t4 -18q0 -7 -10 -51t-18 -86q-6 -29 -12 -73q-6 -43 -11 -56q-19 -45 -117 -81q-97 -36 -211 -36q-203 0 -321 136q-119 137 -119 368q0 186 76 342q77 158 223 279q66 54 140.5 98.5t157.5 77.5
q161 63 306 63z" />
    <glyph glyph-name="iacute" unicode="&#xd2;" horiz-adv-x="899" 
d="M270 1290h592q81 0 112 34t32 34q8 0 11 -4t3 -15q0 -13 -1 -18q0 -4 -1 -8l-2 -8l-70 -265q-3 -10 -10 -17t-14 -7q-10 0 -16.5 10.5t-6.5 24.5q0 2 2 32t2 33q0 72 -21 96.5t-81 24.5h-133q-16 0 -25 -9q-11 -11 -18 -38l-256 -1026q-2 -11 -3.5 -17t-4.5 -19
q-3 -16 -3 -28q0 -33 56.5 -44.5t56.5 -32.5q0 -13 -9.5 -19t-29.5 -6q-5 0 -10.5 1t-13.5 1q-19 5 -45 6q-34 2 -52 2q-78 0 -147.5 -7t-75.5 -7q-16 0 -22 6q-7 4 -7 18q0 23 45 27q23 3 37 6q36 7 53 27t27 63l266 1041q4 15 5 20q2 12 2 17q0 10 -10 14q-9 4 -29 4h-99
q-70 0 -109 -19q-41 -19 -75 -65q-22 -30 -41 -78q-21 -51 -41 -51q-9 0 -15.5 7t-6.5 18v0l2 12q1 10 6 22l78 256q6 21 11 28q5 5 13 5q9 0 20 -41t72 -41z" />
    <glyph glyph-name="iacute" unicode="&#x422;" horiz-adv-x="899" 
d="M270 1290h592q81 0 112 34t32 34q8 0 11 -4t3 -15q0 -13 -1 -18q0 -4 -1 -8l-2 -8l-70 -265q-3 -10 -10 -17t-14 -7q-10 0 -16.5 10.5t-6.5 24.5q0 2 2 32t2 33q0 72 -21 96.5t-81 24.5h-133q-16 0 -25 -9q-11 -11 -18 -38l-256 -1026q-2 -11 -3.5 -17t-4.5 -19
q-3 -16 -3 -28q0 -33 56.5 -44.5t56.5 -32.5q0 -13 -9.5 -19t-29.5 -6q-5 0 -10.5 1t-13.5 1q-19 5 -45 6q-34 2 -52 2q-78 0 -147.5 -7t-75.5 -7q-16 0 -22 6q-7 4 -7 18q0 23 45 27q23 3 37 6q36 7 53 27t27 63l266 1041q4 15 5 20q2 12 2 17q0 10 -10 14q-9 4 -29 4h-99
q-70 0 -109 -19q-41 -19 -75 -65q-22 -30 -41 -78q-21 -51 -41 -51q-9 0 -15.5 7t-6.5 18v0l2 12q1 10 6 22l78 256q6 21 11 28q5 5 13 5q9 0 20 -41t72 -41z" />
    <glyph glyph-name="igrave" unicode="&#xd3;" horiz-adv-x="900" 
d="M525 576l235 404q8 14 22 37.5t23.5 40t18.5 36.5q34 73 37 87q1 4 1 8q0 30 -47 38q-49 8 -49 30q0 3 1 6q2 11 11.5 17.5t25.5 6.5q4 0 50 -6q48 -6 93 -6q35 0 78 5l41 5v0q13 0 19 -6q3 -5 3 -11q0 -4 -1 -9q-4 -18 -13 -25q-10 -9 -38 -10q-3 -1 -6 -1.5t-5.5 -1
t-4.5 -1.5q-3 0 -6 -0.5t-5 -1.5q-46 -13 -87 -63q-11 -14 -34 -53.5t-41 -69.5l-449 -765q-34 -59 -67 -109q-41 -60 -65 -86q-31 -38 -73 -64q-47 -27 -85 -27q-47 0 -69 24q-25 25 -25 57q0 37 35 66q24 20 66 20q22 0 41.5 -7t37.5 -7q21 0 43 13q20 11 44 37
q18 22 30 46q19 34 23 56q5 22 5 49q1 28 -5 61l-121 739q-4 23 -27 63q-17 26 -34 33q-8 3 -35 6q-25 1 -25 16v4q3 14 16 24q14 9 30 9v0l26 -2q102 -8 189 -8q53 0 97 4l12 2v0q14 0 18 -6q3 -5 3 -11q0 -4 -1 -9q-6 -26 -55 -36.5t-55 -39.5q-1 -7 -1 -17q-1 -10 1 -24
q1 -11 6 -32.5t5 -23.5l75 -507q1 -17 7 -32q6 -14 13 -14q8 0 22 12q16 14 25 30z" />
    <glyph glyph-name="igrave" unicode="&#x423;" horiz-adv-x="900" 
d="M525 576l235 404q8 14 22 37.5t23.5 40t18.5 36.5q34 73 37 87q1 4 1 8q0 30 -47 38q-49 8 -49 30q0 3 1 6q2 11 11.5 17.5t25.5 6.5q4 0 50 -6q48 -6 93 -6q35 0 78 5l41 5v0q13 0 19 -6q3 -5 3 -11q0 -4 -1 -9q-4 -18 -13 -25q-10 -9 -38 -10q-3 -1 -6 -1.5t-5.5 -1
t-4.5 -1.5q-3 0 -6 -0.5t-5 -1.5q-46 -13 -87 -63q-11 -14 -34 -53.5t-41 -69.5l-449 -765q-34 -59 -67 -109q-41 -60 -65 -86q-31 -38 -73 -64q-47 -27 -85 -27q-47 0 -69 24q-25 25 -25 57q0 37 35 66q24 20 66 20q22 0 41.5 -7t37.5 -7q21 0 43 13q20 11 44 37
q18 22 30 46q19 34 23 56q5 22 5 49q1 28 -5 61l-121 739q-4 23 -27 63q-17 26 -34 33q-8 3 -35 6q-25 1 -25 16v4q3 14 16 24q14 9 30 9v0l26 -2q102 -8 189 -8q53 0 97 4l12 2v0q14 0 18 -6q3 -5 3 -11q0 -4 -1 -9q-6 -26 -55 -36.5t-55 -39.5q-1 -7 -1 -17q-1 -10 1 -24
q1 -11 6 -32.5t5 -23.5l75 -507q1 -17 7 -32q6 -14 13 -14q8 0 22 12q16 14 25 30z" />
    <glyph glyph-name="icircumflex" unicode="&#xd4;" horiz-adv-x="1232" 
d="M741 1274q50 0 114 8t67 8q16 0 22 -7q4 -5 4 -12q0 -4 -1 -9q-4 -26 -53 -31q-41 -4 -50 -6q-26 -7 -43 -25q-10 -13 -16 -40l-14 -70q-1 -5 -1 -9q0 -18 22 -18l50.5 5.5t75.5 5.5q78 0 138 -40q43 -31 76 -83q34 -57 44 -120q4 -28 4 -58q0 -52 -11 -111
q-17 -79 -72 -167q-51 -77 -100 -120t-121 -75q-75 -36 -127 -36q-31 0 -66.5 6.5t-53.5 6.5q-27 0 -33 -27l-17 -84q-6 -30 -6 -48q0 -13 3 -21q8 -18 51 -29q17 -4 36 -5q42 -3 42 -24q0 -3 -1 -6q-3 -16 -17 -24q-16 -9 -35 -9q-2 0 -67 5t-109 5q-41 0 -109 -5t-69 -5
q-18 0 -31 9q-8 5 -8 17q0 3 1 7q6 27 53 30q22 1 38 5q46 10 63 29q16 17 27 69l17 84q1 5 1 9q0 18 -22 18q-17 0 -55.5 -6.5t-70.5 -6.5q-51 0 -113 36q-60 34 -89 75q-32 42 -50 120q-11 44 -11 88q0 39 9 79q19 91 63 169q38 66 94 120q52 52 110 83q77 40 154 40
q26 0 75 -5l47 -6v0q27 0 33 27l14 70q3 14 3 24t-3 16q-10 19 -31 25q-8 2 -48.5 6t-40.5 27v4q3 12 13 21q8 7 24 7q2 0 63 -8t114 -8zM494 421l103 498q4 19 4 36q0 32 -15.5 56t-96.5 24q-45 0 -89 -26q-42 -22 -80 -67q-37 -41 -71 -114q-36 -76 -56 -170
q-13 -62 -13 -123v-22q3 -73 25 -111q20 -39 55 -66q39 -30 81 -30q57 0 105 33q36 23 48 82zM632 421q-4 -20 -4 -36q0 -31 16 -46q38 -33 93 -33q41 0 93 30q47 28 83 66q39 42 71 111q32 74 47 145t15 140q0 15 -1 30q-3 70 -23 114q-22 45 -52 67q-34 26 -79 26
q-81 0 -107 -24q-37 -35 -49 -92z" />
    <glyph glyph-name="icircumflex" unicode="&#x424;" horiz-adv-x="1232" 
d="M741 1274q50 0 114 8t67 8q16 0 22 -7q4 -5 4 -12q0 -4 -1 -9q-4 -26 -53 -31q-41 -4 -50 -6q-26 -7 -43 -25q-10 -13 -16 -40l-14 -70q-1 -5 -1 -9q0 -18 22 -18l50.5 5.5t75.5 5.5q78 0 138 -40q43 -31 76 -83q34 -57 44 -120q4 -28 4 -58q0 -52 -11 -111
q-17 -79 -72 -167q-51 -77 -100 -120t-121 -75q-75 -36 -127 -36q-31 0 -66.5 6.5t-53.5 6.5q-27 0 -33 -27l-17 -84q-6 -30 -6 -48q0 -13 3 -21q8 -18 51 -29q17 -4 36 -5q42 -3 42 -24q0 -3 -1 -6q-3 -16 -17 -24q-16 -9 -35 -9q-2 0 -67 5t-109 5q-41 0 -109 -5t-69 -5
q-18 0 -31 9q-8 5 -8 17q0 3 1 7q6 27 53 30q22 1 38 5q46 10 63 29q16 17 27 69l17 84q1 5 1 9q0 18 -22 18q-17 0 -55.5 -6.5t-70.5 -6.5q-51 0 -113 36q-60 34 -89 75q-32 42 -50 120q-11 44 -11 88q0 39 9 79q19 91 63 169q38 66 94 120q52 52 110 83q77 40 154 40
q26 0 75 -5l47 -6v0q27 0 33 27l14 70q3 14 3 24t-3 16q-10 19 -31 25q-8 2 -48.5 6t-40.5 27v4q3 12 13 21q8 7 24 7q2 0 63 -8t114 -8zM494 421l103 498q4 19 4 36q0 32 -15.5 56t-96.5 24q-45 0 -89 -26q-42 -22 -80 -67q-37 -41 -71 -114q-36 -76 -56 -170
q-13 -62 -13 -123v-22q3 -73 25 -111q20 -39 55 -66q39 -30 81 -30q57 0 105 33q36 23 48 82zM632 421q-4 -20 -4 -36q0 -31 16 -46q38 -33 93 -33q41 0 93 30q47 28 83 66q39 42 71 111q32 74 47 145t15 140q0 15 -1 30q-3 70 -23 114q-22 45 -52 67q-34 26 -79 26
q-81 0 -107 -24q-37 -35 -49 -92z" />
    <glyph glyph-name="idieresis" unicode="&#xd5;" horiz-adv-x="967" 
d="M393 1149l129 -406l180 220q61 71 102.5 142t41.5 95q0 37 -68 45q-29 3 -38 8.5t-9 16.5t10.5 18.5t26.5 7.5q4 0 10.5 -1t18.5 -1q52 -6 66 -7q29 -3 59 -3q43 0 110 8q26 2 27 2q2 1 5 1.5t5 0.5h10q12 0 19 -7q8 -8 8 -17q0 -13 -7.5 -19.5t-31.5 -7.5
q-1 0 -5.5 -1.5t-12.5 -3.5t-11.5 -3t-7.5 -2q-33 -12 -82 -58q-53 -50 -123 -137l-278 -340l184 -507l3.5 -10.5t4 -12.5t4.5 -14q29 -83 60 -95q23 -7 43 -10q43 -7 43 -28q0 -12 -10.5 -19.5t-24.5 -7.5q-6 0 -54 7t-100 7q-59 0 -132 -5q-21 -1 -38.5 -2.5t-21.5 -2
t-6 -0.5q-16 0 -24.5 6t-8.5 17q0 23 73 33q72 11 72 48q0 11 -3 27q-9 33 -17 57l-135 402l-256 -334q-43 -55 -68 -99q-22 -40 -22 -61q0 -32 59 -37q34 0 45 -7q12 -7 12 -25q0 -13 -9.5 -21t-26.5 -8q-7 0 -59.5 7t-113.5 7q-62 0 -118 -10l-17 -2v0q-15 0 -23.5 6.5
t-8.5 16.5q0 14 9 21q9 8 40 15q5 4 11 5q3 1 7 2.5t8 1.5q37 10 74 37q35 26 78 81l358 451l-164 475v2q-31 83 -63 109q-7 5 -23 13q-13 5 -28 9q-21 8 -25 13q-6 5 -6 14t7.5 16.5t19.5 7.5l26 -2q5 -1 9 -1t6 -1q27 -4 53 -6q34 -2 53 -2q49 0 89 3q32 1 71 7q2 1 4 1.5
t4 0.5h6q12 0 19 -6q8 -8 8 -16q0 -22 -49 -29h-4q-70 -4 -70 -45q0 -16 10 -45z" />
    <glyph glyph-name="idieresis" unicode="&#x425;" horiz-adv-x="967" 
d="M393 1149l129 -406l180 220q61 71 102.5 142t41.5 95q0 37 -68 45q-29 3 -38 8.5t-9 16.5t10.5 18.5t26.5 7.5q4 0 10.5 -1t18.5 -1q52 -6 66 -7q29 -3 59 -3q43 0 110 8q26 2 27 2q2 1 5 1.5t5 0.5h10q12 0 19 -7q8 -8 8 -17q0 -13 -7.5 -19.5t-31.5 -7.5
q-1 0 -5.5 -1.5t-12.5 -3.5t-11.5 -3t-7.5 -2q-33 -12 -82 -58q-53 -50 -123 -137l-278 -340l184 -507l3.5 -10.5t4 -12.5t4.5 -14q29 -83 60 -95q23 -7 43 -10q43 -7 43 -28q0 -12 -10.5 -19.5t-24.5 -7.5q-6 0 -54 7t-100 7q-59 0 -132 -5q-21 -1 -38.5 -2.5t-21.5 -2
t-6 -0.5q-16 0 -24.5 6t-8.5 17q0 23 73 33q72 11 72 48q0 11 -3 27q-9 33 -17 57l-135 402l-256 -334q-43 -55 -68 -99q-22 -40 -22 -61q0 -32 59 -37q34 0 45 -7q12 -7 12 -25q0 -13 -9.5 -21t-26.5 -8q-7 0 -59.5 7t-113.5 7q-62 0 -118 -10l-17 -2v0q-15 0 -23.5 6.5
t-8.5 16.5q0 14 9 21q9 8 40 15q5 4 11 5q3 1 7 2.5t8 1.5q37 10 74 37q35 26 78 81l358 451l-164 475v2q-31 83 -63 109q-7 5 -23 13q-13 5 -28 9q-21 8 -25 13q-6 5 -6 14t7.5 16.5t19.5 7.5l26 -2q5 -1 9 -1t6 -1q27 -4 53 -6q34 -2 53 -2q49 0 89 3q32 1 71 7q2 1 4 1.5
t4 0.5h6q12 0 19 -6q8 -8 8 -16q0 -22 -49 -29h-4q-70 -4 -70 -45q0 -16 10 -45z" />
    <glyph glyph-name="ntilde" unicode="&#xd6;" horiz-adv-x="1202" 
d="M686 51q32 0 58 28q16 16 26 64l203 942q5 23 6 46q2 32 2 40q0 61 -46 70t-46 27q0 12 9.5 18t29.5 6q4 0 57.5 -6t101.5 -6q43 0 100 5l52 5v0q12 0 17 -5q4 -4 4 -17q0 -14 -7 -20.5t-32 -8.5q-1 0 -6 -0.5t-8 -1.5l-15 -2v0q-29 -8 -42 -25.5t-24 -64.5l-204 -940
q-2 -12 -14 -55q-10 -35 -10 -47q0 -3 1 -5q6 -18 38 -28q19 -6 43 -7q41 -4 41 -27q0 -3 -1 -7l-47 -217q-6 -26 -14 -39q-7 -12 -20 -12q-17 0 -24 55q-8 56 -23 85q-29 51 -76 74q-50 25 -121 25h-679q-35 0 -60 -2q-19 -2 -29 -2h-5q-17 2 -20 5q-6 5 -6 17q0 23 45 27
q22 3 36 6q36 7 54 28q15 18 26 62l234 989q3 15 4 19q6 24 6 35q0 24 -12 37q-14 14 -47 18h-4q-33 8 -33 25q0 15 8.5 21.5t30.5 6.5v0l26 -2q86 -10 170 -10q59 0 125 8l15 2v0q10 0 15 -5q5 -7 5 -17q0 -13 -8 -19t-37 -8q-5 -1 -17 -3q-6 -1 -20 -3q-37 -8 -53 -27
t-27 -63l-223 -940q-9 -37 -11 -52q-3 -22 -3 -40q0 -29 22 -45q23 -17 57 -17h406z" />
    <glyph glyph-name="ntilde" unicode="&#x426;" horiz-adv-x="1202" 
d="M686 51q32 0 58 28q16 16 26 64l203 942q5 23 6 46q2 32 2 40q0 61 -46 70t-46 27q0 12 9.5 18t29.5 6q4 0 57.5 -6t101.5 -6q43 0 100 5l52 5v0q12 0 17 -5q4 -4 4 -17q0 -14 -7 -20.5t-32 -8.5q-1 0 -6 -0.5t-8 -1.5l-15 -2v0q-29 -8 -42 -25.5t-24 -64.5l-204 -940
q-2 -12 -14 -55q-10 -35 -10 -47q0 -3 1 -5q6 -18 38 -28q19 -6 43 -7q41 -4 41 -27q0 -3 -1 -7l-47 -217q-6 -26 -14 -39q-7 -12 -20 -12q-17 0 -24 55q-8 56 -23 85q-29 51 -76 74q-50 25 -121 25h-679q-35 0 -60 -2q-19 -2 -29 -2h-5q-17 2 -20 5q-6 5 -6 17q0 23 45 27
q22 3 36 6q36 7 54 28q15 18 26 62l234 989q3 15 4 19q6 24 6 35q0 24 -12 37q-14 14 -47 18h-4q-33 8 -33 25q0 15 8.5 21.5t30.5 6.5v0l26 -2q86 -10 170 -10q59 0 125 8l15 2v0q10 0 15 -5q5 -7 5 -17q0 -13 -8 -19t-37 -8q-5 -1 -17 -3q-6 -1 -20 -3q-37 -8 -53 -27
t-27 -63l-223 -940q-9 -37 -11 -52q-3 -22 -3 -40q0 -29 22 -45q23 -17 57 -17h406z" />
    <glyph glyph-name="oacute" unicode="&#xd7;" horiz-adv-x="1010" 
d="M330 540q-123 0 -178.5 59t-55.5 155q0 34 9 70l71 306q9 40 9 60q0 6 -1 10q-3 15 -31 25q-16 5 -48 6q-41 4 -41 25q0 3 1 6q3 12 13 21q8 7 25 7q2 0 63 -8t109 -8q54 0 121 8l67 8q13 0 21 -8q4 -5 4 -12q0 -4 -1 -8q-6 -26 -54 -31q-30 -2 -42 -4q-32 -7 -47 -22
q-15 -18 -28 -75l-68 -292q-14 -58 -14 -100q0 -61 34.5 -96.5t82.5 -35.5q79 0 171 53t159 129.5t81 138.5l43 203q10 46 10 64q0 5 -1 8q-5 16 -30 23q-16 5 -48 6q-41 4 -41 25q0 3 1 6q3 12 13 21q8 7 24 7q2 0 63 -8q59 -8 107 -8q55 0 122 8t69 8q13 0 19 -7
q3 -4 3 -11q0 -5 -1 -10q-6 -27 -52 -31q-30 -2 -42 -4q-32 -7 -47 -22q-15 -18 -28 -75l-217 -937q-14 -58 -14 -82q0 -9 2 -13q6 -17 36 -28q21 -6 44 -7q41 -4 41 -28q0 -3 -1 -6q-3 -13 -16.5 -21t-34.5 -8v0l-61 5q-63 5 -109 5q-44 0 -109 -5l-65 -5v0q-19 0 -30 9
q-8 6 -8 16q0 4 1 8q6 27 52 30q26 2 36 5q43 11 60 28q15 17 35 97l114 482q9 34 9 46v4q0 14 -11 14q-10 0 -74.5 -58t-136.5 -99.5t-159 -41.5z" />
    <glyph glyph-name="oacute" unicode="&#x427;" horiz-adv-x="1010" 
d="M330 540q-123 0 -178.5 59t-55.5 155q0 34 9 70l71 306q9 40 9 60q0 6 -1 10q-3 15 -31 25q-16 5 -48 6q-41 4 -41 25q0 3 1 6q3 12 13 21q8 7 25 7q2 0 63 -8t109 -8q54 0 121 8l67 8q13 0 21 -8q4 -5 4 -12q0 -4 -1 -8q-6 -26 -54 -31q-30 -2 -42 -4q-32 -7 -47 -22
q-15 -18 -28 -75l-68 -292q-14 -58 -14 -100q0 -61 34.5 -96.5t82.5 -35.5q79 0 171 53t159 129.5t81 138.5l43 203q10 46 10 64q0 5 -1 8q-5 16 -30 23q-16 5 -48 6q-41 4 -41 25q0 3 1 6q3 12 13 21q8 7 24 7q2 0 63 -8q59 -8 107 -8q55 0 122 8t69 8q13 0 19 -7
q3 -4 3 -11q0 -5 -1 -10q-6 -27 -52 -31q-30 -2 -42 -4q-32 -7 -47 -22q-15 -18 -28 -75l-217 -937q-14 -58 -14 -82q0 -9 2 -13q6 -17 36 -28q21 -6 44 -7q41 -4 41 -28q0 -3 -1 -6q-3 -13 -16.5 -21t-34.5 -8v0l-61 5q-63 5 -109 5q-44 0 -109 -5l-65 -5v0q-19 0 -30 9
q-8 6 -8 16q0 4 1 8q6 27 52 30q26 2 36 5q43 11 60 28q15 17 35 97l114 482q9 34 9 46v4q0 14 -11 14q-10 0 -74.5 -58t-136.5 -99.5t-159 -41.5z" />
    <glyph glyph-name="ograve" unicode="&#xd8;" horiz-adv-x="1556" 
d="M991 0h-181v0l-61 5q-63 5 -109 5q-44 0 -109 -5l-65 -5v0h-182l-62 5t-108 5q-45 0 -110 -5l-64 -5v0q-20 0 -29 9q-8 5 -8 17q0 3 1 7q6 27 52 30q26 2 36 5q43 11 59 28q17 18 33 97l204 937q9 40 9 60q0 6 -1 10q-4 16 -32 25q-16 5 -48 6q-41 4 -41 25q0 3 1 6
q3 12 13 21q8 7 24 7q3 0 64 -8q59 -8 109 -8q52 0 121 8l66 8v0q14 0 22 -8q4 -6 4 -13q0 -3 -1 -7q-6 -26 -54 -31q-30 -2 -41 -4q-34 -7 -47.5 -22.5t-27.5 -74.5l-204 -937q-13 -58 -13 -82q0 -9 2 -13q7 -17 31 -34q18 -12 57 -12h150q42 0 77 14q29 11 48 30
q17 18 33 97l204 937q9 40 9 59q0 8 -1 13q-5 16 -30 23q-16 5 -48 6q-41 4 -41 25q0 3 1 6q3 12 13 21q8 7 23 7q3 0 64 -8q58 -8 107 -8q53 0 122 8q67 8 68 8q14 0 20 -7q3 -4 3 -11q0 -5 -1 -10q-6 -27 -52 -31q-30 -2 -41 -4q-34 -7 -47.5 -22.5t-27.5 -74.5l-204 -937
q-13 -58 -13 -82q0 -9 2 -13q9 -21 37 -36q19 -10 71 -10h136q39 0 61 10q41 18 57 34q17 18 33 97l204 937q9 40 9 59q0 8 -1 13q-5 16 -30 23q-16 5 -48 6q-41 4 -41 25q0 3 1 6q3 12 13 21q8 7 23 7q3 0 64 -8q58 -8 107 -8q53 0 122 8q67 8 68 8q14 0 20 -7q3 -4 3 -11
q0 -5 -1 -10q-6 -27 -52 -31q-30 -2 -41 -4q-34 -7 -47.5 -22.5t-27.5 -74.5l-204 -937q-13 -58 -13 -82q0 -9 2 -13q7 -18 37 -28q21 -6 44 -7q41 -4 41 -27q0 -3 -1 -7q-3 -13 -15 -21q-14 -8 -35 -8v0l-61 5q-63 5 -109 5q-44 0 -109 -5l-65 -5v0z" />
    <glyph glyph-name="ograve" unicode="&#x428;" horiz-adv-x="1556" 
d="M991 0h-181v0l-61 5q-63 5 -109 5q-44 0 -109 -5l-65 -5v0h-182l-62 5t-108 5q-45 0 -110 -5l-64 -5v0q-20 0 -29 9q-8 5 -8 17q0 3 1 7q6 27 52 30q26 2 36 5q43 11 59 28q17 18 33 97l204 937q9 40 9 60q0 6 -1 10q-4 16 -32 25q-16 5 -48 6q-41 4 -41 25q0 3 1 6
q3 12 13 21q8 7 24 7q3 0 64 -8q59 -8 109 -8q52 0 121 8l66 8v0q14 0 22 -8q4 -6 4 -13q0 -3 -1 -7q-6 -26 -54 -31q-30 -2 -41 -4q-34 -7 -47.5 -22.5t-27.5 -74.5l-204 -937q-13 -58 -13 -82q0 -9 2 -13q7 -17 31 -34q18 -12 57 -12h150q42 0 77 14q29 11 48 30
q17 18 33 97l204 937q9 40 9 59q0 8 -1 13q-5 16 -30 23q-16 5 -48 6q-41 4 -41 25q0 3 1 6q3 12 13 21q8 7 23 7q3 0 64 -8q58 -8 107 -8q53 0 122 8q67 8 68 8q14 0 20 -7q3 -4 3 -11q0 -5 -1 -10q-6 -27 -52 -31q-30 -2 -41 -4q-34 -7 -47.5 -22.5t-27.5 -74.5l-204 -937
q-13 -58 -13 -82q0 -9 2 -13q9 -21 37 -36q19 -10 71 -10h136q39 0 61 10q41 18 57 34q17 18 33 97l204 937q9 40 9 59q0 8 -1 13q-5 16 -30 23q-16 5 -48 6q-41 4 -41 25q0 3 1 6q3 12 13 21q8 7 23 7q3 0 64 -8q58 -8 107 -8q53 0 122 8q67 8 68 8q14 0 20 -7q3 -4 3 -11
q0 -5 -1 -10q-6 -27 -52 -31q-30 -2 -41 -4q-34 -7 -47.5 -22.5t-27.5 -74.5l-204 -937q-13 -58 -13 -82q0 -9 2 -13q7 -18 37 -28q21 -6 44 -7q41 -4 41 -27q0 -3 -1 -7q-3 -13 -15 -21q-14 -8 -35 -8v0l-61 5q-63 5 -109 5q-44 0 -109 -5l-65 -5v0z" />
    <glyph glyph-name="ocircumflex" unicode="&#xd9;" horiz-adv-x="1576" 
d="M1059 0h-249v0l-61 5q-63 5 -109 5q-44 0 -109 -5l-65 -5v0h-182l-62 5t-108 5q-45 0 -110 -5l-64 -5v0q-20 0 -29 9q-8 5 -8 17q0 3 1 7q6 27 52 30q26 2 36 5q43 11 59 28q17 18 33 97l204 937q9 40 9 60q0 6 -1 10q-4 16 -32 25q-16 5 -48 6q-41 4 -41 25q0 3 1 6
q3 12 13 21q8 7 24 7q3 0 64 -8q59 -8 109 -8q52 0 121 8l66 8v0q14 0 22 -8q4 -6 4 -13q0 -3 -1 -7q-6 -26 -54 -31q-30 -2 -41 -4q-34 -7 -47.5 -22.5t-27.5 -74.5l-204 -937q-13 -58 -13 -82q0 -9 2 -13q7 -17 31 -34q18 -12 57 -12h150q42 0 77 14q29 11 48 30
q17 18 33 97l204 937q9 40 9 59q0 8 -1 13q-5 16 -30 23q-16 5 -48 6q-41 4 -41 25q0 3 1 6q3 12 13 21q8 7 23 7q3 0 64 -8q58 -8 107 -8q53 0 122 8q67 8 68 8q14 0 20 -7q3 -4 3 -11q0 -5 -1 -10q-6 -27 -52 -31q-30 -2 -41 -4q-34 -7 -47.5 -22.5t-27.5 -74.5l-204 -937
q-13 -58 -13 -82q0 -9 2 -13q9 -21 37 -36q19 -10 71 -10h136q39 0 61 10q41 18 57 34q17 18 33 97l204 937q9 40 9 59q0 8 -1 13q-5 16 -30 23q-16 5 -48 6q-41 4 -41 25q0 3 1 6q3 12 13 21q8 7 23 7q3 0 64 -8q58 -8 107 -8q53 0 122 8q67 8 68 8q14 0 20 -7q3 -4 3 -11
q0 -5 -1 -10q-6 -27 -52 -31q-30 -2 -41 -4q-34 -7 -47.5 -22.5t-27.5 -74.5l-204 -937q-15 -68 -15 -93q0 -17 41 -30q19 -6 43 -7q41 -3 41 -26q0 -4 -1 -8l-47 -217q-6 -26 -14 -39q-7 -12 -20 -12q-17 0 -24 55q-8 56 -23 85q-29 51 -76 74q-50 25 -121 25z" />
    <glyph glyph-name="ocircumflex" unicode="&#x429;" horiz-adv-x="1576" 
d="M1059 0h-249v0l-61 5q-63 5 -109 5q-44 0 -109 -5l-65 -5v0h-182l-62 5t-108 5q-45 0 -110 -5l-64 -5v0q-20 0 -29 9q-8 5 -8 17q0 3 1 7q6 27 52 30q26 2 36 5q43 11 59 28q17 18 33 97l204 937q9 40 9 60q0 6 -1 10q-4 16 -32 25q-16 5 -48 6q-41 4 -41 25q0 3 1 6
q3 12 13 21q8 7 24 7q3 0 64 -8q59 -8 109 -8q52 0 121 8l66 8v0q14 0 22 -8q4 -6 4 -13q0 -3 -1 -7q-6 -26 -54 -31q-30 -2 -41 -4q-34 -7 -47.5 -22.5t-27.5 -74.5l-204 -937q-13 -58 -13 -82q0 -9 2 -13q7 -17 31 -34q18 -12 57 -12h150q42 0 77 14q29 11 48 30
q17 18 33 97l204 937q9 40 9 59q0 8 -1 13q-5 16 -30 23q-16 5 -48 6q-41 4 -41 25q0 3 1 6q3 12 13 21q8 7 23 7q3 0 64 -8q58 -8 107 -8q53 0 122 8q67 8 68 8q14 0 20 -7q3 -4 3 -11q0 -5 -1 -10q-6 -27 -52 -31q-30 -2 -41 -4q-34 -7 -47.5 -22.5t-27.5 -74.5l-204 -937
q-13 -58 -13 -82q0 -9 2 -13q9 -21 37 -36q19 -10 71 -10h136q39 0 61 10q41 18 57 34q17 18 33 97l204 937q9 40 9 59q0 8 -1 13q-5 16 -30 23q-16 5 -48 6q-41 4 -41 25q0 3 1 6q3 12 13 21q8 7 23 7q3 0 64 -8q58 -8 107 -8q53 0 122 8q67 8 68 8q14 0 20 -7q3 -4 3 -11
q0 -5 -1 -10q-6 -27 -52 -31q-30 -2 -41 -4q-34 -7 -47.5 -22.5t-27.5 -74.5l-204 -937q-15 -68 -15 -93q0 -17 41 -30q19 -6 43 -7q41 -3 41 -26q0 -4 -1 -8l-47 -217q-6 -26 -14 -39q-7 -12 -20 -12q-17 0 -24 55q-8 56 -23 85q-29 51 -76 74q-50 25 -121 25z" />
    <glyph glyph-name="odieresis" unicode="&#xda;" horiz-adv-x="1124" 
d="M492 1184q4 16 4 34q0 10 -12 15q-9 4 -29 4h-99q-70 0 -109 -19q-41 -19 -75 -65q-19 -25 -41 -78q-21 -51 -41 -51q-9 0 -15.5 7t-6.5 18v0l2 12q1 10 6 22l78 256q6 21 11 28q5 5 13 5q9 0 20 -41q9 -33 72 -41q27 -2 134.5 -9t172.5 -7q54 0 121 8l67 8q13 0 21 -8
q4 -5 4 -12q0 -4 -1 -8q-6 -26 -54 -31q-31 -2 -42 -4q-34 -8 -47 -22q-10 -11 -25 -75l-84 -354q-4 -16 -4 -27q0 -14 6 -20q9 -12 62 -12q171 0 275 -49q170 -81 170 -276q0 -180 -154 -308q-59 -49 -130.5 -71.5t-141.5 -22.5q-130 0 -183 7q-114 15 -158 15
q-45 0 -96.5 -6t-60.5 -6q-17 0 -26 9q-6 6 -6 15q0 4 1 9q3 15 17 23q11 7 40 7q41 0 65 21t35 68q0 2 4 14q6 18 8 27zM508 668l-107 -467q-7 -31 -7 -56q0 -43 21 -67q34 -37 133 -37q138 0 235 84q50 42 86.5 114.5t36.5 148.5q0 78 -12.5 124t-47.5 86q-33 39 -90 59.5
t-130 20.5q-55 0 -118 -10z" />
    <glyph glyph-name="odieresis" unicode="&#x42a;" horiz-adv-x="1124" 
d="M492 1184q4 16 4 34q0 10 -12 15q-9 4 -29 4h-99q-70 0 -109 -19q-41 -19 -75 -65q-19 -25 -41 -78q-21 -51 -41 -51q-9 0 -15.5 7t-6.5 18v0l2 12q1 10 6 22l78 256q6 21 11 28q5 5 13 5q9 0 20 -41q9 -33 72 -41q27 -2 134.5 -9t172.5 -7q54 0 121 8l67 8q13 0 21 -8
q4 -5 4 -12q0 -4 -1 -8q-6 -26 -54 -31q-31 -2 -42 -4q-34 -8 -47 -22q-10 -11 -25 -75l-84 -354q-4 -16 -4 -27q0 -14 6 -20q9 -12 62 -12q171 0 275 -49q170 -81 170 -276q0 -180 -154 -308q-59 -49 -130.5 -71.5t-141.5 -22.5q-130 0 -183 7q-114 15 -158 15
q-45 0 -96.5 -6t-60.5 -6q-17 0 -26 9q-6 6 -6 15q0 4 1 9q3 15 17 23q11 7 40 7q41 0 65 21t35 68q0 2 4 14q6 18 8 27zM508 668l-107 -467q-7 -31 -7 -56q0 -43 21 -67q34 -37 133 -37q138 0 235 84q50 42 86.5 114.5t36.5 148.5q0 78 -12.5 124t-47.5 86q-33 39 -90 59.5
t-130 20.5q-55 0 -118 -10z" />
    <glyph glyph-name="otilde" unicode="&#xdb;" horiz-adv-x="1416" 
d="M438 1145l-80 -344q-5 -26 -5.5 -32t-2.5 -13q-2 -14 -2 -17q0 -8 14 -13q15 -5 39 -5q150 0 239 -29t145 -90q73 -80 73 -215q0 -168 -130 -285q-53 -46 -132 -76t-170 -30q-85 0 -182 7t-127 7q-75 0 -156 -12l-24 -2v0q-12 0 -19.5 6t-7.5 14q0 10 4 15q3 6 8 8l45 14
q77 26 111 162q1 7 4 16l209 899q3 15 4 19q6 24 6 35q0 24 -12 37q-14 14 -47 18h-4q-33 8 -33 25q0 15 8.5 21.5t30.5 6.5v0l26 -2q86 -10 170 -10q59 0 125 8l15 2v0q10 0 15 -5q5 -7 5 -17q0 -13 -8 -19t-37 -8q-5 -1 -17 -3q-6 -1 -20 -3q-37 -8 -53 -27t-27 -63z
M324 670l-95 -408q-1 -9 -6 -24q-18 -76 -18 -103q0 -51 29.5 -72.5t103.5 -21.5q183 0 282 101t99 284q0 122 -74 187q-76 65 -215 65q-22 0 -84 -6q-18 -2 -22 -2zM1357 1157l-222 -952q-3 -15 -4 -19q-12 -52 -12 -73q0 -28 12 -43t39 -21q3 0 8.5 -0.5t9.5 -1.5l17 -2v0
q29 0 37 -5.5t8 -19.5q0 -8 -8 -16q-10 -8 -21 -8v0l-14 2q-80 10 -176 10q-60 0 -123 -6t-68 -6q-14 0 -19 5t-5 17q0 23 45 27q25 3 37 6q36 7 53 27.5t27 62.5l233 989q4 16 5 25t1 33q0 40 -55 53h-2q-22 4 -30 11q-7 6 -7 16q0 11 9.5 17.5t25.5 6.5v0l24 -2
q96 -8 175 -8q32 0 63 4t41 4q12 0 19 -5q6 -4 6 -15q0 -15 -56 -27t-73 -86z" />
    <glyph glyph-name="otilde" unicode="&#x42b;" horiz-adv-x="1416" 
d="M438 1145l-80 -344q-5 -26 -5.5 -32t-2.5 -13q-2 -14 -2 -17q0 -8 14 -13q15 -5 39 -5q150 0 239 -29t145 -90q73 -80 73 -215q0 -168 -130 -285q-53 -46 -132 -76t-170 -30q-85 0 -182 7t-127 7q-75 0 -156 -12l-24 -2v0q-12 0 -19.5 6t-7.5 14q0 10 4 15q3 6 8 8l45 14
q77 26 111 162q1 7 4 16l209 899q3 15 4 19q6 24 6 35q0 24 -12 37q-14 14 -47 18h-4q-33 8 -33 25q0 15 8.5 21.5t30.5 6.5v0l26 -2q86 -10 170 -10q59 0 125 8l15 2v0q10 0 15 -5q5 -7 5 -17q0 -13 -8 -19t-37 -8q-5 -1 -17 -3q-6 -1 -20 -3q-37 -8 -53 -27t-27 -63z
M324 670l-95 -408q-1 -9 -6 -24q-18 -76 -18 -103q0 -51 29.5 -72.5t103.5 -21.5q183 0 282 101t99 284q0 122 -74 187q-76 65 -215 65q-22 0 -84 -6q-18 -2 -22 -2zM1357 1157l-222 -952q-3 -15 -4 -19q-12 -52 -12 -73q0 -28 12 -43t39 -21q3 0 8.5 -0.5t9.5 -1.5l17 -2v0
q29 0 37 -5.5t8 -19.5q0 -8 -8 -16q-10 -8 -21 -8v0l-14 2q-80 10 -176 10q-60 0 -123 -6t-68 -6q-14 0 -19 5t-5 17q0 23 45 27q25 3 37 6q36 7 53 27.5t27 62.5l233 989q4 16 5 25t1 33q0 40 -55 53h-2q-22 4 -30 11q-7 6 -7 16q0 11 9.5 17.5t25.5 6.5v0l24 -2
q96 -8 175 -8q32 0 63 4t41 4q12 0 19 -5q6 -4 6 -15q0 -15 -56 -27t-73 -86z" />
    <glyph glyph-name="uacute" unicode="&#xdc;" horiz-adv-x="925" 
d="M82 231l209 899q3 15 4 19q6 24 6 35q0 24 -12 37q-14 14 -47 18h-4q-33 8 -33 25q0 15 8.5 21.5t30.5 6.5v0l26 -2q86 -10 170 -10q59 0 125 8l15 2v0q10 0 15 -5q5 -7 5 -17q0 -13 -8 -19t-37 -8q-5 -1 -17 -3q-6 -1 -20 -3q-37 -8 -53 -27t-27 -63l-80 -344
q-5 -26 -5.5 -32t-2.5 -13q-2 -14 -2 -17q0 -8 14 -13q15 -5 39 -5q150 0 239 -29t145 -90q73 -80 73 -215q0 -168 -130 -285q-53 -46 -132 -76t-170 -30q-85 0 -182 7t-127 7q-75 0 -156 -12l-24 -2v0q-12 0 -19.5 6t-7.5 14q0 10 4 15q3 6 8 8l45 14q38 13 69 60.5
t46 117.5zM229 262q-24 -107 -24 -127q0 -51 29.5 -72.5t103.5 -21.5q183 0 282 101t99 284q0 122 -74 187q-76 65 -215 65q-22 0 -84 -6q-18 -2 -22 -2z" />
    <glyph glyph-name="uacute" unicode="&#x42c;" horiz-adv-x="925" 
d="M82 231l209 899q3 15 4 19q6 24 6 35q0 24 -12 37q-14 14 -47 18h-4q-33 8 -33 25q0 15 8.5 21.5t30.5 6.5v0l26 -2q86 -10 170 -10q59 0 125 8l15 2v0q10 0 15 -5q5 -7 5 -17q0 -13 -8 -19t-37 -8q-5 -1 -17 -3q-6 -1 -20 -3q-37 -8 -53 -27t-27 -63l-80 -344
q-5 -26 -5.5 -32t-2.5 -13q-2 -14 -2 -17q0 -8 14 -13q15 -5 39 -5q150 0 239 -29t145 -90q73 -80 73 -215q0 -168 -130 -285q-53 -46 -132 -76t-170 -30q-85 0 -182 7t-127 7q-75 0 -156 -12l-24 -2v0q-12 0 -19.5 6t-7.5 14q0 10 4 15q3 6 8 8l45 14q38 13 69 60.5
t46 117.5zM229 262q-24 -107 -24 -127q0 -51 29.5 -72.5t103.5 -21.5q183 0 282 101t99 284q0 122 -74 187q-76 65 -215 65q-22 0 -84 -6q-18 -2 -22 -2z" />
    <glyph glyph-name="ugrave" unicode="&#xdd;" horiz-adv-x="1012" 
d="M811 672h-425q-28 0 -28 30q0 15 13 24t28 9h422q11 75 11 142q0 127 -40 222q-72 173 -244 173q-81 0 -148 -37q-66 -37 -124 -115q-21 -28 -44 -69q-24 -43 -39 -43q-8 0 -13 8q-2 4 -2 10q0 4 1 8q22 98 38 146q20 59 32 71q28 27 118.5 51.5t177.5 24.5
q239 0 360 -196q82 -133 82 -315q0 -131 -42.5 -258t-107 -231t-133.5 -171q-196 -195 -432 -195q-104 0 -186 35q-80 34 -105 82q-4 8 -4 25q0 15 3 37q6 47 33 171q3 15 10 26q8 9 17 9q14 0 18 -43q2 -38 4 -53q18 -118 70 -175q51 -55 144 -55q164 0 319 179
q153 178 210 446q2 7 3.5 14t2.5 13z" />
    <glyph glyph-name="ugrave" unicode="&#x42d;" horiz-adv-x="1012" 
d="M811 672h-425q-28 0 -28 30q0 15 13 24t28 9h422q11 75 11 142q0 127 -40 222q-72 173 -244 173q-81 0 -148 -37q-66 -37 -124 -115q-21 -28 -44 -69q-24 -43 -39 -43q-8 0 -13 8q-2 4 -2 10q0 4 1 8q22 98 38 146q20 59 32 71q28 27 118.5 51.5t177.5 24.5
q239 0 360 -196q82 -133 82 -315q0 -131 -42.5 -258t-107 -231t-133.5 -171q-196 -195 -432 -195q-104 0 -186 35q-80 34 -105 82q-4 8 -4 25q0 15 3 37q6 47 33 171q3 15 10 26q8 9 17 9q14 0 18 -43q2 -38 4 -53q18 -118 70 -175q51 -55 144 -55q164 0 319 179
q153 178 210 446q2 7 3.5 14t2.5 13z" />
    <glyph glyph-name="ucircumflex" unicode="&#xde;" horiz-adv-x="1592" 
d="M537 668h-215l-107 -463q-9 -37 -11 -52q-3 -22 -3 -40q0 -34 22 -50q23 -18 62 -18q25 0 37 -5q10 -6 10 -20q0 -8 -8 -16t-19 -8v0l-20 2q-81 10 -172 10q-59 0 -124 -6t-67 -6q-15 0 -20.5 5t-5.5 17q0 23 45 27q22 3 36 6q36 7 54 28q15 18 26 62l234 989q3 15 4 19
q6 24 6 35q0 24 -12 37q-14 14 -47 18h-4q-33 8 -33 25q0 15 8.5 21.5t30.5 6.5v0l26 -2q86 -10 170 -10q59 0 125 8l15 2v0q10 0 15 -5q5 -7 5 -17q0 -13 -8 -19t-37 -8q-5 -1 -17 -3q-6 -1 -20 -3q-37 -8 -53 -27t-27 -63l-106 -426h211q21 133 97.5 276.5t198.5 238.5
t271 95q188 0 309 -165q61 -81 91.5 -187.5t30.5 -237.5q0 -166 -47.5 -309.5t-130.5 -249t-185.5 -162.5t-208.5 -57q-96 0 -174 41t-141 125q-123 167 -123 436q0 53 6 105zM1397 834q0 200 -81 318q-79 118 -212 118q-50 0 -106.5 -31.5t-112 -94.5t-104.5 -166.5
t-77 -234.5q-33 -152 -33 -278q0 -198 82 -322q80 -120 215 -120q88 0 163.5 58t133.5 172.5t97 288.5q35 157 35 292z" />
    <glyph glyph-name="ucircumflex" unicode="&#x42e;" horiz-adv-x="1592" 
d="M537 668h-215l-107 -463q-9 -37 -11 -52q-3 -22 -3 -40q0 -34 22 -50q23 -18 62 -18q25 0 37 -5q10 -6 10 -20q0 -8 -8 -16t-19 -8v0l-20 2q-81 10 -172 10q-59 0 -124 -6t-67 -6q-15 0 -20.5 5t-5.5 17q0 23 45 27q22 3 36 6q36 7 54 28q15 18 26 62l234 989q3 15 4 19
q6 24 6 35q0 24 -12 37q-14 14 -47 18h-4q-33 8 -33 25q0 15 8.5 21.5t30.5 6.5v0l26 -2q86 -10 170 -10q59 0 125 8l15 2v0q10 0 15 -5q5 -7 5 -17q0 -13 -8 -19t-37 -8q-5 -1 -17 -3q-6 -1 -20 -3q-37 -8 -53 -27t-27 -63l-106 -426h211q21 133 97.5 276.5t198.5 238.5
t271 95q188 0 309 -165q61 -81 91.5 -187.5t30.5 -237.5q0 -166 -47.5 -309.5t-130.5 -249t-185.5 -162.5t-208.5 -57q-96 0 -174 41t-141 125q-123 167 -123 436q0 53 6 105zM1397 834q0 200 -81 318q-79 118 -212 118q-50 0 -106.5 -31.5t-112 -94.5t-104.5 -166.5
t-77 -234.5q-33 -152 -33 -278q0 -198 82 -322q80 -120 215 -120q88 0 163.5 58t133.5 172.5t97 288.5q35 157 35 292z" />
    <glyph glyph-name="udieresis" unicode="&#xdf;" horiz-adv-x="988" 
d="M692 688q17 0 23 7q7 6 13 28l90 410q5 26 5 44q0 32 -16 43q-25 17 -115 17q-142 0 -222 -83q-80 -82 -80 -240q0 -75 25.5 -125t92.5 -80q49 -21 143 -21h41zM-59 50l21 6l14 4q35 9 55 23q39 26 72 76l208 324q98 153 168 179q-89 36 -133 85q-78 86 -78 193
q0 54 24.5 122.5t73.5 115.5q44 44 93 68t117 34t163 10q20 0 92 -2q76 -2 77 -2q31 0 105 2l66 2h-2q18 0 25 -7q6 -6 6 -14q0 -3 -1 -7q-6 -26 -48 -31q-26 -1 -43 -6q-24 -7 -36 -24q-9 -15 -23 -71l-206 -937q-7 -36 -8 -68v-13q0 -21 5 -28q14 -21 55 -21q28 0 36 -7
q8 -6 8 -16q0 -3 -1 -7q-3 -16 -16 -24q-12 -9 -30 -9v0l-55 5q-58 5 -105 5q-44 0 -106 -5l-58 -5v0q-17 0 -28 8q-8 6 -8 15q0 3 1 6q8 29 48 32q36 5 54 13q28 12 40 31q11 17 28 88l89 407q3 11 3 19q0 6 -2 10q-3 6 -21 6h-25q-55 0 -99.5 -25.5t-84.5 -90.5l-281 -451
q-28 -45 -46 -56q-21 -12 -45 -12v0l-43 2q-42 2 -84 2q-5 0 -31 -2q-22 -2 -23 -2q-12 0 -17 5q-2 4 -2 10v5q6 20 42 30z" />
    <glyph glyph-name="udieresis" unicode="&#x42f;" horiz-adv-x="988" 
d="M692 688q17 0 23 7q7 6 13 28l90 410q5 26 5 44q0 32 -16 43q-25 17 -115 17q-142 0 -222 -83q-80 -82 -80 -240q0 -75 25.5 -125t92.5 -80q49 -21 143 -21h41zM-59 50l21 6l14 4q35 9 55 23q39 26 72 76l208 324q98 153 168 179q-89 36 -133 85q-78 86 -78 193
q0 54 24.5 122.5t73.5 115.5q44 44 93 68t117 34t163 10q20 0 92 -2q76 -2 77 -2q31 0 105 2l66 2h-2q18 0 25 -7q6 -6 6 -14q0 -3 -1 -7q-6 -26 -48 -31q-26 -1 -43 -6q-24 -7 -36 -24q-9 -15 -23 -71l-206 -937q-7 -36 -8 -68v-13q0 -21 5 -28q14 -21 55 -21q28 0 36 -7
q8 -6 8 -16q0 -3 -1 -7q-3 -16 -16 -24q-12 -9 -30 -9v0l-55 5q-58 5 -105 5q-44 0 -106 -5l-58 -5v0q-17 0 -28 8q-8 6 -8 15q0 3 1 6q8 29 48 32q36 5 54 13q28 12 40 31q11 17 28 88l89 407q3 11 3 19q0 6 -2 10q-3 6 -21 6h-25q-55 0 -99.5 -25.5t-84.5 -90.5l-281 -451
q-28 -45 -46 -56q-21 -12 -45 -12v0l-43 2q-42 2 -84 2q-5 0 -31 -2q-22 -2 -23 -2q-12 0 -17 5q-2 4 -2 10v5q6 20 42 30z" />
    <glyph glyph-name="daggerdbl" unicode="&#xe0;" horiz-adv-x="961" 
d="M586 901q-69 0 -161 -85q-94 -85 -177 -228q-68 -120 -105 -221.5t-37 -176.5q0 -55 26 -87.5t69 -32.5q53 0 123 65q70 67 163 207q114 169 163 268q52 105 52 166q0 59 -30.5 92t-85.5 33zM860 881l-172 -625q-10 -37 -14 -62q-6 -28 -6 -42q0 -21 6 -32t16 -11
q19 0 42 22q25 22 54 64q8 10 29 47q17 30 31 30q5 0 8 -3q2 -6 2 -11q0 -22 -16 -55q-15 -32 -49 -80q-55 -80 -105 -121t-94 -41q-31 0 -48.5 23t-17.5 63q0 68 43 215v4l62 228q-163 -283 -279 -408t-211 -125q-77 0 -121.5 60t-44.5 165q0 117 54.5 244.5t158.5 257.5
q95 119 202 186q109 68 198 68q44 0 90 -21q44 -22 47 -22q5 0 32.5 29.5t63.5 29.5q31 0 40 -6.5t9 -25.5q0 -4 -2 -18q0 -2 -8 -27z" />
    <glyph glyph-name="daggerdbl" unicode="&#x430;" horiz-adv-x="961" 
d="M586 901q-69 0 -161 -85q-94 -85 -177 -228q-68 -120 -105 -221.5t-37 -176.5q0 -55 26 -87.5t69 -32.5q53 0 123 65q70 67 163 207q114 169 163 268q52 105 52 166q0 59 -30.5 92t-85.5 33zM860 881l-172 -625q-10 -37 -14 -62q-6 -28 -6 -42q0 -21 6 -32t16 -11
q19 0 42 22q25 22 54 64q8 10 29 47q17 30 31 30q5 0 8 -3q2 -6 2 -11q0 -22 -16 -55q-15 -32 -49 -80q-55 -80 -105 -121t-94 -41q-31 0 -48.5 23t-17.5 63q0 68 43 215v4l62 228q-163 -283 -279 -408t-211 -125q-77 0 -121.5 60t-44.5 165q0 117 54.5 244.5t158.5 257.5
q95 119 202 186q109 68 198 68q44 0 90 -21q44 -22 47 -22q5 0 32.5 29.5t63.5 29.5q31 0 40 -6.5t9 -25.5q0 -4 -2 -18q0 -2 -8 -27z" />
    <glyph glyph-name="periodcentered" unicode="&#xe1;" horiz-adv-x="839" 
d="M623 631q0 258 -170 258q-57 0 -116.5 -49.5t-108.5 -135.5t-77 -193t-28 -216q0 -88 16 -149.5t47.5 -94.5t77.5 -33q89 0 173 87.5t135 229t51 296.5zM504 938q83 0 140.5 -47t85 -120.5t27.5 -155.5q0 -152 -78 -303.5t-197.5 -249t-235.5 -97.5q-81 0 -137 50
t-84.5 138t-28.5 204q0 106 29 239.5t87.5 262t155.5 228.5t224 132q136 35 199.5 63t104.5 78l28 -16q-49 -85 -119 -142t-181 -84q-157 -36 -255 -129t-142.5 -213t-62.5 -272q86 185 190 309.5t250 124.5z" />
    <glyph glyph-name="periodcentered" unicode="&#x431;" horiz-adv-x="839" 
d="M623 631q0 258 -170 258q-57 0 -116.5 -49.5t-108.5 -135.5t-77 -193t-28 -216q0 -88 16 -149.5t47.5 -94.5t77.5 -33q89 0 173 87.5t135 229t51 296.5zM504 938q83 0 140.5 -47t85 -120.5t27.5 -155.5q0 -152 -78 -303.5t-197.5 -249t-235.5 -97.5q-81 0 -137 50
t-84.5 138t-28.5 204q0 106 29 239.5t87.5 262t155.5 228.5t224 132q136 35 199.5 63t104.5 78l28 -16q-49 -85 -119 -142t-181 -84q-157 -36 -255 -129t-142.5 -213t-62.5 -272q86 185 190 309.5t250 124.5z" />
    <glyph glyph-name="quotesinglbase" unicode="&#xe2;" horiz-adv-x="744" 
d="M130 382q90 23 154 56.5t135 86.5q52 39 103 110t51 136q0 70 -22 95q-27 35 -74 35q-98 0 -190 -128q-55 -74 -98.5 -174t-58.5 -217zM128 274q0 -87 20 -149.5t53 -93.5t72 -31q56 0 111.5 37.5t90.5 102t35 136.5q0 129 -122 129q-42 0 -102 -17q-43 -11 -81 -25
t-75 -25q-2 -22 -2 -64zM388 444q24 4 54 4q76 0 128 -41.5t52 -126.5q0 -80 -54 -154.5t-136.5 -120.5t-165.5 -46q-74 0 -135.5 46.5t-95 126t-33.5 179.5q0 110 43 227q45 118 125 213q75 92 158 140q82 49 164 49q46 0 76 -11t58 -41q46 -45 46 -113q0 -78 -70 -164
t-214 -167z" />
    <glyph glyph-name="quotesinglbase" unicode="&#x432;" horiz-adv-x="744" 
d="M130 382q90 23 154 56.5t135 86.5q52 39 103 110t51 136q0 70 -22 95q-27 35 -74 35q-98 0 -190 -128q-55 -74 -98.5 -174t-58.5 -217zM128 274q0 -87 20 -149.5t53 -93.5t72 -31q56 0 111.5 37.5t90.5 102t35 136.5q0 129 -122 129q-42 0 -102 -17q-43 -11 -81 -25
t-75 -25q-2 -22 -2 -64zM388 444q24 4 54 4q76 0 128 -41.5t52 -126.5q0 -80 -54 -154.5t-136.5 -120.5t-165.5 -46q-74 0 -135.5 46.5t-95 126t-33.5 179.5q0 110 43 227q45 118 125 213q75 92 158 140q82 49 164 49q46 0 76 -11t58 -41q46 -45 46 -113q0 -78 -70 -164
t-214 -167z" />
    <glyph glyph-name="quotedblbase" unicode="&#xe3;" horiz-adv-x="630" 
d="M358 610q71 75 88.5 110t17.5 90q0 91 -101 91q-65 0 -116 -39.5t-94.5 -93.5t-54.5 -54q-24 0 -24 20q0 22 46.5 73t116 90t135.5 39q63 0 115 -42t52 -136q0 -63 -27.5 -127.5t-136.5 -176.5l-113 -113q-68 -65 -95 -122.5t-27 -110.5q0 -37 26 -71.5t71 -34.5
q59 0 125.5 41.5t115.5 136.5q19 38 27.5 51.5t19.5 13.5q23 0 23 -36q0 -20 -26.5 -61.5t-71 -84.5t-100.5 -71t-116 -28q-70 0 -130.5 50t-60.5 128q0 56 12.5 97.5t47 89.5t113.5 133z" />
    <glyph glyph-name="quotedblbase" unicode="&#x433;" horiz-adv-x="630" 
d="M358 610q71 75 88.5 110t17.5 90q0 91 -101 91q-65 0 -116 -39.5t-94.5 -93.5t-54.5 -54q-24 0 -24 20q0 22 46.5 73t116 90t135.5 39q63 0 115 -42t52 -136q0 -63 -27.5 -127.5t-136.5 -176.5l-113 -113q-68 -65 -95 -122.5t-27 -110.5q0 -37 26 -71.5t71 -34.5
q59 0 125.5 41.5t115.5 136.5q19 38 27.5 51.5t19.5 13.5q23 0 23 -36q0 -20 -26.5 -61.5t-71 -84.5t-100.5 -71t-116 -28q-70 0 -130.5 50t-60.5 128q0 56 12.5 97.5t47 89.5t113.5 133z" />
    <glyph glyph-name="perthousand" unicode="&#xe4;" horiz-adv-x="816" 
d="M572 564q0 116 -33 220.5t-127 104.5q-64 0 -117 -55t-92.5 -150.5t-60 -208t-20.5 -231.5q0 -90 38 -158t111 -68q80 0 149.5 84t110.5 213.5t41 248.5zM230 1160q-11 0 -11 14q2 15 45 41.5t104 45.5t120 19q136 0 200 -85t64 -275q0 -123 -30.5 -288t-89.5 -315.5
t-153.5 -251t-216.5 -100.5q-140 0 -207 114.5t-67 252.5q0 168 61.5 306.5t157 218t193.5 79.5q195 0 216 -360q20 112 30 203t10 205q0 140 -46.5 198t-129.5 58q-51 0 -96.5 -16t-94.5 -40t-59 -24z" />
    <glyph glyph-name="perthousand" unicode="&#x434;" horiz-adv-x="816" 
d="M572 564q0 116 -33 220.5t-127 104.5q-64 0 -117 -55t-92.5 -150.5t-60 -208t-20.5 -231.5q0 -90 38 -158t111 -68q80 0 149.5 84t110.5 213.5t41 248.5zM230 1160q-11 0 -11 14q2 15 45 41.5t104 45.5t120 19q136 0 200 -85t64 -275q0 -123 -30.5 -288t-89.5 -315.5
t-153.5 -251t-216.5 -100.5q-140 0 -207 114.5t-67 252.5q0 168 61.5 306.5t157 218t193.5 79.5q195 0 216 -360q20 112 30 203t10 205q0 140 -46.5 198t-129.5 58q-51 0 -96.5 -16t-94.5 -40t-59 -24z" />
    <glyph glyph-name="Acircumflex" unicode="&#xe5;" horiz-adv-x="758" 
d="M143 436q205 9 324 103q119 95 119 241q0 58 -28 92q-29 35 -75 35q-98 0 -193 -129q-94 -129 -147 -342zM139 387q-1 -10 -2 -20.5t-1 -17.5q0 -8 -1 -16q-2 -30 -2 -34q0 -110 49 -174t131 -64q55 0 109.5 32t105.5 93q19 24 35 54q17 32 31 32q6 0 9 -5q3 -4 3 -15
q0 -18 -16 -49q-15 -29 -47 -72q-66 -85 -135 -129q-70 -43 -142 -43q-113 0 -188 100q-76 98 -76 254q0 113 44 228t126 215q77 92 160 141t166 49q91 0 149 -57.5t58 -147.5q0 -152 -144.5 -242.5t-421.5 -111.5z" />
    <glyph glyph-name="Acircumflex" unicode="&#x435;" horiz-adv-x="758" 
d="M143 436q205 9 324 103q119 95 119 241q0 58 -28 92q-29 35 -75 35q-98 0 -193 -129q-94 -129 -147 -342zM139 387q-1 -10 -2 -20.5t-1 -17.5q0 -8 -1 -16q-2 -30 -2 -34q0 -110 49 -174t131 -64q55 0 109.5 32t105.5 93q19 24 35 54q17 32 31 32q6 0 9 -5q3 -4 3 -15
q0 -18 -16 -49q-15 -29 -47 -72q-66 -85 -135 -129q-70 -43 -142 -43q-113 0 -188 100q-76 98 -76 254q0 113 44 228t126 215q77 92 160 141t166 49q91 0 149 -57.5t58 -147.5q0 -152 -144.5 -242.5t-421.5 -111.5z" />
    <glyph glyph-name="Ecircumflex" unicode="&#xe6;" horiz-adv-x="1368" 
d="M751 408q-8 -24 -28 -91.5t-26 -89.5q-61 -227 -80 -227h-88q-6 0 -11.5 6t-5.5 12q0 3 3 12q2 5 3.5 9.5t2.5 9.5q28 83 61 195.5t37 160.5q-85 0 -139.5 -52t-127.5 -160.5t-133.5 -163t-155.5 -54.5q-53 0 -96.5 37t-43.5 105q0 37 22 80q32 63 94 63q31 0 31 -29
q0 -34 -45 -69q-10 -8 -21.5 -18t-19.5 -25.5t-8 -43.5q0 -48 50 -48q43 0 77 28t80 86l126 162q47 61 101.5 92t141.5 46q-28 32 -40 63.5t-12 97.5q0 215 -35 215q-12 0 -31 -14q-16 -12 -29 -35q-19 -30 -38 -43q-23 -16 -50 -16q-16 0 -28 9.5t-12 27.5q0 34 24 79
q26 47 66 75q41 28 78 28q81 0 98 -134q4 -30 4 -79q0 -38 4 -127q5 -63 20 -99t36 -36q18 0 29 8q7 6 13 25q2 6 18.5 71t30.5 120t33 127q20 70 27 90.5t17 20.5h79q9 0 16 -6t7 -12q0 -3 -1 -6q0 -1 -1 -5.5t-2 -8.5l-108 -406q0 -13 24 -13q25 0 76 49.5t81 119.5
q72 172 129 240q31 37 65 49t81 12q37 0 61.5 -28t24.5 -75t-24 -82q-24 -34 -56 -34q-25 0 -40 16q-15 17 -15 43q0 22 -10 35q-11 14 -23 14q-19 0 -39.5 -20t-45 -61.5t-57.5 -111.5q-35 -75 -71 -115.5t-89 -70.5q60 -15 94 -42t51 -88l47 -161q13 -46 54 -87
q33 -33 67 -33q32 0 50 23t18 63q0 25 -30 49q-30 26 -30 51q0 19 12 32q10 13 27 13q29 0 48 -33q20 -34 20 -82q0 -70 -48 -118q-50 -50 -118 -50q-82 0 -139 61q-17 18 -30 53t-26 83.5t-30 107.5q-39 128 -123 128z" />
    <glyph glyph-name="Ecircumflex" unicode="&#x436;" horiz-adv-x="1368" 
d="M751 408q-8 -24 -28 -91.5t-26 -89.5q-61 -227 -80 -227h-88q-6 0 -11.5 6t-5.5 12q0 3 3 12q2 5 3.5 9.5t2.5 9.5q28 83 61 195.5t37 160.5q-85 0 -139.5 -52t-127.5 -160.5t-133.5 -163t-155.5 -54.5q-53 0 -96.5 37t-43.5 105q0 37 22 80q32 63 94 63q31 0 31 -29
q0 -34 -45 -69q-10 -8 -21.5 -18t-19.5 -25.5t-8 -43.5q0 -48 50 -48q43 0 77 28t80 86l126 162q47 61 101.5 92t141.5 46q-28 32 -40 63.5t-12 97.5q0 215 -35 215q-12 0 -31 -14q-16 -12 -29 -35q-19 -30 -38 -43q-23 -16 -50 -16q-16 0 -28 9.5t-12 27.5q0 34 24 79
q26 47 66 75q41 28 78 28q81 0 98 -134q4 -30 4 -79q0 -38 4 -127q5 -63 20 -99t36 -36q18 0 29 8q7 6 13 25q2 6 18.5 71t30.5 120t33 127q20 70 27 90.5t17 20.5h79q9 0 16 -6t7 -12q0 -3 -1 -6q0 -1 -1 -5.5t-2 -8.5l-108 -406q0 -13 24 -13q25 0 76 49.5t81 119.5
q72 172 129 240q31 37 65 49t81 12q37 0 61.5 -28t24.5 -75t-24 -82q-24 -34 -56 -34q-25 0 -40 16q-15 17 -15 43q0 22 -10 35q-11 14 -23 14q-19 0 -39.5 -20t-45 -61.5t-57.5 -111.5q-35 -75 -71 -115.5t-89 -70.5q60 -15 94 -42t51 -88l47 -161q13 -46 54 -87
q33 -33 67 -33q32 0 50 23t18 63q0 25 -30 49q-30 26 -30 51q0 19 12 32q10 13 27 13q29 0 48 -33q20 -34 20 -82q0 -70 -48 -118q-50 -50 -118 -50q-82 0 -139 61q-17 18 -30 53t-26 83.5t-30 107.5q-39 128 -123 128z" />
    <glyph glyph-name="Aacute" unicode="&#xe7;" horiz-adv-x="690" 
d="M430 929q44 0 81 -16.5t61 -48.5t24 -78q0 -134 -206 -264q77 0 127.5 -49.5t50.5 -118.5q0 -77 -42 -148.5t-109 -126.5t-145 -87.5t-142 -32.5q-78 0 -125 32q-48 33 -48 84q0 25 16 41t45 16q45 0 98 -59q52 -58 77 -58q51 0 109.5 40.5t99.5 111t41 150.5
q0 127 -134 127q-21 0 -43 -10.5t-30 -10.5q-23 0 -23 20q0 10 54.5 45.5t75.5 51.5q57 45 94.5 105.5t37.5 131.5q0 42 -22.5 69t-61.5 27q-71 0 -136 -42.5t-107 -92.5q-35 -42 -64 -78.5t-34 -36.5t-10 5q-4 5 -4 15q0 28 40 77q57 70 111.5 115t114.5 69.5t128 24.5z
" />
    <glyph glyph-name="Aacute" unicode="&#x437;" horiz-adv-x="690" 
d="M430 929q44 0 81 -16.5t61 -48.5t24 -78q0 -134 -206 -264q77 0 127.5 -49.5t50.5 -118.5q0 -77 -42 -148.5t-109 -126.5t-145 -87.5t-142 -32.5q-78 0 -125 32q-48 33 -48 84q0 25 16 41t45 16q45 0 98 -59q52 -58 77 -58q51 0 109.5 40.5t99.5 111t41 150.5
q0 127 -134 127q-21 0 -43 -10.5t-30 -10.5q-23 0 -23 20q0 10 54.5 45.5t75.5 51.5q57 45 94.5 105.5t37.5 131.5q0 42 -22.5 69t-61.5 27q-71 0 -136 -42.5t-107 -92.5q-35 -42 -64 -78.5t-34 -36.5t-10 5q-4 5 -4 15q0 28 40 77q57 70 111.5 115t114.5 69.5t128 24.5z
" />
    <glyph glyph-name="Edieresis" unicode="&#xe8;" horiz-adv-x="1001" 
d="M274 453l-84 -246q-13 -46 -16 -59q-6 -24 -6 -37q0 -33 15.5 -49.5t43.5 -16.5q67 0 192 143q62 70 118 158t98 180q56 124 95 254q41 135 65 135h79q9 0 16 -6t7 -12q0 -3 -1 -6q-2 -5 -3 -14l-148 -492q-30 -98 -46 -169q-15 -66 -15 -99q0 -23 6.5 -33t22.5 -10
q46 0 112 91q64 91 74 91q4 0 8 -7t4 -13q0 -11 -25 -51q-28 -45 -61 -83q-56 -66 -108 -103q-51 -36 -90 -36q-34 0 -52 25q-18 26 -18 71q0 31 10 81q10 58 25 114l53 199q-64 -115 -130.5 -208.5t-125.5 -152.5q-121 -123 -225 -123q-56 0 -91 32q-34 31 -34 83
q0 34 10 75q8 41 29 101l160 475q8 25 8 27q2 14 2 18q0 20 -8 33q-7 12 -21 12q-49 0 -107 -85t-65 -85q-5 0 -10 5q-4 4 -4 12q0 12 17 44q18 34 46 72q56 76 106 112q52 38 95 38q35 0 54 -24q20 -25 20 -66q0 -56 -24 -157q-26 -104 -73 -238z" />
    <glyph glyph-name="Edieresis" unicode="&#x438;" horiz-adv-x="1001" 
d="M274 453l-84 -246q-13 -46 -16 -59q-6 -24 -6 -37q0 -33 15.5 -49.5t43.5 -16.5q67 0 192 143q62 70 118 158t98 180q56 124 95 254q41 135 65 135h79q9 0 16 -6t7 -12q0 -3 -1 -6q-2 -5 -3 -14l-148 -492q-30 -98 -46 -169q-15 -66 -15 -99q0 -23 6.5 -33t22.5 -10
q46 0 112 91q64 91 74 91q4 0 8 -7t4 -13q0 -11 -25 -51q-28 -45 -61 -83q-56 -66 -108 -103q-51 -36 -90 -36q-34 0 -52 25q-18 26 -18 71q0 31 10 81q10 58 25 114l53 199q-64 -115 -130.5 -208.5t-125.5 -152.5q-121 -123 -225 -123q-56 0 -91 32q-34 31 -34 83
q0 34 10 75q8 41 29 101l160 475q8 25 8 27q2 14 2 18q0 20 -8 33q-7 12 -21 12q-49 0 -107 -85t-65 -85q-5 0 -10 5q-4 4 -4 12q0 12 17 44q18 34 46 72q56 76 106 112q52 38 95 38q35 0 54 -24q20 -25 20 -66q0 -56 -24 -157q-26 -104 -73 -238z" />
    <glyph glyph-name="Egrave" unicode="&#xe9;" horiz-adv-x="1001" 
d="M274 453l-84 -246q-13 -46 -16 -59q-6 -24 -6 -37q0 -33 15.5 -49.5t43.5 -16.5q67 0 192 143q62 70 118 158t98 180q56 124 95 254q41 135 65 135h79q9 0 16 -6t7 -12q0 -3 -1 -6q-2 -5 -3 -14l-148 -492q-30 -98 -46 -169q-15 -66 -15 -99q0 -23 6.5 -33t22.5 -10
q46 0 112 91q64 91 74 91q4 0 8 -7t4 -13q0 -11 -25 -51q-28 -45 -61 -83q-56 -66 -108 -103q-51 -36 -90 -36q-34 0 -52 25q-18 26 -18 71q0 31 10 81q10 58 25 114l53 199q-64 -115 -130.5 -208.5t-125.5 -152.5q-121 -123 -225 -123q-56 0 -91 32q-34 31 -34 83
q0 34 10 75q8 41 29 101l160 475q8 25 8 27q2 14 2 18q0 20 -8 33q-7 12 -21 12q-49 0 -107 -85t-65 -85q-5 0 -10 5q-4 4 -4 12q0 12 17 44q18 34 46 72q56 76 106 112q52 38 95 38q35 0 54 -24q20 -25 20 -66q0 -56 -24 -157q-26 -104 -73 -238z" />
    <glyph glyph-name="Egrave" unicode="&#x439;" horiz-adv-x="1001" 
d="M274 453l-84 -246q-13 -46 -16 -59q-6 -24 -6 -37q0 -33 15.5 -49.5t43.5 -16.5q67 0 192 143q62 70 118 158t98 180q56 124 95 254q41 135 65 135h79q9 0 16 -6t7 -12q0 -3 -1 -6q-2 -5 -3 -14l-148 -492q-30 -98 -46 -169q-15 -66 -15 -99q0 -23 6.5 -33t22.5 -10
q46 0 112 91q64 91 74 91q4 0 8 -7t4 -13q0 -11 -25 -51q-28 -45 -61 -83q-56 -66 -108 -103q-51 -36 -90 -36q-34 0 -52 25q-18 26 -18 71q0 31 10 81q10 58 25 114l53 199q-64 -115 -130.5 -208.5t-125.5 -152.5q-121 -123 -225 -123q-56 0 -91 32q-34 31 -34 83
q0 34 10 75q8 41 29 101l160 475q8 25 8 27q2 14 2 18q0 20 -8 33q-7 12 -21 12q-49 0 -107 -85t-65 -85q-5 0 -10 5q-4 4 -4 12q0 12 17 44q18 34 46 72q56 76 106 112q52 38 95 38q35 0 54 -24q20 -25 20 -66q0 -56 -24 -157q-26 -104 -73 -238z" />
    <glyph glyph-name="Iacute" unicode="&#xea;" horiz-adv-x="887" 
d="M660 27q68 0 68 86q0 25 -30 49q-30 26 -30 51q0 15 9.5 30t29.5 15q26 0 47 -28.5t21 -86.5q0 -74 -51 -121t-115 -47q-91 0 -133.5 59t-71 174t-52.5 165t-88 50q-38 -118 -67 -226q-53 -197 -74 -197h-88q-6 0 -11.5 6t-5.5 12q0 3 2.5 12t6.5 19l141 475
q35 121 47 177q14 65 14 96q0 21 -6.5 30t-21.5 9q-44 0 -110 -91q-68 -92 -75 -92q-4 0 -9 6q-5 7 -5 13q0 11 25 51q26 39 61 82q64 75 110 107q49 34 91 34q33 0 51 -25t18 -71q0 -27 -9 -80q-2 -12 -7 -32.5t-10 -39.5t-11 -41l-43 -162q-3 -13 -3 -24q0 -6 31 -6
q27 0 73.5 46t76.5 116q57 133 94 193t78 84t103 24q34 0 60 -23t26 -80q0 -40 -21 -78t-59 -38q-22 0 -38.5 15.5t-16.5 43.5q0 20 -8.5 34.5t-24.5 14.5q-19 0 -39.5 -20t-45 -61.5t-57.5 -111.5q-36 -76 -64.5 -111t-77.5 -62q62 -9 93 -66t59.5 -159.5t57 -150.5
t85.5 -48z" />
    <glyph glyph-name="Iacute" unicode="&#x43a;" horiz-adv-x="887" 
d="M660 27q68 0 68 86q0 25 -30 49q-30 26 -30 51q0 15 9.5 30t29.5 15q26 0 47 -28.5t21 -86.5q0 -74 -51 -121t-115 -47q-91 0 -133.5 59t-71 174t-52.5 165t-88 50q-38 -118 -67 -226q-53 -197 -74 -197h-88q-6 0 -11.5 6t-5.5 12q0 3 2.5 12t6.5 19l141 475
q35 121 47 177q14 65 14 96q0 21 -6.5 30t-21.5 9q-44 0 -110 -91q-68 -92 -75 -92q-4 0 -9 6q-5 7 -5 13q0 11 25 51q26 39 61 82q64 75 110 107q49 34 91 34q33 0 51 -25t18 -71q0 -27 -9 -80q-2 -12 -7 -32.5t-10 -39.5t-11 -41l-43 -162q-3 -13 -3 -24q0 -6 31 -6
q27 0 73.5 46t76.5 116q57 133 94 193t78 84t103 24q34 0 60 -23t26 -80q0 -40 -21 -78t-59 -38q-22 0 -38.5 15.5t-16.5 43.5q0 20 -8.5 34.5t-24.5 14.5q-19 0 -39.5 -20t-45 -61.5t-57.5 -111.5q-36 -76 -64.5 -111t-77.5 -62q62 -9 93 -66t59.5 -159.5t57 -150.5
t85.5 -48z" />
    <glyph glyph-name="Icircumflex" unicode="&#xeb;" horiz-adv-x="945" 
d="M286 492q72 203 154 320.5t223 117.5q178 0 178 -114q0 -55 -38 -176l-151 -464q-7 -24 -7 -27q-3 -12 -3 -20q0 -20 8 -33q8 -12 22 -12q29 0 58 28q32 29 77 97q18 27 38.5 62.5t29.5 35.5q7 0 10 -4q2 -6 2 -14q0 -13 -25 -59q-22 -40 -65 -103q-51 -74 -104 -113
q-56 -41 -101 -41q-73 0 -73 96q0 35 7.5 76t27.5 108t63 204l75 236q20 49 20 97q0 33 -20 53.5t-68 20.5q-155 0 -298 -402q-71 -199 -111.5 -292.5t-87 -147t-106.5 -53.5q-24 0 -55.5 12.5t-55.5 43.5t-24 80q0 29 17 55t54 26q24 0 39.5 -12t27.5 -48q17 -48 54 -48
q26 0 56.5 48t66 137.5t85.5 228.5z" />
    <glyph glyph-name="Icircumflex" unicode="&#x43b;" horiz-adv-x="945" 
d="M286 492q72 203 154 320.5t223 117.5q178 0 178 -114q0 -55 -38 -176l-151 -464q-7 -24 -7 -27q-3 -12 -3 -20q0 -20 8 -33q8 -12 22 -12q29 0 58 28q32 29 77 97q18 27 38.5 62.5t29.5 35.5q7 0 10 -4q2 -6 2 -14q0 -13 -25 -59q-22 -40 -65 -103q-51 -74 -104 -113
q-56 -41 -101 -41q-73 0 -73 96q0 35 7.5 76t27.5 108t63 204l75 236q20 49 20 97q0 33 -20 53.5t-68 20.5q-155 0 -298 -402q-71 -199 -111.5 -292.5t-87 -147t-106.5 -53.5q-24 0 -55.5 12.5t-55.5 43.5t-24 80q0 29 17 55t54 26q24 0 39.5 -12t27.5 -48q17 -48 54 -48
q26 0 56.5 48t66 137.5t85.5 228.5z" />
    <glyph glyph-name="Idieresis" unicode="&#xec;" horiz-adv-x="1302" 
d="M411 915l137 1l61 -826q131 231 256.5 444.5t226.5 381.5l106 -1q9 0 16 -6t7 -12q0 -3 -1 -6q-2 -5 -3 -14l-148 -492q-30 -98 -46 -169q-15 -66 -15 -99q0 -23 6.5 -33t22.5 -10q46 0 112 91q64 91 74 91q4 0 8 -7t4 -13q0 -11 -25 -51q-28 -45 -61 -83
q-56 -66 -108 -103q-51 -36 -90 -36q-34 0 -52 25q-18 26 -18 71q0 31 10 81q10 58 25 114l143 532q-147 -261 -192.5 -341t-112 -193t-160.5 -267l-106 -1l-59 796q-77 -424 -192 -630q-35 -61 -74.5 -103.5t-78.5 -62t-65 -19.5q-57 0 -96.5 34t-39.5 97q0 30 17.5 60
t53.5 30q48 0 73 -69q12 -36 60 -36q18 0 54 32.5t54 66.5q151 268 216 735z" />
    <glyph glyph-name="Idieresis" unicode="&#x43c;" horiz-adv-x="1302" 
d="M411 915l137 1l61 -826q131 231 256.5 444.5t226.5 381.5l106 -1q9 0 16 -6t7 -12q0 -3 -1 -6q-2 -5 -3 -14l-148 -492q-30 -98 -46 -169q-15 -66 -15 -99q0 -23 6.5 -33t22.5 -10q46 0 112 91q64 91 74 91q4 0 8 -7t4 -13q0 -11 -25 -51q-28 -45 -61 -83
q-56 -66 -108 -103q-51 -36 -90 -36q-34 0 -52 25q-18 26 -18 71q0 31 10 81q10 58 25 114l143 532q-147 -261 -192.5 -341t-112 -193t-160.5 -267l-106 -1l-59 796q-77 -424 -192 -630q-35 -61 -74.5 -103.5t-78.5 -62t-65 -19.5q-57 0 -96.5 34t-39.5 97q0 30 17.5 60
t53.5 30q48 0 73 -69q12 -36 60 -36q18 0 54 32.5t54 66.5q151 268 216 735z" />
    <glyph glyph-name="Igrave" unicode="&#xed;" horiz-adv-x="1001" 
d="M264 424q-45 -181 -78 -289q-40 -135 -63 -135h-88q-6 0 -11.5 6t-5.5 12q0 3 2.5 12t6.5 19l141 475q35 121 47 177q14 65 14 96q0 21 -6.5 30t-21.5 9q-44 0 -110 -91q-68 -92 -75 -92q-4 0 -9 6q-5 7 -5 13q0 11 25 51q26 39 61 82q64 75 110 107q49 34 91 34
q33 0 51 -25t18 -71q0 -27 -9 -80q-10 -60 -25 -113l-52 -189h376q35 146 84 312q41 135 63 135h79q9 0 16 -6t7 -12q0 -3 -1 -6q-2 -5 -3 -14l-148 -492q-30 -98 -46 -169q-15 -66 -15 -99q0 -23 6.5 -33t22.5 -10q46 0 112 91q64 91 74 91q4 0 8 -7t4 -13q0 -11 -25 -51
q-28 -45 -61 -83q-56 -66 -108 -103q-51 -36 -90 -36q-34 0 -52 25q-18 26 -18 71q0 31 10 81q10 58 25 114l44 170h-372z" />
    <glyph glyph-name="Igrave" unicode="&#x43d;" horiz-adv-x="1001" 
d="M264 424q-45 -181 -78 -289q-40 -135 -63 -135h-88q-6 0 -11.5 6t-5.5 12q0 3 2.5 12t6.5 19l141 475q35 121 47 177q14 65 14 96q0 21 -6.5 30t-21.5 9q-44 0 -110 -91q-68 -92 -75 -92q-4 0 -9 6q-5 7 -5 13q0 11 25 51q26 39 61 82q64 75 110 107q49 34 91 34
q33 0 51 -25t18 -71q0 -27 -9 -80q-10 -60 -25 -113l-52 -189h376q35 146 84 312q41 135 63 135h79q9 0 16 -6t7 -12q0 -3 -1 -6q-2 -5 -3 -14l-148 -492q-30 -98 -46 -169q-15 -66 -15 -99q0 -23 6.5 -33t22.5 -10q46 0 112 91q64 91 74 91q4 0 8 -7t4 -13q0 -11 -25 -51
q-28 -45 -61 -83q-56 -66 -108 -103q-51 -36 -90 -36q-34 0 -52 25q-18 26 -18 71q0 31 10 81q10 58 25 114l44 170h-372z" />
    <glyph glyph-name="Oacute" unicode="&#xee;" horiz-adv-x="883" 
d="M473 938q140 0 229 -110q89 -112 89 -289q0 -225 -150.5 -399.5t-333.5 -174.5q-135 0 -224 110t-89 281q0 234 149 409q149 173 330 173zM664 631q0 123 -47.5 190.5t-133.5 67.5q-66 0 -130.5 -46.5t-112.5 -127.5q-57 -95 -89 -206t-32 -214q0 -129 50 -203t134 -74
q137 0 249 185.5t112 427.5z" />
    <glyph glyph-name="Oacute" unicode="&#x43e;" horiz-adv-x="883" 
d="M473 938q140 0 229 -110q89 -112 89 -289q0 -225 -150.5 -399.5t-333.5 -174.5q-135 0 -224 110t-89 281q0 234 149 409q149 173 330 173zM664 631q0 123 -47.5 190.5t-133.5 67.5q-66 0 -130.5 -46.5t-112.5 -127.5q-57 -95 -89 -206t-32 -214q0 -129 50 -203t134 -74
q137 0 249 185.5t112 427.5z" />
    <glyph glyph-name="Ocircumflex" unicode="&#xef;" horiz-adv-x="1001" 
d="M324 657l-56 -200q65 115 129 205t128 156q122 122 225 122q57 0 90.5 -31t33.5 -84q0 -31 -9 -75q-13 -55 -29 -101l-160 -473q-7 -24 -7 -27q-3 -12 -3 -20q0 -20 8 -33q8 -12 22 -12q29 0 58 28q32 29 77 97q18 27 38.5 62.5t29.5 35.5q7 0 10 -4q2 -6 2 -14
q0 -13 -25 -59q-31 -56 -65 -103q-51 -74 -104 -113q-56 -41 -101 -41q-35 0 -54 25q-19 23 -19 70q0 53 25 152q27 106 73 237l84 245q10 27 15 53q5 28 5 44q0 32 -15 48q-17 17 -44 17q-66 0 -191 -143q-126 -142 -216 -338q-52 -113 -93 -248q-40 -135 -63 -135h-88
q-6 0 -11.5 6t-5.5 12q0 3 2.5 12t6.5 19l141 475q35 121 47 177q14 65 14 96q0 21 -6.5 30t-21.5 9q-44 0 -110 -91q-68 -92 -75 -92q-4 0 -9 6q-5 7 -5 13q0 11 25 51q26 39 61 82q64 75 110 107q49 34 91 34q33 0 51 -25t18 -71q0 -27 -9 -80q-10 -60 -25 -113z" />
    <glyph glyph-name="Ocircumflex" unicode="&#x43f;" horiz-adv-x="1001" 
d="M324 657l-56 -200q65 115 129 205t128 156q122 122 225 122q57 0 90.5 -31t33.5 -84q0 -31 -9 -75q-13 -55 -29 -101l-160 -473q-7 -24 -7 -27q-3 -12 -3 -20q0 -20 8 -33q8 -12 22 -12q29 0 58 28q32 29 77 97q18 27 38.5 62.5t29.5 35.5q7 0 10 -4q2 -6 2 -14
q0 -13 -25 -59q-31 -56 -65 -103q-51 -74 -104 -113q-56 -41 -101 -41q-35 0 -54 25q-19 23 -19 70q0 53 25 152q27 106 73 237l84 245q10 27 15 53q5 28 5 44q0 32 -15 48q-17 17 -44 17q-66 0 -191 -143q-126 -142 -216 -338q-52 -113 -93 -248q-40 -135 -63 -135h-88
q-6 0 -11.5 6t-5.5 12q0 3 2.5 12t6.5 19l141 475q35 121 47 177q14 65 14 96q0 21 -6.5 30t-21.5 9q-44 0 -110 -91q-68 -92 -75 -92q-4 0 -9 6q-5 7 -5 13q0 11 25 51q26 39 61 82q64 75 110 107q49 34 91 34q33 0 51 -25t18 -71q0 -27 -9 -80q-10 -60 -25 -113z" />
    <glyph glyph-name="apple" unicode="&#xf0;" horiz-adv-x="874" 
d="M377 1073l-37 -155q50 11 85 15q40 5 67 5q142 0 218 -82t76 -235q0 -118 -42 -237.5t-121 -221.5q-75 -96 -154.5 -145.5t-157.5 -49.5q-51 0 -94 21.5t-84 66.5l-72 -352q-2 -14 -3 -19t-1 -16q0 -47 74 -67l4 -2q22 -4 34 -11q9 -6 9 -16q0 -9 -6.5 -16t-15.5 -7
q-1 0 -76 8q-66 7 -135 7q-48 0 -94 -7q-54 -8 -58 -8q-15 0 -25 4.5t-10 12.5q0 19 45 31q22 5 50 16q61 25 84 121l2 8l262 1081q-28 -14 -47 -24q-53 -31 -64 -31q-6 0 -11 3t-5 7q0 24 30.5 45.5t110.5 53.5l45 196q6 22 13.5 29.5t29.5 7.5h27q33 0 43 -2q8 -3 8 -10
q0 -13 -4 -25zM328 860l-129 -522q-18 -72 -24 -111q-7 -36 -7 -67q0 -65 33.5 -102.5t91.5 -37.5q72 0 133 48q60 45 109 139q63 122 99 243q36 122 36 212q0 104 -56 163q-55 58 -159 58q-25 0 -57 -6q-29 -6 -70 -17z" />
    <glyph glyph-name="apple" unicode="&#x440;" horiz-adv-x="874" 
d="M377 1073l-37 -155q50 11 85 15q40 5 67 5q142 0 218 -82t76 -235q0 -118 -42 -237.5t-121 -221.5q-75 -96 -154.5 -145.5t-157.5 -49.5q-51 0 -94 21.5t-84 66.5l-72 -352q-2 -14 -3 -19t-1 -16q0 -47 74 -67l4 -2q22 -4 34 -11q9 -6 9 -16q0 -9 -6.5 -16t-15.5 -7
q-1 0 -76 8q-66 7 -135 7q-48 0 -94 -7q-54 -8 -58 -8q-15 0 -25 4.5t-10 12.5q0 19 45 31q22 5 50 16q61 25 84 121l2 8l262 1081q-28 -14 -47 -24q-53 -31 -64 -31q-6 0 -11 3t-5 7q0 24 30.5 45.5t110.5 53.5l45 196q6 22 13.5 29.5t29.5 7.5h27q33 0 43 -2q8 -3 8 -10
q0 -13 -4 -25zM328 860l-129 -522q-18 -72 -24 -111q-7 -36 -7 -67q0 -65 33.5 -102.5t91.5 -37.5q72 0 133 48q60 45 109 139q63 122 99 243q36 122 36 212q0 104 -56 163q-55 58 -159 58q-25 0 -57 -6q-29 -6 -70 -17z" />
    <glyph glyph-name="Ograve" unicode="&#xf1;" horiz-adv-x="768" 
d="M541 956q78 0 127 -33.5t49 -84.5q0 -25 -17 -42q-16 -16 -45 -16q-49 0 -100 60q-53 59 -78 59q-107 0 -217 -174q-110 -176 -110 -391q0 -130 51.5 -200.5t146.5 -70.5q47 0 100 32q55 33 107 91q16 18 38 54q18 32 32 32q5 0 9.5 -5t4.5 -15q0 -19 -23 -57
q-23 -35 -65 -84q-66 -76 -134 -115q-65 -37 -136 -37q-120 0 -200 99q-79 98 -79 255q0 116 46 230q47 116 132 213q79 91 177.5 145.5t183.5 54.5z" />
    <glyph glyph-name="Ograve" unicode="&#x441;" horiz-adv-x="768" 
d="M541 956q78 0 127 -33.5t49 -84.5q0 -25 -17 -42q-16 -16 -45 -16q-49 0 -100 60q-53 59 -78 59q-107 0 -217 -174q-110 -176 -110 -391q0 -130 51.5 -200.5t146.5 -70.5q47 0 100 32q55 33 107 91q16 18 38 54q18 32 32 32q5 0 9.5 -5t4.5 -15q0 -19 -23 -57
q-23 -35 -65 -84q-66 -76 -134 -115q-65 -37 -136 -37q-120 0 -200 99q-79 98 -79 255q0 116 46 230q47 116 132 213q79 91 177.5 145.5t183.5 54.5z" />
    <glyph glyph-name="Uacute" unicode="&#xf2;" horiz-adv-x="1403" 
d="M297 582l-37 -125q149 259 249 371t177 112q52 0 79 -35q26 -37 26 -108q0 -33 -7 -74q-9 -52 -20 -90l-45 -176q72 129 131 219.5t113 152.5q101 113 184 113q50 0 78 -36.5t28 -100.5q0 -34 -7 -75.5t-23 -96.5l-138 -467q-2 -6 -4 -20q-2 -12 -2 -17q0 -18 8 -31
q8 -12 21 -12q28 0 59.5 28.5t73.5 94.5q10 16 17 27.5t16 27.5q25 43 35 43q7 0 10 -3q2 -6 2 -15q0 -13 -24 -57q-29 -52 -64 -103q-52 -76 -105 -117q-55 -41 -100 -41q-36 0 -56 26t-20 75q0 31 8 77q7 42 23 91l135 448q10 34 13 53q4 24 4 45q0 30 -13 46t-39 16
q-61 0 -159 -128q-37 -49 -67 -97.5t-62.5 -110.5t-61.5 -127q-41 -92 -79 -198q-35 -93 -50 -156q-4 -25 -14 -31q-9 -6 -33 -6h-29q-21 0 -32 5.5t-11 16.5q0 5 2 19q1 8 9 31l32 104q65 213 107.5 390t42.5 218q0 35 -13 52q-13 18 -38 18q-56 0 -163 -137
q-105 -135 -196 -336q-58 -129 -106 -305q-10 -41 -17 -58q-5 -11 -17 -15q-15 -5 -44 -5q-31 0 -42 5.5t-11 18.5q0 4 2 16q1 5 1.5 9t2.5 10l135 473q32 106 45 172q14 68 14 103q0 20 -7 28q-7 9 -21 9q-41 0 -102.5 -91.5t-69.5 -91.5q-4 0 -8 7q-5 8 -5 14q0 10 23 48
q19 32 57 83q55 72 101 106q47 35 86 35q31 0 49 -27t18 -75q0 -38 -14 -106q-12 -61 -41 -156z" />
    <glyph glyph-name="Uacute" unicode="&#x442;" horiz-adv-x="1403" 
d="M297 582l-37 -125q149 259 249 371t177 112q52 0 79 -35q26 -37 26 -108q0 -33 -7 -74q-9 -52 -20 -90l-45 -176q72 129 131 219.5t113 152.5q101 113 184 113q50 0 78 -36.5t28 -100.5q0 -34 -7 -75.5t-23 -96.5l-138 -467q-2 -6 -4 -20q-2 -12 -2 -17q0 -18 8 -31
q8 -12 21 -12q28 0 59.5 28.5t73.5 94.5q10 16 17 27.5t16 27.5q25 43 35 43q7 0 10 -3q2 -6 2 -15q0 -13 -24 -57q-29 -52 -64 -103q-52 -76 -105 -117q-55 -41 -100 -41q-36 0 -56 26t-20 75q0 31 8 77q7 42 23 91l135 448q10 34 13 53q4 24 4 45q0 30 -13 46t-39 16
q-61 0 -159 -128q-37 -49 -67 -97.5t-62.5 -110.5t-61.5 -127q-41 -92 -79 -198q-35 -93 -50 -156q-4 -25 -14 -31q-9 -6 -33 -6h-29q-21 0 -32 5.5t-11 16.5q0 5 2 19q1 8 9 31l32 104q65 213 107.5 390t42.5 218q0 35 -13 52q-13 18 -38 18q-56 0 -163 -137
q-105 -135 -196 -336q-58 -129 -106 -305q-10 -41 -17 -58q-5 -11 -17 -15q-15 -5 -44 -5q-31 0 -42 5.5t-11 18.5q0 4 2 16q1 5 1.5 9t2.5 10l135 473q32 106 45 172q14 68 14 103q0 20 -7 28q-7 9 -21 9q-41 0 -102.5 -91.5t-69.5 -91.5q-4 0 -8 7q-5 8 -5 14q0 10 23 48
q19 32 57 83q55 72 101 106q47 35 86 35q31 0 49 -27t18 -75q0 -38 -14 -106q-12 -61 -41 -156z" />
    <glyph glyph-name="Ucircumflex" unicode="&#xf3;" horiz-adv-x="758" 
d="M197 -123q5 51 8 102q2 50 3 68q3 69 3 125q0 169 -5 306q-5 136 -15 211q-19 151 -66 151q-15 0 -36 -27q-23 -29 -44 -76q-10 -23 -16 -43q-13 -37 -29 -37q-8 0 -11 5t-3 16q0 59 67.5 156.5t128.5 97.5q78 0 116 -155q36 -156 36 -494v-145v-54q-1 -29 -2 -45
q137 216 205 373q71 163 71 260q0 41 -19 102q-20 63 -20 86q0 35 18 58.5t44 23.5q32 0 50.5 -33.5t18.5 -93.5q0 -123 -75 -308q-75 -184 -230 -437q-89 -146 -156.5 -243t-128.5 -166q-114 -128 -194 -128q-53 0 -88 31q-37 31 -37 74q0 27 15.5 44t37.5 17q38 0 77 -51
q37 -51 50 -51q44 0 116 83q73 84 110 197z" />
    <glyph glyph-name="Ucircumflex" unicode="&#x443;" horiz-adv-x="758" 
d="M197 -123q5 51 8 102q2 50 3 68q3 69 3 125q0 169 -5 306q-5 136 -15 211q-19 151 -66 151q-15 0 -36 -27q-23 -29 -44 -76q-10 -23 -16 -43q-13 -37 -29 -37q-8 0 -11 5t-3 16q0 59 67.5 156.5t128.5 97.5q78 0 116 -155q36 -156 36 -494v-145v-54q-1 -29 -2 -45
q137 216 205 373q71 163 71 260q0 41 -19 102q-20 63 -20 86q0 35 18 58.5t44 23.5q32 0 50.5 -33.5t18.5 -93.5q0 -123 -75 -308q-75 -184 -230 -437q-89 -146 -156.5 -243t-128.5 -166q-114 -128 -194 -128q-53 0 -88 31q-37 31 -37 74q0 27 15.5 44t37.5 17q38 0 77 -51
q37 -51 50 -51q44 0 116 83q73 84 110 197z" />
    <glyph glyph-name="Ugrave" unicode="&#xf4;" horiz-adv-x="1284" 
d="M445 57q-62 -45 -116 -66.5t-105 -21.5q-78 0 -134 50q-46 41 -78 127q-22 57 -22 172q0 60 21.5 147.5t48.5 143.5q81 166 198 249q56 40 117 59.5t136 19.5q61 0 138 -53l78 330q9 36 11 49q3 18 3 31q0 17 -13 27t-34 10q-7 0 -12 -1t-12 -1q-17 0 -25 5t-8 16
q0 13 10 19q13 6 47 7q2 1 5.5 1.5t6.5 0.5q36 3 56 6q42 8 80.5 30t48.5 22q5 0 8 -4q2 -6 2 -15q-2 -9 -6 -20l-132 -515q109 56 161 56q142 0 218 -82t76 -235q0 -118 -42 -237q-44 -123 -121 -222q-75 -96 -154.5 -145.5t-157.5 -49.5q-48 0 -94 22q-43 21 -84 66
l-72 -352q-2 -14 -3 -19t-1 -16q0 -47 74 -67l4 -2q22 -4 34 -11q9 -6 9 -16q0 -9 -6.5 -16t-15.5 -7q-1 0 -76 8q-66 7 -135 7q-48 0 -94 -7q-54 -8 -58 -8q-15 0 -25 4.5t-10 12.5q0 19 45 31q22 5 50 16q61 25 84 121l2 8zM751 824l-120 -486q-18 -72 -24 -111
q-7 -36 -7 -67q0 -62 34 -102q33 -38 91 -38q72 0 133 48q60 45 109 139q63 122 99 243q36 122 36 212q0 104 -56 163q-25 28 -60 39.5t-89 11.5q-28 0 -69.5 -14t-76.5 -38zM633 826q-53 59 -117 59q-94 0 -177 -58q-86 -60 -136 -163q-45 -96 -67 -212q-22 -119 -22 -230
q0 -100 44 -152q40 -48 110 -48q57 0 109 38q53 38 84 102q16 34 25 67q12 34 31 111z" />
    <glyph glyph-name="Ugrave" unicode="&#x444;" horiz-adv-x="1284" 
d="M445 57q-62 -45 -116 -66.5t-105 -21.5q-78 0 -134 50q-46 41 -78 127q-22 57 -22 172q0 60 21.5 147.5t48.5 143.5q81 166 198 249q56 40 117 59.5t136 19.5q61 0 138 -53l78 330q9 36 11 49q3 18 3 31q0 17 -13 27t-34 10q-7 0 -12 -1t-12 -1q-17 0 -25 5t-8 16
q0 13 10 19q13 6 47 7q2 1 5.5 1.5t6.5 0.5q36 3 56 6q42 8 80.5 30t48.5 22q5 0 8 -4q2 -6 2 -15q-2 -9 -6 -20l-132 -515q109 56 161 56q142 0 218 -82t76 -235q0 -118 -42 -237q-44 -123 -121 -222q-75 -96 -154.5 -145.5t-157.5 -49.5q-48 0 -94 22q-43 21 -84 66
l-72 -352q-2 -14 -3 -19t-1 -16q0 -47 74 -67l4 -2q22 -4 34 -11q9 -6 9 -16q0 -9 -6.5 -16t-15.5 -7q-1 0 -76 8q-66 7 -135 7q-48 0 -94 -7q-54 -8 -58 -8q-15 0 -25 4.5t-10 12.5q0 19 45 31q22 5 50 16q61 25 84 121l2 8zM751 824l-120 -486q-18 -72 -24 -111
q-7 -36 -7 -67q0 -62 34 -102q33 -38 91 -38q72 0 133 48q60 45 109 139q63 122 99 243q36 122 36 212q0 104 -56 163q-25 28 -60 39.5t-89 11.5q-28 0 -69.5 -14t-76.5 -38zM633 826q-53 59 -117 59q-94 0 -177 -58q-86 -60 -136 -163q-45 -96 -67 -212q-22 -119 -22 -230
q0 -100 44 -152q40 -48 110 -48q57 0 109 38q53 38 84 102q16 34 25 67q12 34 31 111z" />
    <glyph glyph-name="dotlessi" unicode="&#xf5;" horiz-adv-x="834" 
d="M367 766l55 -186q43 81 88 151.5t83 114.5q78 90 138 90q37 0 59 -27q23 -28 23 -69q0 -60 -22.5 -94.5t-57.5 -34.5q-23 0 -39 19q-16 17 -16 44q0 10 3 25t3 20q0 8 -5.5 15.5t-12.5 7.5q-34 0 -97 -85q-66 -87 -135 -227l62 -268q26 -120 44.5 -150t49.5 -30
q22 0 45 26q20 25 31 66q3 16 6 43q3 41 18 41q4 0 10 -12q5 -15 5 -29q0 -87 -50 -166q-51 -78 -114 -78q-92 0 -148 234l-2 8l-43 180q-106 -197 -204 -313q-99 -115 -162 -115q-52 0 -77 28q-26 29 -26 85q0 52 24 83q24 32 62 32q26 0 46 -23q18 -24 18 -57
q0 -13 -4 -28q-5 -18 -5 -24q0 -7 5 -14q5 -6 10 -6q39 0 127 117q86 116 172 295l-64 235q-21 82 -42 112q-23 29 -56 29q-38 0 -67 -44q-29 -46 -29 -105q0 -25 -4 -34q-5 -11 -15 -11q-7 0 -11.5 10t-4.5 25q0 104 60 186t128 82q48 0 79 -36q31 -38 59 -138z" />
    <glyph glyph-name="dotlessi" unicode="&#x445;" horiz-adv-x="834" 
d="M367 766l55 -186q43 81 88 151.5t83 114.5q78 90 138 90q37 0 59 -27q23 -28 23 -69q0 -60 -22.5 -94.5t-57.5 -34.5q-23 0 -39 19q-16 17 -16 44q0 10 3 25t3 20q0 8 -5.5 15.5t-12.5 7.5q-34 0 -97 -85q-66 -87 -135 -227l62 -268q26 -120 44.5 -150t49.5 -30
q22 0 45 26q20 25 31 66q3 16 6 43q3 41 18 41q4 0 10 -12q5 -15 5 -29q0 -87 -50 -166q-51 -78 -114 -78q-92 0 -148 234l-2 8l-43 180q-106 -197 -204 -313q-99 -115 -162 -115q-52 0 -77 28q-26 29 -26 85q0 52 24 83q24 32 62 32q26 0 46 -23q18 -24 18 -57
q0 -13 -4 -28q-5 -18 -5 -24q0 -7 5 -14q5 -6 10 -6q39 0 127 117q86 116 172 295l-64 235q-21 82 -42 112q-23 29 -56 29q-38 0 -67 -44q-29 -46 -29 -105q0 -25 -4 -34q-5 -11 -15 -11q-7 0 -11.5 10t-4.5 25q0 104 60 186t128 82q48 0 79 -36q31 -38 59 -138z" />
    <glyph glyph-name="circumflex" unicode="&#xf6;" horiz-adv-x="1001" 
d="M640 -36q-3 -1 -13 -1q-34 0 -52 25q-18 26 -18 71q0 31 10 81q16 82 25 114l53 199q-64 -115 -130.5 -208.5t-125.5 -152.5q-123 -123 -225 -123q-56 0 -91 32q-34 31 -34 83q0 34 10 75q13 55 29 101l160 475q8 25 8 27q2 14 2 18q0 20 -8 33q-7 12 -21 12
q-49 0 -107 -85t-65 -85q-5 0 -10 5q-4 4 -4 12q0 12 17 44q18 34 46 72q56 76 106 112q52 38 95 38q35 0 54 -24q20 -25 20 -66q0 -56 -24 -157q-18 -73 -73 -238l-84 -246q-10 -31 -16 -59q-6 -24 -6 -37q0 -33 15.5 -49.5t43.5 -16.5q67 0 192 143q62 70 118 158t98 180
q54 114 95 254q41 135 65 135h79q9 0 16 -6t7 -12q0 -3 -1 -6q-2 -5 -3 -14l-148 -492q-30 -98 -46 -169q-15 -66 -15 -99q0 -23 6.5 -33t22.5 -10q46 0 112 91t74 91q4 0 8 -7t4 -13q0 -11 -25 -51q-28 -45 -61 -83q-56 -66 -108 -103q-60 -42 -60 -113q0 -17 13.5 -58.5
t13.5 -58.5q0 -39 -36 -84t-72 -69l-36 18q51 47 51 123q0 18 -0.5 25.5t-1.5 17.5t-2 26.5t-2 36.5q0 38 55 101z" />
    <glyph glyph-name="circumflex" unicode="&#x446;" horiz-adv-x="1001" 
d="M640 -36q-3 -1 -13 -1q-34 0 -52 25q-18 26 -18 71q0 31 10 81q16 82 25 114l53 199q-64 -115 -130.5 -208.5t-125.5 -152.5q-123 -123 -225 -123q-56 0 -91 32q-34 31 -34 83q0 34 10 75q13 55 29 101l160 475q8 25 8 27q2 14 2 18q0 20 -8 33q-7 12 -21 12
q-49 0 -107 -85t-65 -85q-5 0 -10 5q-4 4 -4 12q0 12 17 44q18 34 46 72q56 76 106 112q52 38 95 38q35 0 54 -24q20 -25 20 -66q0 -56 -24 -157q-18 -73 -73 -238l-84 -246q-10 -31 -16 -59q-6 -24 -6 -37q0 -33 15.5 -49.5t43.5 -16.5q67 0 192 143q62 70 118 158t98 180
q54 114 95 254q41 135 65 135h79q9 0 16 -6t7 -12q0 -3 -1 -6q-2 -5 -3 -14l-148 -492q-30 -98 -46 -169q-15 -66 -15 -99q0 -23 6.5 -33t22.5 -10q46 0 112 91t74 91q4 0 8 -7t4 -13q0 -11 -25 -51q-28 -45 -61 -83q-56 -66 -108 -103q-60 -42 -60 -113q0 -17 13.5 -58.5
t13.5 -58.5q0 -39 -36 -84t-72 -69l-36 18q51 47 51 123q0 18 -0.5 25.5t-1.5 17.5t-2 26.5t-2 36.5q0 38 55 101z" />
    <glyph glyph-name="tilde" unicode="&#xf7;" horiz-adv-x="864" 
d="M651 801q-69 -133 -102.5 -190t-83.5 -116q-61 -72 -121.5 -108.5t-113.5 -36.5q-56 0 -91 32q-34 31 -34 83q0 34 10 75q16 65 29 101l34 94q8 25 8 27q2 14 2 18q0 20 -8 33q-7 12 -21 12q-49 0 -107 -85t-65 -85q-5 0 -10 5q-4 4 -4 12q0 12 17 44q18 34 46 72
q56 76 106 112q52 38 95 38q35 0 54 -24q21 -26 21 -65q0 -71 -25 -158q-46 -157 -47 -162q-6 -32 -6 -37q0 -33 15.5 -49.5t43.5 -16.5q34 0 80.5 33t94.5 96q39 51 69.5 105.5t69.5 134t59 120.5h100q9 0 16 -6t7 -12q0 -3 -1 -6q-2 -5 -3 -14l-148 -492q-30 -98 -46 -169
q-15 -66 -15 -99q0 -23 6.5 -33t22.5 -10q46 0 112 91q64 91 74 91q4 0 8 -7t4 -13q0 -11 -25 -51q-28 -45 -61 -83q-56 -66 -108 -103q-51 -36 -90 -36q-34 0 -52 25q-18 26 -18 71q0 31 10 81q13 77 25 114z" />
    <glyph glyph-name="tilde" unicode="&#x447;" horiz-adv-x="864" 
d="M651 801q-69 -133 -102.5 -190t-83.5 -116q-61 -72 -121.5 -108.5t-113.5 -36.5q-56 0 -91 32q-34 31 -34 83q0 34 10 75q16 65 29 101l34 94q8 25 8 27q2 14 2 18q0 20 -8 33q-7 12 -21 12q-49 0 -107 -85t-65 -85q-5 0 -10 5q-4 4 -4 12q0 12 17 44q18 34 46 72
q56 76 106 112q52 38 95 38q35 0 54 -24q21 -26 21 -65q0 -71 -25 -158q-46 -157 -47 -162q-6 -32 -6 -37q0 -33 15.5 -49.5t43.5 -16.5q34 0 80.5 33t94.5 96q39 51 69.5 105.5t69.5 134t59 120.5h100q9 0 16 -6t7 -12q0 -3 -1 -6q-2 -5 -3 -14l-148 -492q-30 -98 -46 -169
q-15 -66 -15 -99q0 -23 6.5 -33t22.5 -10q46 0 112 91q64 91 74 91q4 0 8 -7t4 -13q0 -11 -25 -51q-28 -45 -61 -83q-56 -66 -108 -103q-51 -36 -90 -36q-34 0 -52 25q-18 26 -18 71q0 31 10 81q13 77 25 114z" />
    <glyph glyph-name="macron" unicode="&#xf8;" horiz-adv-x="1403" 
d="M1043 336l37 125q-149 -259 -249 -371t-177 -112q-52 0 -79 35q-26 37 -26 108q0 33 7 74q9 52 20 90l45 176q-141 -255 -244 -372q-101 -113 -184 -113q-49 0 -78 36q-28 37 -28 101q0 34 7 75q7 42 23 97l138 467q2 6 4 20q2 12 2 17q0 18 -8 31q-7 12 -21 12
q-28 0 -60 -29q-31 -28 -73 -94q-10 -17 -16 -27.5t-17 -27.5q-25 -43 -35 -43q-7 0 -10 3q-2 6 -2 15q0 14 24 57q29 52 64 103q53 77 105 117q55 41 100 41q36 0 56 -26t20 -75q0 -31 -8 -77q-7 -42 -23 -91l-135 -448q-10 -34 -13 -53q-4 -24 -4 -45q0 -30 13 -46t39 -16
q61 0 159 128q51 67 99 151.5t92 183.5q41 92 79 198q35 93 50 156q4 25 13.5 31t33.5 6h29q22 0 32 -6q11 -5 11 -16q0 -5 -2 -19q-1 -8 -9 -31l-32 -104q-64 -213 -108 -390q-42 -177 -42 -218q0 -35 13 -52q14 -18 38 -18q56 0 163 137q105 135 196 336q58 129 106 305
q10 41 17 58q5 11 17 15q15 5 44 5q32 0 42 -6q11 -5 11 -18q0 -4 -2 -16q-3 -17 -4 -19l-135 -473q-32 -106 -45 -172q-14 -68 -14 -103q0 -20 7 -28q8 -9 21 -9q41 0 102 91q62 92 70 92q4 0 8 -7q5 -8 5 -14q0 -10 -23 -48q-19 -32 -57 -83q-55 -72 -101.5 -106.5
t-85.5 -34.5q-31 0 -49 27t-18 75q0 38 14 106q12 61 41 156z" />
    <glyph glyph-name="macron" unicode="&#x448;" horiz-adv-x="1403" 
d="M1043 336l37 125q-149 -259 -249 -371t-177 -112q-52 0 -79 35q-26 37 -26 108q0 33 7 74q9 52 20 90l45 176q-141 -255 -244 -372q-101 -113 -184 -113q-49 0 -78 36q-28 37 -28 101q0 34 7 75q7 42 23 97l138 467q2 6 4 20q2 12 2 17q0 18 -8 31q-7 12 -21 12
q-28 0 -60 -29q-31 -28 -73 -94q-10 -17 -16 -27.5t-17 -27.5q-25 -43 -35 -43q-7 0 -10 3q-2 6 -2 15q0 14 24 57q29 52 64 103q53 77 105 117q55 41 100 41q36 0 56 -26t20 -75q0 -31 -8 -77q-7 -42 -23 -91l-135 -448q-10 -34 -13 -53q-4 -24 -4 -45q0 -30 13 -46t39 -16
q61 0 159 128q51 67 99 151.5t92 183.5q41 92 79 198q35 93 50 156q4 25 13.5 31t33.5 6h29q22 0 32 -6q11 -5 11 -16q0 -5 -2 -19q-1 -8 -9 -31l-32 -104q-64 -213 -108 -390q-42 -177 -42 -218q0 -35 13 -52q14 -18 38 -18q56 0 163 137q105 135 196 336q58 129 106 305
q10 41 17 58q5 11 17 15q15 5 44 5q32 0 42 -6q11 -5 11 -18q0 -4 -2 -16q-3 -17 -4 -19l-135 -473q-32 -106 -45 -172q-14 -68 -14 -103q0 -20 7 -28q8 -9 21 -9q41 0 102 91q62 92 70 92q4 0 8 -7q5 -8 5 -14q0 -10 -23 -48q-19 -32 -57 -83q-55 -72 -101.5 -106.5
t-85.5 -34.5q-31 0 -49 27t-18 75q0 38 14 106q12 61 41 156z" />
    <glyph glyph-name="breve" unicode="&#xf9;" horiz-adv-x="1403" 
d="M1152 8q-60 -42 -60 -113q0 -17 13.5 -58.5t13.5 -58.5q0 -39 -36 -84t-72 -69l-36 18q51 47 51 123q0 18 -0.5 25.5t-1.5 17.5t-2 26.5t-2 36.5q0 38 55 101q-3 -1 -13 -1q-34 0 -52 25q-22 33 -22 77q0 38 14 106q12 61 41 156l37 125q-149 -259 -249 -371t-177 -112
q-54 0 -79 35q-26 37 -26 108q0 33 7 74q6 38 20 90l45 176q-141 -255 -244 -372q-101 -113 -184 -113q-49 0 -78 36q-28 37 -28 101q0 34 7 75q7 42 23 97l138 467q2 6 4 20q2 12 2 17q0 18 -8 31q-7 12 -21 12q-28 0 -60 -29q-36 -33 -73 -94q-10 -17 -16 -27.5t-17 -27.5
q-25 -43 -35 -43q-7 0 -10 3q-2 6 -2 15q0 14 24 57q29 52 64 103q53 77 105 117q55 41 100 41q36 0 56 -26t20 -75q0 -31 -8 -77q-5 -29 -23 -91l-135 -448q-10 -34 -13 -53q-4 -24 -4 -45q0 -30 13 -46t39 -16q61 0 159 128q51 67 99 151.5t92 183.5q31 70 79 198
q35 93 50 156q4 25 13.5 31t33.5 6h29q22 0 32 -6q11 -5 11 -16q0 -5 -2 -19q-1 -8 -9 -31l-32 -104q-66 -213 -108 -390t-42 -218q0 -35 13 -52q14 -18 38 -18q56 0 163 137q105 135 196 336q58 129 106 305q10 41 17 58q5 11 17 15q15 5 44 5q32 0 42 -6q11 -5 11 -18
q0 -4 -2 -16q-3 -17 -4 -19l-135 -473q-35 -124 -45 -172q-14 -68 -14 -103q0 -20 7 -28q8 -9 21 -9q41 0 102 91q62 92 70 92q4 0 8 -7q5 -8 5 -14q0 -10 -23 -48q-19 -32 -57 -83q-14 -19 -33 -44t-30.5 -37.5t-26.5 -23.5z" />
    <glyph glyph-name="breve" unicode="&#x449;" horiz-adv-x="1403" 
d="M1152 8q-60 -42 -60 -113q0 -17 13.5 -58.5t13.5 -58.5q0 -39 -36 -84t-72 -69l-36 18q51 47 51 123q0 18 -0.5 25.5t-1.5 17.5t-2 26.5t-2 36.5q0 38 55 101q-3 -1 -13 -1q-34 0 -52 25q-22 33 -22 77q0 38 14 106q12 61 41 156l37 125q-149 -259 -249 -371t-177 -112
q-54 0 -79 35q-26 37 -26 108q0 33 7 74q6 38 20 90l45 176q-141 -255 -244 -372q-101 -113 -184 -113q-49 0 -78 36q-28 37 -28 101q0 34 7 75q7 42 23 97l138 467q2 6 4 20q2 12 2 17q0 18 -8 31q-7 12 -21 12q-28 0 -60 -29q-36 -33 -73 -94q-10 -17 -16 -27.5t-17 -27.5
q-25 -43 -35 -43q-7 0 -10 3q-2 6 -2 15q0 14 24 57q29 52 64 103q53 77 105 117q55 41 100 41q36 0 56 -26t20 -75q0 -31 -8 -77q-5 -29 -23 -91l-135 -448q-10 -34 -13 -53q-4 -24 -4 -45q0 -30 13 -46t39 -16q61 0 159 128q51 67 99 151.5t92 183.5q31 70 79 198
q35 93 50 156q4 25 13.5 31t33.5 6h29q22 0 32 -6q11 -5 11 -16q0 -5 -2 -19q-1 -8 -9 -31l-32 -104q-66 -213 -108 -390t-42 -218q0 -35 13 -52q14 -18 38 -18q56 0 163 137q105 135 196 336q58 129 106 305q10 41 17 58q5 11 17 15q15 5 44 5q32 0 42 -6q11 -5 11 -18
q0 -4 -2 -16q-3 -17 -4 -19l-135 -473q-35 -124 -45 -172q-14 -68 -14 -103q0 -20 7 -28q8 -9 21 -9q41 0 102 91q62 92 70 92q4 0 8 -7q5 -8 5 -14q0 -10 -23 -48q-19 -32 -57 -83q-14 -19 -33 -44t-30.5 -37.5t-26.5 -23.5z" />
    <glyph glyph-name="dotaccent" unicode="&#xfa;" horiz-adv-x="933" 
d="M153 810q-138 0 -138 -149q-1 -30 -15 -30q-7 0 -12 14q-5 15 -5 39q0 113 60 186q56 69 148 69q35 0 64.5 -14t67 -38.5t60.5 -36t56 -11.5q17 0 41 4l35 45q15 19 42 41q20 15 40 15q33 0 33 -32q0 -19 -51 -66q-193 -179 -225 -498q81 103 164 168.5t166 65.5h4
q84 0 130 -53q46 -55 46 -145q0 -96 -59.5 -193t-151 -161t-179.5 -64q-61 0 -116 30.5t-92.5 110t-37.5 208.5q0 106 57.5 229t172.5 260q-108 -24 -179 -24q-22 0 -65 15t-61 15zM348 207q1 -111 39 -157t87 -46q45 0 93 29t87 80t63 119t24 146q0 135 -111 135
q-68 0 -134.5 -59t-141.5 -160q-2 -22 -4 -43t-2 -44z" />
    <glyph glyph-name="dotaccent" unicode="&#x44a;" horiz-adv-x="933" 
d="M153 810q-138 0 -138 -149q-1 -30 -15 -30q-7 0 -12 14q-5 15 -5 39q0 113 60 186q56 69 148 69q35 0 64.5 -14t67 -38.5t60.5 -36t56 -11.5q17 0 41 4l35 45q15 19 42 41q20 15 40 15q33 0 33 -32q0 -19 -51 -66q-193 -179 -225 -498q81 103 164 168.5t166 65.5h4
q84 0 130 -53q46 -55 46 -145q0 -96 -59.5 -193t-151 -161t-179.5 -64q-61 0 -116 30.5t-92.5 110t-37.5 208.5q0 106 57.5 229t172.5 260q-108 -24 -179 -24q-22 0 -65 15t-61 15zM348 207q1 -111 39 -157t87 -46q45 0 93 29t87 80t63 119t24 146q0 135 -111 135
q-68 0 -134.5 -59t-141.5 -160q-2 -22 -4 -43t-2 -44z" />
    <glyph glyph-name="ring" unicode="&#xfb;" horiz-adv-x="1270" 
d="M231 351q60 76 104.5 122t101 77.5t121.5 31.5q45 0 79 -24t52.5 -64.5t18.5 -91.5q0 -95 -61.5 -197t-162.5 -170t-205 -68q-52 0 -94.5 26t-68 76t-25.5 120q0 83 27 169l120 377q8 25 8 27q2 14 2 18q0 20 -8 33q-7 12 -21 12q-49 0 -107 -85t-65 -85q-5 0 -10 5
q-4 4 -4 12q0 12 17 44q18 34 46 72q56 76 106 112q52 38 95 38q35 0 54 -24q20 -25 20 -66q0 -71 -26 -155q-21 -66 -36.5 -112.5t-40 -118t-37.5 -111.5zM192 135q0 -56 29.5 -94t87.5 -38q63 0 128.5 53t107.5 143t42 191q0 53 -23.5 86.5t-71.5 33.5q-41 0 -85 -28.5
t-89 -76.5t-105 -120q-21 -80 -21 -150zM1125 655l-2 -6l-146 -454q-6 -22 -13 -51q-5 -22 -5 -29q0 -20 8 -31.5t20 -11.5q25 0 54 28t57 76q6 10 15.5 27t23.5 43q18 37 24 37q7 0 11 -4t4 -11q0 -16 -21 -58q-26 -48 -61 -101q-41 -67 -91 -107q-47 -37 -91 -37
q-42 0 -62 26t-20 77q0 43 18 112q17 71 66 209l84 246l4 10q39 119 39 154q0 26 -6 35q-8 8 -23 8q-37 0 -94 -83q-59 -83 -66 -83q-4 0 -7 5t-3 13q0 10 20 45q22 38 50 72q50 65 98 99q47 32 86 32q35 0 55.5 -23t20.5 -63q0 -54 -47 -201z" />
    <glyph glyph-name="ring" unicode="&#x44b;" horiz-adv-x="1270" 
d="M231 351q60 76 104.5 122t101 77.5t121.5 31.5q45 0 79 -24t52.5 -64.5t18.5 -91.5q0 -95 -61.5 -197t-162.5 -170t-205 -68q-52 0 -94.5 26t-68 76t-25.5 120q0 83 27 169l120 377q8 25 8 27q2 14 2 18q0 20 -8 33q-7 12 -21 12q-49 0 -107 -85t-65 -85q-5 0 -10 5
q-4 4 -4 12q0 12 17 44q18 34 46 72q56 76 106 112q52 38 95 38q35 0 54 -24q20 -25 20 -66q0 -71 -26 -155q-21 -66 -36.5 -112.5t-40 -118t-37.5 -111.5zM192 135q0 -56 29.5 -94t87.5 -38q63 0 128.5 53t107.5 143t42 191q0 53 -23.5 86.5t-71.5 33.5q-41 0 -85 -28.5
t-89 -76.5t-105 -120q-21 -80 -21 -150zM1125 655l-2 -6l-146 -454q-6 -22 -13 -51q-5 -22 -5 -29q0 -20 8 -31.5t20 -11.5q25 0 54 28t57 76q6 10 15.5 27t23.5 43q18 37 24 37q7 0 11 -4t4 -11q0 -16 -21 -58q-26 -48 -61 -101q-41 -67 -91 -107q-47 -37 -91 -37
q-42 0 -62 26t-20 77q0 43 18 112q17 71 66 209l84 246l4 10q39 119 39 154q0 26 -6 35q-8 8 -23 8q-37 0 -94 -83q-59 -83 -66 -83q-4 0 -7 5t-3 13q0 10 20 45q22 38 50 72q50 65 98 99q47 32 86 32q35 0 55.5 -23t20.5 -63q0 -54 -47 -201z" />
    <glyph glyph-name="cedilla" unicode="&#xfc;" horiz-adv-x="762" 
d="M231 351q60 76 104.5 122t101 77.5t121.5 31.5q45 0 79 -24t52.5 -64.5t18.5 -91.5q0 -95 -61.5 -197t-162.5 -170t-205 -68q-52 0 -94.5 26t-68 76t-25.5 120q0 83 27 169l120 377q8 25 8 27q2 14 2 18q0 20 -8 33q-7 12 -21 12q-49 0 -107 -85t-65 -85q-5 0 -10 5
q-4 4 -4 12q0 12 17 44q18 34 46 72q56 76 106 112q52 38 95 38q35 0 54 -24q20 -25 20 -66q0 -71 -26 -155q-21 -66 -36.5 -112.5t-40 -118t-37.5 -111.5zM192 135q0 -56 29.5 -94t87.5 -38q63 0 128.5 53t107.5 143t42 191q0 53 -23.5 86.5t-71.5 33.5q-41 0 -85 -28.5
t-89 -76.5t-105 -120q-21 -80 -21 -150z" />
    <glyph glyph-name="cedilla" unicode="&#x44c;" horiz-adv-x="762" 
d="M231 351q60 76 104.5 122t101 77.5t121.5 31.5q45 0 79 -24t52.5 -64.5t18.5 -91.5q0 -95 -61.5 -197t-162.5 -170t-205 -68q-52 0 -94.5 26t-68 76t-25.5 120q0 83 27 169l120 377q8 25 8 27q2 14 2 18q0 20 -8 33q-7 12 -21 12q-49 0 -107 -85t-65 -85q-5 0 -10 5
q-4 4 -4 12q0 12 17 44q18 34 46 72q56 76 106 112q52 38 95 38q35 0 54 -24q20 -25 20 -66q0 -71 -26 -155q-21 -66 -36.5 -112.5t-40 -118t-37.5 -111.5zM192 135q0 -56 29.5 -94t87.5 -38q63 0 128.5 53t107.5 143t42 191q0 53 -23.5 86.5t-71.5 33.5q-41 0 -85 -28.5
t-89 -76.5t-105 -120q-21 -80 -21 -150z" />
    <glyph glyph-name="hungarumlaut" unicode="&#xfd;" horiz-adv-x="777" 
d="M555 424h-291q-23 0 -23 21q0 23 31 23h290q8 35 12.5 70.5t4.5 109.5q0 106 -44.5 173t-123.5 67q-61 0 -141.5 -52.5t-142.5 -161.5q-18 -32 -32 -32q-5 0 -10 5q-4 5 -4 15q0 23 23 57q57 87 140 161.5t195 74.5q81 0 144.5 -44.5t99 -125t35.5 -184.5
q0 -116 -46 -230.5t-132 -212.5q-79 -91 -178 -146q-97 -54 -183 -54q-80 0 -127 33q-49 34 -49 85q0 25 16.5 41.5t45.5 16.5q49 0 100 -60q53 -59 78 -59q110 0 217 174q71 115 95 235z" />
    <glyph glyph-name="hungarumlaut" unicode="&#x44d;" horiz-adv-x="777" 
d="M555 424h-291q-23 0 -23 21q0 23 31 23h290q8 35 12.5 70.5t4.5 109.5q0 106 -44.5 173t-123.5 67q-61 0 -141.5 -52.5t-142.5 -161.5q-18 -32 -32 -32q-5 0 -10 5q-4 5 -4 15q0 23 23 57q57 87 140 161.5t195 74.5q81 0 144.5 -44.5t99 -125t35.5 -184.5
q0 -116 -46 -230.5t-132 -212.5q-79 -91 -178 -146q-97 -54 -183 -54q-80 0 -127 33q-49 34 -49 85q0 25 16.5 41.5t45.5 16.5q49 0 100 -60q53 -59 78 -59q110 0 217 174q71 115 95 235z" />
    <glyph glyph-name="ogonek" unicode="&#xfe;" horiz-adv-x="1227" 
d="M433 424h-169q-45 -181 -78 -289q-40 -135 -63 -135h-88q-6 0 -11.5 6t-5.5 12q0 3 2.5 12t6.5 19l141 475q35 121 47 177q14 65 14 96q0 21 -6.5 30t-21.5 9q-44 0 -110 -91q-68 -92 -75 -92q-4 0 -9 6q-5 7 -5 13q0 11 25 51q26 39 61 82q64 75 110 107q49 34 91 34
q33 0 51 -25t18 -71q0 -27 -9 -80q-10 -60 -25 -113l-52 -189h166q16 82 52.5 161.5t96.5 152t134.5 114.5t157.5 42q152 0 225.5 -112t73.5 -271q0 -113 -37.5 -219t-102.5 -190t-146 -132.5t-169 -48.5q-82 0 -149.5 49.5t-105.5 140.5t-38 201q0 34 3 68zM1059 631
q0 122 -44.5 190t-138.5 68q-61 0 -118.5 -54.5t-103 -145t-71.5 -197t-26 -197.5q0 -129 46 -203t123 -74q53 0 112 44.5t109.5 127t81 196.5t30.5 245z" />
    <glyph glyph-name="ogonek" unicode="&#x44e;" horiz-adv-x="1227" 
d="M433 424h-169q-45 -181 -78 -289q-40 -135 -63 -135h-88q-6 0 -11.5 6t-5.5 12q0 3 2.5 12t6.5 19l141 475q35 121 47 177q14 65 14 96q0 21 -6.5 30t-21.5 9q-44 0 -110 -91q-68 -92 -75 -92q-4 0 -9 6q-5 7 -5 13q0 11 25 51q26 39 61 82q64 75 110 107q49 34 91 34
q33 0 51 -25t18 -71q0 -27 -9 -80q-10 -60 -25 -113l-52 -189h166q16 82 52.5 161.5t96.5 152t134.5 114.5t157.5 42q152 0 225.5 -112t73.5 -271q0 -113 -37.5 -219t-102.5 -190t-146 -132.5t-169 -48.5q-82 0 -149.5 49.5t-105.5 140.5t-38 201q0 34 3 68zM1059 631
q0 122 -44.5 190t-138.5 68q-61 0 -118.5 -54.5t-103 -145t-71.5 -197t-26 -197.5q0 -129 46 -203t123 -74q53 0 112 44.5t109.5 127t81 196.5t30.5 245z" />
    <glyph glyph-name="fl" unicode="&#xff;" horiz-adv-x="996" 
d="M450 411q-30 -4 -53 -4q-50 0 -109.5 40.5t-59.5 122.5q0 59 33 126.5t90 122.5t130.5 89t151.5 34q48 0 90 -21q44 -22 47 -22q5 0 32.5 29.5t63.5 29.5q31 0 40 -6.5t9 -25.5q0 -4 -2 -18q0 -2 -8 -27l-172 -625q-4 -15 -14 -62q-6 -28 -6 -42q0 -21 6 -32t16 -11
q19 0 42 22q17 15 54 64q8 10 29 47q17 30 31 30q5 0 8 -3q2 -6 2 -11q0 -22 -16 -55q-15 -32 -49 -80q-55 -80 -105 -121t-94 -41q-30 0 -48 23t-18 63q0 69 43 219l80 278q-102 -66 -178.5 -140.5t-123.5 -165.5q-35 -72 -52 -106t-51.5 -79.5t-85 -76t-113.5 -30.5
q-48 0 -88 34.5t-40 96.5q0 72 33.5 114.5t66.5 42.5q30 0 30 -30q0 -17 -10 -29.5t-33 -38t-34 -42.5t-11 -36q0 -55 52 -55q40 0 80 33t69 87l79 139q21 36 47.5 63.5t55.5 47t63 38.5zM747 792q0 51 -31 80t-92 29q-56 0 -123.5 -46t-114.5 -124t-47 -164q0 -56 35 -85.5
t82 -29.5q39 0 111 47.5t126 125t54 167.5z" />
    <glyph glyph-name="fl" unicode="&#x44f;" horiz-adv-x="996" 
d="M450 411q-30 -4 -53 -4q-50 0 -109.5 40.5t-59.5 122.5q0 59 33 126.5t90 122.5t130.5 89t151.5 34q48 0 90 -21q44 -22 47 -22q5 0 32.5 29.5t63.5 29.5q31 0 40 -6.5t9 -25.5q0 -4 -2 -18q0 -2 -8 -27l-172 -625q-4 -15 -14 -62q-6 -28 -6 -42q0 -21 6 -32t16 -11
q19 0 42 22q17 15 54 64q8 10 29 47q17 30 31 30q5 0 8 -3q2 -6 2 -11q0 -22 -16 -55q-15 -32 -49 -80q-55 -80 -105 -121t-94 -41q-30 0 -48 23t-18 63q0 69 43 219l80 278q-102 -66 -178.5 -140.5t-123.5 -165.5q-35 -72 -52 -106t-51.5 -79.5t-85 -76t-113.5 -30.5
q-48 0 -88 34.5t-40 96.5q0 72 33.5 114.5t66.5 42.5q30 0 30 -30q0 -17 -10 -29.5t-33 -38t-34 -42.5t-11 -36q0 -55 52 -55q40 0 80 33t69 87l79 139q21 36 47.5 63.5t55.5 47t63 38.5zM747 792q0 51 -31 80t-92 29q-56 0 -123.5 -46t-114.5 -124t-47 -164q0 -56 35 -85.5
t82 -29.5q39 0 111 47.5t126 125t54 167.5z" />
    <glyph glyph-name="Otilde" unicode="&#x152;" horiz-adv-x="928" 
d="M840 1112l-361 -356l221 -523q1 -2 13 -28q46 -114 82 -133q16 -9 47 -19q43 -13 43 -33q0 -10 -8.5 -16t-22.5 -6q-5 0 -29 3t-43 3h-14q-3 0 -9 -1l-18 -3q-10 0 -18 -1t-18 -1q-33 0 -47 14t-35 66l-240 581l-88 -81l-88 -414q-2 -9 -4 -28q-2 -18 -2 -23
q0 -28 12 -43t39 -21q29 -4 35 -4q45 0 45 -25q0 -8 -8 -16q-10 -8 -21 -8v0l-14 2q-81 10 -176 10q-60 0 -123 -6q-65 -6 -68 -6q-15 0 -20.5 5t-5.5 17q0 23 45 27q22 3 36 6q36 7 54 28q15 18 26 62l234 989q5 15 6 30q2 20 2 28q0 40 -55 53h-2q-23 4 -31 10.5t-8 16.5
q0 11 9 17.5t26 6.5h12q3 0 6.5 -0.5t5.5 -1.5q1 0 25 -2q86 -6 151 -6q31 0 62 4t41 4q11 0 18 -5q6 -4 6 -15q0 -15 -54 -27q-53 -12 -73 -86l-121 -487l445 444q35 37 43 49q10 14 10 29q0 33 -49 49h-2q-21 5 -28 12q-9 6 -9 17q0 9 7.5 16.5t19.5 7.5q7 0 57 -8
q48 -8 80 -8q50 0 91 4t48 4q14 0 21.5 -5.5t7.5 -14.5q0 -8 -75 -47q-74 -38 -144 -107z" />
    <glyph glyph-name="oe" unicode="&#x153;" horiz-adv-x="584" 
d="M246 608l108 -139q60 -73 83.5 -126.5t23.5 -104.5q0 -109 -85 -191t-196 -82q-84 0 -162 42q-79 40 -79 83q0 64 13 100q12 37 32 37q23 0 45 -55q10 -31 20 -47q31 -56 74 -87q41 -30 88 -30q58 0 98 49q41 50 41 117q0 40 -17 82q-16 40 -57 88l-86 105
q-54 66 -77 117q-25 51 -25 102q0 104 80 187t182 83q86 0 149 -31q64 -31 64 -76q0 -50 -9.5 -74t-29.5 -24q-11 0 -84 76t-139 76q-49 0 -84 -39.5t-35 -93.5q0 -34 15 -67.5t49 -76.5z" />
    <glyph glyph-name="Ydieresis.0" unicode="&#x178;" horiz-adv-x="758" 
d="M197 -123q5 51 8 102q2 50 3 68q3 69 3 125q0 169 -5 306q-5 136 -15 211q-19 151 -66 151q-15 0 -36 -27q-23 -29 -44 -76q-10 -23 -16 -43q-13 -37 -29 -37q-8 0 -11 5t-3 16q0 59 67.5 156.5t128.5 97.5q78 0 116 -155q36 -156 36 -494v-145v-54q-1 -29 -2 -45
q137 216 205 373q71 163 71 260q0 41 -19 102q-20 63 -20 86q0 35 18 58.5t44 23.5q32 0 50.5 -33.5t18.5 -93.5q0 -123 -75 -308q-75 -184 -230 -437q-89 -146 -156.5 -243t-128.5 -166q-114 -128 -194 -128q-53 0 -88 31q-37 31 -37 74q0 27 15.5 44t37.5 17q38 0 77 -51
q37 -51 50 -51q44 0 116 83q73 84 110 197z" />
    <glyph glyph-name="florin" unicode="&#x192;" 
d="M453 811h145q17 0 22 -4.5t5 -22.5q0 -24 -5 -32q-6 -7 -22 -7h-149q-40 -764 -111 -978q-70 -216 -223 -216q-61 0 -102 38q-40 37 -40 96q0 36 18 60t44 24q33 0 52 -22q20 -23 26 -64q0 -4 1 -10.5t1.5 -12.5t1.5 -14q3 -49 30 -49q126 0 166 907q1 13 6 105t7 136
h-148q-15 0 -20.5 5.5t-5.5 23.5q0 24 5 30.5t21 6.5h154q25 300 104 450q76 148 207 148q57 0 91 -33t34 -88q0 -38 -22 -63t-54 -25q-27 0 -44 18q-17 16 -25 52v4q0 1 -0.5 1.5t-1.5 0.5q-9 45 -19.5 56t-32.5 11q-53 0 -80.5 -124t-35.5 -408z" />
    <glyph glyph-name="circumflex.0" unicode="&#x2c6;" horiz-adv-x="1001" 
d="M640 -36q-3 -1 -13 -1q-34 0 -52 25q-18 26 -18 71q0 31 10 81q16 82 25 114l53 199q-64 -115 -130.5 -208.5t-125.5 -152.5q-123 -123 -225 -123q-56 0 -91 32q-34 31 -34 83q0 34 10 75q13 55 29 101l160 475q8 25 8 27q2 14 2 18q0 20 -8 33q-7 12 -21 12
q-49 0 -107 -85t-65 -85q-5 0 -10 5q-4 4 -4 12q0 12 17 44q18 34 46 72q56 76 106 112q52 38 95 38q35 0 54 -24q20 -25 20 -66q0 -56 -24 -157q-18 -73 -73 -238l-84 -246q-10 -31 -16 -59q-6 -24 -6 -37q0 -33 15.5 -49.5t43.5 -16.5q67 0 192 143q62 70 118 158t98 180
q54 114 95 254q41 135 65 135h79q9 0 16 -6t7 -12q0 -3 -1 -6q-2 -5 -3 -14l-148 -492q-30 -98 -46 -169q-15 -66 -15 -99q0 -23 6.5 -33t22.5 -10q46 0 112 91t74 91q4 0 8 -7t4 -13q0 -11 -25 -51q-28 -45 -61 -83q-56 -66 -108 -103q-60 -42 -60 -113q0 -17 13.5 -58.5
t13.5 -58.5q0 -39 -36 -84t-72 -69l-36 18q51 47 51 123q0 18 -0.5 25.5t-1.5 17.5t-2 26.5t-2 36.5q0 38 55 101z" />
    <glyph glyph-name="tilde.0" unicode="&#x2dc;" horiz-adv-x="864" 
d="M651 801q-69 -133 -102.5 -190t-83.5 -116q-61 -72 -121.5 -108.5t-113.5 -36.5q-56 0 -91 32q-34 31 -34 83q0 34 10 75q16 65 29 101l34 94q8 25 8 27q2 14 2 18q0 20 -8 33q-7 12 -21 12q-49 0 -107 -85t-65 -85q-5 0 -10 5q-4 4 -4 12q0 12 17 44q18 34 46 72
q56 76 106 112q52 38 95 38q35 0 54 -24q21 -26 21 -65q0 -71 -25 -158q-46 -157 -47 -162q-6 -32 -6 -37q0 -33 15.5 -49.5t43.5 -16.5q34 0 80.5 33t94.5 96q39 51 69.5 105.5t69.5 134t59 120.5h100q9 0 16 -6t7 -12q0 -3 -1 -6q-2 -5 -3 -14l-148 -492q-30 -98 -46 -169
q-15 -66 -15 -99q0 -23 6.5 -33t22.5 -10q46 0 112 91q64 91 74 91q4 0 8 -7t4 -13q0 -11 -25 -51q-28 -45 -61 -83q-56 -66 -108 -103q-51 -36 -90 -36q-34 0 -52 25q-18 26 -18 71q0 31 10 81q13 77 25 114z" />
    <glyph glyph-name="endash.0" unicode="&#x2013;" horiz-adv-x="1024" 
d="M-74 428l21 43q4 12 14 20q7 7 19 7h987q9 0 13 -3q5 -5 5 -10q0 -2 -1 -5q-2 -6 -3 -7l-20 -43q-5 -11 -14 -20q-8 -7 -19 -7h-987q-10 0 -14.5 3.5t-4.5 9.5v0l2 5q1 2 1 4t1 3z" />
    <glyph glyph-name="emdash.0" unicode="&#x2014;" horiz-adv-x="1331" 
d="M-82 428l21 43q4 12 14 20q7 7 18 7h1332q9 0 13 -3q5 -5 5 -10q0 -2 -1 -5q-2 -6 -3 -7l-21 -43q-3 -10 -13 -20q-8 -7 -19 -7h-1332q-8 0 -12 3.5t-4 9.5q0 5 1 7q0 4 1 5z" />
    <glyph glyph-name="quoteleft.0" unicode="&#x2018;" horiz-adv-x="410" 
d="M379 1325q8 0 13 -5q5 -7 5 -13q0 -8 -71.5 -88.5t-71.5 -145.5q0 -9 7 -16q5 -7 30 -19q35 -12 49 -32q14 -22 14 -54q0 -39 -19.5 -64.5t-49.5 -25.5q-43 0 -72 44t-29 110q0 104 74 206.5t121 102.5z" />
    <glyph glyph-name="quoteright.0" unicode="&#x2019;" horiz-adv-x="410" 
d="M229 1241q0 38 20.5 62t51.5 24q43 0 70.5 -42t27.5 -109q0 -104 -72 -208q-74 -104 -120 -104q-8 0 -14 6q-7 4 -7 13t72 88q72 80 72 145q0 11 -7 18q-9 9 -28 17l-2 2q-64 31 -64 88z" />
    <glyph glyph-name="quotesinglbase.0" unicode="&#x201a;" horiz-adv-x="744" 
d="M130 382q90 23 154 56.5t135 86.5q52 39 103 110t51 136q0 70 -22 95q-27 35 -74 35q-98 0 -190 -128q-55 -74 -98.5 -174t-58.5 -217zM128 274q0 -87 20 -149.5t53 -93.5t72 -31q56 0 111.5 37.5t90.5 102t35 136.5q0 129 -122 129q-42 0 -102 -17q-43 -11 -81 -25
t-75 -25q-2 -22 -2 -64zM388 444q24 4 54 4q76 0 128 -41.5t52 -126.5q0 -80 -54 -154.5t-136.5 -120.5t-165.5 -46q-74 0 -135.5 46.5t-95 126t-33.5 179.5q0 110 43 227q45 118 125 213q75 92 158 140q82 49 164 49q46 0 76 -11t58 -41q46 -45 46 -113q0 -78 -70 -164
t-214 -167z" />
    <glyph glyph-name="quotedblleft.0" unicode="&#x201c;" horiz-adv-x="627" 
d="M344 1325q7 0 15 -5q6 -6 6 -13q0 -8 -72 -88.5t-72 -145.5q0 -15 33 -33l2 -2q35 -12 49 -32q14 -22 14 -54q0 -39 -19.5 -64.5t-49.5 -25.5q-42 0 -71 44t-29 110q0 106 73 207q74 102 121 102zM614 1327q8 0 13.5 -6.5t5.5 -13.5q0 -8 -72 -88q-72 -79 -72 -146
q0 -9 7 -16q6 -6 30 -19q36 -12 50 -32q14 -22 14 -54q0 -38 -20 -64t-50 -26q-43 0 -71 43q-29 44 -29 111q0 104 73.5 207.5t120.5 103.5z" />
    <glyph glyph-name="quotedblright.0" unicode="&#x201d;" horiz-adv-x="627" 
d="M211 1241q0 37 20 61.5t50 24.5q44 0 72 -42q28 -41 28 -109q0 -108 -73 -209q-73 -103 -122 -103q-7 0 -12.5 5.5t-5.5 13.5q0 9 72 88q71 80 71 145q0 11 -7 18q-9 9 -28 17l-2 2q-63 32 -63 88zM481 1239q0 38 20 64q20 24 50 24q44 0 72 -42q28 -41 28 -109
q0 -108 -73 -209q-73 -103 -121 -103q-8 0 -13.5 5.5t-5.5 13.5q0 10 72 89q72 80 72 144q0 11 -8 19q-6 6 -29 16q-37 16 -50.5 36.5t-13.5 51.5z" />
    <glyph glyph-name="quotedblbase.0" unicode="&#x201e;" horiz-adv-x="630" 
d="M358 610q71 75 88.5 110t17.5 90q0 91 -101 91q-65 0 -116 -39.5t-94.5 -93.5t-54.5 -54q-24 0 -24 20q0 22 46.5 73t116 90t135.5 39q63 0 115 -42t52 -136q0 -63 -27.5 -127.5t-136.5 -176.5l-113 -113q-68 -65 -95 -122.5t-27 -110.5q0 -37 26 -71.5t71 -34.5
q59 0 125.5 41.5t115.5 136.5q19 38 27.5 51.5t19.5 13.5q23 0 23 -36q0 -20 -26.5 -61.5t-71 -84.5t-100.5 -71t-116 -28q-70 0 -130.5 50t-60.5 128q0 56 12.5 97.5t47 89.5t113.5 133z" />
    <glyph glyph-name="dagger" unicode="&#x2020;" 
d="M451 877h18q55 0 124 32q66 31 91 31q35 0 52.5 -22.5t17.5 -65.5q0 -33 -20 -55q-21 -21 -54 -21q-20 0 -92 34t-146 34q-6 -48 -9 -86q-3 -40 -3 -74q0 -55 6.5 -98.5t20.5 -93.5q-33 -77 -58 -151.5t-53 -180.5q-47 -180 -110 -541h-31q43 229 68 427q10 73 16 162
t6 144v68v34q-1 18 -2 29q46 74 74 156q26 78 47 203h-8q-57 0 -128 -34t-100 -34q-30 0 -46 19q-17 20 -17 55q0 41 19.5 63.5t55.5 22.5q18 0 88 -30q71 -30 134 -30h10q11 81 14.5 120t3.5 69q0 36 -6 93.5t-6 78.5q0 44 20.5 68t57.5 24q27 0 43 -21.5t16 -58.5
q0 -21 -50 -135q-51 -117 -64 -235z" />
    <glyph glyph-name="daggerdbl.0" unicode="&#x2021;" horiz-adv-x="961" 
d="M586 901q-69 0 -161 -85q-94 -85 -177 -228q-68 -120 -105 -221.5t-37 -176.5q0 -55 26 -87.5t69 -32.5q53 0 123 65q70 67 163 207q114 169 163 268q52 105 52 166q0 59 -30.5 92t-85.5 33zM860 881l-172 -625q-10 -37 -14 -62q-6 -28 -6 -42q0 -21 6 -32t16 -11
q19 0 42 22q25 22 54 64q8 10 29 47q17 30 31 30q5 0 8 -3q2 -6 2 -11q0 -22 -16 -55q-15 -32 -49 -80q-55 -80 -105 -121t-94 -41q-31 0 -48.5 23t-17.5 63q0 68 43 215v4l62 228q-163 -283 -279 -408t-211 -125q-77 0 -121.5 60t-44.5 165q0 117 54.5 244.5t158.5 257.5
q95 119 202 186q109 68 198 68q44 0 90 -21q44 -22 47 -22q5 0 32.5 29.5t63.5 29.5q31 0 40 -6.5t9 -25.5q0 -4 -2 -18q0 -2 -8 -27z" />
    <glyph glyph-name="bullet.0" unicode="&#x2022;" horiz-adv-x="1208" 
d="M307 762q0 124 87 209q88 86 210 86q121 0 209 -86q86 -88 86 -209q0 -122 -87.5 -209.5t-209.5 -87.5q-123 0 -209 87q-86 88 -86 210z" />
    <glyph glyph-name="ellipsis.0" unicode="&#x2026;" horiz-adv-x="2048" 
d="M143 57q0 48 24 79q23 32 56 32q27 0 42 -21t15 -59q0 -42 -24 -77q-24 -34 -56 -34q-26 0 -41 22q-16 20 -16 58zM825 57q0 48 24 79q23 32 56 32q27 0 42 -21t15 -59q0 -42 -24 -77q-24 -34 -56 -34q-26 0 -41 22q-16 20 -16 58zM1509 57q0 48 24 79q23 32 56 32
q27 0 42 -21t15 -59q0 -42 -24 -77q-24 -34 -56 -34q-26 0 -41 22q-16 20 -16 58z" />
    <glyph glyph-name="perthousand.0" unicode="&#x2030;" horiz-adv-x="816" 
d="M572 564q0 116 -33 220.5t-127 104.5q-64 0 -117 -55t-92.5 -150.5t-60 -208t-20.5 -231.5q0 -90 38 -158t111 -68q80 0 149.5 84t110.5 213.5t41 248.5zM230 1160q-11 0 -11 14q2 15 45 41.5t104 45.5t120 19q136 0 200 -85t64 -275q0 -123 -30.5 -288t-89.5 -315.5
t-153.5 -251t-216.5 -100.5q-140 0 -207 114.5t-67 252.5q0 168 61.5 306.5t157 218t193.5 79.5q195 0 216 -360q20 112 30 203t10 205q0 140 -46.5 198t-129.5 58q-51 0 -96.5 -16t-94.5 -40t-59 -24z" />
    <glyph glyph-name="guilsinglleft.0" unicode="&#x2039;" horiz-adv-x="1579" 
d="M465 1257l336 -976q89 323 147 576q58 251 58 296q0 31 -14 50q-15 17 -48 24q-1 1 -4 1q-4 0 -8 1q-43 7 -43 31q0 11 11 19.5t24 8.5v0l18 -2q63 -6 125 -6q43 0 91 6t52 6q13 0 23 -5q8 -6 8 -15q0 -19 -35 -27h-2h-2q-27 -5 -39 -10q-35 -14 -54 -43
q-20 -32 -48 -137l-111 -414q-53 -198 -106 -433q-51 -226 -70 -226q-8 0 -13 5q-4 4 -9 21q0 2 -1 3t-3 7l-394 1133l-47 -184q-27 -102 -62.5 -246t-49.5 -202t-29 -127q-47 -211 -47 -265q0 -57 67 -70h2q29 -5 35 -11q8 -8 8 -19t-10 -18t-26 -7q-11 0 -50.5 4t-85.5 4
q-62 0 -135 -12q-17 -4 -24 -4q-9 0 -16 7t-7 15q0 23 42.5 33t62.5 21q22 12 49 81.5t61 202.5q4 14 9 32t8 30l192 731q4 13 5 25q1 9 1 26q0 43 -55 47q-25 3 -33 9t-8 18q0 13 7 19q8 5 24 5q13 0 46 -4t64 -4q24 0 31 1q11 0 16 1h21q19 0 29 -7t16 -26z" />
    <glyph glyph-name="guilsinglright.0" unicode="&#x203a;" horiz-adv-x="922" 
d="M946 1219l-51 -191q-8 -26 -14.5 -34.5t-18.5 -8.5q-10 0 -17 10t-7 25q0 24 1 37q1 6 1 12v6q0 85 -46 122q-47 38 -147 38q-50 0 -180 -8h-6l-115 -518h164q62 0 97 11q32 10 59 40q25 28 47 74q22 49 41 49q6 0 11 -8t5 -19q0 -4 -25 -85q-28 -89 -47 -171
q-6 -24 -16 -84q-16 -88 -41 -88q-10 0 -18 9q-7 8 -7 24q0 15 1 26t1 23v10q0 94 -25 115.5t-95 21.5h-170l-99 -389q-13 -58 -19 -93q-5 -30 -5 -44q0 -43 21 -63q20 -19 69 -19h151q71 0 124 22q54 23 96 66q40 43 65 98q26 56 43 56q7 0 15 -8q6 -7 6 -19l-2 -12
q-1 -7 -5 -21l-43 -157q-2 -9 -6 -23q-16 -61 -37 -61v0l-12 2q-123 14 -297 14q-247 0 -438 -12l-23 -2v0q-19 0 -26.5 6t-7.5 20q0 15 10 22q11 8 43 9q8 0 26 2q13 2 23 6q24 9 39 35q15 28 35 109l213 884q4 20 9 50q3 26 3 47q0 50 -57 59q-22 1 -30 8q-7 4 -7 17
q0 12 8 20q8 6 25 6h9q3 0 6 -0.5t5 -1.5q1 0 23 -2q187 -8 370 -8q127 0 242 6l20 2v0q27 0 35 -5q6 -6 6 -26v0l-2 -13q-2 -12 -6 -25z" />
    <glyph glyph-name="trademark.0" unicode="&#x2122;" horiz-adv-x="1683" 
d="M250 1114l10 176h438l11 -176h-25q-7 79 -40 115.5t-99 36.5h-23v-426q0 -23 14 -40q13 -16 33 -16h33v-26h-246v26h33q20 0 32.5 15.5t12.5 40.5v426h-22q-64 0 -97 -36q-34 -38 -41 -116h-24zM795 1264v26h176l143 -407l154 407h168v-24l-31 -2q-22 0 -34 -14
q-13 -13 -13 -40v-370q0 -26 13 -40q13 -16 34 -16h31v-26h-234v26h33q21 0 34 16t13 40v399l-182 -483h-13l-174 483v-399q0 -23 14 -40q13 -16 34 -16h32v-26h-198v24l32 2q22 0 34.5 14.5t12.5 39.5v370q0 23 -14 40q-13 16 -35 16h-30z" />
    <glyph glyph-name="currency" unicode="&#x2219;" horiz-adv-x="410" 
d="M197 739q31 0 54 -26q21 -27 21 -68q0 -40 -22 -68t-53 -28t-53 28q-23 29 -23 68t23 66.5t53 27.5z" />
    <glyph glyph-name="cent" 
d="M469 1024l55 254q1 6 7.5 9t17.5 3q5 0 11 -2q3 -3 3 -8v-4l-55 -244q2 1 5.5 1.5t6.5 0.5h17q59 0 96 -25t37 -65q0 -21 -13 -31q-13 -12 -34 -12q-34 0 -66 44q-31 42 -55 52l-148 -641h6q16 -4 27 -4q35 0 72 20q38 21 73 58q22 22 40 52t28 30q5 0 8 -4q2 -6 2 -12
q0 -49 -90.5 -135.5t-179.5 -86.5h-6l-62 -262q-1 -6 -6.5 -9t-15.5 -3q-7 0 -12 3t-5 9v2l64 262q-81 22 -128 93q-46 70 -46 174q0 153 98 290q98 138 248 191zM319 369l142 618q-98 -44 -161.5 -163t-63.5 -261q0 -74 22 -124.5t61 -69.5z" />
    <glyph glyph-name="sterling" 
d="M467 629h160q9 0 12.5 -3t3.5 -12v-8q0 -13 -3 -18q-4 -4 -13 -4h-156q0 -104 -27 -202.5t-79 -182.5q94 -76 137 -97q41 -22 78 -22q63 0 101 53t38 141q0 12 -1 18.5t-1 10.5q0 10 4 14q5 5 10 5q10 0 16 -14q5 -17 5 -42q0 -132 -63.5 -216.5t-162.5 -84.5
q-60 0 -112 31q-54 30 -119 104q-65 -65 -123 -95q-55 -28 -121 -28q-72 0 -119 44t-47 112q0 82 57 136q58 53 144 53q55 0 109 -22q51 -21 124 -73q24 38 35 82q11 46 11 105q0 32 -5 77q-3 26 -16 93h-145q-10 0 -13.5 3t-3.5 17q0 18 3.5 21.5t13.5 3.5h133
q-10 59 -14 104q-5 58 -5 105q0 188 105.5 332.5t232.5 144.5q56 0 90 -27q35 -27 35 -67q0 -28 -14.5 -47t-36.5 -19q-28 0 -72 50t-71 50q-58 0 -104 -91q-48 -91 -48 -214q0 -34 8 -109q6 -55 29 -212zM262 145q-37 66 -78 98.5t-82 32.5q-44 0 -73 -35t-29 -89
q0 -56 29 -91q28 -34 75 -34q40 0 81 31q43 32 77 87z" />
    <glyph glyph-name="acute" horiz-adv-x="1755" 
d="M883 588q-80 0 -145.5 -135.5t-65.5 -305.5q0 -68 26 -108q26 -39 70 -39q78 0 142 133q65 133 65 295q0 79 -23.5 119.5t-68.5 40.5zM573 229q0 162 91 280t213 118q86 0 141 -75.5t55 -195.5q0 -157 -92.5 -276t-208.5 -119q-87 0 -142 76q-57 75 -57 192zM381 1292
q-79 0 -144 -134.5t-65 -301.5q0 -74 24.5 -114t69.5 -40q78 0 142 135q65 135 65 298q0 76 -23.5 116.5t-68.5 40.5zM72 928q0 164 91 282q90 119 212 119q87 0 141.5 -75.5t54.5 -196.5q0 -159 -92 -277q-91 -118 -209 -118q-86 0 -142 74.5t-56 191.5zM131 -6l815 1304
q10 15 18 19t27 4q9 0 17 -5t8 -9q0 -1 -2 -9l-2 -2l-813 -1304q-10 -15 -19 -20q-12 -5 -26 -5q-12 0 -19 5q-6 4 -6 16q0 4 2 6zM1167 229q0 161 91.5 279.5t214.5 118.5q86 0 141 -75.5t55 -195.5q0 -157 -92.5 -276t-208.5 -119q-87 0 -144 75.5t-57 192.5zM1479 588
q-80 0 -145.5 -135.5t-65.5 -305.5q0 -70 24.5 -108.5t69.5 -38.5q78 0 142 133q65 133 65 295q0 80 -22 120t-68 40z" />
    <glyph glyph-name="notequal" horiz-adv-x="1280" 
d="M748 881l206 270l80 -61l-166 -209h289v-99h-352l-215 -276h567v-98h-629l-198 -256l-78 59l156 197h-281v98h340l217 276h-557v99h621z" />
    <glyph glyph-name="AE" horiz-adv-x="1024" 
d="M461 1231l-246 -1026q0 -1 -1 -6l-3 -15q-10 -43 -10 -67q0 -40 21 -55t73 -15q32 0 39.5 -5.5t7.5 -18.5t-7 -19t-24 -6q-6 0 -74 6q-67 6 -126 6q-41 0 -107 -8t-78 -8q-16 0 -23 6q-7 4 -7 18q0 23 45 27q38 5 59 12q23 9 40 36q15 27 36 110l211 887q4 20 9 50
q3 27 3 46q0 50 -57 59h-4q-33 8 -33 27q0 13 8 18.5t25 5.5q11 0 34 -4h3q2 1 4 0q2 0 20 -2q55 -4 100 -4h240q40 0 114 2q72 2 109 4h21q25 0 32 -4t7 -18v-8q0 -1 -0.5 -3t-1.5 -4l-48 -223q-4 -21 -12 -32t-20 -11q-13 0 -19 14t-6 39q0 14 1 22t1 15q0 85 -45 122
q-47 38 -147 38q-39 0 -89 -2q-37 -1 -75 -6z" />
    <glyph glyph-name="Oslash" horiz-adv-x="911" 
d="M358 610q71 75 88.5 110t17.5 90q0 91 -101 91q-65 0 -116 -39.5t-94.5 -93.5t-54.5 -54q-24 0 -24 20q0 22 46.5 73t116 90t135.5 39q63 0 115 -42t52 -136q0 -63 -27.5 -127.5t-136.5 -176.5l-113 -113q-68 -65 -95 -122.5t-27 -110.5q0 -37 26 -71.5t71 -34.5
q59 0 125.5 41.5t115.5 136.5q19 38 27.5 51.5t19.5 13.5q23 0 23 -36q0 -20 -26.5 -61.5t-71 -84.5t-100.5 -71t-116 -28q-70 0 -130.5 50t-60.5 128q0 56 12.5 97.5t47 89.5t113.5 133z" />
    <glyph glyph-name="infinity" horiz-adv-x="1280" 
d="M653 549q-65 -122 -133 -176q-71 -56 -155 -56q-119 0 -201 94q-82 92 -82 232q0 143 74 233.5t190 90.5q86 0 153 -55q68 -55 126 -177q65 126 134 181q70 55 165 55q110 0 192 -94t82 -230q0 -145 -73 -233q-73 -90 -191 -90q-85 0 -149 49.5t-132 175.5zM600 690
q-46 85 -109 127.5t-143 42.5q-96 0 -156.5 -63.5t-60.5 -163.5q0 -95 56.5 -160t140.5 -65q79 0 142 65q64 67 130 217zM678 598q47 -87 110 -130q62 -42 142 -42q95 0 156 64t61 163t-56 164q-55 64 -141 64q-77 0 -140 -64t-132 -219z" />
    <glyph glyph-name="lessequal" horiz-adv-x="1280" 
d="M125 129v98h1032v-98h-1032zM281 788l876 -262v-108l-1032 330v81l1032 330v-108z" />
    <glyph glyph-name="greaterequal" horiz-adv-x="1280" 
d="M125 129v98h1032v-98h-1032zM1001 788l-876 263v108l1032 -330v-81l-1032 -330v108z" />
    <glyph glyph-name="yen" 
d="M279 1139l131 -518l247 342q144 198 144 237q0 34 -62 45l-6 2q-25 0 -36 5.5t-11 17.5q0 11 10.5 18.5t26.5 7.5q7 0 14 -1t19 -1q2 0 22 -2q48 -6 80 -6q55 0 121 8h8q1 1 3 1.5t3 0.5h6q13 0 20 -7t7 -17q0 -13 -8.5 -19t-28.5 -6q-6 -4 -10 -5q-1 0 -9 -2t-14 -3
q-28 -13 -72 -58q-45 -47 -114 -139l-147 -196h233q9 0 12.5 -3t3.5 -12v-8q0 -13 -3 -18q-3 -4 -13 -4h-268l-119 -160h340q9 0 13 -2q3 -1 3 -10v-9q0 -13 -4.5 -17.5t-13.5 -4.5h-373l-16 -27l-92 -364q-2 -7 -4.5 -20.5t-3.5 -18t-3 -14.5q-4 -21 -4 -39q0 -26 11 -40
t32 -20q11 -2 37 -4q47 -2 47 -29q0 -11 -9.5 -16.5t-27.5 -5.5q-8 0 -17 1t-22 1q-32 5 -61 6q-42 2 -63 2q-52 0 -107 -7t-68 -7q-15 0 -21.5 6t-6.5 18q0 24 45 27q25 3 37 6q33 8 48 27q14 17 28 63l114 455h-340q-9 0 -12.5 3.5t-3.5 18.5q0 14 3 17.5t13 3.5h328
l-43 160h-240q-9 0 -11.5 2t-2.5 10v10q0 15 3.5 19t12.5 4h228l-88 321q-19 67 -68 82h-2q-18 8 -18 23q0 12 9 19q7 7 23 7h11q2 0 4.5 -0.5t3.5 -1.5q16 -4 41 -6q30 -2 49 -2q50 0 108 6q16 2 17 2q2 1 4 1.5t4 0.5h10q14 0 21 -6q8 -6 8 -16q0 -12 -8.5 -18t-36.5 -9
h-2q-62 -9 -62 -51q0 -8 2 -26q1 -8 7 -31z" />
    <glyph glyph-name="mu" horiz-adv-x="1079" 
d="M115 213q-37 -166 -58 -403q-20 -224 -94 -224q-30 0 -50 23q-19 22 -19 59t64 269q33 124 58.5 232t42.5 198l97 481q5 34 21 44q16 11 46 11q26 0 38.5 -8.5t12.5 -28.5v-11q0 -2 -0.5 -4t-1.5 -3l-94 -471q-6 -27 -9 -52q-3 -24 -3 -46q0 -94 48 -145.5t134 -51.5
q104 0 179 82q76 83 104 227l92 457q6 33 22 44t46 11q26 0 38.5 -8.5t12.5 -28.5v-11q0 -2 -0.5 -4t-1.5 -3l-99 -490q-9 -43 -16 -93q-6 -43 -6 -68q0 -52 23 -80q23 -27 65 -27q50 0 84 30q33 28 59 95q8 18 19 55q18 58 37 58q11 0 15 -7q5 -8 5 -24q0 -105 -79 -208
t-181 -103q-76 0 -113 46q-39 45 -39 134v27q-43 -108 -111 -159q-67 -52 -163 -52q-100 0 -155 58q-56 56 -70 173z" />
    <glyph glyph-name="partialdiff" horiz-adv-x="1034" 
d="M711 463q0 129 -45 193q-45 65 -134 65q-113 0 -186.5 -124.5t-73.5 -322.5q0 -126 44.5 -188.5t134.5 -62.5q113 0 186 126q74 125 74 314zM752 592q12 81 18 160q6 77 6 149q0 159 -40 242q-40 84 -115 84q-49 0 -108 -68q-58 -69 -103 -69q-30 0 -52 19.5t-22 47.5
q0 62 63.5 107t155.5 45q165 0 264 -150.5t99 -406.5q0 -335 -136 -556q-136 -223 -333 -223q-143 0 -233.5 106.5t-90.5 278.5q0 180 109 305q110 125 262 125q98 0 160.5 -48.5t95.5 -147.5z" />
    <glyph glyph-name="summation" horiz-adv-x="516" 
d="M455 1139l-246 -1047q-59 -245 -155 -372q-97 -130 -222 -130q-62 0 -101.5 39t-39.5 99q0 35 19 57t48 22q43 0 71.5 -78.5t59.5 -78.5q35 0 71.5 42.5t62.5 114.5q23 66 42 180q19 112 27 148l217 991q5 26 5 28q1 8 1 17q0 38 -16 53t-59 15q-32 0 -44 6t-12 21
q0 13 9 19.5t28 6.5h9q3 0 6 -0.5t4 -1.5h14q114 -8 215 -8q22 0 60 2q26 1 46 6q2 1 5.5 1.5t5.5 0.5h10q9 0 15.5 -7t6.5 -15q0 -24 -40 -31h-3q-12 0 -32 -4h-6q-36 -6 -53 -28q-18 -21 -29 -68z" />
    <glyph glyph-name="product" horiz-adv-x="999" 
d="M207 664q-27 -100 -27 -207q0 -194 85 -313q85 -121 216 -121q89 0 168 58t125 157q17 35 31 77q21 60 41 60q8 0 12 -7t4 -18q0 -7 -10 -51t-18 -86q-6 -29 -12 -73q-6 -43 -11 -56q-19 -45 -117 -81q-97 -36 -211 -36q-203 0 -321 136q-119 137 -119 368q0 186 76 342
q77 158 223 279q133 111 298 176q161 63 306 63q56 0 78 -12q23 -14 23 -43q0 -10 -17 -84q-11 -46 -18 -76t-11 -49v-2q-13 -78 -38 -78q-11 0 -15 7t-4 38v17q2 74 2 110q0 60 -13 81.5t-54 21.5q-90 0 -198 -45q-111 -45 -198 -121q-145 -124 -224 -292q-22 -46 -36 -89
h438q27 0 27 -25q0 -26 -37 -26h-444z" />
    <glyph glyph-name="pi" horiz-adv-x="768" 
d="M161 468h256q10 0 17 -6.5t7 -15.5q0 -22 -36 -22h-250q-5 -82 -5 -90q0 -130 51.5 -200.5t146.5 -70.5q47 0 100 32q55 33 107 91q16 18 38 54q18 32 32 32q5 0 9.5 -5t4.5 -15q0 -19 -23 -57q-23 -35 -65 -84q-66 -76 -134 -115q-65 -37 -136 -37q-120 0 -200 99
q-79 98 -79 255q0 116 46 230q47 116 132 213q79 91 177.5 145.5t183.5 54.5q78 0 127 -33.5t49 -84.5q0 -25 -17 -42q-16 -16 -45 -16q-49 0 -100 60q-53 59 -78 59q-109 0 -217 -174q-75 -122 -99 -257z" />
    <glyph glyph-name="ordmasculine" horiz-adv-x="1024" 
d="M459 674v758h108v-758h-108zM459 -350v758h108v-758h-108z" />
    <glyph glyph-name="Omega" horiz-adv-x="1296" 
 />
    <glyph glyph-name="ae" horiz-adv-x="1202" 
 />
    <glyph glyph-name="oslash" horiz-adv-x="524" 
 />
    <glyph glyph-name="questiondown" horiz-adv-x="451" 
d="M309 1167q0 51 29 92t65 41q27 0 43.5 -20t16.5 -53q0 -59 -27 -103q-28 -43 -65 -43q-28 0 -45 23t-17 63zM336 750l-205 -766q-55 -210 -152 -334q-96 -123 -198 -123q-61 0 -104.5 36.5t-43.5 84.5q0 30 18 50q16 19 42 19q34 0 68.5 -65.5t62.5 -65.5q73 0 199 471
q10 37 16.5 62t17.5 65l148 545q8 31 12 52.5t4 33.5t-6 18q-8 5 -22 5q-31 0 -88 -81t-64 -81q-5 0 -8 6q-4 4 -4 12q0 9 20 43q21 35 51 74q56 70 99 100q43 31 86 31q33 0 52 -21.5t19 -58.5q0 -20 -4 -43q-2 -10 -16 -69z" />
    </font>
</defs>
</svg>
