<?xml version="1.0" standalone="no"?>
<!DOCTYPE svg PUBLIC "-//W3C//DTD SVG 1.1//EN" "http://www.w3.org/Graphics/SVG/1.1/DTD/svg11.dtd" >
<svg xmlns="http://www.w3.org/2000/svg" xmlns:xlink="http://www.w3.org/1999/xlink" version="1.1">
<metadata>
Created by FontForge 20170731 at Fri Jan  1 02:30:17 1904
 By Aleksey,,,
(c) !22! Soft 1992
</metadata>
<defs>
<font id="GaramondNarrowBold" horiz-adv-x="963" >
  <font-face 
    font-family="Garamond Narrow"
    font-weight="700"
    font-stretch="normal"
    units-per-em="2048"
    panose-1="2 11 8 0 0 0 0 0 0 0"
    ascent="1638"
    descent="-410"
    x-height="909"
    cap-height="1290"
    bbox="-188 -483 1890 1762"
    underline-thickness="208"
    underline-position="-537"
    unicode-range="U+0020-2219"
  />
<missing-glyph horiz-adv-x="1536" 
d="M256 0v1280h1024v-1280h-1024zM1248 32v1216h-960v-1216h960z" />
    <glyph glyph-name=".notdef" horiz-adv-x="1536" 
d="M256 0v1280h1024v-1280h-1024zM1248 32v1216h-960v-1216h960z" />
    <glyph glyph-name=".null" horiz-adv-x="0" 
 />
    <glyph glyph-name="nonmarkingreturn" horiz-adv-x="1618" 
 />
    <glyph glyph-name="space" unicode=" " horiz-adv-x="481" 
 />
    <glyph glyph-name="exclam" unicode="!" horiz-adv-x="530" 
d="M387 944l-80 -547q-3 -25 -13 -38t-28 -13t-28 13q-10 11 -13 38l-80 547q-5 35 -10 62q-16 90 -16 139q0 77 38.5 118.5t108.5 41.5q68 0 107 -41.5t39 -114.5q0 -58 -19 -160zM266 270q56 0 93 -42q38 -43 38 -103t-38 -101q-37 -42 -93 -42t-94.5 41t-38.5 102
q0 62 38.5 103.5t94.5 41.5z" />
    <glyph glyph-name="quotedbl" unicode="&#x22;" horiz-adv-x="694" 
d="M197 864h-37l-72 316q-2 10 -3 16.5t-1 28.5q0 46 26 75q26 27 68 27q45 0 70 -27q26 -29 26 -73q0 -14 -1 -22q-1 -6 -5 -25zM532 864h-36l-72 316q-2 10 -3 16.5t-1 28.5q0 46 26 75q26 27 68 27q45 0 70 -27q26 -29 26 -73q0 -14 -1 -22q-1 -6 -5 -25z" />
    <glyph glyph-name="numbersign" unicode="#" horiz-adv-x="1356" 
d="M633 1290h160l-136 -385h234l137 385h162l-137 -385h256l-54 -145h-254l-81 -232h270l-53 -145h-271l-135 -383h-160l136 383h-234l-137 -383h-162l137 383h-266l55 145h265l79 232h-280l53 145h281zM760 528l84 232h-242l-82 -232h240z" />
    <glyph glyph-name="dollar" unicode="$" 
d="M510 1282l20 186q3 23 13 30t37 7q24 0 33 -6q8 -8 8 -24v-7l-19 -188q100 -34 134 -58q36 -25 36 -71v-21l-4 -129q-2 -27 -10 -40q-10 -15 -25 -15q-23 0 -55 93q-33 94 -88 128l-39 -352q136 -77 200 -174t64 -223q0 -96 -35 -181q-36 -83 -104 -147q-51 -45 -100 -65
q-54 -22 -113 -23l-29 -252q-3 -23 -13 -30q-10 -9 -36 -9q-23 0 -31 7q-10 7 -10 22v10l29 256q-137 33 -181.5 63.5t-44.5 100.5v168q0 31 10.5 50.5t28.5 19.5q35 0 60 -105q6 -20 10 -37q24 -93 51 -126t76 -42l45 416q-122 59 -183 149q-63 92 -63 211q0 171 91 283
q90 113 237 125zM465 856l37 326h-13q-64 0 -104.5 -46.5t-40.5 -117.5q0 -55 30 -96t91 -66zM514 471l-41 -377q67 2 110 57q44 55 44 134q0 64 -29 114q-30 48 -84 72z" />
    <glyph glyph-name="percent" unicode="%" horiz-adv-x="1296" 
d="M365 1327q123 0 210 -94t87 -229q0 -143 -88 -241.5t-209 -98.5q-125 0 -212 93t-87 230q0 143 88 241q89 99 211 99zM360 1253q-52 0 -84 -66q-32 -69 -32 -177q0 -119 35.5 -196t89.5 -77q52 0 83 67q31 65 31 177q0 123 -34 197q-34 75 -89 75zM934 625q123 0 210 -95
q87 -94 87 -229q0 -142 -87.5 -241t-209.5 -99q-125 0 -212 93.5t-87 230.5q0 140 89 241q89 99 210 99zM930 551q-54 0 -85 -67q-32 -69 -32 -177q0 -119 36 -196q34 -76 89 -76q53 0 84 65.5t31 178.5q0 119 -35 197q-34 75 -88 75zM1083 1282l-782 -1290q-12 -19 -22 -25
t-27 -6q-27 0 -38 6t-11 21q0 4 2 10t6 10l784 1288q13 20 21 26q10 5 24 5q25 0 40 -5q12 -6 12 -17q0 -4 -2 -12q-4 -8 -7 -11z" />
    <glyph glyph-name="ampersand" unicode="&#x26;" horiz-adv-x="1260" 
d="M580 1243q-42 0 -65 -32q-23 -34 -23 -93q0 -62 46.5 -153t69.5 -91q36 0 69 45q32 46 32 105q0 90 -40 154q-41 65 -89 65zM735 831l-49 -22q-9 -4 -15 -10q-5 -5 -5 -13q0 -3 1 -4q0 -3 3 -8l161 -244q3 -5 10 -12q4 -4 9 -4q7 0 14 5.5t15 17.5l32 47q10 13 16 34
q5 23 5 41q0 22 -14.5 38t-40.5 20q-1 1 -3.5 1.5t-4.5 0.5h-15q-28 1 -36 11q-9 8 -9 26q0 16 11.5 25.5t31.5 9.5q4 0 20 -3q102 -8 193 -8q36 0 76 3q41 3 45 3q17 0 24 -6t7 -22q0 -15 -79 -58t-147 -141l-69 -104q-8 -12 -11 -17q-4 -7 -4 -12t3 -13q1 -6 8 -16
l102 -159q68 -108 139.5 -151.5t71.5 -53.5q0 -17 -12.5 -25t-38.5 -8q-25 0 -80 4t-103 4q-11 0 -61 -2l-49 -2v0q-59 0 -113 90l-4 6l-22 39q-10 17 -16 24q-7 9 -11 9t-9 -3q-1 -1 -3.5 -2.5t-6.5 -4.5l-8 -6l-43 -39q-105 -97 -171 -126.5t-148 -29.5
q-132 0 -212.5 101.5t-80.5 269.5q0 119 59 207q60 87 183 145l38 18q16 9 21 14q6 6 6 13q0 1 -2 9q-1 5 -8 20l-29 59q-1 4 -8 14q-61 119 -61 199q0 130 98 213.5t252 83.5q153 0 241 -66q89 -68 89 -182q0 -89 -40 -144q-39 -54 -143 -104zM662 272l-242 371q-3 5 -7 6
q-6 2 -10 2q-1 0 -7 -2q-4 -1 -9 -6l-27 -22q-32 -28 -51 -73q-18 -43 -18 -97q0 -115 64.5 -203t152.5 -88q36 0 66 11t57 34l31 26q3 3 4 8q2 8 2 13t-2 13q-1 5 -4 7z" />
    <glyph glyph-name="quotesingle" unicode="'" horiz-adv-x="358" 
d="M197 864h-37l-72 316q-2 10 -3 16.5t-1 28.5q0 46 26 75q26 27 68 27q45 0 70 -27q26 -29 26 -73q0 -14 -1 -22q-1 -6 -5 -25z" />
    <glyph glyph-name="parenleft" unicode="(" horiz-adv-x="645" 
d="M567 1329q15 0 22 -7t7 -19q0 -14 -51 -61q-52 -46 -88 -109q-68 -117 -106 -300.5t-38 -402.5q0 -218 38 -403q19 -90 45.5 -166t60.5 -133q37 -63 88 -109.5t51 -60.5q0 -13 -7 -20t-22 -7q-24 0 -91 49.5t-126 120.5q-125 150 -193 339q-67 186 -67 390q0 194 60 369
q58 173 180 334q58 79 134 138q74 58 103 58z" />
    <glyph glyph-name="parenright" unicode=")" horiz-adv-x="645" 
d="M76 1329q29 0 102 -58q74 -58 135 -138q119 -157 179 -332q59 -177 59 -371q0 -195 -59 -370q-58 -173 -179 -332q-59 -79 -134.5 -138t-102.5 -59q-15 0 -22 6.5t-7 20.5t51 60.5t88 109.5q70 117 107 298.5t37 403.5q0 98 -9 202t-25 181q-35 178 -95 291
q-41 75 -98 132q-56 54 -56 67q0 11 7.5 18.5t21.5 7.5z" />
    <glyph glyph-name="asterisk" unicode="*" horiz-adv-x="819" 
d="M422 952v-18q64 52 119 144q56 93 98 93q27 0 50.5 -33.5t23.5 -72.5q0 -44 -28 -68q-28 -23 -85 -28q-57 -4 -94 -19q-34 -13 -70 -41q68 -49 156 -57l24 -2v0q45 -4 72 -31q25 -26 25 -71q0 -37 -23.5 -69t-50.5 -32q-44 0 -98 96t-119 140v-13q0 -75 32 -168
q31 -90 31 -116q0 -41 -20 -67q-21 -25 -55 -25q-36 0 -57 24.5t-21 67.5q0 26 32 117q31 87 31 161v23q-62 -49 -118 -144q-55 -94 -95 -94q-27 0 -51 34q-25 32 -25 73q0 38 27 66t57 28q59 0 107 15q48 16 86 46q-73 54 -168 58q-4 1 -9.5 1.5t-8.5 0.5q-41 5 -66 30.5
t-25 65.5q0 41 22.5 72.5t51.5 31.5q45 0 99 -94.5t118 -140.5v6q0 79 -32 175q-33 93 -33 120q0 40 22 65t56 25q35 0 56 -25t21 -67q0 -27 -32 -117q-33 -88 -33 -166z" />
    <glyph glyph-name="plus" unicode="+" horiz-adv-x="1280" 
d="M555 1194h170v-465h465v-168h-465v-465h-170v465h-465v168h465v465z" />
    <glyph glyph-name="comma" unicode="," horiz-adv-x="481" 
d="M92 115q0 64 38 106.5t95 42.5q68 0 111 -60q43 -59 43 -155q0 -77 -25 -143t-80 -135q-44 -57 -77 -85q-34 -30 -56 -30q-11 0 -19 8q-7 7 -7 21q0 12 75.5 91t75.5 165q0 43 -39 45q-30 2 -49 6q-40 10 -63 44q-23 32 -23 79z" />
    <glyph glyph-name="hyphen" unicode="-" horiz-adv-x="498" 
d="M102 584h363q6 0 10 -3t4 -8v-9q0 -2 -0.5 -4t-1.5 -3l-51 -203q-3 -10 -12.5 -18t-16.5 -8h-362q-5 0 -10 3t-5 7q0 3 3 4q1 1 1 2t1 2v6l49 205q3 10 11.5 18.5t16.5 8.5z" />
    <glyph glyph-name="period" unicode="." horiz-adv-x="481" 
d="M242 270q54 0 92.5 -42.5t38.5 -102.5t-38.5 -101.5t-92.5 -41.5q-57 0 -95 41t-38 102t38 104q38 41 95 41z" />
    <glyph glyph-name="slash" unicode="/" horiz-adv-x="455" 
d="M530 1294l-481 -1452q-6 -16 -20 -24q-16 -8 -39 -8q-14 0 -23 6q-10 4 -10 12q0 2 2 4v2q0 4 1 5q0 2 1 3l481 1452q6 17 20 25t38 8q13 0 25 -5q10 -6 10 -13q0 -2 -3 -4v-2v-6l-0.5 -1t-1.5 -2z" />
    <glyph glyph-name="zero" unicode="0" 
d="M481 1327q190 0 311 -187t121 -495t-120 -496q-122 -188 -312 -188q-189 0 -311 188q-121 187 -121 496q0 308 120.5 495t311.5 187zM319 649q0 -323 38 -461q38 -137 124 -137q87 0 124 136q19 67 28.5 178t9.5 276q0 116 -4 197t-13 148t-21 114q-38 137 -124 137
q-87 0 -124 -136q-38 -138 -38 -452z" />
    <glyph glyph-name="one" unicode="1" 
d="M657 1292v-1061q0 -63 14 -89.5t50 -37.5q14 -4 21 -5q2 0 11 -1.5t23 -3.5q41 -1 55.5 -13t14.5 -36q0 -25 -12.5 -36t-38.5 -11q-22 0 -100 6t-134 6q-71 0 -183 -5t-120 -5q-41 0 -54.5 9.5t-13.5 35.5q0 29 15 41q14 13 69 14q7 1 14.5 2.5t12.5 1.5q5 1 13.5 1.5
t15.5 0.5q42 6 55 28q14 22 14 89v819q0 43 -9 57.5t-32 14.5q-17 0 -80 -26.5t-100 -26.5q-16 0 -25.5 10.5t-9.5 30.5t17 34t84 33l5.5 2t12.5 4.5t17 5.5q21 6 51 17q107 38 204 84q98 45 99 45q13 0 18.5 -8t5.5 -27z" />
    <glyph glyph-name="two" unicode="2" 
d="M365 352l-31 -41q-6 -8 -7 -12q-3 -6 -3 -10q0 -7 5.5 -12t12.5 -5h322q69 0 91 64q23 63 42 63q12 0 21 -12.5t9 -30.5v-34l-8 -273q-1 -57 -53 -57q-26 0 -121 4t-196 4h-293q-44 0 -58 8t-14 31q0 39 149 260q60 88 82 121q87 130 138 217t71 133q47 108 47 193
q0 111 -51 178t-135 67q-47 0 -93 -26q-44 -25 -81 -76q-22 -32 -45 -70q-28 -51 -51 -51q-12 0 -18 10q-7 8 -7 25q0 27 28 77q28 52 70 99q60 66 132 98.5t157 32.5q163 0 257.5 -92.5t94.5 -251.5q0 -84 -29 -159q-31 -76 -91 -142q-40 -46 -165 -150
q-122 -103 -179 -180z" />
    <glyph glyph-name="three" unicode="3" 
d="M432 782l2 -10q48 8 66 9q11 1 26 1q147 0 239.5 -95t92.5 -247q0 -112 -48 -219q-50 -107 -144 -203q-91 -89 -193 -139q-101 -49 -199 -49q-95 0 -146 42q-52 40 -52 118q0 55 27.5 89t70.5 34q32 0 60 -22t47 -62q2 -4 6.5 -16t7.5 -21q27 -74 70 -74q84 0 161.5 115
t77.5 264q0 151 -69.5 244.5t-182.5 93.5q-78 0 -176 -43q-28 -12 -35 -12q-10 0 -18 9q-8 10 -8 21q0 38 110 103q21 11 33 18q128 77 190 158q62 83 62 172q0 73 -37 118.5t-98 45.5q-78 0 -147.5 -79t-73.5 -79q-13 0 -21 9q-8 10 -8 24q0 72 104.5 150.5t239.5 78.5
q137 0 213 -58t76 -161q0 -86 -81 -169q-81 -82 -245 -159z" />
    <glyph glyph-name="four" unicode="4" 
d="M686 1501h43q10 0 16 -3q5 -5 5 -11q0 -17 -52 -90q-28 -38 -49 -72q-156 -231 -271 -410q-114 -178 -142 -235l-60 -113q-4 -6 -6 -12q-2 -8 -2 -10q0 -5 5.5 -10t12.5 -5h260q23 0 31 11t8 39v329q0 34 88 71q89 36 148 36q9 0 12.5 -7t3.5 -30v-21v-387
q0 -28 6.5 -34.5t24.5 -6.5h106q15 0 22 -10t7 -28v-41q0 -21 -8 -32t-25 -11h-104q-16 0 -24 -11q-7 -10 -7 -39v-184q0 -59 66 -77q65 -20 65 -52q0 -24 -11 -35q-11 -10 -46 -10q-23 0 -82 4t-117 4q-31 0 -87 -2q-42 -1 -81 -6q-15 0 -24.5 -1t-18.5 -1
q-34 0 -50.5 12.5t-16.5 38.5q0 23 9.5 32.5t45.5 14.5q7 0 17 2q12 2 16 4q33 10 46 33.5t13 83.5v146q0 29 -6.5 36t-23.5 7h-332q-45 0 -55.5 13t-10.5 54q0 26 7 47q5 20 20 43l569 916q12 20 39 20z" />
    <glyph glyph-name="five" unicode="5" 
d="M774 1298l-33 -149q-7 -31 -22.5 -44t-50.5 -18l-316 -26q-77 -8 -98 -23q-23 -17 -23 -63q0 -39 105 -47q95 -7 160 -21q167 -36 257.5 -145t90.5 -277q0 -249 -206 -432q-205 -184 -486 -184q-32 0 -45 7.5t-13 29.5t14 33q12 9 68 20q51 11 61 14q5 2 12.5 4t13 3.5
t12 3.5t14.5 4q152 50 234 141q81 92 81 211q0 124 -69 206q-69 83 -193 105q-51 10 -137 19q-101 11 -101 37q0 25 37 166q36 138 58 262q5 27 12 69q13 95 61 103l443 67q7 1 19 3q6 1 16 1q16 0 23 -7t7 -21q0 -13 -1 -22z" />
    <glyph glyph-name="six" unicode="6" 
d="M840 1483q28 0 42 -8q13 -7 13 -25q0 -29 -85 -53q-89 -27 -151 -64q-161 -97 -253 -294q-91 -195 -91 -451q0 -230 65.5 -385.5t156.5 -155.5q59 0 95 68t36 182q0 201 -45 320.5t-119 119.5q-29 0 -64 -11t-37 -11q-11 0 -18 7q-8 8 -8 17q0 40 61 80q62 39 137 39
q150 0 249.5 -121t99.5 -307q0 -196 -126 -333q-126 -136 -306 -136q-187 0 -316 168t-129 418q0 221 96 417q96 194 273 334q105 84 225 134q122 51 199 51z" />
    <glyph glyph-name="seven" unicode="7" 
d="M463 1286h199q38 0 126 2l74 2h-2q30 0 47 -7.5t17 -20.5q0 -20 -131 -333q-130 -312 -234 -624l-117 -350q-8 -25 -14 -29q-7 -6 -25 -6h-45q-6 0 -11 3t-5 7q0 7 1 10.5t2 6t1 4.5l324 932q9 26 16 57q6 26 6 37q0 12 -13 16q-12 4 -48 4h-342q-71 0 -135 -4h-25
q-25 0 -32 13q-9 12 -9 63v203q0 22 9 29q8 8 30 8v0l25 -2q146 -21 311 -21z" />
    <glyph glyph-name="eight" unicode="8" 
d="M662 1016q0 109 -53.5 176.5t-139.5 67.5q-73 0 -120.5 -51t-47.5 -130q0 -50 18 -89q18 -38 56 -72q41 -38 106 -70q61 -31 82 -31q36 0 67.5 58.5t31.5 140.5zM725 809l-41 -23q-5 -2 -6 -4q-2 -6 -2 -10q0 -3 3 -8q3 -4 13 -10l47 -35q81 -60 123 -143q41 -85 41 -187
q0 -183 -130 -306.5t-324 -123.5q-170 0 -285 102.5t-115 253.5q0 91 47 167q47 74 123 110l41 20q4 2 10 8q4 4 4 7q0 2 -5 9q-4 5 -15 13l-51 41q-54 44 -83.5 112t-29.5 146q0 165 110.5 274t284.5 109q166 0 269 -85q104 -86 104 -220q0 -66 -36.5 -125.5t-96.5 -91.5z
M375 580q-43 0 -76 -70t-33 -172q0 -137 57.5 -216t155.5 -79q86 0 141 64q56 64 56 159q0 52 -19 96q-20 46 -57 80q-63 59 -128 97q-71 41 -97 41z" />
    <glyph glyph-name="nine" unicode="9" 
d="M571 551q0 -29 -59 -61q-59 -31 -131 -31q-144 0 -242 120q-98 121 -98 304q0 190 122 321q122 129 302 129q193 0 318.5 -161t125.5 -412q0 -201 -94 -390q-95 -191 -268 -345q-113 -99 -238 -164q-127 -66 -186 -66q-15 0 -26 11t-11 26q0 31 80 70q69 32 115 63
q171 117 264 321q92 205 92 466q0 214 -66 358q-68 143 -159 143q-61 0 -97 -60t-36 -165q0 -178 65.5 -313t149.5 -135q11 0 26.5 4t24.5 4q10 0 18 -11q8 -13 8 -26z" />
    <glyph glyph-name="colon" unicode=":" horiz-adv-x="520" 
d="M260 813q55 0 94 -42.5t39 -102.5t-38.5 -103t-94.5 -43t-94.5 42t-38.5 104t38.5 103.5t94.5 41.5zM260 270q55 0 94 -42.5t39 -102.5t-39 -101.5t-94 -41.5q-57 0 -95 41t-38 102q0 62 38.5 103.5t94.5 41.5z" />
    <glyph glyph-name="semicolon" unicode=";" horiz-adv-x="520" 
d="M250 813q54 0 93 -42q38 -44 38 -103q0 -61 -38 -104q-37 -42 -93 -42t-94.5 42t-38.5 104q0 61 38.5 103t94.5 42zM115 115q0 64 38.5 106.5t96.5 42.5q68 0 110.5 -60t42.5 -157q0 -75 -25 -141.5t-79 -134.5q-42 -54 -78 -84q-35 -31 -57 -31q-12 0 -18.5 7.5
t-6.5 21.5q0 11 75 90.5t75 165.5q0 43 -39 45q-30 2 -49 6q-40 10 -63 42.5t-23 80.5z" />
    <glyph glyph-name="less" unicode="&#x3c;" horiz-adv-x="1280" 
d="M90 563v162l1100 426v-184l-856 -322l856 -323v-183z" />
    <glyph glyph-name="equal" unicode="=" horiz-adv-x="1280" 
d="M1190 354h-1100v168h1100v-168zM1190 768h-1100v166h1100v-166z" />
    <glyph glyph-name="greater" unicode="&#x3e;" horiz-adv-x="1280" 
d="M1190 725v-162l-1100 -424v183l856 323l-856 322v184z" />
    <glyph glyph-name="question" unicode="?" horiz-adv-x="629" 
d="M258 1307q142 0 238 -109t96 -270q0 -191 -223 -381q-37 -31 -70 -62q-39 -36 -45.5 -93.5t-36.5 -57.5q-27 0 -39 65q-3 20 -6 35q-16 78 -22 125q-9 59 -9 84q0 64 105 164q9 9 13 13.5t9 8.5q97 93 127 145q29 53 29 109q0 59 -26 97q-25 37 -66 37q-28 0 -51 -20
q-22 -19 -54 -75l-2 -2q-55 -100 -96 -100q-31 0 -47 36.5t-16 108.5q0 68 50.5 105t141.5 37zM233 270q55 0 94.5 -42.5t39.5 -102.5t-39 -101.5t-95 -41.5t-94.5 41t-38.5 102q0 62 38.5 103.5t94.5 41.5z" />
    <glyph glyph-name="at" unicode="@" horiz-adv-x="2019" 
d="M1249 772q0 84 -37 133t-100 49q-64 0 -117 -45q-54 -47 -106 -147q-57 -106 -87 -209t-30 -186q0 -84 36.5 -133.5t94.5 -49.5q62 0 115.5 41.5t107.5 132.5q56 96 89.5 210t33.5 204zM1305 823l51 170h172l-172 -616l-2 -6q-15 -58 -15 -90q0 -50 22 -76q23 -27 60 -27
q36 0 84 22q53 24 92 56q111 90 169 222q59 135 59 296q0 279 -191 450q-190 171 -504 171q-172 0 -328 -65q-76 -31 -142.5 -75.5t-131.5 -109.5q-121 -124 -183 -286t-62 -357q0 -172 60 -306q58 -134 179 -235q107 -89 247 -135q143 -47 302 -47q168 0 321 52
q158 52 304 157l37 -47q-71 -54 -149.5 -96t-165.5 -71q-166 -57 -347 -57q-186 0 -347 47q-84 25 -149.5 57.5t-125.5 76.5q-78 59 -132.5 125.5t-97.5 151.5q-80 165 -80 362q0 201 86 381q42 87 103 164t147 149q135 111 297.5 168t345.5 57q348 0 557 -188.5t209 -501.5
q0 -158 -59 -297q-58 -139 -168 -238q-60 -53 -129 -82q-66 -28 -133 -28q-97 0 -152 52.5t-61 152.5q-65 -105 -137.5 -154t-165.5 -49q-134 0 -212.5 91.5t-78.5 248.5q0 114 49 219q50 107 141 195q67 64 148 99q78 34 161 34q90 0 145.5 -47.5t72.5 -139.5z" />
    <glyph glyph-name="A" unicode="A" horiz-adv-x="1034" 
d="M592 1245l326 -989q23 -73 45 -110.5t51 -51.5q8 -6 15 -7q8 -3 20 -3h2q49 -16 49 -49q0 -20 -12.5 -28.5t-43.5 -8.5q-8 0 -74.5 7t-138.5 7q-57 0 -137 -9q-79 -9 -98 -9q-22 0 -35 11q-12 11 -12 30q0 20 11 31t44 18q31 7 43 19q10 10 10 30q0 11 -1 17t-5 20
l-69 227q-9 28 -35 37q-29 8 -148 8q-109 0 -135 -8q-25 -9 -35 -49q-14 -48 -29 -115q-10 -44 -10 -71q0 -43 15.5 -63.5t56.5 -37.5q4 -1 9 -3t7 -3q11 -4 23 -8q53 -17 53 -49q0 -22 -10 -31.5t-33 -9.5v0l-14 2q-82 12 -170 12q-63 0 -125 -12l-14 -2v0q-20 0 -30 10
q-11 11 -11 29q0 19 8.5 30.5t36.5 20.5q3 1 11 5q3 2 7 3.5t8 3.5q23 11 40 38q19 31 34 79l340 1034q17 49 32 64q16 16 52 16q32 0 45 -11q11 -10 31 -71zM524 573l-108 326q-3 12 -6 17q-4 6 -7 6t-7 -7q-4 -6 -7 -18l-100 -334l-2 -4l-2 -10q0 -5 5 -7.5t13 -2.5h203
q11 0 15 3q5 3 5 9v13q0 3 -0.5 5.5t-1.5 3.5z" />
    <glyph glyph-name="B" unicode="B" horiz-adv-x="1106" 
d="M442 1094v-287q0 -43 8 -51t42 -8q118 0 177.5 56.5t59.5 170.5q0 117 -50 182q-49 64 -142 64q-58 0 -76.5 -19t-18.5 -88v-20zM723 711q156 -17 241 -108.5t85 -246.5q0 -184 -104 -279t-304 -95q-78 0 -198 12t-162 12q-67 0 -135 -6q-19 -1 -36 -2.5t-23 -2.5t-9 -1
q-17 0 -28 12q-11 13 -11 33q0 31 57 41h2h2q47 9 62.5 29.5t15.5 68.5v848q0 86 -12.5 117t-44.5 31q-8 0 -30 -5q-19 -6 -28 -6q-12 0 -20 9q-8 10 -8 26q0 53 125.5 77.5t392.5 24.5q224 0 339 -80q114 -79 114 -237q0 -116 -71.5 -185t-211.5 -87zM442 543v-330
q0 -80 30 -115t97 -35q91 0 145 77t54 204q0 147 -65.5 232.5t-178.5 85.5q-48 0 -64 -22q-18 -22 -18 -97z" />
    <glyph glyph-name="C" unicode="C" horiz-adv-x="1108" 
d="M53 645q0 295 178.5 488.5t452.5 193.5q106 0 196.5 -25t114.5 -55q8 -10 18 -78q9 -67 9 -139q0 -22 -8 -33q-7 -12 -23 -12q-26 0 -57 64q-14 27 -27 49q-45 77 -96.5 111t-122.5 34q-145 0 -245.5 -172.5t-100.5 -433.5q0 -259 100 -426q101 -168 250 -168
q77 0 141 51q63 48 103 139q11 26 27 66q26 68 47 68q18 0 24 -19t6 -108q0 -81 -5 -116q-6 -34 -21 -50q-47 -53 -135 -83q-90 -30 -203 -30q-280 0 -451 189q-172 187 -172 495z" />
    <glyph glyph-name="D" unicode="D" horiz-adv-x="1284" 
d="M446 1122v-856q0 -112 26.5 -150t98.5 -38q161 0 268 161q105 161 105 418q0 266 -99.5 423t-264.5 157q-75 0 -104.5 -21.5t-29.5 -93.5zM178 178v922q0 36 -15 55t-44 19q-7 0 -28 -3q-20 -4 -36 -4q-8 0 -14 9.5t-6 23.5q0 47 147.5 83t352.5 36q161 0 288 -46
t220 -136q188 -182 188 -488q0 -287 -186.5 -472t-485.5 -185q-70 0 -157 10t-117 10q-59 0 -125 -9t-74 -9q-17 0 -28 12q-11 13 -11 33q0 31 51 41h4h4q43 7 58 29q14 20 14 69z" />
    <glyph glyph-name="E" unicode="E" horiz-adv-x="995" 
d="M903 1255v-211q0 -40 -7.5 -50.5t-25.5 -10.5q-23 0 -61 68q-21 35 -37 59q-25 40 -70.5 60t-107.5 20q-78 0 -110.5 -25t-32.5 -88v-293q0 -29 19 -39q20 -12 67 -12q71 0 104 10t47 33q18 31 37 84q17 53 43 53q15 0 25 -13t10 -34v0l-2 -24q-6 -70 -6 -135
q0 -33 2 -131l2 -91v0q0 -23 -8.5 -34t-26.5 -11q-16 0 -27 12q-10 10 -24 50q-6 14 -8 22l-9 21q-25 58 -56 77t-91 19h-31q-5 0 -11 -0.5t-9 -1.5l-23 -4q-13 -1 -18 -9q-6 -7 -6 -20v-299v-22q0 -131 34 -168q35 -39 121 -39q60 0 113.5 26t87.5 70q29 38 61 103
q30 63 56 63q17 0 28 -17t11 -47q-4 -18 -9 -51l-24 -172q-6 -38 -19 -52.5t-39 -14.5q-13 0 -49 4q-91 10 -218 16q-128 6 -228 6q-128 0 -271 -14q-23 -4 -32 -4q-21 0 -31 13q-12 12 -12 32q0 30 59 41h4h4q47 8 64 29q16 19 16 69v928q0 46 -15 67.5t-52 28.5
q-3 0 -6.5 1t-7.5 2t-9 1q-59 11 -59 41q0 20 12 32q13 11 33 11v0l20 -2q140 -12 309 -12q99 0 175 4q98 3 186 10q5 1 15 1q9 0 20 1l53 2v0q32 0 41.5 -7t9.5 -32z" />
    <glyph glyph-name="F" unicode="F" horiz-adv-x="915" 
d="M883 1255v-208v-21q0 -25 -6 -33q-8 -8 -23 -8q-26 0 -66 76q-7 14 -28 53q-26 43 -68 63q-43 21 -104 21q-73 0 -105 -26t-32 -91v-297q0 -29 19 -39q20 -12 67 -12q71 0 104 10t47 33q18 31 37 84q17 53 43 53q15 0 25 -13t10 -34v0l-2 -24q-6 -70 -6 -135
q0 -33 2 -131l2 -91v0q0 -23 -8.5 -34t-26.5 -11q-16 0 -27 12q-10 10 -24 50q-6 14 -8 22l-9 21q-25 58 -56 77t-91 19h-31q-5 0 -11 -0.5t-9 -1.5l-23 -4q-13 -1 -18 -9q-6 -7 -6 -20v-430q0 -48 19 -68q19 -22 67 -28q3 0 9.5 -1t16.5 -3q62 -6 62 -37q0 -23 -13 -33
q-13 -12 -39 -12q-9 0 -95 9q-85 9 -163 9q-76 0 -157 -9t-84 -9q-21 0 -31 13q-12 12 -12 32q0 30 59 41h4h4q47 8 64 29q16 19 16 69v928q0 46 -15 67.5t-52 28.5q-3 0 -6.5 1t-7.5 2t-9 1q-59 11 -59 41q0 20 12 32q13 11 33 11v0l32 -2q110 -12 209 -12h189
q95 0 205.5 9t126.5 9q28 0 37.5 -6.5t9.5 -32.5z" />
    <glyph glyph-name="G" unicode="G" horiz-adv-x="1235" 
d="M1018 1130l6 -90v-10q0 -24 -7.5 -34.5t-23.5 -10.5q-27 0 -59 66q-2 6 -4 9.5t-3.5 8l-3 9t-3.5 5.5q-41 81 -98 121q-55 39 -132 39q-146 0 -247 -173q-101 -175 -101 -439q0 -260 101 -424t259 -164q63 0 87 32.5t24 145.5v94v68q0 92 -7 119q-8 29 -28 43
q-15 10 -62 16q-46 6 -46 41q0 19 11 32q11 11 30 11q9 0 32 -4q107 -12 203 -12q105 0 203 14l16 2v0q16 0 25.5 -13t9.5 -34q0 -18 -6 -26q-8 -10 -31 -11h-13q-2 0 -4 -0.5t-3 -1.5q-33 -6 -46.5 -31.5t-13.5 -76.5v-58v-86q0 -21 2 -87q2 -60 2 -61v1q0 -87 -122.5 -143
t-315.5 -56q-268 0 -432 182t-164 478q0 305 181 505q182 201 454 201q83 0 163.5 -18t125.5 -45q33 -21 39 -111q1 -4 1.5 -11t0.5 -12z" />
    <glyph glyph-name="H" unicode="H" horiz-adv-x="1292" 
d="M451 1106v-336q0 -14 6.5 -21.5t17.5 -7.5h342q11 0 19 8q6 8 6 21v338q0 45 -15.5 67t-52.5 29q-1 1 -2.5 1.5t-3.5 0.5h-10h-2q-47 9 -47 39q0 20 11 32.5t28 12.5v0l24 -2q101 -12 205 -12q105 0 205 12l24 2v0q19 0 29 -12q10 -11 10 -33q0 -31 -55 -41h-4
q-43 -7 -57 -29q-15 -21 -15 -69v-928q0 -45 14 -67q13 -21 46 -29q2 0 8 -1.5t12 -2.5q51 -10 51 -39q0 -22 -10 -33.5t-29 -11.5v0l-26 2q-107 14 -203 14q-97 0 -203 -14l-26 -2v0q-18 0 -28 13q-11 14 -11 34q0 16 7.5 23.5t45.5 13.5q47 6 63 27q17 22 17 71v442
q0 15 -7 22t-18 7h-342q-11 0 -17.5 -7t-6.5 -22v-442q0 -45 15.5 -67.5t51.5 -28.5q2 -1 7 -1q3 -1 10 -1h2q47 -9 47 -37q0 -24 -10 -35.5t-29 -11.5v0l-27 2q-106 14 -203 14q-96 0 -202 -14l-27 -2v0q-17 0 -28 12q-11 13 -11 33q0 31 51 41h4h4q43 7 58 29q14 20 14 69
v928q0 46 -13 68q-13 20 -46 28q-5 0 -8 1l-4 2t-5 1q-36 6 -45 15q-10 7 -10 26t11 32q11 11 28 11v0l27 -2q102 -12 202 -12q102 0 205 12l25 2v0q18 0 28.5 -11t10.5 -34q0 -18 -9 -26q-8 -7 -45 -13q-46 -7 -63 -27q-16 -20 -16 -73z" />
    <glyph glyph-name="I" unicode="I" horiz-adv-x="629" 
d="M451 1108v-932q0 -45 15.5 -67.5t51.5 -28.5q4 0 9 -0.5t8 -1.5q49 -9 49 -37q0 -24 -10 -35.5t-29 -11.5v0l-27 2q-106 14 -203 14q-96 0 -202 -14l-27 -2v0q-17 0 -28 12q-11 13 -11 33q0 31 51 41h4h4q43 7 58 29q14 20 14 69v928q0 44 -14 67q-13 21 -47 29
q-1 1 -2 1q-2 0 -5 1h-10q-36 8 -44 16q-9 9 -9 27q0 19 11 32q11 11 28 11v0l25 -2q102 -12 204 -12t205 12l25 2v0q18 0 28.5 -11t10.5 -34q0 -18 -9 -26q-8 -7 -45 -13q-45 -6 -62 -27.5t-17 -70.5z" />
    <glyph glyph-name="J" unicode="J" horiz-adv-x="641" 
d="M467 1108v-633q0 -7 2 -71q2 -66 2 -72q0 -196 -42 -333q-44 -140 -134 -237q-76 -83 -165 -133q-88 -49 -159 -49t-114 51q-45 51 -45 129q0 77 28.5 119.5t83.5 42.5q33 0 59 -17q25 -19 44 -57q9 -17 22 -59q20 -59 51 -59q51 0 73 90q22 87 22 305v981q0 47 -15.5 68
t-54.5 28q-7 0 -11 1l-6 2t-6 1q-38 6 -49 15q-10 7 -10 26q0 22 12 32q13 11 33 11v0l37 -2q110 -12 207 -12q103 0 205 12l24 2v0q18 0 28.5 -11t10.5 -34q0 -18 -9 -26q-8 -7 -44 -13q-46 -6 -63 -27q-17 -23 -17 -71z" />
    <glyph glyph-name="K" unicode="K" horiz-adv-x="1120" 
d="M451 1108v-369q0 -12 2 -20q2 -6 6 -6t8 4q7 4 10 10l285 367q17 24 24 37q7 14 7 28q0 40 -54.5 50t-54.5 40q0 20 12 30q11 11 31 11q11 0 64 -7t110 -7q28 0 100 5t93 5q28 0 38 -7q11 -8 11 -26q0 -37 -68 -51q-22 -3 -47 -10q-51 -17 -117 -74q-68 -59 -127 -139
l-100 -135q-7 -10 -9 -17q-3 -6 -3 -12q0 -4 2 -12t4 -12l364 -605q3 -4 5.5 -7t5.5 -9q42 -72 80 -86q9 -3 20 -6q45 -12 45 -49q0 -14 -9 -22q-8 -7 -30 -7q-5 0 -85 8t-142 8q-94 0 -201 -14q-17 -4 -24 -4q-15 0 -26 11t-11 28q0 31 41 42q41 9 41 32q0 18 -21 61
q-24 47 -65 113l-181 288q-6 12 -12 19q-4 6 -6 6q-7 0 -11.5 -7.5t-4.5 -15.5v-399q0 -46 13 -68t44 -28q3 0 7 -0.5t7 -1.5q43 -9 43 -37q0 -22 -9 -34.5t-26 -12.5q-2 0 -6.5 1t-11.5 1q-96 14 -197 14q-96 0 -202 -14l-27 -2v0q-17 0 -28 12q-11 13 -11 33q0 31 51 41h4
h4q43 7 58 29q14 20 14 69v928q0 46 -13 68q-13 20 -46 28q-5 0 -8 1l-4 2t-5 1q-36 6 -45 15q-10 7 -10 26t11 32q11 11 28 11v0l27 -2q102 -12 202 -12q102 0 205 12l25 2v0q18 0 28.5 -11t10.5 -34q0 -18 -9 -26q-8 -7 -45 -13q-45 -6 -62 -27.5t-17 -70.5z" />
    <glyph glyph-name="L" unicode="L" horiz-adv-x="901" 
d="M451 1108v-862q0 -103 24 -136.5t92 -33.5q48 0 97 24q48 22 79 62q28 35 62 102q35 68 61 68q14 0 22.5 -10.5t8.5 -28.5q0 -12 -1 -23q0 -5 -2 -20t-3 -25l-21 -172q-4 -41 -18 -52t-47 -11q-14 0 -170 10t-320 10q-96 0 -202 -14l-27 -2v0q-17 0 -28 12q-11 13 -11 33
q0 31 51 41h4h4q43 7 58 29q14 20 14 69v928q0 46 -13 68q-13 20 -46 28q-5 0 -8 1l-4 2t-5 1q-36 6 -45 15q-10 7 -10 26t11 32q11 11 28 11v0l25 -2q102 -12 204 -12q97 0 205 12l37 2v0q20 0 31.5 -12.5t11.5 -32.5q0 -18 -10 -25q-12 -8 -49 -14q-54 -6 -72 -27t-18 -71
z" />
    <glyph glyph-name="M" unicode="M" horiz-adv-x="1409" 
d="M459 1247l223 -731q5 -15 8.5 -21t7.5 -6q5 0 11 9q7 14 10 24l239 725q7 22 24 31q18 8 54 8l47 -1q9 -1 31 -1q11 -1 55 -1q21 0 55 2q19 1 44 5q13 0 22.5 1t20.5 1q25 0 38 -12.5t13 -36.5q0 -31 -49 -35q-23 -1 -37 -6q-31 -9 -41 -37q-12 -28 -12 -98v-29l18 -858
q2 -47 16.5 -70.5t47.5 -27.5q3 0 5 -1l4 -2q3 -1 13 -1h4q43 -10 43 -43q0 -17 -11 -28t-28 -11v0l-24 2q-107 14 -209 14q-99 0 -209 -14l-27 -2v0q-17 0 -28 11t-11 28q0 32 47 43h5q7 0 10 1q4 0 6 1q36 8 49 30q14 23 14 70l-4 719q0 7 -2 17q-1 6 -6 6q-3 0 -6 -5
q-2 -4 -6 -16l-262 -799q-17 -49 -30.5 -65.5t-33.5 -16.5q-22 0 -35.5 15.5t-29.5 64.5l-267 846q-3 8 -6 11.5t-8 3.5q-1 0 -3 -6q-1 -4 -1 -15l-20 -405q-2 -30 -2 -55v-107v-60q0 -117 13 -162q14 -48 46 -61q11 -6 24 -9q14 -3 29 -3l6 -2q43 -7 43 -37q0 -21 -13 -31
q-13 -12 -36 -12q-8 0 -55.5 6t-87.5 6q-48 0 -96.5 -6t-51.5 -6q-18 0 -31 11q-12 11 -12 28t8 27q9 9 39 16q7 0 8.5 1t2.5 1.5t2 1.5q45 9 58 33q14 23 18 108l34 746q1 5 1.5 14.5t0.5 17.5v39q0 96 -10 120t-39 38q-11 5 -41 10q-43 4 -43 37q0 20 11 32.5t28 12.5v0
l57 -5q62 -5 109 -5q34 0 80 3q47 3 59 3q25 0 40.5 -9.5t21.5 -29.5z" />
    <glyph glyph-name="N" unicode="N" horiz-adv-x="1204" 
d="M1036 991v-952q0 -47 -13.5 -72.5t-39.5 -25.5q-39 0 -88 79l-2 5l-612 968q-3 4 -9 10q-4 3 -10 3q-3 0 -4 -7q-2 -10 -2 -22v-680q0 -107 13 -149q12 -45 42 -58q20 -9 69 -14q46 -4 46 -35q0 -21 -14 -33q-13 -12 -39 -12q-9 0 -62 6q-52 6 -94 6q-43 0 -90 -6
q-46 -6 -53 -6q-21 0 -33 12t-12 33q0 30 41 35q29 4 49 12q31 10 43 54t12 155v743q0 87 -9 118q-11 32 -34 42q-15 7 -41 8q-47 3 -47 37q0 20 11 32.5t28 12.5v0l14 -2q83 -6 174 -6q39 0 58 1q27 2 51 3h24q23 0 33 -6q9 -5 29 -33l453 -702q4 -7 11 -14q5 -5 9 -5
q7 0 11 9q5 8 5 20v436q0 101 -12 146q-14 46 -45 59q-20 9 -63 14q-50 6 -50 37q0 22 14 33.5t38 11.5q22 0 47 -4q4 -1 8 -1q3 0 4 -1q2 0 4 -2q22 -2 23 -2h8h63h64h8l14 2l8 2v0l9 2q21 4 41 4t32.5 -12t12.5 -33q0 -27 -41 -35q-29 -4 -49 -12q-31 -10 -43 -53
q-13 -42 -13 -156z" />
    <glyph glyph-name="O" unicode="O" horiz-adv-x="1309" 
d="M659 1327q248 0 422 -198t174 -484q0 -290 -175 -486q-175 -198 -431 -198q-248 0 -422 198.5t-174 485.5q0 290 175 486t431 196zM637 1247q-134 0 -215.5 -148t-81.5 -399q0 -294 93 -476q91 -181 237 -181q135 0 217 148t82 401q0 292 -93 473q-95 182 -239 182z" />
    <glyph glyph-name="P" unicode="P" horiz-adv-x="1012" 
d="M444 979v-203q0 -78 21 -102q19 -25 70 -25q79 0 124.5 71.5t45.5 197.5q0 127 -50.5 208.5t-124.5 81.5q-46 0 -66 -32q-20 -34 -20 -127v-25v-45zM586 543l-107 45q-7 1 -10 2.5t-6 1.5q-7 0 -9.5 -6t-2.5 -23v-387q0 -48 19 -68q19 -22 67 -28q3 0 9.5 -1t16.5 -3
q62 -6 62 -37q0 -23 -13 -33q-13 -12 -39 -12q-9 0 -95 9q-85 9 -163 9q-85 0 -192 -14q-27 -4 -37 -4q-17 0 -28 12q-11 13 -11 33q0 31 51 41h4h4q43 7 58 29q14 20 14 69v928q0 46 -13 68q-13 20 -46 28q-5 0 -8 1l-4 2t-5 1q-36 6 -45 15q-10 7 -10 26q0 26 16 36
q17 11 52 11q11 0 56.5 -3t80.5 -3q95 0 195 4t145 4q189 0 289 -94t100 -274q0 -172 -88 -288q-88 -118 -209 -118q-24 0 -50 6q-25 5 -48 15z" />
    <glyph glyph-name="Q" unicode="Q" horiz-adv-x="1309" 
d="M637 1247q-134 0 -215.5 -148t-81.5 -399q0 -294 93 -476q91 -181 237 -181q135 0 217 148t82 401q0 292 -93 473q-95 182 -239 182zM872 6l-32 -12q-12 -4 -19 -11q-6 -8 -6 -16q0 -4 1 -5q0 -4 1 -5l12 -33q49 -117 126.5 -184.5t160.5 -67.5q15 0 43 5q23 4 33 4
q14 0 23.5 -8.5t9.5 -22.5q0 -39 -77 -68q-75 -28 -192 -28q-168 0 -269.5 75t-125.5 217l-14 80q0 3 -0.5 7t-1.5 6q-5 35 -23 41l-39 10q-181 51 -305 238q-125 188 -125 417q0 290 175 486t431 196q249 0 423 -197q173 -199 173 -485q0 -136 -44 -259q-45 -122 -134 -226
q-47 -55 -105 -97q-60 -44 -100 -57z" />
    <glyph glyph-name="R" unicode="R" horiz-adv-x="1098" 
d="M444 1057v-246v-18q0 -64 10 -77q11 -14 42 -14q102 0 166 70q63 71 63 182q0 108 -55 181t-133 73q-52 0 -72.5 -29.5t-20.5 -121.5zM715 672q58 -18 92 -51q35 -33 63 -99l156 -356q15 -34 34 -55q20 -23 54 -41l4 -2q29 -20 29 -37q0 -16 -9.5 -27.5t-23.5 -11.5
q-2 0 -46 6q-43 6 -85 6q-34 0 -78 -4t-69 -4q-30 0 -42 13q-11 12 -28 52l-166 422q-27 70 -55 102q-28 33 -60 33h-14q-12 0 -16 -7q-6 -7 -6 -21v-414q0 -46 13.5 -68t49.5 -28q17 -3 23 -4q45 -6 45 -35q0 -24 -10 -35.5t-29 -11.5v0l-25 2q-106 14 -203 14
q-94 0 -198 -14l-27 -2v0q-17 0 -28 12q-11 13 -11 33q0 19 9.5 26t50.5 15t55 28.5t14 69.5v928q0 46 -13 68q-13 20 -46 28q-5 0 -8 1l-4 2t-5 1q-36 6 -45 15q-10 7 -10 26q0 26 16 36q17 11 52 11q13 0 57.5 -3t75.5 -3q76 0 224 5q147 5 173 5q179 0 274 -80
q93 -79 93 -233q0 -119 -77.5 -201t-219.5 -112z" />
    <glyph glyph-name="S" unicode="S" horiz-adv-x="936" 
d="M768 1186v-21v-174q0 -18 -8 -31q-7 -12 -21 -12q-31 0 -59 88q-7 17 -8 23q-37 105 -75 140q-37 34 -103 34q-76 0 -122 -49q-48 -49 -48 -127q0 -112 151 -187q53 -26 68 -34q80 -43 141 -93t93 -95q69 -97 69 -234q0 -194 -126 -323.5t-317 -129.5q-84 0 -165 27
q-81 25 -117 61q-15 15 -19 36q-6 21 -6 91v172q0 22 10 33q11 12 27 12q26 0 43 -80q11 -49 19 -73q26 -97 80 -145q55 -50 135 -50q101 0 162 58t61 153q0 87 -48 145q-49 59 -192 134q-156 83 -219 171q-63 89 -63 218q0 172 115.5 287.5t283.5 115.5q71 0 138 -18.5
t95 -42.5q15 -15 20 -28q5 -18 5 -52z" />
    <glyph glyph-name="T" unicode="T" horiz-adv-x="997" 
d="M702 1194h-49q-11 0 -17.5 -7t-6.5 -22v-989q0 -45 15.5 -67.5t51.5 -28.5q4 0 9 -0.5t8 -1.5q49 -9 49 -37q0 -24 -10 -35.5t-29 -11.5v0l-27 2q-106 14 -202 14q-97 0 -203 -14l-27 -2v0q-17 0 -28 12q-11 13 -11 33q0 31 51 41h5h4q42 7 57 29q14 20 14 69v987
q0 15 -6.5 22t-17.5 7h-25q-45 0 -81.5 -21.5t-69.5 -66.5q-22 -30 -56 -88q-32 -62 -55 -62q-13 0 -21 9q-8 10 -8 26q0 11 20 97q8 36 32 149q2 12 6 33q17 96 45 96q23 0 37 -41q1 -4 4 -14q8 -20 28.5 -26.5t81.5 -6.5h394q80 0 147 8.5t80 18.5q14 6 30 40q17 33 40 33
q15 0 22 -12q8 -13 8 -35t-10 -112q-8 -77 -14 -177q-5 -56 -14 -73q-10 -21 -29 -21q-24 0 -50 72q-16 47 -30 82q-23 50 -54 71q-33 21 -88 21z" />
    <glyph glyph-name="U" unicode="U" horiz-adv-x="1212" 
d="M436 1108v-670q0 -71 6.5 -129t19 -99t32.5 -69q59 -84 194 -84q78 0 135 28q59 29 95 81q26 42 38 102q11 64 11 209v35v217q0 249 -10 335q-10 89 -33 118q-13 16 -64 22t-51 43q0 22 13 32q14 9 42 9q16 0 60 -4t88 -4q35 0 76 4t61 4q31 0 43 -9t12 -32
q0 -21 -10 -30.5t-45 -12.5q-24 0 -39 -5q-14 -5 -23 -15q-22 -28 -31 -112.5t-9 -342.5v-244q0 -181 -13 -247q-13 -69 -47 -121q-50 -77 -141 -116q-90 -40 -219 -40q-144 0 -239 36q-94 34 -150 112q-34 45 -48 107q-14 64 -14 196v96v598q0 44 -14 67q-13 21 -47 29
q-6 0 -9 1q-4 2 -12 3q-32 6 -40.5 14t-8.5 25q0 20 11 32.5t28 12.5v0l25 -2q101 -12 204 -12q92 0 191 12l26 2v0q19 0 30 -11q9 -12 9 -34q0 -18 -8 -26q-8 -7 -45 -13q-46 -6 -63 -27.5t-17 -70.5z" />
    <glyph glyph-name="V" unicode="V" horiz-adv-x="1018" 
d="M373 1114l225 -659q2 -7 5 -9q4 -4 9 -4q9 0 13 4q5 5 6 11l184 563q6 19 17 66q6 32 6 49q0 39 -59.5 60t-59.5 52q0 22 12 31.5t39 9.5q15 0 54 -4t79 -4q36 0 73 4t54 4q27 0 39 -9.5t12 -31.5q0 -34 -45 -51q-30 -11 -43 -20q-23 -18 -45 -64q-22 -45 -78 -203
l-206 -602q-24 -67 -50 -155q-55 -181 -102 -181q-43 0 -90 152q-21 70 -47 145l-248 723q-1 6 -14 43q-43 126 -68 146q-16 12 -41 22q-41 17 -41 47q0 16 10.5 28.5t26.5 12.5v0l25 -2q93 -12 188 -12q77 0 147 7t78 7q22 0 32 -10q11 -11 11 -29q0 -41 -58 -57t-58 -43
q0 -8 6 -31z" />
    <glyph glyph-name="W" unicode="W" horiz-adv-x="1464" 
d="M360 1094l238 -709q3 -7 6 -12q3 -4 6 -4t7.5 4.5t7.5 11.5l88 207v2q6 17 6 29v23l-2 11v0l-152 459q-19 64 -80 88h-2q-37 15 -37 45q0 17 11 30q11 11 26 11v0l25 -2q131 -12 270 -12q146 0 279 10l33 2v0q26 0 37.5 -9t11.5 -32q0 -27 -39 -48.5t-62 -74.5l-118 -288
q-3 -4 -5 -16q-2 -10 -2 -17t5 -25q-1 -1 -1 -2t1 -2l114 -356q3 -11 7 -15q5 -6 8 -6t7 6q4 4 7 15l182 543q18 51 26 89q9 41 9 66q0 56 -53 88l-4 2q-29 18 -29 41q0 21 9.5 31t29.5 10h8q51 -6 107 -6q60 0 120 6h13q20 0 29.5 -9t9.5 -32q0 -32 -35 -47q-16 -9 -31 -18
q-23 -17 -49 -67q-28 -53 -53 -128l-228 -680q-22 -64 -51 -168q-49 -168 -94 -168q-42 0 -80 123q-4 12 -7.5 24.5t-6 22t-6.5 21.5l-99 303q-2 7 -4 9q-3 3 -8 3q-4 0 -8 -10l-2 -4l-109 -268q-12 -31 -33 -84q-50 -140 -96 -140q-42 0 -92 150q-11 32 -14 41l-250 723
q-51 148 -73 202q-25 59 -42 78q-17 20 -58 36q-42 17 -42 48q0 17 12 29q10 12 27 12v0l30 -2q95 -12 177 -12q44 0 91 4t66 4q31 0 41 -7t10 -30t-27.5 -40.5t-27.5 -47.5q0 -15 4 -30q6 -24 10 -35zM879 969l43 94q10 21 13 38q5 23 5 40q0 37 -19 58.5t-55 21.5
q-30 0 -52 -20q-21 -19 -21 -48q0 -8 8 -37q10 -36 20 -63l31 -82q3 -10 6 -14.5t6 -4.5t6 4q4 4 9 13z" />
    <glyph glyph-name="X" unicode="X" horiz-adv-x="1106" 
d="M479 1085l115 -204q5 -10 10 -14.5t10 -4.5q6 0 13 5q6 6 10 14l53 110q26 51 47 104q15 41 15 64q0 38 -52.5 47t-52.5 41q0 22 12 32q13 11 35 11q6 0 63.5 -6t110.5 -6q64 0 134 6q71 6 77 6q28 0 38 -10q11 -11 11 -33q0 -32 -62 -37q-59 -4 -105 -28
q-42 -23 -83 -75q-40 -50 -114 -185l-80 -142q-5 -8 -6 -14q-2 -10 -2 -16q0 -11 1 -14t3 -7l313 -541q24 -38 45 -64q19 -23 39 -34q11 -6 35 -12q41 -11 41 -45q0 -19 -9 -27q-11 -8 -36 -8q-5 0 -12 1t-19 1q-2 0 -12 2q-90 10 -174 10q-139 0 -256 -14h-2q-3 -1 -8 -1
q-3 -1 -9 -1q-14 0 -25 12q-11 13 -11 29q0 33 53 44q53 9 53 46q0 19 -16 54q-18 40 -49 93l-125 215q-2 5 -8 11q-5 4 -11 4q-4 0 -8 -4q-6 -6 -8 -11l-123 -239q-23 -44 -31 -67.5t-8 -39.5q0 -25 13 -38t44 -19q4 0 12 -1.5t15 -2.5q53 -9 53 -43q0 -23 -13 -33
q-13 -12 -40 -12q-35 0 -100 9q-64 9 -95 9t-101 -5t-87 -5q-18 0 -25.5 8.5t-7.5 28.5q0 32 56 43q21 4 38 10q47 19 91.5 64.5t93.5 132.5l170 301q1 2 3 8q1 3 1 16q0 7 -1 11t-5 10l-189 317q-78 133 -114 178q-33 42 -64 62q-20 12 -58 18q-40 4 -40 37q0 22 10.5 32.5
t32.5 10.5q8 0 99 -8t161 -8q146 0 264 12l16 2v0q15 0 25 -10t10 -27q0 -32 -56 -47t-56 -49q0 -12 5 -27.5t19 -42.5z" />
    <glyph glyph-name="Y" unicode="Y" horiz-adv-x="1014" 
d="M412 1104l192 -352q3 -7 10 -14q5 -5 9 -5q5 0 10 5q7 7 10 14l137 268q16 30 24 59q9 30 9 49q0 48 -59.5 68t-59.5 51q0 23 12 32t39 9q9 0 67 -5t91 -5q35 0 85 5l50 5q23 0 33 -10t10 -31q0 -32 -41 -49q-23 -10 -34 -16q-22 -12 -54 -56q-29 -40 -73 -125l-203 -374
q-8 -13 -13 -30q-4 -15 -4 -36v-385q0 -46 15.5 -68t50.5 -28q17 -3 23 -4q45 -6 45 -35q0 -23 -10 -34q-10 -13 -29 -13v0l-27 2q-106 14 -203 14t-198 -12q-23 -4 -31 -4q-18 0 -29 12q-10 10 -10 33q0 31 51 41h4h2q43 7 58 29q14 20 14 69v320q0 21 -4 38q-4 20 -12 33
l-275 510q-1 2 -8 15q-39 73 -78 94q-11 6 -28 14q-39 17 -39 47q0 19 10 30q11 11 24 11v0l21 -2q98 -12 201 -12q110 0 227 12l31 2v0q22 0 32 -10q11 -11 11 -29q0 -38 -51.5 -53.5t-51.5 -44.5q0 -8 5 -21q4 -12 12 -28z" />
    <glyph glyph-name="Z" unicode="Z" horiz-adv-x="1067" 
d="M418 1282h96h223q42 0 108 7q64 7 99 7q25 0 37 -6t12 -18q0 -10 -8 -34q-7 -18 -24 -50l-572 -1043q-5 -8 -6 -14q-2 -10 -2 -12q0 -6 6 -11.5t14 -5.5h181q120 0 185.5 29t96.5 96q13 29 31 92q21 78 53 78q21 0 31 -22q10 -21 10 -66v0l-2 -71q-2 -74 -2 -95
q0 -24 2 -86v-16q0 -30 -11.5 -38.5t-43.5 -8.5q-35 0 -116 6t-126 6q-3 0 -14.5 1t-27.5 1q-56 2 -85 2q-189 0 -399 -12q-44 -4 -62 -4q-45 0 -57 8.5t-12 34.5q0 20 28 72q2 5 3.5 7.5l1.5 2.5l569 1040q1 3 2.5 6t1.5 5q2 6 2 8q0 3 -5 7.5t-13 4.5h-117q-90 0 -156 -20
q-64 -21 -102 -62q-28 -31 -65 -85t-58 -54q-15 0 -26 14t-11 35q0 11 21 101q20 86 36 167q10 52 23 71q11 17 31 17q29 0 41 -41q4 -15 10 -26q10 -15 41 -19q32 -6 127 -6z" />
    <glyph glyph-name="bracketleft" unicode="[" horiz-adv-x="645" 
d="M227 1327h281q27 0 38 -10.5t11 -34.5q0 -23 -13 -33q-13 -12 -38 -12h-103q-18 0 -26 -11t-8 -40v-1512q0 -30 8 -41.5t26 -11.5h103q24 0 37.5 -11.5t13.5 -33.5q0 -23 -11 -34q-13 -11 -38 -11h-281q-43 0 -57 15q-14 16 -14 79v1608q0 63 14 78.5t57 15.5z" />
    <glyph glyph-name="backslash" unicode="\" horiz-adv-x="455" 
d="M442 -158l-481 1452q0 3 -0.5 5.5t-1.5 3.5l-2 6q0 7 10 12.5t23 5.5q23 0 39 -8q14 -8 20 -25l481 -1452l2 -4t1 -4l2 -6q0 -8 -10 -12q-10 -6 -25 -6q-24 0 -38 8t-20 24z" />
    <glyph glyph-name="bracketright" unicode="]" horiz-adv-x="645" 
d="M137 1327h279q45 0 58 -15.5t13 -78.5v-1608q0 -64 -13 -78q-13 -16 -58 -16h-279q-26 0 -37.5 10.5t-11.5 34.5q0 22 14 33.5t37 11.5h101q19 0 28 13q8 14 8 40v1512q0 26 -8.5 38.5t-27.5 12.5h-101q-23 0 -37 11.5t-14 33.5q0 25 12 35q10 10 37 10z" />
    <glyph glyph-name="asciicircum" unicode="^" horiz-adv-x="2048" 
d="M915 1462h215l502 -565h-104l-506 397l-506 -397h-104z" />
    <glyph glyph-name="underscore" unicode="_" horiz-adv-x="1024" 
d="M0 -311h1024v-172h-1024v172z" />
    <glyph glyph-name="grave" unicode="`" horiz-adv-x="1024" 
d="M449 1341l219 -282h-72l-252 166q-46 31 -59 52q-15 23 -15 54q0 40 20 66q20 24 52 24q24 0 49 -17.5t58 -62.5z" />
    <glyph glyph-name="a" unicode="a" horiz-adv-x="862" 
d="M731 705v-89v-374q0 -67 9 -90t32 -23q14 0 33.5 16.5t25.5 16.5q9 0 17 -11q8 -13 8 -26q0 -45 -73.5 -103.5t-149.5 -58.5q-46 0 -75 30t-64 124h-9q-77 -74 -150 -116q-70 -40 -124 -40q-75 0 -121 58q-47 59 -47 151q0 96 53 164q51 66 199 145l164 90q12 9 16 18.5
t4 33.5v131q0 60 -14 90q-15 28 -47 28q-49 0 -105 -108q-8 -17 -18 -37q-32 -60 -77.5 -90.5t-106.5 -30.5q-31 0 -46.5 15t-15.5 45q0 99 120 192q121 92 263 92q141 0 220 -64t79 -179zM479 307v156q0 12 -3 18t-9 6q-2 0 -8 -2q-5 -1 -10 -6l-58 -37q-63 -41 -94 -89
q-33 -48 -33 -101q0 -54 26 -86.5t68 -32.5q59 0 90 45q31 43 31 129z" />
    <glyph glyph-name="b" unicode="b" horiz-adv-x="997" 
d="M367 1255v-346q0 -14 3 -19t11 -5q3 0 5 1q3 0 7 3l27 14q37 21 83 34q46 11 85 11q156 0 259 -129q103 -128 103 -330q0 -227 -128 -378q-129 -150 -320 -150q-81 0 -173 42q-91 42 -104 42q-23 0 -54 -52t-50 -52q-11 0 -19 11t-8 28q0 24 10 94q9 74 9 127v47v876
q0 36 -8 62q-9 23 -27 35q-10 6 -16 9q-11 4 -21 5l-6 2q-35 12 -35 37q0 37 80 57h4q5 0 8 1q5 2 14 3q82 18 157 53t77 35q17 0 24 -12.5t7 -40.5q0 -6 -2 -56q-2 -52 -2 -59zM367 674v-395q0 -131 24.5 -184.5t81.5 -53.5q93 0 152 113t59 297q0 170 -58.5 274
t-148.5 104q-60 0 -85 -34t-25 -121z" />
    <glyph glyph-name="c" unicode="c" horiz-adv-x="831" 
d="M498 948q115 0 196.5 -39.5t81.5 -95.5q0 -84 -20 -141q-20 -56 -51 -56q-24 0 -45 25q-21 23 -52 84q-9 17 -24 55q-42 94 -84 94q-77 0 -140 -106t-63 -256q0 -175 83 -291.5t206 -116.5q62 0 118 40t60 40q14 0 21 -9q8 -10 8 -23q0 -52 -106.5 -122.5t-219.5 -70.5
q-183 0 -302.5 140t-119.5 356q0 224 124 358q125 135 329 135z" />
    <glyph glyph-name="d" unicode="d" horiz-adv-x="1018" 
d="M879 1255v-1075q0 -26 6 -40q6 -13 18 -13q11 0 36 25q26 24 38 24t18 -11.5t6 -33.5q0 -79 -61 -92l-14 -2q-83 -19 -160 -48q-76 -30 -80 -30q-19 0 -28 11q-8 10 -13 40l-8 62h-6q-91 -69 -141 -90q-49 -21 -105 -21q-153 0 -246 133q-48 67 -71 155t-23 195
q0 228 107.5 366t281.5 138q64 0 131 -30q5 -1 6 -3l27 -12q1 -1 5 -1q2 -1 7 -1q9 0 12 6.5t3 26.5v143q0 62 -5 92q-4 26 -18 39q-15 15 -45 25l-4 2q-26 8 -33.5 16t-7.5 23q0 23 15 35q17 12 75 22q3 0 6 1q3 2 10 3q85 20 157 54t77 34q17 0 24 -12.5t7 -40.5
q0 -6 -2 -56q-2 -52 -2 -59zM625 332v370q0 84 -29 124q-29 38 -90 38q-90 0 -144.5 -103t-54.5 -278q0 -171 56 -272.5t145 -101.5q64 0 91 45q26 46 26 178z" />
    <glyph glyph-name="e" unicode="e" horiz-adv-x="885" 
d="M348 639h107q83 0 119 23.5t36 76.5q0 61 -33 98t-85 37q-66 0 -109 -49q-46 -50 -53 -133l-4 -35v-4q0 -7 6 -10q4 -4 16 -4zM762 557h-416q-17 0 -25 -8t-8 -29v-53q0 -159 77.5 -260t199.5 -101q76 0 140.5 52.5t72.5 52.5q13 0 22 -10t9 -27q0 -56 -115 -134.5
t-248 -78.5q-188 0 -306 139q-120 138 -120 355q0 221 123.5 357t323.5 136q149 0 247 -95q97 -94 97 -235q0 -34 -16.5 -47.5t-57.5 -13.5z" />
    <glyph glyph-name="f" unicode="f" horiz-adv-x="569" 
d="M393 1020v-82q0 -14 7 -21q8 -8 18 -8h145q13 0 17 -4t4 -22v-45q0 -16 -4 -21.5t-15 -5.5h-147q-11 0 -18 -7t-7 -22v-587q0 -49 9 -72q9 -25 30 -35q15 -8 65 -13q48 -4 48 -40q0 -18 -9 -29q-10 -10 -28 -10v0l-27 2q-114 14 -215 14q-83 0 -184 -12h-8q-11 0 -18 -1
t-13 -1q-13 0 -22 11t-9 26q0 20 9 29t38 12q8 0 20 2q10 2 17 6q25 12 34 32.5t9 78.5v596q0 14 -6.5 21t-17.5 7h-58q-15 0 -26 11t-11 24q0 14 8.5 24t39.5 25l47 25l8 4q21 10 22 31l9 81q16 174 118.5 276.5t255.5 102.5q85 0 142 -26q55 -27 55 -66q0 -62 -39 -136.5
t-70 -74.5q-28 0 -61 88q-3 9 -7.5 21t-6.5 16q-18 41 -34 62q-18 22 -34 22q-40 0 -59 -79q-21 -79 -21 -230z" />
    <glyph glyph-name="g" unicode="g" horiz-adv-x="907" 
d="M442 883q-63 0 -102 -71.5t-39 -188.5q0 -119 39 -191t102 -72t101.5 71.5t38.5 191.5q0 119 -38.5 189.5t-101.5 70.5zM766 868l55 6l10 2q4 1 11 1q36 0 47 -20q10 -19 10 -81q0 -7 -7.5 -11.5t-19.5 -4.5q-13 0 -16 1q-6 0 -8 1h-8q-18 0 -29 -1t-35 -5q18 -37 28 -77
q9 -37 9 -77q0 -145 -104 -234q-106 -89 -279 -89h-22q-1 1 -4 1.5t-6 0.5h-15q-28 0 -42.5 -13t-14.5 -35q0 -25 34 -37q33 -11 123 -16q225 -9 313 -70q89 -62 89 -194q0 -148 -140 -258q-139 -109 -344 -109q-161 0 -268 72q-108 70 -108 172q0 40 19 69q19 30 73 68
l73 54q13 8 19 13q6 6 6 9q0 5 -3 11q-6 9 -7 10l-33 34q-48 51 -68 81q-22 31 -22 53q0 24 59 53q6 4 13 6l82 39q14 6 18 9t4 5q0 4 -4 8l-4.5 4.5t-7.5 6.5l-31 22q-78 57 -109 118q-32 62 -32 146q0 144 103 241t259 97q69 0 121 -12q56 -14 117 -47q5 -1 12 -6
q31 -19 61 -19q7 0 12 1t11 1zM688 -199q0 109 -246 117h-4h-26q-63 1 -129 45q-16 10 -21 10q-15 0 -36 -43.5t-21 -89.5q0 -97 67 -157q68 -60 177 -60q105 0 172 51.5t67 126.5z" />
    <glyph glyph-name="h" unicode="h" horiz-adv-x="1036" 
d="M393 1255v-387q0 -8 2.5 -13t5.5 -5q2 0 6 3v0q0 1 11 7l43 31q35 25 83 42q47 15 91 15q134 0 200 -76t66 -233v-444q0 -54 7 -74q8 -22 26 -33q14 -7 54 -12q40 -4 40 -41q0 -19 -9 -28t-28 -9q-6 0 -63 7t-123 7q-113 0 -221 -12l-21 -2v0q-15 0 -22 10q-9 11 -9 27
q0 37 46 43q21 2 30 6q23 11 31 32t8 79v399q0 114 -29.5 171.5t-89.5 57.5q-71 0 -103 -54q-32 -56 -32 -189v-385q0 -54 6 -75q4 -21 19 -32q10 -7 35 -12q36 -6 36 -41q0 -20 -4 -28.5t-14 -8.5q-4 0 -9 1t-16 1h-2q-90 12 -178 12q-83 0 -184 -12h-8q-11 0 -18 -1
t-13 -1q-13 0 -22 11t-9 26q0 20 9 29q7 9 38 12q8 0 20 2q10 2 17 6q25 12 34 32.5t9 78.5v929q0 38 -8 62q-7 21 -27 35q-10 6 -17 9q-14 4 -21 5h-3q-38 11 -38 39q0 23 13.5 34.5t72.5 22.5q5 0 8 1q5 2 14 3q79 17 154.5 52.5t77.5 35.5q15 0 23.5 -12.5t8.5 -34.5v0
l-2 -53q-2 -54 -2 -68z" />
    <glyph glyph-name="i" unicode="i" horiz-adv-x="526" 
d="M272 1333q60 0 104 -44q42 -45 42 -111q0 -67 -42 -111.5t-104 -44.5q-60 0 -102.5 44.5t-42.5 111.5q0 66 43 110q42 45 102 45zM393 891v-696q0 -49 8 -73t27 -34q15 -7 45 -12h4q31 -3 40 -12t9 -29t-8 -30q-9 -9 -29 -9v0l-65.5 8t-122.5 8q-121 0 -235 -12l-23 -2v0
q-14 0 -21.5 10t-7.5 27q0 19 9.5 28.5t39.5 12.5q6 1 23 4l12 4q23 10 33 31q8 21 8 80v391q0 57 -6 74.5t-22 27.5q-5 3 -15.5 7t-25.5 5q-1 1 -2 1t-2 -1q-39 8 -39 35q0 19 9.5 28.5t49.5 20.5q8 3 22.5 7.5t20.5 6.5q20 6 39 15q72 33 138 85q62 50 67 50q12 0 16 -13
q4 -12 4 -44z" />
    <glyph glyph-name="j" unicode="j" horiz-adv-x="526" 
d="M272 1333q60 0 104 -44q42 -45 42 -111q0 -67 -42 -111.5t-104 -44.5q-60 0 -102.5 44.5t-42.5 111.5q0 66 43 110q42 45 102 45zM393 870v-628v-170q0 -152 -35 -242q-35 -86 -125 -170q-58 -55 -111 -82q-56 -29 -97 -29q-17 0 -23 7t-6 24q0 22 41 49q23 16 33 27
q36 35 53 89q16 52 16 138v703q0 57 -6 74.5t-22 27.5q-5 3 -15.5 7t-25.5 5q-1 1 -2 1t-2 -1q-39 8 -39 35q0 19 9.5 28.5t51.5 20.5l4 2q48 14 78 27q73 34 135.5 84.5t67.5 50.5q12 0 16 -13q4 -12 4 -65z" />
    <glyph glyph-name="k" unicode="k" horiz-adv-x="1028" 
d="M393 1255v-700q0 -9 3.5 -13.5t6.5 -4.5t6.5 2.5t10.5 9.5l141 131q48 44 69 71.5t21 45.5q0 26 -50 40.5t-50 41.5q0 16 8 24q8 6 29 6q8 0 75 -5t105 -5q52 0 113 6q62 6 69 6q20 0 27 -7q8 -8 8 -25q0 -31 -55 -43h-2q-67 -15 -115 -43q-47 -27 -96 -76l-70 -68
q-6 -6 -7 -11q-3 -7 -3 -15q0 -3 2 -9q3 -8 4 -10l277 -438q39 -63 88 -88t49 -47q0 -21 -10 -28q-10 -9 -33 -9v0l-29 2q-83 8 -145 8q-54 0 -106 -7t-62 -7q-23 0 -34 8t-11 27q0 16 11 40q11 22 11 27q0 13 -9.5 31.5t-33.5 56.5l-145 234q-9 14 -24 26.5t-21 12.5
q-11 0 -15 -7q-7 -8 -8 -20v-231q0 -51 7 -72q8 -25 24 -35q14 -7 39 -12h2q27 -3 34 -12q7 -8 7 -29q0 -15 -5 -27q-6 -10 -16 -10q-5 0 -12 1t-18 1q-1 0 -11 2q-93 10 -178 10q-89 0 -190 -12h-4q-12 0 -18.5 -1t-10.5 -1q-13 0 -22 11t-9 26q0 20 9 29t38 12q8 0 20 2
q10 2 17 6q25 12 34 32.5t9 78.5v929q0 91 -73 113q-23 7 -31 15t-8 22q0 23 15 35q17 12 75 22q3 0 6 1q3 2 10 3q84 19 158 54q71 34 76 34q15 0 22.5 -11t7.5 -36v0l-2 -53q-2 -54 -2 -68z" />
    <glyph glyph-name="l" unicode="l" horiz-adv-x="526" 
d="M389 1255v-1060q0 -49 8 -73t27 -34q15 -7 45 -12h4q31 -3 40 -12t9 -29q0 -19 -8.5 -29t-26.5 -10v0l-20 2q-103 14 -205 14q-89 0 -190 -12h-4q-12 0 -18.5 -1t-10.5 -1q-14 0 -21 10q-8 11 -8 27q0 20 9 29t38 12q8 0 20 2q10 2 17 6q23 10 33 31q8 21 8 80v929
q0 90 -74 113q-22 8 -30 15q-8 8 -8 22q0 23 13.5 34.5t72.5 22.5q5 0 8 1q5 2 14 3q79 18 154 53t77 35q16 0 23.5 -11t7.5 -36v0l-2 -53q-2 -54 -2 -68z" />
    <glyph glyph-name="m" unicode="m" horiz-adv-x="1542" 
d="M362 926v-95q0 -8 2.5 -13t6.5 -5q2 0 6 4q6 4 10 8l29 29q47 48 99 70q53 22 120 22q79 0 137 -33.5t98 -103.5h9q48 62 121 101q71 36 143 36q133 0 199.5 -75t66.5 -226v-450q0 -58 7 -76q8 -21 26 -31q14 -7 45 -12q49 -6 49 -43q0 -19 -9.5 -28t-29.5 -9v0l-61.5 8
t-114.5 8q-118 0 -229 -12l-21 -2v0q-14 0 -22.5 9t-8.5 26q0 37 45 43q25 5 31 8q23 11 31 32t8 79v397q0 112 -29 172q-30 57 -90 57q-71 0 -103 -54q-32 -56 -32 -189v-383v-5q0 -54 7 -74q8 -22 26 -32q4 -3 24 -8q39 -6 39 -43q0 -18 -5.5 -26.5t-16.5 -8.5
q-4 0 -9.5 1t-15.5 1h-6q-91 12 -170 12t-174 -12h-8q-10 0 -16.5 -1t-12.5 -1q-14 0 -22.5 9t-8.5 26q0 37 46 43q25 5 30 8q23 11 31 32t8 79v397q0 112 -29 172q-30 57 -90 57q-71 0 -103 -54q-32 -56 -32 -189v-383q0 -54 6 -75q4 -21 19 -32q10 -7 35 -12q36 -6 36 -41
q0 -20 -4 -28.5t-14 -8.5q-4 0 -9 1t-16 1h-2q-90 12 -178 12q-83 0 -184 -12h-8q-11 0 -18 -1t-13 -1q-15 0 -22 10q-9 9 -9 25q0 36 43 43h4q8 0 20 2q10 2 17 6q25 12 34 32.5t9 78.5v419q0 59 -6 75q-7 18 -22 28q-13 8 -39 12h-4h-2q-41 8 -41 35q0 18 10 28
q11 11 51 21q3 1 5.5 1.5t6.5 2.5q38 10 66 23q62 30 115.5 83.5t62.5 53.5q12 0 16 -10q4 -9 4 -41z" />
    <glyph glyph-name="n" unicode="n" horiz-adv-x="1036" 
d="M362 928v-84q0 -11 2 -19q2 -6 7 -6q2 0 6 2t6 4l18 19q45 48 108 76t126 28q131 0 198 -73q68 -74 68 -216v-112v-352q0 -55 7 -75q8 -22 26 -32q14 -7 54 -12q40 -4 40 -41q0 -15 -8 -26t-19 -11v0l-24 2q-103 12 -203 12q-83 0 -170 -10l-10 -2q-11 0 -18 -1t-13 -1
q-15 0 -22 10q-9 11 -9 27q0 37 46 43q21 2 30 6q23 11 31 32t8 79v315v84q0 114 -29.5 171.5t-89.5 57.5q-71 0 -103 -54q-32 -56 -32 -189v-385q0 -54 6 -75q4 -21 19 -32q10 -7 35 -12q36 -4 36 -41q0 -19 -6 -27t-22 -8v0l-21 2q-83 10 -174 10q-89 0 -190 -12h-4
q-12 0 -18.5 -1t-10.5 -1q-13 0 -22 11t-9 26q0 20 9 29q7 9 38 12q8 0 20 2q10 2 17 6q25 12 34 32.5t9 78.5v419q0 59 -6 75q-7 18 -22 28q-12 7 -41 12h-2v0l-7 2q-36 9 -36 35q0 32 59 49q30 8 43 13q26 10 39 16q64 32 115 83q51 52 61 52q12 0 16 -10q4 -9 4 -41z" />
    <glyph glyph-name="o" unicode="o" horiz-adv-x="989" 
d="M492 948q209 0 330.5 -134t121.5 -363q0 -223 -126 -357q-126 -133 -341 -133q-193 0 -312.5 137t-119.5 357q0 221 124 357t323 136zM481 872q-80 0 -127 -96q-47 -99 -47 -268q0 -213 56 -342t145 -129q79 0 126 98q46 96 46 268q0 215 -55 341q-56 128 -144 128z" />
    <glyph glyph-name="p" unicode="p" horiz-adv-x="1018" 
d="M389 928v-86q0 -17 1.5 -21t8.5 -4q1 0 7 2q4 2 6 4l20 23q49 52 100 76q55 26 113 26q145 0 236 -135q92 -137 92 -354t-107 -357q-106 -141 -268 -141q-55 0 -102.5 12t-96.5 39l-6 -6v-262q0 -49 8 -71.5t27 -32.5q16 -9 47 -13h2h2q49 -7 49 -43q0 -15 -8.5 -26
t-19.5 -11q-12 0 -37 4q-112 11 -197 11q-84 0 -196 -11q-27 -4 -37 -4q-11 0 -19 11t-8 26q0 19 9 30q10 10 40 11q7 0 21 2q11 1 18 6q27 10 36 33q9 21 9 78v870v41q0 32 -14 49t-55 25h-2q-43 10 -43 37q0 21 12 31q10 10 53 18l10 2q51 13 78 25q77 31 146 104l2 2
q16 18 24.5 24.5t16.5 6.5q11 0 17 -13q5 -15 5 -38zM393 580v-385q0 -75 30 -113q28 -37 89 -37q91 0 145 104.5t54 286.5q0 164 -56.5 264.5t-144.5 100.5q-66 0 -91.5 -43.5t-25.5 -177.5z" />
    <glyph glyph-name="q" unicode="q" horiz-adv-x="997" 
d="M883 664v-920q0 -49 8 -71.5t27 -32.5q16 -9 47 -13h2h4q47 -8 47 -43q0 -16 -9 -26.5t-20 -10.5q-10 0 -37 4q-110 11 -196 11q-85 0 -197 -11q-25 -4 -37 -4q-10 0 -18 11t-8 26q0 19 9 30q10 10 40 11q7 0 21 2q11 1 18 6q26 12 35.5 33t9.5 78v276l-8 7
q-62 -32 -118 -50q-51 -16 -97 -16q-155 0 -258 130t-103 331q0 227 129 376.5t320 149.5q82 0 173 -42q92 -42 103 -42q23 0 54.5 52.5t49.5 52.5q13 0 20 -10t7 -27q0 -10 -9 -99.5t-9 -168.5zM629 238v395q0 132 -24 184q-26 53 -81 53q-90 0 -152 -113
q-61 -113 -61 -296q0 -167 59 -274t148 -107q60 0 85.5 34.5t25.5 123.5z" />
    <glyph glyph-name="r" unicode="r" horiz-adv-x="713" 
d="M385 928v-92q0 -14 2 -18q2 -3 4 -3q4 0 8 3l4.5 4.5l4.5 4.5l18 25q34 43 71 65q38 21 76 21q65 0 106.5 -43.5t41.5 -112.5q0 -73 -35.5 -117t-93.5 -44q-57 0 -100 58q-45 58 -58 58q-21 0 -31 -25q-10 -24 -10 -77v-440q0 -54 7 -74q8 -22 26 -33q12 -8 53 -13
q39 -4 39 -40q0 -16 -6 -27q-6 -10 -16 -10q-5 0 -12 1t-19 1h-6q-103 12 -193 12q-89 0 -190 -12h-4q-12 0 -18.5 -1t-10.5 -1q-13 0 -22 11t-9 26q0 20 9 29q7 9 38 12q8 0 20 2q10 2 17 6q25 12 34 32.5t9 78.5v413v19q-1 3 -1 10q-1 3 -1 16q0 33 -9.5 49t-31.5 23
q-4 1 -9 2.5t-7 1.5q-2 1 -6.5 1.5t-7.5 0.5h-3q-38 8 -38 35q0 33 59 51q2 2 4 2q19 3 37 10q30 13 39 17q59 29 117 81t73 52q17 0 24 -9q7 -8 7 -42z" />
    <glyph glyph-name="s" unicode="s" horiz-adv-x="743" 
d="M397 948q55 0 108 -10q55 -10 97 -27q26 -9 33 -22q8 -14 8 -47q0 -37 -1 -59q-1 -23 -1 -40q0 -22 -9 -36q-9 -13 -26 -13q-19 0 -79 92.5t-136 92.5q-56 0 -93 -29q-36 -30 -36 -76q0 -70 162 -141q4 -1 15.5 -6.5t21.5 -10.5q128 -57 179.5 -126t51.5 -177
q0 -156 -105.5 -254t-273.5 -98q-118 0 -191 36.5t-73 96.5q0 118 8.5 162.5t30.5 44.5q27 0 53 -68q19 -50 33 -77q32 -64 75 -93q44 -30 101 -30q65 0 108.5 37.5t43.5 93.5q0 52 -26 86q-28 33 -124 80q-2 2 -14.5 8t-26.5 12q-252 123 -252 295q0 138 91.5 220.5
t246.5 82.5z" />
    <glyph glyph-name="t" unicode="t" horiz-adv-x="602" 
d="M389 1110v-172q0 -13 6 -21t17 -8h131q16 0 23 -5q5 -5 5 -25v-19v-12q0 -27 -6 -35t-22 -8h-131q-13 0 -17 -7q-6 -7 -6 -22l-6 -422v-37q0 -114 13 -157q12 -45 42 -45q23 0 60 26.5t45 26.5q9 0 22 -13t13 -26q0 -48 -87.5 -108t-175.5 -60q-99 0 -142.5 64t-43.5 206
v76l8 441q0 39 -6.5 51t-21.5 12h-37q-25 0 -36 8t-11 25q0 27 68 71q72 47 112 89q30 31 69 88q57 73 82 73q18 0 26 -11q7 -10 7 -44z" />
    <glyph glyph-name="u" unicode="u" horiz-adv-x="1036" 
d="M385 862v-39v-508q0 -114 30.5 -170.5t90.5 -56.5q71 0 102 55q31 53 31 189v383q0 56 -6 75q-8 21 -25 31q-10 6 -17 8q-6 1 -14.5 2.5t-15.5 2.5h-4q-43 7 -43 43q0 20 8 28t25 8h8q2 0 3.5 -0.5t2.5 -1.5q22 -2 69 -4q42 -2 66 -2q70 0 148 8l18 2v0q21 0 27 -10
t6 -59v-23v-577v-21q0 -39 6 -56q6 -15 21 -26q14 -7 39 -12h2h2q39 -7 39 -35q0 -21 -14 -32t-70 -23q-4 0 -5.5 -1t-7.5 -3q-100 -27 -168 -62q-18 -8 -20 -8q-17 0 -25 12q-9 10 -12 39l-8 80l-10 2q-52 -66 -122 -102.5t-143 -36.5q-144 0 -206 80.5t-62 323.5v350
q0 56 -6 75q-6 20 -23 31q-8 6 -13 8q-3 1 -6.5 1.5t-7.5 1.5t-9 2q-27 2 -34 12q-9 9 -9 28q0 21 8 29t26 8q4 0 49.5 -3t86.5 -3q64 0 141 8l20 2v0q19 0 25 -8.5t6 -44.5z" />
    <glyph glyph-name="v" unicode="v" horiz-adv-x="834" 
d="M705 625l-222 -609q-9 -23 -24.5 -34t-40.5 -11q-26 0 -39 10q-12 10 -23 37l-241 662l-2 6q-44 113 -82 135q-3 2 -6 3.5t-6 2.5q-14 3 -19 4h-1q-1 1 -3 0q-41 14 -41 43q0 17 9.5 26t27.5 9v0l20 -2q99 -8 187 -8q99 0 190 6l19 2v0q21 0 27.5 -6.5t6.5 -23.5
q0 -19 -8 -30q-10 -12 -39 -16q-43 -7 -43 -40q0 -12 19 -66q17 -56 20 -66l103 -323q2 -9 6 -13q5 -6 8 -6t6 4.5t6 16.5l101 307q10 26 16 63q6 35 6 54q0 48 -56 65q-57 15 -57 45q0 22 7.5 29.5t33.5 7.5v0l19 -2q59 -6 115 -6q41 0 87 3q47 3 52 3q24 0 30 -6
q5 -8 5 -24q0 -32 -35 -46v0q-1 1 -2 0q-5 -1 -19 -4q-4 -2 -10 -6q-27 -19 -51 -60q-23 -39 -57 -136z" />
    <glyph glyph-name="w" unicode="w" horiz-adv-x="1288" 
d="M580 659l-37 101q-15 39 -41.5 57.5t-71.5 18.5q-56 0 -74 -9.5t-18 -33.5q0 -13 33 -117l6 -17l96 -303q3 -10 10 -21q4 -7 9 -7t9 7q5 8 9 21l74 217q2 10 3 15.5t1 27.5q0 9 -2 23q-2 11 -6 20zM1151 625l-219 -609q-8 -23 -20 -35q-11 -10 -31 -10q-23 0 -33 10
q-13 10 -23 37l-176 465q-7 19 -9 22q-3 5 -5 5q-3 0 -10 -16l-2 -9v0l-166 -469q-9 -27 -19 -35q-10 -10 -28 -10q-19 0 -32 11q-11 10 -22 36l-241 662l-2 6q-44 113 -82 135q-3 2 -6 3.5t-6 2.5q-14 3 -19 4h-1q-1 1 -3 0q-41 14 -41 43q0 17 9.5 26t27.5 9v0l20 -2
q99 -10 213 -10q143 0 230 1q86 1 185 4q98 2 181 5l34 2h-1q21 0 29 -7.5t8 -24.5q0 -19 -9.5 -30.5t-37.5 -15.5q-43 -7 -43 -40q0 -11 9 -43q12 -43 28 -89l102 -309q5 -16 9 -24q3 -7 5 -7q4 0 8 7q3 5 9 26l106 330q5 13 10 39q3 23 3 41q0 49 -55.5 64.5t-55.5 45.5
q0 23 7 30t32 7v0l18 -2q62 -6 117 -6q41 0 86.5 3t50.5 3q25 0 31 -6.5t6 -23.5q0 -34 -37 -46v0q-1 1 -2 0q-4 0 -18 -4q-4 -2 -10 -6q-28 -19 -51 -60q-22 -37 -58 -136z" />
    <glyph glyph-name="x" unicode="x" horiz-adv-x="909" 
d="M440 741l80 -135q2 -2 10 -11q5 -5 7 -5q4 0 8 4q2 2 8 12l70 125q6 12 16 36q6 18 6 26q0 14 -8 24t-33 17l-4 2q-37 13 -37 38q0 19 8 27t25 8h20q24 -2 52 -3q20 -1 65 -1q48 0 69 1q34 2 56 3h25q19 0 27 -7.5t8 -24.5q0 -34 -46 -37q-35 -5 -53 -13q-33 -15 -71 -59
q-38 -42 -84 -119l-68 -106q-8 -11 -9 -16q-3 -7 -3 -11q0 -3 2 -11q2 -7 6 -11l215 -347q35 -56 88 -79l4 -2h2q31 -13 31 -39q0 -14 -8 -20.5t-27 -6.5v0l-27 2q-99 8 -178 8q-62 0 -147 -5l-82 -5v0q-26 0 -37 9q-10 7 -10 28q0 26 45 35.5t45 36.5q0 9 -14 45
q-16 36 -37 69l-70 115q-4 8 -8 11t-8 3q-2 0 -5 -5q-1 -2 -2.5 -4t-3.5 -5l-75 -131q-13 -25 -19 -44q-8 -27 -8 -38q0 -44 42 -55.5t42 -36.5q0 -19 -7 -26t-28 -7h-14q-53 4 -70 5q-22 1 -69 1q-70 0 -142 -6h-2h-14q-16 0 -22.5 6t-6.5 21q0 19 7 27q7 9 36 18q2 0 4 2
q35 8 54 16q78 35 151 156q8 12 14 22l86 135q3 4 4 7.5t1 15.5q0 3 -2 11q-1 3 -5 9l-139 224q-58 93 -112 145q-54 53 -54 57q0 17 9.5 27t23.5 10v0l14 -2q104 -8 228 -8q70 0 137 10l18 2v0q22 0 29 -7q8 -8 8 -27q0 -21 -33 -41l-2.5 -2.5t-1 -1.5t-2.5 -3
q-24 -16 -24 -28q0 -8 7 -23q8 -18 19 -37z" />
    <glyph glyph-name="y" unicode="y" horiz-adv-x="885" 
d="M776 700l-239 -616q-87 -218 -148 -426q-6 -25 -10 -37q-18 -41 -45 -56q-26 -16 -86 -16q-68 0 -92.5 25t-24.5 96q0 70 21 99q19 28 69 28h25q4 -1 8 -1q3 0 4 -1h29q44 0 76 44q30 43 30 98q0 23 -7 50q-7 25 -24 70l-272 693q-24 59 -90 84h-2q-27 6 -34 15
q-9 9 -9 25q0 18 10 26.5t27 8.5v0l26 -2q88 -8 158 -8q114 0 223 6l23 2v0q26 0 34 -7q9 -7 9 -23q0 -37 -53 -45q-54 -7 -54 -41q0 -6 6 -24q3 -14 17 -52l143 -398q3 -7 6.5 -10.5t8.5 -3.5q2 0 6.5 4.5t7.5 14.5l115 323q11 32 19 65q7 29 7 52q0 50 -71 67
q-34 8 -45 18q-11 11 -11 27q0 21 8 29t27 8v0l25 -2q69 -8 121 -8q44 0 96 3q53 3 59 3q18 0 24.5 -6.5t6.5 -23.5q0 -35 -39 -43q-5 0 -8 -1l-8 -4q-32 -11 -56 -42q-23 -29 -47 -87z" />
    <glyph glyph-name="z" unicode="z" horiz-adv-x="821" 
d="M340 905h205q48 0 113 5l63 5v0q24 0 38 -11q13 -10 13 -34q0 -18 -18 -51q-8 -14 -9 -16l-368 -680q-5 -8 -9 -19q-3 -7 -3 -10q0 -5 6 -7.5t18 -2.5h60q77 0 126 15q49 13 78 44q23 24 42 90q20 66 46 66q19 0 26 -15t7 -51q0 -30 -3 -83q-3 -52 -3 -72q0 -19 1 -30
t1 -21q0 -22 -9 -28q-8 -7 -32 -7v0l-41 2q-189 12 -383 12q-69 0 -141.5 -6t-75.5 -6q-29 0 -43 13q-16 13 -16 36q0 20 16 51q7 10 10 17l375 692q3 5 5 10q1 3 1 6q0 5 -6 8q-8 2 -16 2h-37h-58q-53 0 -86 -11q-32 -12 -63 -40q-29 -25 -55 -56q-32 -38 -47 -38
q-14 0 -21 10q-8 11 -8 25q0 18 13 63q9 35 38 121l4 12q29 80 53 80q22 0 29 -37q1 -11 4 -20q10 -18 44 -25q37 -8 116 -8z" />
    <glyph glyph-name="braceleft" unicode="{" horiz-adv-x="797" 
d="M348 758v223q0 193 83 270.5t274 77.5q27 0 40 -7t13 -24q0 -26 -51 -32h-2q-10 0 -28 -2q-20 -4 -30 -7q-67 -16 -95 -68t-28 -183v-160q0 -227 -56 -307q-54 -78 -208 -113q154 -35 208 -113q56 -80 56 -309v-160q0 -126 26 -178q25 -51 89 -72q22 -7 61 -12h5
q32 -1 44 -8q9 -8 9 -23t-13.5 -22.5t-39.5 -7.5q-192 0 -274.5 78.5t-82.5 271.5v223q0 132 -32.5 191t-114.5 84q-25 7 -45 10q-64 13 -64 47q0 31 62 45q19 5 47 12q85 30 116 87q31 55 31 188z" />
    <glyph glyph-name="bar" unicode="|" horiz-adv-x="1024" 
d="M424 1565h178v-2048h-178v2048z" />
    <glyph glyph-name="braceright" unicode="}" horiz-adv-x="797" 
d="M449 981v-223q0 -121 26 -178q25 -55 92 -84q32 -14 74 -23q64 -15 64 -47q0 -33 -64 -45q-30 -7 -45 -12q-84 -29 -115 -86q-32 -59 -32 -189v-223q0 -191 -83 -271q-83 -79 -276 -79q-23 0 -37 8t-14 20q0 16 9 24q7 7 40 9h6q17 2 56 10q65 16 94 70q28 52 28 182v160
q0 230 57 309q54 78 208 113q-154 35 -208 113q-57 80 -57 307v160q0 126 -26 177.5t-88 71.5q-31 9 -64 13h-4q-32 1 -42 10q-9 8 -9 25q0 11 13.5 18.5t37.5 7.5q192 0 275.5 -78t83.5 -270z" />
    <glyph glyph-name="asciitilde" unicode="~" horiz-adv-x="1024" 
d="M690 1380h53q-14 -124 -55 -183q-43 -60 -117 -60q-7 0 -19 2t-20 4l-81 26q-9 3 -25 7q-16 2 -23 2q-24 0 -41 -21t-30 -67h-51q12 125 54 186q40 61 111 61q12 0 30 -2q14 -1 24 -6l86 -29q2 0 7.5 -1.5t9.5 -2.5q10 -2 13 -2q26 0 44 21q16 21 30 65z" />
    <glyph glyph-name="Agrave" horiz-adv-x="412" 
d="M358 717l-116 -262l116 -262q8 -17 8 -19q3 -9 3 -14q0 -8 -5 -15q-4 -6 -12 -6q-16 0 -59 58q-44 55 -72 86q-45 50 -106 101q-64 52 -64 71q0 17 58 66q53 46 94 87q41 42 87 102q47 60 62 60q8 0 12.5 -5t4.5 -15q0 -6 -3 -15q-2 -6 -8 -18z" />
    <glyph glyph-name="quoteleft" horiz-adv-x="481" 
d="M313 1327q19 0 26 -6.5t7 -22.5q0 -18 -63 -83q-64 -64 -64 -117q0 -31 55 -47q6 -2 13.5 -5t13.5 -6q38 -15 56 -44q18 -28 18 -74q0 -57 -33 -93t-84 -36q-64 0 -109 59.5t-45 146.5q0 111 82 220q83 108 127 108z" />
    <glyph glyph-name="quoteright" horiz-adv-x="481" 
d="M229 1327q70 0 116 -58t46 -147q0 -111 -82 -220t-133 -109q-13 0 -21 8t-8 22q0 18 64.5 82.5t64.5 118.5q0 29 -55 45q-21 6 -28 10q-37 17 -54 45q-18 29 -18 74q0 54 31.5 91.5t76.5 37.5z" />
    <glyph glyph-name="quotedblleft" horiz-adv-x="721" 
d="M264 1327q20 0 27 -6q8 -8 8 -23q0 -19 -64.5 -83.5t-64.5 -116.5q0 -29 55 -47q18 -6 29 -11q39 -16 55 -43q17 -29 17 -75q0 -56 -33.5 -92.5t-83.5 -36.5q-64 0 -109 59.5t-45 146.5q0 111 82 220q83 108 127 108zM594 1327q20 0 27 -6q8 -8 8 -23q0 -19 -64.5 -83.5
t-64.5 -116.5q0 -31 55 -47q7 -2 14.5 -5t14.5 -6q38 -15 54 -43q17 -29 17 -75q0 -56 -32 -93q-33 -36 -84 -36q-64 0 -109 59.5t-45 146.5q0 111 82 220q83 108 127 108z" />
    <glyph glyph-name="quotedblright" horiz-adv-x="721" 
d="M174 1327q70 0 115 -58t45 -149q0 -108 -82.5 -217.5t-132.5 -109.5q-12 0 -20 8q-7 7 -7 24q0 18 64 82q63 65 63 117q0 28 -53 45q-20 6 -29 10q-37 17 -54 45q-17 29 -17 74q0 54 31.5 91.5t76.5 37.5zM508 1327q69 0 114.5 -58t45.5 -147q0 -111 -82 -220t-133 -109
q-14 0 -20.5 7.5t-6.5 22.5q0 19 64 83q63 65 63 118q0 28 -53 45q-20 6 -29 10q-40 17 -55 44q-17 29 -17 75q0 54 31.5 91.5t77.5 37.5z" />
    <glyph glyph-name="_extra1" horiz-adv-x="526" 
d="M272 1333q60 0 104 -44q42 -45 42 -111q0 -67 -42 -111.5t-104 -44.5q-60 0 -102.5 44.5t-42.5 111.5q0 66 43 110q42 45 102 45zM393 891v-696q0 -49 8 -73t27 -34q15 -7 45 -12h4q31 -3 40 -12t9 -29t-8 -30q-9 -9 -29 -9v0l-65.5 8t-122.5 8q-121 0 -235 -12l-23 -2v0
q-14 0 -21.5 10t-7.5 27q0 19 9.5 28.5t39.5 12.5q6 1 23 4l12 4q23 10 33 31q8 21 8 80v391q0 57 -6 74.5t-22 27.5q-5 3 -15.5 7t-25.5 5q-1 1 -2 1t-2 -1q-39 8 -39 35q0 19 9.5 28.5t49.5 20.5q8 3 22.5 7.5t20.5 6.5q20 6 39 15q72 33 138 85q62 50 67 50q12 0 16 -13
q4 -12 4 -44z" />
    <glyph glyph-name="endash" horiz-adv-x="1024" 
d="M-27 377l47 155q3 11 14 19t19 8h983q7 0 13 -2q4 -3 4 -8v-8q0 -1 -0.5 -3t-1.5 -3l-47 -158q-3 -12 -13.5 -19.5t-19.5 -7.5h-983q-8 0 -12.5 3.5t-4.5 8.5q0 7 1 9q0 4 1 6z" />
    <glyph glyph-name="emdash" horiz-adv-x="1327" 
d="M-47 377l47 155q3 12 13 19q11 8 20 8h1327q6 0 12 -2q4 -3 4 -8v-8q0 -1 -0.5 -3t-1.5 -3l-47 -158q-3 -12 -13.5 -19.5t-19.5 -7.5h-1327q-7 0 -11.5 3.5t-4.5 8.5q0 7 1 9q0 4 1 6z" />
    <glyph glyph-name="_extra2" horiz-adv-x="743" 
d="M397 948q55 0 108 -10q55 -10 97 -27q26 -9 33 -22q8 -14 8 -47q0 -37 -1 -59q-1 -23 -1 -40q0 -22 -9 -36q-9 -13 -26 -13q-19 0 -79 92.5t-136 92.5q-56 0 -93 -29q-36 -30 -36 -76q0 -70 162 -141q4 -1 15.5 -6.5t21.5 -10.5q128 -57 179.5 -126t51.5 -177
q0 -156 -105.5 -254t-273.5 -98q-118 0 -191 36.5t-73 96.5q0 118 8.5 162.5t30.5 44.5q27 0 53 -68q19 -50 33 -77q32 -64 75 -93q44 -30 101 -30q65 0 108.5 37.5t43.5 93.5q0 52 -26 86q-28 33 -124 80q-2 2 -14.5 8t-26.5 12q-252 123 -252 295q0 138 91.5 220.5
t246.5 82.5z" />
    <glyph glyph-name="trademark" horiz-adv-x="1683" 
d="M244 1290h448l10 -188h-30q-8 80 -39.5 115.5t-93.5 35.5h-11v-422q0 -21 11 -35.5t28 -15.5l31 -4v-28h-260v28l33 4q17 1 28 15q9 14 9 36v422h-15q-59 0 -91 -36q-33 -39 -40 -115h-29zM770 1290h199l135 -381l137 381h189v-26l-27 -4q-21 -4 -31 -16.5t-10 -35.5
v-377q0 -22 10 -35t31 -16l27 -4v-28h-246v28l30 4q20 2 30 15q9 14 9 36v377l-163 -465h-27l-170 471v-383q0 -22 10 -35q11 -15 29 -16l35 -4v-31h-197v31l33 4q21 2 31 15t10 36v373q0 23 -11 37q-10 12 -30 14l-33 5v30z" />
    <glyph glyph-name="Atilde" horiz-adv-x="412" 
d="M51 193l119 262l-119 262q-4 9 -6 18q-2 12 -2 15q0 8 5 15q5 5 11 5q18 0 60 -55q39 -51 69 -84q41 -46 108 -103q64 -55 64 -73t-58 -66q-56 -47 -95 -88q-43 -44 -86 -102q-45 -60 -62 -60q-7 0 -11 7q-5 8 -5 16q0 3 2 13q2 8 6 18z" />
    <glyph glyph-name="ydieresis" unicode="&#xa1;" horiz-adv-x="1044" 
d="M581 213q-76 -229 -249 -229q-62 0 -106 30t-44 88q0 54 31 86t85 32q28 0 37.5 -3.5t29 -14t35.5 -10.5q33 0 56.5 23.5t23.5 64.5q0 28 -36 100l-320 656q-63 131 -79 143.5t-41 22.5q-41 17 -41 47q0 16 10.5 28.5t26.5 12.5v0l25 -2q93 -12 188 -12q77 0 147 7t78 7
q22 0 32 -10q11 -11 11 -29q0 -41 -58 -57t-58 -43q0 -19 20 -64l199 -435q8 -18 21 -18t19 18l128 376q4 11 11.5 30.5t11 38.5t3.5 38q0 39 -59.5 60t-59.5 52q0 22 12 31.5t39 9.5q15 0 54 -4t79 -4q36 0 73 4t54 4q27 0 39 -9.5t12 -31.5q0 -34 -45 -51q-30 -11 -43 -20
q-23 -18 -45 -64q-30 -62 -72 -188z" />
    <glyph glyph-name="Ydieresis" unicode="&#xa2;" horiz-adv-x="885" 
d="M776 700l-239 -616q-87 -218 -148 -426q-6 -25 -10 -37q-18 -41 -45 -56q-26 -16 -86 -16q-68 0 -92.5 25t-24.5 96q0 70 21 99q19 28 69 28h25q4 -1 8 -1q3 0 4 -1h29q44 0 76 44q30 43 30 98q0 23 -7 50q-7 25 -24 70l-272 693q-24 59 -90 84h-2q-27 6 -34 15
q-9 9 -9 25q0 18 10 26.5t27 8.5v0l26 -2q88 -8 158 -8q114 0 223 6l23 2v0q26 0 34 -7q9 -7 9 -23q0 -37 -53 -45q-54 -7 -54 -41q0 -6 6 -24q3 -14 17 -52l143 -398q3 -7 6.5 -10.5t8.5 -3.5q2 0 6.5 4.5t7.5 14.5l115 323q11 32 19 65q7 29 7 52q0 50 -71 67
q-34 8 -45 18q-11 11 -11 27q0 21 8 29t27 8v0l25 -2q69 -8 121 -8q44 0 96 3q53 3 59 3q18 0 24.5 -6.5t6.5 -23.5q0 -35 -39 -43q-5 0 -8 -1l-8 -4q-32 -11 -56 -42q-23 -29 -47 -87z" />
    <glyph glyph-name="lozenge" unicode="&#xa3;" horiz-adv-x="721" 
d="M158 264q69 0 114 -58t45 -149q0 -109 -82 -218t-133 -109q-13 0 -19.5 7.5t-6.5 22.5q0 18 63.5 82t63.5 117q0 30 -56 47q-11 5 -26 10q-39 17 -55 45q-17 29 -17 74q0 54 31.5 91.5t77.5 37.5zM492 264q69 0 114 -58t45 -149q0 -111 -82 -218q-82 -109 -133 -109
q-13 0 -19.5 7.5t-6.5 22.5q0 18 63.5 82t63.5 117q0 30 -56 47q-11 5 -26 10q-37 17 -54 45q-18 29 -18 74q0 54 31.5 91.5t77.5 37.5z" />
    <glyph glyph-name="caron" unicode="&#xa4;" horiz-adv-x="1241" 
d="M168 1430l203 -203q57 41 117 62q63 20 133 20q69 0 134 -20q62 -21 117 -62l203 203l94 -93l-204 -204q40 -55 59 -116q20 -65 20 -132q0 -69 -20 -132q-19 -63 -59 -116l204 -205l-94 -92l-203 205q-59 -43 -118 -62q-63 -20 -131 -20q-72 0 -135 21q-61 19 -117 61
l-203 -205l-92 92l203 205q-40 52 -60 115.5t-20 132.5q0 67 20 132q20 62 60 116l-203 204zM913 885q0 120 -85 205q-86 86 -205 86t-205 -86t-86 -205q0 -120 84.5 -204.5t206.5 -84.5q121 0 205.5 84.5t84.5 204.5z" />
    <glyph glyph-name="brokenbar" unicode="&#xa6;" horiz-adv-x="1024" 
d="M424 1565h178v-2048h-178v2048z" />
    <glyph glyph-name="section" unicode="&#xa7;" horiz-adv-x="819" 
d="M463 864l143 -149q70 -73 105 -146q34 -71 34 -147q0 -105 -62 -173t-167 -77q77 -80 116 -153q36 -72 36 -144q0 -114 -80 -185t-211 -71q-110 0 -178 61q-35 30 -52.5 69t-17.5 85q0 62 31 99q30 38 78 38q39 0 66 -32q26 -34 26 -82q0 -40 -25.5 -74.5t-25.5 -46.5
q0 -26 28 -44q29 -18 72 -18q66 0 103 39q38 38 38 103q0 85 -153 250l-9 8l-143 155q-75 79 -108 148.5t-33 142.5q0 104 64.5 174.5t164.5 75.5q-80 87 -115 156q-34 67 -34 139q0 122 72 192q70 70 196 70q106 0 173 -60t67 -155q0 -62 -27 -97.5t-74 -35.5
q-43 0 -71.5 31t-28.5 75q0 34 25.5 71.5t25.5 49.5q0 27 -27 48q-29 20 -65 20q-54 0 -88.5 -37.5t-34.5 -91.5q0 -57 30 -113q31 -57 136 -168zM313 717q-44 0 -75 -37t-31 -90q0 -48 27 -98q24 -47 85 -115q89 -96 122 -121q35 -27 61 -27q47 0 78 37q32 38 32 90
q0 48 -29 104q-27 52 -89 122q-72 80 -112 110q-35 25 -69 25z" />
    <glyph glyph-name="guilsinglright" unicode="&#xa8;" horiz-adv-x="995" 
d="M903 1255v-211q0 -40 -7.5 -50.5t-25.5 -10.5q-23 0 -61 68q-21 35 -37 59q-25 40 -70.5 60t-107.5 20q-78 0 -110.5 -25t-32.5 -88v-293q0 -29 19 -39q20 -12 67 -12q71 0 104 10t47 33q18 31 37 84q17 53 43 53q15 0 25 -13t10 -34v0l-2 -24q-6 -70 -6 -135
q0 -33 2 -131l2 -91v0q0 -23 -8.5 -34t-26.5 -11q-16 0 -27 12q-10 10 -24 50q-6 14 -8 22l-9 21q-25 58 -56 77t-91 19h-31q-5 0 -11 -0.5t-9 -1.5l-23 -4q-13 -1 -18 -9q-6 -7 -6 -20v-299v-22q0 -131 34 -168q35 -39 121 -39q60 0 113.5 26t87.5 70q29 38 61 103
q30 63 56 63q17 0 28 -17t11 -47q-4 -18 -9 -51l-24 -172q-6 -38 -19 -52.5t-39 -14.5q-13 0 -49 4q-91 10 -218 16q-128 6 -228 6q-128 0 -271 -14q-23 -4 -32 -4q-21 0 -31 13q-12 12 -12 32q0 30 59 41h4h4q47 8 64 29q16 19 16 69v928q0 46 -15 67.5t-52 28.5
q-3 0 -6.5 1t-7.5 2t-9 1q-59 11 -59 41q0 20 12 32q13 11 33 11v0l20 -2q140 -12 309 -12q99 0 175 4q98 3 186 10q5 1 15 1q9 0 20 1l53 2v0q32 0 41.5 -7t9.5 -32z" />
    <glyph glyph-name="copyright" unicode="&#xa9;" horiz-adv-x="1683" 
d="M844 1327q133 0 258.5 -52t220.5 -147q96 -96 148 -222q53 -129 53 -261q0 -137 -52 -260q-54 -128 -149.5 -223.5t-220.5 -148.5q-123 -52 -260 -52q-138 0 -260 51.5t-222 149.5q-95 97 -148 222q-52 123 -52 261q0 283 201 482q202 200 483 200zM1432 645
q0 243 -173 418q-172 174 -415 174t-416.5 -174t-173.5 -418q0 -248 172 -420q171 -174 416 -174q246 0 418 175t172 419zM1108 1042h39l2 -303h-43q-30 129 -96 193q-67 65 -164 65q-109 0 -165 -89t-56 -261q0 -176 61 -265q61 -91 178 -91q76 0 143 42q67 43 119 124
l39 -27q-61 -102 -141 -151q-83 -50 -186 -50q-171 0 -285.5 116.5t-114.5 289.5q0 175 115 293q114 119 281 119q76 0 144 -31q66 -31 73 -31q25 0 38 13t19 44z" />
    <glyph glyph-name="guillemotleft" unicode="&#xab;" horiz-adv-x="700" 
d="M358 717l-116 -262l116 -262q8 -17 8 -19q3 -9 3 -14q0 -8 -5 -15q-4 -6 -12 -6q-16 0 -59 58q-44 55 -72 86q-45 50 -106 101q-64 52 -64 71q0 17 58 66q53 46 94 87q41 42 87 102q47 60 62 60q8 0 12.5 -5t4.5 -15q0 -6 -3 -15q-2 -6 -8 -18zM647 717l-119 -262
l119 -262q4 -9 6 -17q2 -10 2 -16q0 -10 -4 -15.5t-12 -5.5q-16 0 -57 54q-44 55 -72 86q-40 45 -108 104q-64 55 -64 72t58 66q59 48 96 87q38 43 85 102.5t62 59.5q7 0 11.5 -5t4.5 -15q0 -7 -2 -17q-2 -9 -6 -16z" />
    <glyph glyph-name="logicalnot" unicode="&#xac;" horiz-adv-x="1280" 
d="M90 895h1100v-502h-166v336h-934v166z" />
    <glyph glyph-name="softhyphen" unicode="&#xad;" horiz-adv-x="1024" 
d="M0 -311h1024v-172h-1024v172z" />
    <glyph glyph-name="registered" unicode="&#xae;" horiz-adv-x="1683" 
d="M844 1327q136 0 264.5 -54t222.5 -151q92 -95 143 -222q50 -129 50 -265q0 -116 -43 -227q-44 -115 -121 -207q-101 -119 -234 -179q-132 -61 -297 -61q-107 0 -218 41q-113 42 -199 113q-123 102 -187 237q-65 138 -65 293q0 283 201 482q202 200 483 200zM1432 645
q0 243 -173 418q-172 174 -415 174q-244 0 -417 -173q-173 -175 -173 -419q0 -248 172 -420q171 -174 416 -174t417 175q173 176 173 419zM487 1038h377q138 0 220 -52q83 -53 83 -134q0 -80 -61 -125q-62 -47 -205 -72q90 -23 138 -68q49 -46 67 -122q3 -11 8 -53v-6
q4 -53 17 -70q11 -17 34 -17q26 0 41 27t15 74v22h47v-22q0 -79 -41 -123q-42 -43 -119 -43q-44 0 -76 15q-31 14 -51 42q-23 37 -26 106q-3 73 -7 87q-15 68 -57 103q-41 34 -113 34h-24v-231q0 -47 21.5 -66t80.5 -27v-45h-369v45q62 4 85.5 24.5t23.5 68.5v491
q0 48 -22.5 67t-86.5 23v47zM754 930v-246h39q104 0 156 40t52 120q0 65 -44 109q-45 42 -115 42q-44 0 -66 -16t-22 -49z" />
    <glyph glyph-name="integral" unicode="&#xaf;" horiz-adv-x="629" 
d="M451 1108v-932q0 -45 15.5 -67.5t51.5 -28.5q4 0 9 -0.5t8 -1.5q49 -9 49 -37q0 -24 -10 -35.5t-29 -11.5v0l-27 2q-106 14 -203 14q-96 0 -202 -14l-27 -2v0q-17 0 -28 12q-11 13 -11 33q0 31 51 41h4h4q43 7 58 29q14 20 14 69v928q0 44 -14 67q-13 21 -47 29
q-1 1 -2 1q-2 0 -5 1h-10q-36 8 -44 16q-9 9 -9 27q0 19 11 32q11 11 28 11v0l25 -2q102 -12 204 -12t205 12l25 2v0q18 0 28.5 -11t10.5 -34q0 -18 -9 -26q-8 -7 -45 -13q-45 -6 -62 -27.5t-17 -70.5z" />
    <glyph glyph-name="degree" unicode="&#xb0;" horiz-adv-x="674" 
d="M338 1460q124 0 209 -87q86 -88 86 -210q0 -121 -87 -208t-210 -87q-122 0 -208 86q-85 85 -85 209q0 125 86 211t209 86zM522 1165q0 76 -53.5 130.5t-130.5 54.5t-131.5 -54t-54.5 -131q0 -76 54.5 -131t131.5 -55t130.5 55t53.5 131z" />
    <glyph glyph-name="plusminus" unicode="&#xb1;" horiz-adv-x="1280" 
d="M90 262h1100v-166h-1100v166zM555 1194h170v-287h465v-166h-465v-286h-170v286h-465v166h465v287z" />
    <glyph glyph-name="germandbls" unicode="&#xb2;" horiz-adv-x="629" 
d="M451 1108v-932q0 -45 15.5 -67.5t51.5 -28.5q4 0 9 -0.5t8 -1.5q49 -9 49 -37q0 -24 -10 -35.5t-29 -11.5v0l-27 2q-106 14 -203 14q-96 0 -202 -14l-27 -2v0q-17 0 -28 12q-11 13 -11 33q0 31 51 41h4h4q43 7 58 29q14 20 14 69v928q0 44 -14 67q-13 21 -47 29
q-1 1 -2 1q-2 0 -5 1h-10q-36 8 -44 16q-9 9 -9 27q0 19 11 32q11 11 28 11v0l25 -2q102 -12 204 -12t205 12l25 2v0q18 0 28.5 -11t10.5 -34q0 -18 -9 -26q-8 -7 -45 -13q-45 -6 -62 -27.5t-17 -70.5zM314 1699q49 0 84 -35q35 -37 35 -85q0 -54 -33.5 -87.5t-85.5 -33.5
q-51 0 -86 35t-35 86q0 44 35 81q36 39 86 39z" />
    <glyph glyph-name="threesuperior" unicode="&#xb3;" horiz-adv-x="526" 
d="M272 1333q60 0 104 -44q42 -45 42 -111q0 -67 -42 -111.5t-104 -44.5q-60 0 -102.5 44.5t-42.5 111.5q0 66 43 110q42 45 102 45zM393 891v-696q0 -49 8 -73t27 -34q15 -7 45 -12h4q31 -3 40 -12t9 -29t-8 -30q-9 -9 -29 -9v0l-65.5 8t-122.5 8q-121 0 -235 -12l-23 -2v0
q-14 0 -21.5 10t-7.5 27q0 19 9.5 28.5t39.5 12.5q6 1 23 4l12 4q23 10 33 31q8 21 8 80v391q0 57 -6 74.5t-22 27.5q-5 3 -15.5 7t-25.5 5q-1 1 -2 1t-2 -1q-39 8 -39 35q0 19 9.5 28.5t49.5 20.5q8 3 22.5 7.5t20.5 6.5q20 6 39 15q72 33 138 85q62 50 67 50q12 0 16 -13
q4 -12 4 -44z" />
    <glyph glyph-name="acute.0" unicode="&#xb4;" horiz-adv-x="481" 
d="M229 1327q70 0 116 -58t46 -147q0 -111 -82 -220t-133 -109q-13 0 -21 8t-8 22q0 18 64.5 82.5t64.5 118.5q0 29 -55 45q-21 6 -28 10q-37 17 -54 45q-18 29 -18 74q0 54 31.5 91.5t76.5 37.5z" />
    <glyph glyph-name="paragraph" unicode="&#xb6;" horiz-adv-x="1024" 
d="M969 1290v-98h-117v-1192h-129v1192h-168v-1192h-131v594q-168 6 -268.5 101.5t-100.5 244.5q0 156 108 253q106 97 283 97h523z" />
    <glyph glyph-name="bullet" unicode="&#xb7;" horiz-adv-x="1208" 
d="M307 762q0 124 87 209q88 86 210 86q121 0 209 -86q86 -88 86 -209q0 -122 -87.5 -209.5t-209.5 -87.5q-123 0 -209 87q-86 88 -86 210z" />
    <glyph glyph-name="fi" unicode="&#xb8;" horiz-adv-x="885" 
d="M348 639h107q83 0 119 23.5t36 76.5q0 61 -33 98t-85 37q-66 0 -109 -49q-46 -50 -53 -133l-4 -35v-4q0 -7 6 -10q4 -4 16 -4zM762 557h-416q-17 0 -25 -8t-8 -29v-53q0 -159 77.5 -260t199.5 -101q76 0 140.5 52.5t72.5 52.5q13 0 22 -10t9 -27q0 -56 -115 -134.5
t-248 -78.5q-188 0 -306 139q-120 138 -120 355q0 221 123.5 357t323.5 136q149 0 247 -95q97 -94 97 -235q0 -34 -16.5 -47.5t-57.5 -13.5z" />
    <glyph glyph-name="guilsinglleft" unicode="&#xb9;" horiz-adv-x="2120" 
d="M1036 991v-952q0 -47 -13.5 -72.5t-39.5 -25.5q-39 0 -88 79l-2 5l-612 968q-3 4 -9 10q-4 3 -10 3q-3 0 -4 -7q-2 -10 -2 -22v-680q0 -107 13 -149q12 -45 42 -58q20 -9 69 -14q46 -4 46 -35q0 -21 -14 -33q-13 -12 -39 -12q-9 0 -62 6q-52 6 -94 6q-43 0 -90 -6
q-46 -6 -53 -6q-21 0 -33 12t-12 33q0 30 41 35q29 4 49 12q31 10 43 54t12 155v743q0 87 -9 118q-11 32 -34 42q-15 7 -41 8q-47 3 -47 37q0 20 11 32.5t28 12.5v0l14 -2q83 -6 174 -6q39 0 58 1q27 2 51 3h24q23 0 33 -6q9 -5 29 -33l453 -702q4 -7 11 -14q5 -5 9 -5
q7 0 11 9q5 8 5 20v436q0 101 -12 146q-14 46 -45 59q-20 9 -63 14q-50 6 -50 37q0 22 14 33.5t38 11.5q22 0 47 -4q4 -1 8 -1q3 0 4 -1q2 0 4 -2q22 -2 23 -2h8h63h64h8l14 2l8 2v0l9 2q21 4 41 4t32.5 -12t12.5 -33q0 -27 -41 -35q-29 -4 -49 -12q-31 -10 -43 -53
q-13 -42 -13 -156z" />
    <glyph glyph-name="guillemotright" unicode="&#xbb;" horiz-adv-x="700" 
d="M53 193l117 262l-117 262q-6 12 -7 18q-3 9 -3 15q0 8 5 15q5 5 11 5q18 0 60 -55q39 -51 69 -84q43 -47 109 -104q63 -55 63 -72q0 -18 -57 -66.5t-94 -87.5q-40 -43 -87 -102q-46 -60 -63 -60q-6 0 -11 5.5t-5 15.5q0 5 3 14q1 4 7 19zM340 193l119 262l-119 262
q-6 14 -7 20q-3 8 -3 13q0 7 5 13.5t13 6.5q18 0 60 -55q39 -51 69 -84q41 -46 108 -103q64 -55 64 -73t-58 -66q-56 -47 -95 -88q-43 -44 -86 -102q-45 -60 -62 -60q-6 0 -12 7q-6 8 -6 16l2 10q1 3 8 21z" />
    <glyph glyph-name="divide" unicode="&#xbc;" horiz-adv-x="1280" 
d="M639 369q57 0 97 -40t40 -98q0 -55 -40 -95t-97 -40q-58 0 -96.5 39t-38.5 96q0 58 39.5 98t95.5 40zM1190 561h-1100v166h1100v-166zM639 1194q57 0 97 -40t40 -97q0 -56 -40.5 -96.5t-96.5 -40.5q-57 0 -96 40q-39 41 -39 97q0 57 40 97t95 40z" />
    <glyph glyph-name="dieresis" unicode="&#xbd;" horiz-adv-x="1280" 
d="M1036 1159l119 -119l-395 -395l393 -395l-117 -119l-395 395l-395 -395l-121 119l397 397l-397 395l119 117l395 -395z" />
    <glyph glyph-name="ellipsis" unicode="&#xbe;" horiz-adv-x="2047" 
d="M342 270q54 0 92.5 -42.5t38.5 -102.5t-38.5 -101.5t-92.5 -41.5q-57 0 -95 41t-38 102t38 104q38 41 95 41zM1024 270q54 0 92.5 -42.5t38.5 -102.5t-38.5 -101.5t-92.5 -41.5q-57 0 -95 41t-38 102t38 104q38 41 95 41zM1708 270q54 0 92.5 -42.5t38.5 -102.5
t-38.5 -101.5t-92.5 -41.5q-57 0 -95 41t-38 102t38 104q38 41 95 41z" />
    <glyph glyph-name="ordfeminine" unicode="&#xbf;" horiz-adv-x="526" 
d="M393 891v-696q0 -49 8 -73t27 -34q15 -7 45 -12h4q31 -3 40 -12t9 -29t-8 -30q-9 -9 -29 -9v0l-65.5 8t-122.5 8q-121 0 -235 -12l-23 -2v0q-14 0 -21.5 10t-7.5 27q0 19 9.5 28.5t39.5 12.5q6 1 23 4l12 4q23 10 33 31q8 21 8 80v391q0 57 -6 74.5t-22 27.5
q-5 3 -15.5 7t-25.5 5q-1 1 -2 1t-2 -1q-39 8 -39 35q0 19 9.5 28.5t49.5 20.5q8 3 22.5 7.5t20.5 6.5q20 6 39 15q72 33 138 85q62 50 67 50q12 0 16 -13q4 -12 4 -44zM415 1369q49 0 84 -35q35 -37 35 -85q0 -52 -33 -87q-34 -34 -86 -34q-51 0 -86 35t-35 86
q0 47 36.5 83.5t84.5 36.5zM75 1369q49 0 84 -35q35 -37 35 -85q0 -52 -33 -87q-34 -34 -86 -34q-56 0 -91 38q-30 32 -30 83q0 48 39 85q35 35 82 35z" />
    <glyph glyph-name="Adieresis" unicode="&#xc0;" horiz-adv-x="1034" 
d="M592 1245l326 -989q23 -73 45 -110.5t51 -51.5q8 -6 15 -7q8 -3 20 -3h2q49 -16 49 -49q0 -20 -12.5 -28.5t-43.5 -8.5q-8 0 -74.5 7t-138.5 7q-57 0 -137 -9q-79 -9 -98 -9q-22 0 -35 11q-12 11 -12 30q0 20 11 31t44 18q31 7 43 19q10 10 10 30q0 11 -1 17t-5 20
l-69 227q-9 28 -35 37q-29 8 -148 8q-109 0 -135 -8q-25 -9 -35 -49q-14 -48 -29 -115q-10 -44 -10 -71q0 -43 15.5 -63.5t56.5 -37.5q4 -1 9 -3t7 -3q11 -4 23 -8q53 -17 53 -49q0 -22 -10 -31.5t-33 -9.5v0l-14 2q-82 12 -170 12q-63 0 -125 -12l-14 -2v0q-20 0 -30 10
q-11 11 -11 29q0 19 8.5 30.5t36.5 20.5q3 1 11 5q3 2 7 3.5t8 3.5q23 11 40 38q19 31 34 79l340 1034q17 49 32 64q16 16 52 16q32 0 45 -11q11 -10 31 -71zM524 573l-108 326q-3 12 -6 17q-4 6 -7 6t-7 -7q-4 -6 -7 -18l-100 -334l-2 -4l-2 -10q0 -5 5 -7.5t13 -2.5h203
q11 0 15 3q5 3 5 9v13q0 3 -0.5 5.5t-1.5 3.5z" />
    <glyph glyph-name="Adieresis" unicode="&#x410;" horiz-adv-x="1034" 
d="M592 1245l326 -989q23 -73 45 -110.5t51 -51.5q8 -6 15 -7q8 -3 20 -3h2q49 -16 49 -49q0 -20 -12.5 -28.5t-43.5 -8.5q-8 0 -74.5 7t-138.5 7q-57 0 -137 -9q-79 -9 -98 -9q-22 0 -35 11q-12 11 -12 30q0 20 11 31t44 18q31 7 43 19q10 10 10 30q0 11 -1 17t-5 20
l-69 227q-9 28 -35 37q-29 8 -148 8q-109 0 -135 -8q-25 -9 -35 -49q-14 -48 -29 -115q-10 -44 -10 -71q0 -43 15.5 -63.5t56.5 -37.5q4 -1 9 -3t7 -3q11 -4 23 -8q53 -17 53 -49q0 -22 -10 -31.5t-33 -9.5v0l-14 2q-82 12 -170 12q-63 0 -125 -12l-14 -2v0q-20 0 -30 10
q-11 11 -11 29q0 19 8.5 30.5t36.5 20.5q3 1 11 5q3 2 7 3.5t8 3.5q23 11 40 38q19 31 34 79l340 1034q17 49 32 64q16 16 52 16q32 0 45 -11q11 -10 31 -71zM524 573l-108 326q-3 12 -6 17q-4 6 -7 6t-7 -7q-4 -6 -7 -18l-100 -334l-2 -4l-2 -10q0 -5 5 -7.5t13 -2.5h203
q11 0 15 3q5 3 5 9v13q0 3 -0.5 5.5t-1.5 3.5z" />
    <glyph glyph-name="Aring" unicode="&#xc1;" horiz-adv-x="1106" 
d="M442 1094v-287q0 -43 8 -51t110 -8q114 0 205.5 -25.5t154.5 -75t96 -120t33 -159.5q0 -196 -104 -291t-304 -95q-78 0 -198 12t-162 12q-67 0 -135 -6q-19 -1 -36 -2.5t-23 -2.5t-9 -1q-17 0 -28 12q-11 13 -11 33q0 31 57 41h2h2q47 9 62.5 29.5t15.5 68.5v928
q0 46 -15 67.5t-52 28.5q-3 0 -6.5 1t-7.5 2t-9 1q-59 11 -59 41q0 20 12 32q13 11 33 11v0l32 -2q110 -12 209 -12h189q95 0 205.5 9t126.5 9q28 0 37.5 -6.5t9.5 -32.5v-208v-21q0 -25 -6 -33q-8 -8 -23 -8q-24 0 -39 20t-31.5 58t-23.5 51q-24 42 -68 63q-43 21 -104 21
q-81 0 -113.5 -25t-32.5 -79zM442 543v-330q0 -80 30 -115t97 -35q91 0 145 77t54 204q0 149 -65 233q-66 85 -179 85q-48 0 -64 -22q-18 -22 -18 -97z" />
    <glyph glyph-name="Aring" unicode="&#x411;" horiz-adv-x="1106" 
d="M442 1094v-287q0 -43 8 -51t110 -8q114 0 205.5 -25.5t154.5 -75t96 -120t33 -159.5q0 -196 -104 -291t-304 -95q-78 0 -198 12t-162 12q-67 0 -135 -6q-19 -1 -36 -2.5t-23 -2.5t-9 -1q-17 0 -28 12q-11 13 -11 33q0 31 57 41h2h2q47 9 62.5 29.5t15.5 68.5v928
q0 46 -15 67.5t-52 28.5q-3 0 -6.5 1t-7.5 2t-9 1q-59 11 -59 41q0 20 12 32q13 11 33 11v0l32 -2q110 -12 209 -12h189q95 0 205.5 9t126.5 9q28 0 37.5 -6.5t9.5 -32.5v-208v-21q0 -25 -6 -33q-8 -8 -23 -8q-24 0 -39 20t-31.5 58t-23.5 51q-24 42 -68 63q-43 21 -104 21
q-81 0 -113.5 -25t-32.5 -79zM442 543v-330q0 -80 30 -115t97 -35q91 0 145 77t54 204q0 149 -65 233q-66 85 -179 85q-48 0 -64 -22q-18 -22 -18 -97z" />
    <glyph glyph-name="Ccedilla" unicode="&#xc2;" horiz-adv-x="1106" 
d="M442 1094v-287q0 -43 8 -51t42 -8q118 0 177.5 56.5t59.5 170.5q0 117 -50 182q-49 64 -142 64q-58 0 -76.5 -19t-18.5 -88v-20zM723 711q156 -17 241 -108.5t85 -246.5q0 -184 -104 -279t-304 -95q-78 0 -198 12t-162 12q-67 0 -135 -6q-19 -1 -36 -2.5t-23 -2.5t-9 -1
q-17 0 -28 12q-11 13 -11 33q0 31 57 41h2h2q47 9 62.5 29.5t15.5 68.5v848q0 86 -12.5 117t-44.5 31q-8 0 -30 -5q-19 -6 -28 -6q-12 0 -20 9q-8 10 -8 26q0 53 125.5 77.5t392.5 24.5q224 0 339 -80q114 -79 114 -237q0 -116 -71.5 -185t-211.5 -87zM442 543v-330
q0 -80 30 -115t97 -35q91 0 145 77t54 204q0 147 -65.5 232.5t-178.5 85.5q-48 0 -64 -22q-18 -22 -18 -97z" />
    <glyph glyph-name="Ccedilla" unicode="&#x412;" horiz-adv-x="1106" 
d="M442 1094v-287q0 -43 8 -51t42 -8q118 0 177.5 56.5t59.5 170.5q0 117 -50 182q-49 64 -142 64q-58 0 -76.5 -19t-18.5 -88v-20zM723 711q156 -17 241 -108.5t85 -246.5q0 -184 -104 -279t-304 -95q-78 0 -198 12t-162 12q-67 0 -135 -6q-19 -1 -36 -2.5t-23 -2.5t-9 -1
q-17 0 -28 12q-11 13 -11 33q0 31 57 41h2h2q47 9 62.5 29.5t15.5 68.5v848q0 86 -12.5 117t-44.5 31q-8 0 -30 -5q-19 -6 -28 -6q-12 0 -20 9q-8 10 -8 26q0 53 125.5 77.5t392.5 24.5q224 0 339 -80q114 -79 114 -237q0 -116 -71.5 -185t-211.5 -87zM442 543v-330
q0 -80 30 -115t97 -35q91 0 145 77t54 204q0 147 -65.5 232.5t-178.5 85.5q-48 0 -64 -22q-18 -22 -18 -97z" />
    <glyph glyph-name="Eacute" unicode="&#xc3;" horiz-adv-x="915" 
d="M451 1081v-905q0 -48 19 -68q19 -22 67 -28q3 0 9.5 -1t16.5 -3q62 -6 62 -37q0 -23 -13 -33q-13 -12 -39 -12q-9 0 -95 9q-85 9 -163 9q-76 0 -157 -9t-84 -9q-21 0 -31 13q-12 12 -12 32q0 30 59 41h4h4q47 8 64 29q16 19 16 69v928q0 46 -15 67.5t-52 28.5
q-3 0 -6.5 1t-7.5 2t-9 1q-59 11 -59 41q0 20 12 32q13 11 33 11v0l32 -2q110 -12 209 -12h189q95 0 205.5 9t126.5 9q28 0 37.5 -6.5t9.5 -32.5v-208v-21q0 -25 -6 -33q-8 -8 -23 -8q-26 0 -66 76q-7 14 -28 53q-26 43 -68 63q-43 21 -104 21q-73 0 -105 -26t-32 -91z" />
    <glyph glyph-name="Eacute" unicode="&#x413;" horiz-adv-x="915" 
d="M451 1081v-905q0 -48 19 -68q19 -22 67 -28q3 0 9.5 -1t16.5 -3q62 -6 62 -37q0 -23 -13 -33q-13 -12 -39 -12q-9 0 -95 9q-85 9 -163 9q-76 0 -157 -9t-84 -9q-21 0 -31 13q-12 12 -12 32q0 30 59 41h4h4q47 8 64 29q16 19 16 69v928q0 46 -15 67.5t-52 28.5
q-3 0 -6.5 1t-7.5 2t-9 1q-59 11 -59 41q0 20 12 32q13 11 33 11v0l32 -2q110 -12 209 -12h189q95 0 205.5 9t126.5 9q28 0 37.5 -6.5t9.5 -32.5v-208v-21q0 -25 -6 -33q-8 -8 -23 -8q-26 0 -66 76q-7 14 -28 53q-26 43 -68 63q-43 21 -104 21q-73 0 -105 -26t-32 -91z" />
    <glyph glyph-name="Ntilde" unicode="&#xc4;" horiz-adv-x="1236" 
d="M332 1044q0 66 -21.5 101t-55 49t-57 23.5t-23.5 29.5q0 19 11 32q11 11 28 11v0l27 -2q102 -12 202 -12h478q105 0 205 12l24 2v0q19 0 29 -12q10 -11 10 -33q0 -31 -55 -41h-4q-43 -7 -57 -29q-15 -21 -15 -69v-928q0 -45 14 -67q10 -14 29.5 -25.5t38.5 -11.5
q28 0 37.5 -6.5t9.5 -32.5v-208v-21q0 -26 -6 -33q-8 -8 -23 -8q-28 0 -66 76q-43 87 -82 123t-116 36h-576q-77 0 -116 -36t-82 -123q-38 -76 -66 -76q-15 0 -23 8q-6 7 -6 33v21v208q0 28 9 33q19 10 45 24t55.5 40t53.5 64q51 84 84 243.5t46.5 321.5t13.5 283zM343 279
q-14 -62 -14 -106q0 -54 25 -74t78 -20l274 -1q42 0 63 27q17 22 17 71v932q0 47 -15 67q-21 29 -53 29h-212q-46 0 -66 -36t-20 -120q0 -136 -21.5 -374t-55.5 -395z" />
    <glyph glyph-name="Ntilde" unicode="&#x414;" horiz-adv-x="1236" 
d="M332 1044q0 66 -21.5 101t-55 49t-57 23.5t-23.5 29.5q0 19 11 32q11 11 28 11v0l27 -2q102 -12 202 -12h478q105 0 205 12l24 2v0q19 0 29 -12q10 -11 10 -33q0 -31 -55 -41h-4q-43 -7 -57 -29q-15 -21 -15 -69v-928q0 -45 14 -67q10 -14 29.5 -25.5t38.5 -11.5
q28 0 37.5 -6.5t9.5 -32.5v-208v-21q0 -26 -6 -33q-8 -8 -23 -8q-28 0 -66 76q-43 87 -82 123t-116 36h-576q-77 0 -116 -36t-82 -123q-38 -76 -66 -76q-15 0 -23 8q-6 7 -6 33v21v208q0 28 9 33q19 10 45 24t55.5 40t53.5 64q51 84 84 243.5t46.5 321.5t13.5 283zM343 279
q-14 -62 -14 -106q0 -54 25 -74t78 -20l274 -1q42 0 63 27q17 22 17 71v932q0 47 -15 67q-21 29 -53 29h-212q-46 0 -66 -36t-20 -120q0 -136 -21.5 -374t-55.5 -395z" />
    <glyph glyph-name="Odieresis" unicode="&#xc5;" horiz-adv-x="995" 
d="M903 1255v-211q0 -40 -7.5 -50.5t-25.5 -10.5q-23 0 -61 68q-21 35 -37 59q-25 40 -70.5 60t-107.5 20q-78 0 -110.5 -25t-32.5 -88v-293q0 -29 19 -39q20 -12 67 -12q71 0 104 10t47 33q18 31 37 84q17 53 43 53q15 0 25 -13t10 -34v0l-2 -24q-6 -70 -6 -135
q0 -33 2 -131l2 -91v0q0 -23 -8.5 -34t-26.5 -11q-16 0 -27 12q-10 10 -24 50q-6 14 -8 22l-9 21q-25 58 -56 77t-91 19h-31q-5 0 -11 -0.5t-9 -1.5l-23 -4q-13 -1 -18 -9q-6 -7 -6 -20v-299v-22q0 -131 34 -168q35 -39 121 -39q60 0 113.5 26t87.5 70q29 38 61 103
q30 63 56 63q17 0 28 -17t11 -47q-4 -18 -9 -51l-24 -172q-6 -38 -19 -52.5t-39 -14.5q-13 0 -49 4q-91 10 -218 16q-128 6 -228 6q-128 0 -271 -14q-23 -4 -32 -4q-21 0 -31 13q-12 12 -12 32q0 30 59 41h4h4q47 8 64 29q16 19 16 69v928q0 46 -15 67.5t-52 28.5
q-3 0 -6.5 1t-7.5 2t-9 1q-59 11 -59 41q0 20 12 32q13 11 33 11v0l20 -2q140 -12 309 -12q99 0 175 4q98 3 186 10q5 1 15 1q9 0 20 1l53 2v0q32 0 41.5 -7t9.5 -32z" />
    <glyph glyph-name="Odieresis" unicode="&#x415;" horiz-adv-x="995" 
d="M903 1255v-211q0 -40 -7.5 -50.5t-25.5 -10.5q-23 0 -61 68q-21 35 -37 59q-25 40 -70.5 60t-107.5 20q-78 0 -110.5 -25t-32.5 -88v-293q0 -29 19 -39q20 -12 67 -12q71 0 104 10t47 33q18 31 37 84q17 53 43 53q15 0 25 -13t10 -34v0l-2 -24q-6 -70 -6 -135
q0 -33 2 -131l2 -91v0q0 -23 -8.5 -34t-26.5 -11q-16 0 -27 12q-10 10 -24 50q-6 14 -8 22l-9 21q-25 58 -56 77t-91 19h-31q-5 0 -11 -0.5t-9 -1.5l-23 -4q-13 -1 -18 -9q-6 -7 -6 -20v-299v-22q0 -131 34 -168q35 -39 121 -39q60 0 113.5 26t87.5 70q29 38 61 103
q30 63 56 63q17 0 28 -17t11 -47q-4 -18 -9 -51l-24 -172q-6 -38 -19 -52.5t-39 -14.5q-13 0 -49 4q-91 10 -218 16q-128 6 -228 6q-128 0 -271 -14q-23 -4 -32 -4q-21 0 -31 13q-12 12 -12 32q0 30 59 41h4h4q47 8 64 29q16 19 16 69v928q0 46 -15 67.5t-52 28.5
q-3 0 -6.5 1t-7.5 2t-9 1q-59 11 -59 41q0 20 12 32q13 11 33 11v0l20 -2q140 -12 309 -12q99 0 175 4q98 3 186 10q5 1 15 1q9 0 20 1l53 2v0q32 0 41.5 -7t9.5 -32z" />
    <glyph glyph-name="Udieresis" unicode="&#xc6;" horiz-adv-x="1845" 
d="M946 10q-101 0 -197 -14l-19 -2h1q-17 0 -26 12.5t-9 34.5q0 28 43 37q3 1 8 1.5t6 0.5q31 6 44 28t13 68v399q0 8 -5 16q-4 7 -11 7q-1 0 -6.5 -6.5t-11.5 -18.5l-181 -288q-41 -66 -65 -113q-21 -43 -21 -61q0 -23 41 -32q41 -11 41 -42q0 -17 -11 -28t-26 -11
q-7 0 -24 4q-107 14 -201 14q-62 0 -142 -8t-85 -8q-22 0 -30 7q-9 8 -9 22q0 37 45 49q11 3 20 6q38 14 80 86q5 6 7.5 10.5t3.5 5.5l364 605q2 4 4 12t2 12q0 6 -3 12q-2 7 -9 17l-100 135q-59 80 -127 139q-66 57 -117 74q-25 7 -47 10q-68 14 -68 51q0 18 10.5 25.5
t38.5 7.5q21 0 93 -5t100 -5q57 0 110 7t64 7q20 0 31 -11q12 -10 12 -30q0 -30 -55 -40q-54 -10 -54 -50q0 -14 7 -28q7 -13 24 -37l285 -367q3 -6 10 -10q4 -4 8 -4q5 0 6 6q2 8 2 20v369q0 49 -17 70.5t-62 27.5q-37 6 -45 13q-9 8 -9 26q0 23 10 34q11 11 29 11v0l25 -2
q104 -12 205 -12q106 0 209 12l25 2v0q18 0 28.5 -11t10.5 -34q0 -18 -9 -26q-8 -7 -45 -13q-45 -6 -62 -27.5t-17 -70.5v-369q0 -12 2 -20q2 -6 6 -6t8 4q7 4 10 10l285 367q17 24 24 37q7 14 7 28q0 40 -54.5 50t-54.5 40q0 20 12 30q11 11 31 11q11 0 64 -7t110 -7
q28 0 100 5t93 5q28 0 38 -7q11 -8 11 -26q0 -37 -68 -51q-22 -3 -47 -10q-51 -17 -117 -74q-68 -59 -127 -139l-100 -135q-7 -10 -9 -17q-3 -6 -3 -12q0 -4 2 -12t4 -12l364 -605q3 -4 5.5 -7t5.5 -9q42 -72 80 -86q9 -3 20 -6q45 -12 45 -49q0 -14 -9 -22q-8 -7 -30 -7
q-5 0 -85 8t-142 8q-94 0 -201 -14q-17 -4 -24 -4q-15 0 -26 11t-11 28q0 31 41 42q41 9 41 32q0 18 -21 61q-24 47 -65 113l-181 288q-6 12 -12 19q-4 6 -6 6q-7 0 -11.5 -7.5t-4.5 -15.5v-399q0 -46 13 -68t44 -28q3 0 7 -0.5t7 -1.5q43 -9 43 -37q0 -22 -9 -34.5
t-26 -12.5q-2 0 -6.5 1t-11.5 1q-41 7 -91.5 10.5t-109.5 3.5z" />
    <glyph glyph-name="Udieresis" unicode="&#x416;" horiz-adv-x="1845" 
d="M946 10q-101 0 -197 -14l-19 -2h1q-17 0 -26 12.5t-9 34.5q0 28 43 37q3 1 8 1.5t6 0.5q31 6 44 28t13 68v399q0 8 -5 16q-4 7 -11 7q-1 0 -6.5 -6.5t-11.5 -18.5l-181 -288q-41 -66 -65 -113q-21 -43 -21 -61q0 -23 41 -32q41 -11 41 -42q0 -17 -11 -28t-26 -11
q-7 0 -24 4q-107 14 -201 14q-62 0 -142 -8t-85 -8q-22 0 -30 7q-9 8 -9 22q0 37 45 49q11 3 20 6q38 14 80 86q5 6 7.5 10.5t3.5 5.5l364 605q2 4 4 12t2 12q0 6 -3 12q-2 7 -9 17l-100 135q-59 80 -127 139q-66 57 -117 74q-25 7 -47 10q-68 14 -68 51q0 18 10.5 25.5
t38.5 7.5q21 0 93 -5t100 -5q57 0 110 7t64 7q20 0 31 -11q12 -10 12 -30q0 -30 -55 -40q-54 -10 -54 -50q0 -14 7 -28q7 -13 24 -37l285 -367q3 -6 10 -10q4 -4 8 -4q5 0 6 6q2 8 2 20v369q0 49 -17 70.5t-62 27.5q-37 6 -45 13q-9 8 -9 26q0 23 10 34q11 11 29 11v0l25 -2
q104 -12 205 -12q106 0 209 12l25 2v0q18 0 28.5 -11t10.5 -34q0 -18 -9 -26q-8 -7 -45 -13q-45 -6 -62 -27.5t-17 -70.5v-369q0 -12 2 -20q2 -6 6 -6t8 4q7 4 10 10l285 367q17 24 24 37q7 14 7 28q0 40 -54.5 50t-54.5 40q0 20 12 30q11 11 31 11q11 0 64 -7t110 -7
q28 0 100 5t93 5q28 0 38 -7q11 -8 11 -26q0 -37 -68 -51q-22 -3 -47 -10q-51 -17 -117 -74q-68 -59 -127 -139l-100 -135q-7 -10 -9 -17q-3 -6 -3 -12q0 -4 2 -12t4 -12l364 -605q3 -4 5.5 -7t5.5 -9q42 -72 80 -86q9 -3 20 -6q45 -12 45 -49q0 -14 -9 -22q-8 -7 -30 -7
q-5 0 -85 8t-142 8q-94 0 -201 -14q-17 -4 -24 -4q-15 0 -26 11t-11 28q0 31 41 42q41 9 41 32q0 18 -21 61q-24 47 -65 113l-181 288q-6 12 -12 19q-4 6 -6 6q-7 0 -11.5 -7.5t-4.5 -15.5v-399q0 -46 13 -68t44 -28q3 0 7 -0.5t7 -1.5q43 -9 43 -37q0 -22 -9 -34.5
t-26 -12.5q-2 0 -6.5 1t-11.5 1q-41 7 -91.5 10.5t-109.5 3.5z" />
    <glyph glyph-name="aacute" unicode="&#xc7;" horiz-adv-x="1016" 
d="M438 -39q-113 0 -203 30q-88 30 -135 83q-15 16 -21 50q-5 35 -5 116q0 89 6 108t24 19q21 0 47 -68q17 -40 27 -66q40 -91 103 -139q65 -51 141 -51q74 0 129 40t86 115.5t31 173.5q0 96 -29 161.5t-84 97t-131 31.5q-28 0 -44.5 12.5t-16.5 28.5q0 18 16.5 31.5
t44.5 13.5q95 0 150 66.5t55 193.5q0 103 -54 169t-149 66q-69 0 -119.5 -31t-99.5 -114q-13 -22 -27 -49q-31 -64 -57 -64q-15 0 -23 11.5t-8 33.5q0 72 9 139q11 68 18 78q24 30 114 55q91 25 197 25q142 0 251.5 -41t167 -114.5t57.5 -167.5q0 -69 -31 -130.5t-95 -104
t-157 -58.5q87 -9 159.5 -44.5t119.5 -112t47 -198.5q0 -117 -70.5 -207.5t-189 -139t-251.5 -48.5z" />
    <glyph glyph-name="aacute" unicode="&#x417;" horiz-adv-x="1016" 
d="M438 -39q-113 0 -203 30q-88 30 -135 83q-15 16 -21 50q-5 35 -5 116q0 89 6 108t24 19q21 0 47 -68q17 -40 27 -66q40 -91 103 -139q65 -51 141 -51q74 0 129 40t86 115.5t31 173.5q0 96 -29 161.5t-84 97t-131 31.5q-28 0 -44.5 12.5t-16.5 28.5q0 18 16.5 31.5
t44.5 13.5q95 0 150 66.5t55 193.5q0 103 -54 169t-149 66q-69 0 -119.5 -31t-99.5 -114q-13 -22 -27 -49q-31 -64 -57 -64q-15 0 -23 11.5t-8 33.5q0 72 9 139q11 68 18 78q24 30 114 55q91 25 197 25q142 0 251.5 -41t167 -114.5t57.5 -167.5q0 -69 -31 -130.5t-95 -104
t-157 -58.5q87 -9 159.5 -44.5t119.5 -112t47 -198.5q0 -117 -70.5 -207.5t-189 -139t-251.5 -48.5z" />
    <glyph glyph-name="agrave" unicode="&#xc8;" horiz-adv-x="1292" 
d="M842 912l-391 -680v-56q0 -45 15.5 -67.5t51.5 -28.5q2 -1 7 -1q3 -1 10 -1h2q47 -9 47 -37q0 -24 -10 -35.5t-29 -11.5v0l-27 2q-106 14 -203 14q-96 0 -202 -14l-27 -2v0q-17 0 -28 12q-11 13 -11 33q0 31 51 41h4h4q43 7 58 29q14 20 14 69v928q0 46 -13 68
q-13 20 -46 28q-5 0 -8 1l-4 2t-5 1q-36 6 -45 15q-10 7 -10 26t11 32q11 11 28 11v0l27 -2q102 -12 202 -12q102 0 205 12l25 2v0q18 0 28.5 -11t10.5 -34q0 -18 -9 -26q-8 -7 -45 -13q-46 -7 -63 -27q-16 -20 -16 -73v-746l389 688l2 60v4q0 39 -15 63q-16 22 -53 29
q-1 1 -2.5 1.5t-3.5 0.5h-10h-2q-47 9 -47 39q0 20 11 32.5t28 12.5v0l24 -2q101 -12 205 -12q105 0 205 12l24 2v0q19 0 29 -12q10 -11 10 -33q0 -31 -55 -41h-4q-43 -7 -57 -29q-15 -21 -15 -69v-928q0 -45 14 -67q13 -21 46 -29q2 0 8 -1.5t12 -2.5q51 -10 51 -39
q0 -22 -10 -33.5t-29 -11.5v0l-26 2q-107 14 -203 14q-97 0 -203 -14l-26 -2v0q-18 0 -28 13q-11 14 -11 34q0 16 7.5 23.5t45.5 13.5q47 6 63 27q17 22 17 71v736z" />
    <glyph glyph-name="agrave" unicode="&#x418;" horiz-adv-x="1292" 
d="M842 912l-391 -680v-56q0 -45 15.5 -67.5t51.5 -28.5q2 -1 7 -1q3 -1 10 -1h2q47 -9 47 -37q0 -24 -10 -35.5t-29 -11.5v0l-27 2q-106 14 -203 14q-96 0 -202 -14l-27 -2v0q-17 0 -28 12q-11 13 -11 33q0 31 51 41h4h4q43 7 58 29q14 20 14 69v928q0 46 -13 68
q-13 20 -46 28q-5 0 -8 1l-4 2t-5 1q-36 6 -45 15q-10 7 -10 26t11 32q11 11 28 11v0l27 -2q102 -12 202 -12q102 0 205 12l25 2v0q18 0 28.5 -11t10.5 -34q0 -18 -9 -26q-8 -7 -45 -13q-46 -7 -63 -27q-16 -20 -16 -73v-746l389 688l2 60v4q0 39 -15 63q-16 22 -53 29
q-1 1 -2.5 1.5t-3.5 0.5h-10h-2q-47 9 -47 39q0 20 11 32.5t28 12.5v0l24 -2q101 -12 205 -12q105 0 205 12l24 2v0q19 0 29 -12q10 -11 10 -33q0 -31 -55 -41h-4q-43 -7 -57 -29q-15 -21 -15 -69v-928q0 -45 14 -67q13 -21 46 -29q2 0 8 -1.5t12 -2.5q51 -10 51 -39
q0 -22 -10 -33.5t-29 -11.5v0l-26 2q-107 14 -203 14q-97 0 -203 -14l-26 -2v0q-18 0 -28 13q-11 14 -11 34q0 16 7.5 23.5t45.5 13.5q47 6 63 27q17 22 17 71v736z" />
    <glyph glyph-name="acircumflex" unicode="&#xc9;" horiz-adv-x="1292" 
d="M634 1455q-66 0 -138 19.5t-124.5 66t-52.5 118.5q0 39 33 71t80 32t82.5 -30t35.5 -78q0 -53 -36 -81q-10 -10 -10 -19q0 -20 40 -36t90 -16q51 0 90 16.5t39 35.5q-2 10 -12 19q-35 27 -35 81q0 48 35.5 78t81.5 30q48 0 81 -31.5t33 -71.5q0 -99 -103 -151.5
t-210 -52.5zM842 912l-391 -680v-56q0 -45 15.5 -67.5t51.5 -28.5q2 -1 7 -1q3 -1 10 -1h2q47 -9 47 -37q0 -24 -10 -35.5t-29 -11.5v0l-27 2q-106 14 -203 14q-96 0 -202 -14l-27 -2v0q-17 0 -28 12q-11 13 -11 33q0 31 51 41h4h4q43 7 58 29q14 20 14 69v928q0 46 -13 68
q-13 20 -46 28q-5 0 -8 1l-4 2t-5 1q-36 6 -45 15q-10 7 -10 26t11 32q11 11 28 11v0l27 -2q102 -12 202 -12q102 0 205 12l25 2v0q18 0 28.5 -11t10.5 -34q0 -18 -9 -26q-8 -7 -45 -13q-46 -7 -63 -27q-16 -20 -16 -73v-746l389 688l2 60v4q0 39 -15 63q-16 22 -53 29
q-1 1 -2.5 1.5t-3.5 0.5h-10h-2q-47 9 -47 39q0 20 11 32.5t28 12.5v0l24 -2q101 -12 205 -12q105 0 205 12l24 2v0q19 0 29 -12q10 -11 10 -33q0 -31 -55 -41h-4q-43 -7 -57 -29q-15 -21 -15 -69v-928q0 -45 14 -67q13 -21 46 -29q2 0 8 -1.5t12 -2.5q51 -10 51 -39
q0 -22 -10 -33.5t-29 -11.5v0l-26 2q-107 14 -203 14q-97 0 -203 -14l-26 -2v0q-18 0 -28 13q-11 14 -11 34q0 16 7.5 23.5t45.5 13.5q47 6 63 27q17 22 17 71v736z" />
    <glyph glyph-name="acircumflex" unicode="&#x419;" horiz-adv-x="1292" 
d="M634 1455q-66 0 -138 19.5t-124.5 66t-52.5 118.5q0 39 33 71t80 32t82.5 -30t35.5 -78q0 -53 -36 -81q-10 -10 -10 -19q0 -20 40 -36t90 -16q51 0 90 16.5t39 35.5q-2 10 -12 19q-35 27 -35 81q0 48 35.5 78t81.5 30q48 0 81 -31.5t33 -71.5q0 -99 -103 -151.5
t-210 -52.5zM842 912l-391 -680v-56q0 -45 15.5 -67.5t51.5 -28.5q2 -1 7 -1q3 -1 10 -1h2q47 -9 47 -37q0 -24 -10 -35.5t-29 -11.5v0l-27 2q-106 14 -203 14q-96 0 -202 -14l-27 -2v0q-17 0 -28 12q-11 13 -11 33q0 31 51 41h4h4q43 7 58 29q14 20 14 69v928q0 46 -13 68
q-13 20 -46 28q-5 0 -8 1l-4 2t-5 1q-36 6 -45 15q-10 7 -10 26t11 32q11 11 28 11v0l27 -2q102 -12 202 -12q102 0 205 12l25 2v0q18 0 28.5 -11t10.5 -34q0 -18 -9 -26q-8 -7 -45 -13q-46 -7 -63 -27q-16 -20 -16 -73v-746l389 688l2 60v4q0 39 -15 63q-16 22 -53 29
q-1 1 -2.5 1.5t-3.5 0.5h-10h-2q-47 9 -47 39q0 20 11 32.5t28 12.5v0l24 -2q101 -12 205 -12q105 0 205 12l24 2v0q19 0 29 -12q10 -11 10 -33q0 -31 -55 -41h-4q-43 -7 -57 -29q-15 -21 -15 -69v-928q0 -45 14 -67q13 -21 46 -29q2 0 8 -1.5t12 -2.5q51 -10 51 -39
q0 -22 -10 -33.5t-29 -11.5v0l-26 2q-107 14 -203 14q-97 0 -203 -14l-26 -2v0q-18 0 -28 13q-11 14 -11 34q0 16 7.5 23.5t45.5 13.5q47 6 63 27q17 22 17 71v736z" />
    <glyph glyph-name="adieresis" unicode="&#xca;" horiz-adv-x="1202" 
d="M451 1108v-369q0 -12 2 -20q2 -6 6 -6t8 4q7 4 10 10l285 367q17 24 24 37q7 14 7 28q0 40 -54.5 50t-54.5 40q0 20 12 30q11 11 31 11q11 0 64 -7t110 -7q28 0 100 5t93 5q28 0 38 -7q11 -8 11 -26q0 -37 -68 -51q-22 -3 -47 -10q-51 -17 -117 -74q-68 -59 -127 -139
l-100 -135q-7 -10 -9 -17q-3 -6 -3 -12q0 -4 2 -12t4 -12l364 -605q3 -4 5.5 -7t5.5 -9q42 -72 80 -86q9 -3 20 -6q45 -12 45 -49q0 -14 -9 -22q-8 -7 -30 -7q-5 0 -85 8t-142 8q-94 0 -201 -14q-17 -4 -24 -4q-15 0 -26 11t-11 28q0 31 41 42q41 9 41 32q0 18 -21 61
q-24 47 -65 113l-181 288q-6 12 -12 19q-4 6 -6 6q-7 0 -11.5 -7.5t-4.5 -15.5v-399q0 -46 13 -68t44 -28q3 0 7 -0.5t7 -1.5q43 -9 43 -37q0 -22 -9 -34.5t-26 -12.5q-2 0 -6.5 1t-11.5 1q-96 14 -197 14q-96 0 -202 -14l-27 -2v0q-17 0 -28 12q-11 13 -11 33q0 31 51 41h4
h4q43 7 58 29q14 20 14 69v928q0 46 -13 68q-13 20 -46 28q-5 0 -8 1l-4 2t-5 1q-36 6 -45 15q-10 7 -10 26t11 32q11 11 28 11v0l27 -2q102 -12 202 -12q102 0 205 12l25 2v0q18 0 28.5 -11t10.5 -34q0 -18 -9 -26q-8 -7 -45 -13q-45 -6 -62 -27.5t-17 -70.5z" />
    <glyph glyph-name="adieresis" unicode="&#x41a;" horiz-adv-x="1202" 
d="M451 1108v-369q0 -12 2 -20q2 -6 6 -6t8 4q7 4 10 10l285 367q17 24 24 37q7 14 7 28q0 40 -54.5 50t-54.5 40q0 20 12 30q11 11 31 11q11 0 64 -7t110 -7q28 0 100 5t93 5q28 0 38 -7q11 -8 11 -26q0 -37 -68 -51q-22 -3 -47 -10q-51 -17 -117 -74q-68 -59 -127 -139
l-100 -135q-7 -10 -9 -17q-3 -6 -3 -12q0 -4 2 -12t4 -12l364 -605q3 -4 5.5 -7t5.5 -9q42 -72 80 -86q9 -3 20 -6q45 -12 45 -49q0 -14 -9 -22q-8 -7 -30 -7q-5 0 -85 8t-142 8q-94 0 -201 -14q-17 -4 -24 -4q-15 0 -26 11t-11 28q0 31 41 42q41 9 41 32q0 18 -21 61
q-24 47 -65 113l-181 288q-6 12 -12 19q-4 6 -6 6q-7 0 -11.5 -7.5t-4.5 -15.5v-399q0 -46 13 -68t44 -28q3 0 7 -0.5t7 -1.5q43 -9 43 -37q0 -22 -9 -34.5t-26 -12.5q-2 0 -6.5 1t-11.5 1q-96 14 -197 14q-96 0 -202 -14l-27 -2v0q-17 0 -28 12q-11 13 -11 33q0 31 51 41h4
h4q43 7 58 29q14 20 14 69v928q0 46 -13 68q-13 20 -46 28q-5 0 -8 1l-4 2t-5 1q-36 6 -45 15q-10 7 -10 26t11 32q11 11 28 11v0l27 -2q102 -12 202 -12q102 0 205 12l25 2v0q18 0 28.5 -11t10.5 -34q0 -18 -9 -26q-8 -7 -45 -13q-45 -6 -62 -27.5t-17 -70.5z" />
    <glyph glyph-name="atilde" unicode="&#xcb;" horiz-adv-x="1292" 
d="M229 192q30 0 64 47.5t56 128.5q28 103 48 313t20 363q0 66 -21.5 101t-55 49t-57 23.5t-23.5 29.5q0 19 11 32q11 11 28 11v0l27 -2q102 -12 202 -12h462q105 0 205 12l24 2v0q19 0 29 -12q10 -11 10 -33q0 -31 -55 -41h-4q-43 -7 -57 -29q-15 -21 -15 -69v-928
q0 -45 14 -67q13 -21 46 -29q2 0 8 -1.5t12 -2.5q51 -10 51 -39q0 -22 -10 -33.5t-29 -11.5v0l-26 2q-107 14 -203 14q-97 0 -203 -14l-26 -2v0q-18 0 -28 13q-11 14 -11 34q0 16 7.5 23.5t45.5 13.5q47 6 63 27q17 22 17 71v932q0 47 -15 67q-21 29 -53 29h-178
q-65 0 -88.5 -33t-23.5 -119q0 -57 -3 -162q-3 -106 -12.5 -236t-25 -240t-40.5 -186q-83 -248 -267 -248q-63 0 -109 32.5t-47 91.5q0 59 32 95q29 33 73 33h6q31 0 46.5 -5.5t24 -12.5t23 -14.5t31.5 -7.5z" />
    <glyph glyph-name="atilde" unicode="&#x41b;" horiz-adv-x="1292" 
d="M229 192q30 0 64 47.5t56 128.5q28 103 48 313t20 363q0 66 -21.5 101t-55 49t-57 23.5t-23.5 29.5q0 19 11 32q11 11 28 11v0l27 -2q102 -12 202 -12h462q105 0 205 12l24 2v0q19 0 29 -12q10 -11 10 -33q0 -31 -55 -41h-4q-43 -7 -57 -29q-15 -21 -15 -69v-928
q0 -45 14 -67q13 -21 46 -29q2 0 8 -1.5t12 -2.5q51 -10 51 -39q0 -22 -10 -33.5t-29 -11.5v0l-26 2q-107 14 -203 14q-97 0 -203 -14l-26 -2v0q-18 0 -28 13q-11 14 -11 34q0 16 7.5 23.5t45.5 13.5q47 6 63 27q17 22 17 71v932q0 47 -15 67q-21 29 -53 29h-178
q-65 0 -88.5 -33t-23.5 -119q0 -57 -3 -162q-3 -106 -12.5 -236t-25 -240t-40.5 -186q-83 -248 -267 -248q-63 0 -109 32.5t-47 91.5q0 59 32 95q29 33 73 33h6q31 0 46.5 -5.5t24 -12.5t23 -14.5t31.5 -7.5z" />
    <glyph glyph-name="aring" unicode="&#xcc;" horiz-adv-x="1409" 
d="M459 1247l223 -731q5 -15 8.5 -21t7.5 -6q5 0 11 9q7 14 10 24l239 725q7 22 24 31q18 8 54 8l47 -1q9 -1 31 -1q11 -1 55 -1q21 0 55 2q19 1 44 5q13 0 22.5 1t20.5 1q25 0 38 -12.5t13 -36.5q0 -31 -49 -35q-23 -1 -37 -6q-31 -9 -41 -37q-12 -28 -12 -98v-29l18 -858
q2 -47 16.5 -70.5t47.5 -27.5q3 0 5 -1l4 -2q3 -1 13 -1h4q43 -10 43 -43q0 -17 -11 -28t-28 -11v0l-24 2q-107 14 -209 14q-99 0 -209 -14l-27 -2v0q-17 0 -28 11t-11 28q0 32 47 43h5q7 0 10 1q4 0 6 1q36 8 49 30q14 23 14 70l-4 719q0 7 -2 17q-1 6 -6 6q-3 0 -6 -5
q-2 -4 -6 -16l-262 -799q-17 -49 -30.5 -65.5t-33.5 -16.5q-22 0 -35.5 15.5t-29.5 64.5l-267 846q-3 8 -6 11.5t-8 3.5q-1 0 -3 -6q-1 -4 -1 -15l-20 -405q-2 -30 -2 -55v-107v-60q0 -117 13 -162q14 -48 46 -61q11 -6 24 -9q14 -3 29 -3l6 -2q43 -7 43 -37q0 -21 -13 -31
q-13 -12 -36 -12q-8 0 -55.5 6t-87.5 6q-48 0 -96.5 -6t-51.5 -6q-18 0 -31 11q-12 11 -12 28t8 27q9 9 39 16q7 0 8.5 1t2.5 1.5t2 1.5q45 9 58 33q14 23 18 108l34 746q1 5 1.5 14.5t0.5 17.5v39q0 96 -10 120t-39 38q-11 5 -41 10q-43 4 -43 37q0 20 11 32.5t28 12.5v0
l57 -5q62 -5 109 -5q34 0 80 3q47 3 59 3q25 0 40.5 -9.5t21.5 -29.5z" />
    <glyph glyph-name="aring" unicode="&#x41c;" horiz-adv-x="1409" 
d="M459 1247l223 -731q5 -15 8.5 -21t7.5 -6q5 0 11 9q7 14 10 24l239 725q7 22 24 31q18 8 54 8l47 -1q9 -1 31 -1q11 -1 55 -1q21 0 55 2q19 1 44 5q13 0 22.5 1t20.5 1q25 0 38 -12.5t13 -36.5q0 -31 -49 -35q-23 -1 -37 -6q-31 -9 -41 -37q-12 -28 -12 -98v-29l18 -858
q2 -47 16.5 -70.5t47.5 -27.5q3 0 5 -1l4 -2q3 -1 13 -1h4q43 -10 43 -43q0 -17 -11 -28t-28 -11v0l-24 2q-107 14 -209 14q-99 0 -209 -14l-27 -2v0q-17 0 -28 11t-11 28q0 32 47 43h5q7 0 10 1q4 0 6 1q36 8 49 30q14 23 14 70l-4 719q0 7 -2 17q-1 6 -6 6q-3 0 -6 -5
q-2 -4 -6 -16l-262 -799q-17 -49 -30.5 -65.5t-33.5 -16.5q-22 0 -35.5 15.5t-29.5 64.5l-267 846q-3 8 -6 11.5t-8 3.5q-1 0 -3 -6q-1 -4 -1 -15l-20 -405q-2 -30 -2 -55v-107v-60q0 -117 13 -162q14 -48 46 -61q11 -6 24 -9q14 -3 29 -3l6 -2q43 -7 43 -37q0 -21 -13 -31
q-13 -12 -36 -12q-8 0 -55.5 6t-87.5 6q-48 0 -96.5 -6t-51.5 -6q-18 0 -31 11q-12 11 -12 28t8 27q9 9 39 16q7 0 8.5 1t2.5 1.5t2 1.5q45 9 58 33q14 23 18 108l34 746q1 5 1.5 14.5t0.5 17.5v39q0 96 -10 120t-39 38q-11 5 -41 10q-43 4 -43 37q0 20 11 32.5t28 12.5v0
l57 -5q62 -5 109 -5q34 0 80 3q47 3 59 3q25 0 40.5 -9.5t21.5 -29.5z" />
    <glyph glyph-name="ccedilla" unicode="&#xcd;" horiz-adv-x="1292" 
d="M451 1106v-336q0 -14 6.5 -21.5t17.5 -7.5h342q11 0 19 8q6 8 6 21v338q0 45 -15.5 67t-52.5 29q-1 1 -2.5 1.5t-3.5 0.5h-10h-2q-47 9 -47 39q0 20 11 32.5t28 12.5v0l24 -2q101 -12 205 -12q105 0 205 12l24 2v0q19 0 29 -12q10 -11 10 -33q0 -31 -55 -41h-4
q-43 -7 -57 -29q-15 -21 -15 -69v-928q0 -45 14 -67q13 -21 46 -29q2 0 8 -1.5t12 -2.5q51 -10 51 -39q0 -22 -10 -33.5t-29 -11.5v0l-26 2q-107 14 -203 14q-97 0 -203 -14l-26 -2v0q-18 0 -28 13q-11 14 -11 34q0 16 7.5 23.5t45.5 13.5q47 6 63 27q17 22 17 71v442
q0 15 -7 22t-18 7h-342q-11 0 -17.5 -7t-6.5 -22v-442q0 -45 15.5 -67.5t51.5 -28.5q2 -1 7 -1q3 -1 10 -1h2q47 -9 47 -37q0 -24 -10 -35.5t-29 -11.5v0l-27 2q-106 14 -203 14q-96 0 -202 -14l-27 -2v0q-17 0 -28 12q-11 13 -11 33q0 31 51 41h4h4q43 7 58 29q14 20 14 69
v928q0 46 -13 68q-13 20 -46 28q-5 0 -8 1l-4 2t-5 1q-36 6 -45 15q-10 7 -10 26t11 32q11 11 28 11v0l27 -2q102 -12 202 -12q102 0 205 12l25 2v0q18 0 28.5 -11t10.5 -34q0 -18 -9 -26q-8 -7 -45 -13q-46 -7 -63 -27q-16 -20 -16 -73z" />
    <glyph glyph-name="ccedilla" unicode="&#x41d;" horiz-adv-x="1292" 
d="M451 1106v-336q0 -14 6.5 -21.5t17.5 -7.5h342q11 0 19 8q6 8 6 21v338q0 45 -15.5 67t-52.5 29q-1 1 -2.5 1.5t-3.5 0.5h-10h-2q-47 9 -47 39q0 20 11 32.5t28 12.5v0l24 -2q101 -12 205 -12q105 0 205 12l24 2v0q19 0 29 -12q10 -11 10 -33q0 -31 -55 -41h-4
q-43 -7 -57 -29q-15 -21 -15 -69v-928q0 -45 14 -67q13 -21 46 -29q2 0 8 -1.5t12 -2.5q51 -10 51 -39q0 -22 -10 -33.5t-29 -11.5v0l-26 2q-107 14 -203 14q-97 0 -203 -14l-26 -2v0q-18 0 -28 13q-11 14 -11 34q0 16 7.5 23.5t45.5 13.5q47 6 63 27q17 22 17 71v442
q0 15 -7 22t-18 7h-342q-11 0 -17.5 -7t-6.5 -22v-442q0 -45 15.5 -67.5t51.5 -28.5q2 -1 7 -1q3 -1 10 -1h2q47 -9 47 -37q0 -24 -10 -35.5t-29 -11.5v0l-27 2q-106 14 -203 14q-96 0 -202 -14l-27 -2v0q-17 0 -28 12q-11 13 -11 33q0 31 51 41h4h4q43 7 58 29q14 20 14 69
v928q0 46 -13 68q-13 20 -46 28q-5 0 -8 1l-4 2t-5 1q-36 6 -45 15q-10 7 -10 26t11 32q11 11 28 11v0l27 -2q102 -12 202 -12q102 0 205 12l25 2v0q18 0 28.5 -11t10.5 -34q0 -18 -9 -26q-8 -7 -45 -13q-46 -7 -63 -27q-16 -20 -16 -73z" />
    <glyph glyph-name="eacute" unicode="&#xce;" horiz-adv-x="1309" 
d="M659 1327q248 0 422 -198t174 -484q0 -290 -175 -486q-175 -198 -431 -198q-248 0 -422 198.5t-174 485.5q0 290 175 486t431 196zM637 1247q-134 0 -215.5 -148t-81.5 -399q0 -294 93 -476q91 -181 237 -181q135 0 217 148t82 401q0 292 -93 473q-95 182 -239 182z" />
    <glyph glyph-name="eacute" unicode="&#x41e;" horiz-adv-x="1309" 
d="M659 1327q248 0 422 -198t174 -484q0 -290 -175 -486q-175 -198 -431 -198q-248 0 -422 198.5t-174 485.5q0 290 175 486t431 196zM637 1247q-134 0 -215.5 -148t-81.5 -399q0 -294 93 -476q91 -181 237 -181q135 0 217 148t82 401q0 292 -93 473q-95 182 -239 182z" />
    <glyph glyph-name="egrave" unicode="&#xcf;" horiz-adv-x="1292" 
d="M758 1206h-228q-40 0 -63 -27q-16 -20 -16 -73v-930q0 -45 15.5 -67.5t51.5 -28.5q2 -1 7 -1q3 -1 10 -1h2q47 -9 47 -37q0 -24 -10 -35.5t-29 -11.5v0l-27 2q-106 14 -203 14q-96 0 -202 -14l-27 -2v0q-17 0 -28 12q-11 13 -11 33q0 31 51 41h4h4q43 7 58 29
q14 20 14 69v928q0 46 -13 68q-13 20 -46 28q-5 0 -8 1l-4 2t-5 1q-36 6 -45 15q-10 7 -10 26t11 32q11 11 28 11v0l27 -2q102 -12 202 -12h662q105 0 205 12l24 2v0q19 0 29 -12q10 -11 10 -33q0 -31 -55 -41h-4q-43 -7 -57 -29q-15 -21 -15 -69v-928q0 -45 14 -67
q13 -21 46 -29q2 0 8 -1.5t12 -2.5q51 -10 51 -39q0 -22 -10 -33.5t-29 -11.5v0l-26 2q-107 14 -203 14q-97 0 -203 -14l-26 -2v0q-18 0 -28 13q-11 14 -11 34q0 16 7.5 23.5t45.5 13.5q47 6 63 27q17 22 17 71v932q0 45 -15 67q-6 10 -28 20.5t-41 10.5z" />
    <glyph glyph-name="egrave" unicode="&#x41f;" horiz-adv-x="1292" 
d="M758 1206h-228q-40 0 -63 -27q-16 -20 -16 -73v-930q0 -45 15.5 -67.5t51.5 -28.5q2 -1 7 -1q3 -1 10 -1h2q47 -9 47 -37q0 -24 -10 -35.5t-29 -11.5v0l-27 2q-106 14 -203 14q-96 0 -202 -14l-27 -2v0q-17 0 -28 12q-11 13 -11 33q0 31 51 41h4h4q43 7 58 29
q14 20 14 69v928q0 46 -13 68q-13 20 -46 28q-5 0 -8 1l-4 2t-5 1q-36 6 -45 15q-10 7 -10 26t11 32q11 11 28 11v0l27 -2q102 -12 202 -12h662q105 0 205 12l24 2v0q19 0 29 -12q10 -11 10 -33q0 -31 -55 -41h-4q-43 -7 -57 -29q-15 -21 -15 -69v-928q0 -45 14 -67
q13 -21 46 -29q2 0 8 -1.5t12 -2.5q51 -10 51 -39q0 -22 -10 -33.5t-29 -11.5v0l-26 2q-107 14 -203 14q-97 0 -203 -14l-26 -2v0q-18 0 -28 13q-11 14 -11 34q0 16 7.5 23.5t45.5 13.5q47 6 63 27q17 22 17 71v932q0 45 -15 67q-6 10 -28 20.5t-41 10.5z" />
    <glyph glyph-name="ecircumflex" unicode="&#xd0;" horiz-adv-x="1012" 
d="M444 979v-203q0 -78 21 -102q19 -25 70 -25q79 0 124.5 71.5t45.5 197.5q0 127 -50.5 208.5t-124.5 81.5q-46 0 -66 -32q-20 -34 -20 -127v-25v-45zM586 543l-107 45q-7 1 -10 2.5t-6 1.5q-7 0 -9.5 -6t-2.5 -23v-387q0 -48 19 -68q19 -22 67 -28q3 0 9.5 -1t16.5 -3
q62 -6 62 -37q0 -23 -13 -33q-13 -12 -39 -12q-9 0 -95 9q-85 9 -163 9q-85 0 -192 -14q-27 -4 -37 -4q-17 0 -28 12q-11 13 -11 33q0 31 51 41h4h4q43 7 58 29q14 20 14 69v928q0 46 -13 68q-13 20 -46 28q-5 0 -8 1l-4 2t-5 1q-36 6 -45 15q-10 7 -10 26q0 26 16 36
q17 11 52 11q11 0 56.5 -3t80.5 -3q95 0 195 4t145 4q189 0 289 -94t100 -274q0 -172 -88 -288q-88 -118 -209 -118q-24 0 -50 6q-25 5 -48 15z" />
    <glyph glyph-name="ecircumflex" unicode="&#x420;" horiz-adv-x="1012" 
d="M444 979v-203q0 -78 21 -102q19 -25 70 -25q79 0 124.5 71.5t45.5 197.5q0 127 -50.5 208.5t-124.5 81.5q-46 0 -66 -32q-20 -34 -20 -127v-25v-45zM586 543l-107 45q-7 1 -10 2.5t-6 1.5q-7 0 -9.5 -6t-2.5 -23v-387q0 -48 19 -68q19 -22 67 -28q3 0 9.5 -1t16.5 -3
q62 -6 62 -37q0 -23 -13 -33q-13 -12 -39 -12q-9 0 -95 9q-85 9 -163 9q-85 0 -192 -14q-27 -4 -37 -4q-17 0 -28 12q-11 13 -11 33q0 31 51 41h4h4q43 7 58 29q14 20 14 69v928q0 46 -13 68q-13 20 -46 28q-5 0 -8 1l-4 2t-5 1q-36 6 -45 15q-10 7 -10 26q0 26 16 36
q17 11 52 11q11 0 56.5 -3t80.5 -3q95 0 195 4t145 4q189 0 289 -94t100 -274q0 -172 -88 -288q-88 -118 -209 -118q-24 0 -50 6q-25 5 -48 15z" />
    <glyph glyph-name="edieresis" unicode="&#xd1;" horiz-adv-x="1108" 
d="M53 645q0 295 178.5 488.5t452.5 193.5q106 0 196.5 -25t114.5 -55q8 -10 18 -78q9 -67 9 -139q0 -22 -8 -33q-7 -12 -23 -12q-26 0 -57 64q-14 27 -27 49q-45 77 -96.5 111t-122.5 34q-145 0 -245.5 -172.5t-100.5 -433.5q0 -259 100 -426q101 -168 250 -168
q77 0 141 51q63 48 103 139q11 26 27 66q26 68 47 68q18 0 24 -19t6 -108q0 -81 -5 -116q-6 -34 -21 -50q-47 -53 -135 -83q-90 -30 -203 -30q-280 0 -451 189q-172 187 -172 495z" />
    <glyph glyph-name="edieresis" unicode="&#x421;" horiz-adv-x="1108" 
d="M53 645q0 295 178.5 488.5t452.5 193.5q106 0 196.5 -25t114.5 -55q8 -10 18 -78q9 -67 9 -139q0 -22 -8 -33q-7 -12 -23 -12q-26 0 -57 64q-14 27 -27 49q-45 77 -96.5 111t-122.5 34q-145 0 -245.5 -172.5t-100.5 -433.5q0 -259 100 -426q101 -168 250 -168
q77 0 141 51q63 48 103 139q11 26 27 66q26 68 47 68q18 0 24 -19t6 -108q0 -81 -5 -116q-6 -34 -21 -50q-47 -53 -135 -83q-90 -30 -203 -30q-280 0 -451 189q-172 187 -172 495z" />
    <glyph glyph-name="iacute" unicode="&#xd2;" horiz-adv-x="997" 
d="M702 1194h-49q-11 0 -17.5 -7t-6.5 -22v-989q0 -45 15.5 -67.5t51.5 -28.5q4 0 9 -0.5t8 -1.5q49 -9 49 -37q0 -24 -10 -35.5t-29 -11.5v0l-27 2q-106 14 -202 14q-97 0 -203 -14l-27 -2v0q-17 0 -28 12q-11 13 -11 33q0 31 51 41h5h4q42 7 57 29q14 20 14 69v987
q0 15 -6.5 22t-17.5 7h-25q-45 0 -81.5 -21.5t-69.5 -66.5q-22 -30 -56 -88q-32 -62 -55 -62q-13 0 -21 9q-8 10 -8 26q0 11 20 97q8 36 32 149q2 12 6 33q17 96 45 96q23 0 37 -41q1 -4 4 -14q8 -20 28.5 -26.5t81.5 -6.5h394q80 0 147 8.5t80 18.5q14 6 30 40q17 33 40 33
q15 0 22 -12q8 -13 8 -35t-10 -112q-8 -77 -14 -177q-5 -56 -14 -73q-10 -21 -29 -21q-24 0 -50 72q-16 47 -30 82q-23 50 -54 71q-33 21 -88 21z" />
    <glyph glyph-name="iacute" unicode="&#x422;" horiz-adv-x="997" 
d="M702 1194h-49q-11 0 -17.5 -7t-6.5 -22v-989q0 -45 15.5 -67.5t51.5 -28.5q4 0 9 -0.5t8 -1.5q49 -9 49 -37q0 -24 -10 -35.5t-29 -11.5v0l-27 2q-106 14 -202 14q-97 0 -203 -14l-27 -2v0q-17 0 -28 12q-11 13 -11 33q0 31 51 41h5h4q42 7 57 29q14 20 14 69v987
q0 15 -6.5 22t-17.5 7h-25q-45 0 -81.5 -21.5t-69.5 -66.5q-22 -30 -56 -88q-32 -62 -55 -62q-13 0 -21 9q-8 10 -8 26q0 11 20 97q8 36 32 149q2 12 6 33q17 96 45 96q23 0 37 -41q1 -4 4 -14q8 -20 28.5 -26.5t81.5 -6.5h394q80 0 147 8.5t80 18.5q14 6 30 40q17 33 40 33
q15 0 22 -12q8 -13 8 -35t-10 -112q-8 -77 -14 -177q-5 -56 -14 -73q-10 -21 -29 -21q-24 0 -50 72q-16 47 -30 82q-23 50 -54 71q-33 21 -88 21z" />
    <glyph glyph-name="igrave" unicode="&#xd3;" horiz-adv-x="976" 
d="M581 213q-76 -229 -249 -229q-62 0 -106 30t-44 88q0 54 31 86t85 32q28 0 37.5 -3.5t29 -14t35.5 -10.5q33 0 56.5 23.5t23.5 64.5q0 28 -36 100l-320 656q-63 131 -79 143.5t-41 22.5q-41 17 -41 47q0 16 10.5 28.5t26.5 12.5v0l25 -2q93 -12 188 -12q77 0 147 7t78 7
q22 0 32 -10q11 -11 11 -29q0 -41 -58 -57t-58 -43q0 -19 20 -64l199 -435q8 -18 21 -18t19 18l128 376q4 11 11.5 30.5t11 38.5t3.5 38q0 39 -59.5 60t-59.5 52q0 22 12 31.5t39 9.5q15 0 54 -4t79 -4q36 0 73 4t54 4q27 0 39 -9.5t12 -31.5q0 -34 -45 -51q-30 -11 -43 -20
q-23 -18 -45 -64q-30 -62 -72 -188z" />
    <glyph glyph-name="igrave" unicode="&#x423;" horiz-adv-x="976" 
d="M581 213q-76 -229 -249 -229q-62 0 -106 30t-44 88q0 54 31 86t85 32q28 0 37.5 -3.5t29 -14t35.5 -10.5q33 0 56.5 23.5t23.5 64.5q0 28 -36 100l-320 656q-63 131 -79 143.5t-41 22.5q-41 17 -41 47q0 16 10.5 28.5t26.5 12.5v0l25 -2q93 -12 188 -12q77 0 147 7t78 7
q22 0 32 -10q11 -11 11 -29q0 -41 -58 -57t-58 -43q0 -19 20 -64l199 -435q8 -18 21 -18t19 18l128 376q4 11 11.5 30.5t11 38.5t3.5 38q0 39 -59.5 60t-59.5 52q0 22 12 31.5t39 9.5q15 0 54 -4t79 -4q36 0 73 4t54 4q27 0 39 -9.5t12 -31.5q0 -34 -45 -51q-30 -11 -43 -20
q-23 -18 -45 -64q-30 -62 -72 -188z" />
    <glyph glyph-name="icircumflex" unicode="&#xd4;" horiz-adv-x="1400" 
d="M699 10q-36 0 -118 -8t-114 -8q-39 0 -39 47q0 22 18.5 28.5t47.5 10.5q38 5 52.5 29.5t14.5 66.5v135q0 17 -3 23q-1 6 -9 6l-8 -2q-70 -38 -185 -38q-76 0 -146.5 44.5t-116 130.5t-45.5 205q0 116 43 200t112.5 128t144.5 44q33 0 62.5 -5t62 -13.5t68.5 -17.5l8 -2
q8 0 9 6q3 6 3 64q0 113 -75 120q-37 6 -47.5 15t-10.5 28q0 27 16.5 37t49.5 10h45q17 -1 45 -2t60 -2q32 -2 55 -2q24 0 56 2q32 1 61 2q28 1 45 2h43q66 0 66 -47q0 -19 -10.5 -28.5t-47.5 -14.5q-75 -7 -75 -120q0 -58 2.5 -64t9.5 -6l8 2q36 9 68.5 17.5t62 13.5
t62.5 5q75 0 144.5 -44t112.5 -128t43 -200q0 -178 -94.5 -279t-213.5 -101q-115 0 -185 38l-8 2q-7 0 -9.5 -6t-2.5 -23v-135q0 -42 14 -66t53 -30q30 -4 48 -10t18 -29q0 -47 -39 -47q-31 0 -113 8t-119 8zM830 830v-306q0 -60 17 -93.5t74 -33.5q153 0 153 291
q0 269 -153 269q-60 0 -75.5 -31.5t-15.5 -95.5zM568 830q0 60 -17 93.5t-74 33.5q-153 0 -153 -269q0 -291 153 -291q58 0 74.5 32.5t16.5 94.5v306z" />
    <glyph glyph-name="icircumflex" unicode="&#x424;" horiz-adv-x="1400" 
d="M699 10q-36 0 -118 -8t-114 -8q-39 0 -39 47q0 22 18.5 28.5t47.5 10.5q38 5 52.5 29.5t14.5 66.5v135q0 17 -3 23q-1 6 -9 6l-8 -2q-70 -38 -185 -38q-76 0 -146.5 44.5t-116 130.5t-45.5 205q0 116 43 200t112.5 128t144.5 44q33 0 62.5 -5t62 -13.5t68.5 -17.5l8 -2
q8 0 9 6q3 6 3 64q0 113 -75 120q-37 6 -47.5 15t-10.5 28q0 27 16.5 37t49.5 10h45q17 -1 45 -2t60 -2q32 -2 55 -2q24 0 56 2q32 1 61 2q28 1 45 2h43q66 0 66 -47q0 -19 -10.5 -28.5t-47.5 -14.5q-75 -7 -75 -120q0 -58 2.5 -64t9.5 -6l8 2q36 9 68.5 17.5t62 13.5
t62.5 5q75 0 144.5 -44t112.5 -128t43 -200q0 -178 -94.5 -279t-213.5 -101q-115 0 -185 38l-8 2q-7 0 -9.5 -6t-2.5 -23v-135q0 -42 14 -66t53 -30q30 -4 48 -10t18 -29q0 -47 -39 -47q-31 0 -113 8t-119 8zM830 830v-306q0 -60 17 -93.5t74 -33.5q153 0 153 291
q0 269 -153 269q-60 0 -75.5 -31.5t-15.5 -95.5zM568 830q0 60 -17 93.5t-74 33.5q-153 0 -153 -269q0 -291 153 -291q58 0 74.5 32.5t16.5 94.5v306z" />
    <glyph glyph-name="idieresis" unicode="&#xd5;" horiz-adv-x="1106" 
d="M479 1085l115 -204q5 -10 10 -14.5t10 -4.5q6 0 13 5q6 6 10 14l53 110q26 51 47 104q15 41 15 64q0 38 -52.5 47t-52.5 41q0 22 12 32q13 11 35 11q6 0 63.5 -6t110.5 -6q64 0 134 6q71 6 77 6q28 0 38 -10q11 -11 11 -33q0 -32 -62 -37q-59 -4 -105 -28
q-42 -23 -83 -75q-40 -50 -114 -185l-80 -142q-5 -8 -6 -14q-2 -10 -2 -16q0 -11 1 -14t3 -7l313 -541q24 -38 45 -64q19 -23 39 -34q11 -6 35 -12q41 -11 41 -45q0 -19 -9 -27q-11 -8 -36 -8q-5 0 -12 1t-19 1q-2 0 -12 2q-90 10 -174 10q-139 0 -256 -14h-2q-3 -1 -8 -1
q-3 -1 -9 -1q-14 0 -25 12q-11 13 -11 29q0 33 53 44q53 9 53 46q0 19 -16 54q-18 40 -49 93l-125 215q-2 5 -8 11q-5 4 -11 4q-4 0 -8 -4q-6 -6 -8 -11l-123 -239q-23 -44 -31 -67.5t-8 -39.5q0 -25 13 -38t44 -19q4 0 12 -1.5t15 -2.5q53 -9 53 -43q0 -23 -13 -33
q-13 -12 -40 -12q-35 0 -100 9q-64 9 -95 9t-101 -5t-87 -5q-18 0 -25.5 8.5t-7.5 28.5q0 32 56 43q21 4 38 10q47 19 91.5 64.5t93.5 132.5l170 301q1 2 3 8q1 3 1 16q0 7 -1 11t-5 10l-189 317q-78 133 -114 178q-33 42 -64 62q-20 12 -58 18q-40 4 -40 37q0 22 10.5 32.5
t32.5 10.5q8 0 99 -8t161 -8q146 0 264 12l16 2v0q15 0 25 -10t10 -27q0 -32 -56 -47t-56 -49q0 -12 5 -27.5t19 -42.5z" />
    <glyph glyph-name="idieresis" unicode="&#x425;" horiz-adv-x="1106" 
d="M479 1085l115 -204q5 -10 10 -14.5t10 -4.5q6 0 13 5q6 6 10 14l53 110q26 51 47 104q15 41 15 64q0 38 -52.5 47t-52.5 41q0 22 12 32q13 11 35 11q6 0 63.5 -6t110.5 -6q64 0 134 6q71 6 77 6q28 0 38 -10q11 -11 11 -33q0 -32 -62 -37q-59 -4 -105 -28
q-42 -23 -83 -75q-40 -50 -114 -185l-80 -142q-5 -8 -6 -14q-2 -10 -2 -16q0 -11 1 -14t3 -7l313 -541q24 -38 45 -64q19 -23 39 -34q11 -6 35 -12q41 -11 41 -45q0 -19 -9 -27q-11 -8 -36 -8q-5 0 -12 1t-19 1q-2 0 -12 2q-90 10 -174 10q-139 0 -256 -14h-2q-3 -1 -8 -1
q-3 -1 -9 -1q-14 0 -25 12q-11 13 -11 29q0 33 53 44q53 9 53 46q0 19 -16 54q-18 40 -49 93l-125 215q-2 5 -8 11q-5 4 -11 4q-4 0 -8 -4q-6 -6 -8 -11l-123 -239q-23 -44 -31 -67.5t-8 -39.5q0 -25 13 -38t44 -19q4 0 12 -1.5t15 -2.5q53 -9 53 -43q0 -23 -13 -33
q-13 -12 -40 -12q-35 0 -100 9q-64 9 -95 9t-101 -5t-87 -5q-18 0 -25.5 8.5t-7.5 28.5q0 32 56 43q21 4 38 10q47 19 91.5 64.5t93.5 132.5l170 301q1 2 3 8q1 3 1 16q0 7 -1 11t-5 10l-189 317q-78 133 -114 178q-33 42 -64 62q-20 12 -58 18q-40 4 -40 37q0 22 10.5 32.5
t32.5 10.5q8 0 99 -8t161 -8q146 0 264 12l16 2v0q15 0 25 -10t10 -27q0 -32 -56 -47t-56 -49q0 -12 5 -27.5t19 -42.5z" />
    <glyph glyph-name="ntilde" unicode="&#xd6;" horiz-adv-x="1292" 
d="M518 80l-62 -1l306 -1q42 0 63 27q17 22 17 71v932q0 45 -15.5 67t-52.5 29q-1 1 -2.5 1.5t-3.5 0.5h-10h-2q-47 9 -47 39q0 20 11 32.5t28 12.5v0l24 -2q101 -12 205 -12q105 0 205 12l24 2v0q19 0 29 -12q10 -11 10 -33q0 -31 -55 -41h-4q-43 -7 -57 -29
q-15 -21 -15 -69v-928q0 -45 14 -67q10 -14 29.5 -25.5t38.5 -11.5q28 0 37.5 -6.5t9.5 -32.5v-208v-21q0 -26 -6 -33q-8 -8 -23 -8q-28 0 -66 76q-43 87 -82 123t-116 36h-608q-158 0 -229 -4l-27 -2v0q-17 0 -28 12q-11 13 -11 33q0 31 51 41h4h4q43 7 58 29q14 20 14 69
v928q0 46 -13 68q-13 20 -46 28q-5 0 -8 1l-4 2t-5 1q-36 6 -45 15q-10 7 -10 26t11 32q11 11 28 11v0l27 -2q102 -12 202 -12q102 0 205 12l25 2v0q18 0 28.5 -11t10.5 -34q0 -18 -9 -26q-8 -7 -45 -13q-46 -7 -63 -27q-16 -20 -16 -73v-930q0 -45 15.5 -67.5t51.5 -28.5z
" />
    <glyph glyph-name="ntilde" unicode="&#x426;" horiz-adv-x="1292" 
d="M518 80l-62 -1l306 -1q42 0 63 27q17 22 17 71v932q0 45 -15.5 67t-52.5 29q-1 1 -2.5 1.5t-3.5 0.5h-10h-2q-47 9 -47 39q0 20 11 32.5t28 12.5v0l24 -2q101 -12 205 -12q105 0 205 12l24 2v0q19 0 29 -12q10 -11 10 -33q0 -31 -55 -41h-4q-43 -7 -57 -29
q-15 -21 -15 -69v-928q0 -45 14 -67q10 -14 29.5 -25.5t38.5 -11.5q28 0 37.5 -6.5t9.5 -32.5v-208v-21q0 -26 -6 -33q-8 -8 -23 -8q-28 0 -66 76q-43 87 -82 123t-116 36h-608q-158 0 -229 -4l-27 -2v0q-17 0 -28 12q-11 13 -11 33q0 31 51 41h4h4q43 7 58 29q14 20 14 69
v928q0 46 -13 68q-13 20 -46 28q-5 0 -8 1l-4 2t-5 1q-36 6 -45 15q-10 7 -10 26t11 32q11 11 28 11v0l27 -2q102 -12 202 -12q102 0 205 12l25 2v0q18 0 28.5 -11t10.5 -34q0 -18 -9 -26q-8 -7 -45 -13q-46 -7 -63 -27q-16 -20 -16 -73v-930q0 -45 15.5 -67.5t51.5 -28.5z
" />
    <glyph glyph-name="oacute" unicode="&#xd7;" horiz-adv-x="1292" 
d="M178 824v282q0 46 -13 68q-13 20 -46 28q-5 0 -8 1l-4 2t-5 1q-36 6 -45 15q-10 7 -10 26t11 32q11 11 28 11v0l27 -2q102 -12 202 -12q102 0 205 12l25 2v0q18 0 28.5 -11t10.5 -34q0 -18 -9 -26q-8 -7 -45 -13q-46 -7 -63 -27q-16 -20 -16 -73v-292q0 -186 157 -186
q55 0 110.5 33t89.5 77.5t34 75.5v294q0 45 -15.5 67t-52.5 29q-1 1 -2.5 1.5t-3.5 0.5h-10h-2q-47 9 -47 39q0 20 11 32.5t28 12.5v0l24 -2q101 -12 205 -12q105 0 205 12l24 2v0q19 0 29 -12q10 -11 10 -33q0 -31 -55 -41h-4q-43 -7 -57 -29q-15 -21 -15 -69v-928
q0 -45 14 -67q13 -21 46 -29q2 0 8 -1.5t12 -2.5q51 -10 51 -39q0 -22 -10 -33.5t-29 -11.5v0l-26 2q-107 14 -203 14q-97 0 -203 -14l-26 -2v0q-18 0 -28 13q-11 14 -11 34q0 16 7.5 23.5t45.5 13.5q47 6 63 27q17 22 17 71v504q-42 -55 -94.5 -96t-116 -64.5t-131.5 -23.5
q-106 0 -178 38t-108 111.5t-36 178.5z" />
    <glyph glyph-name="oacute" unicode="&#x427;" horiz-adv-x="1292" 
d="M178 824v282q0 46 -13 68q-13 20 -46 28q-5 0 -8 1l-4 2t-5 1q-36 6 -45 15q-10 7 -10 26t11 32q11 11 28 11v0l27 -2q102 -12 202 -12q102 0 205 12l25 2v0q18 0 28.5 -11t10.5 -34q0 -18 -9 -26q-8 -7 -45 -13q-46 -7 -63 -27q-16 -20 -16 -73v-292q0 -186 157 -186
q55 0 110.5 33t89.5 77.5t34 75.5v294q0 45 -15.5 67t-52.5 29q-1 1 -2.5 1.5t-3.5 0.5h-10h-2q-47 9 -47 39q0 20 11 32.5t28 12.5v0l24 -2q101 -12 205 -12q105 0 205 12l24 2v0q19 0 29 -12q10 -11 10 -33q0 -31 -55 -41h-4q-43 -7 -57 -29q-15 -21 -15 -69v-928
q0 -45 14 -67q13 -21 46 -29q2 0 8 -1.5t12 -2.5q51 -10 51 -39q0 -22 -10 -33.5t-29 -11.5v0l-26 2q-107 14 -203 14q-97 0 -203 -14l-26 -2v0q-18 0 -28 13q-11 14 -11 34q0 16 7.5 23.5t45.5 13.5q47 6 63 27q17 22 17 71v504q-42 -55 -94.5 -96t-116 -64.5t-131.5 -23.5
q-106 0 -178 38t-108 111.5t-36 178.5z" />
    <glyph glyph-name="ograve" unicode="&#xd8;" horiz-adv-x="1844" 
d="M921 1276q100 0 203 12l25 2v0q18 0 28.5 -11t10.5 -34q0 -18 -9 -26q-8 -7 -45 -13q-46 -7 -63 -27q-16 -20 -16 -73v-930q0 -96 67 -96l189 -1q45 0 62 22t17 75v932q0 45 -15.5 67t-52.5 29q-1 1 -2.5 1.5t-3.5 0.5h-10h-2q-47 9 -47 39q0 20 11 32.5t28 12.5v0l24 -2
q101 -12 205 -12q105 0 205 12l24 2v0q19 0 29 -12q10 -11 10 -33q0 -31 -55 -41h-4q-43 -7 -57 -29q-15 -21 -15 -69v-928q0 -45 14 -67q13 -21 46 -29q2 0 8 -1.5t12 -2.5q51 -10 51 -39q0 -22 -10 -33.5t-29 -11.5v0l-26 2q-55 4 -230 4h-1156q-173 0 -229 -4l-27 -2v0
q-17 0 -28 12q-11 13 -11 33q0 31 51 41h4h4q43 7 58 29q14 20 14 69v928q0 46 -13 68q-13 20 -46 28q-5 0 -8 1l-4 2t-5 1q-36 6 -45 15q-10 7 -10 26t11 32q11 11 28 11v0l27 -2q102 -12 202 -12q102 0 205 12l25 2v0q18 0 28.5 -11t10.5 -34q0 -18 -9 -26q-8 -7 -45 -13
q-46 -7 -63 -27q-16 -20 -16 -73v-930q0 -96 67 -96l189 -1q45 0 62 22t17 75v932q0 45 -15.5 67t-52.5 29q-1 1 -2.5 1.5t-3.5 0.5h-10h-2q-47 9 -47 39q0 20 11 32.5t28 12.5v0l24 -2q101 -12 205 -12z" />
    <glyph glyph-name="ograve" unicode="&#x428;" horiz-adv-x="1844" 
d="M921 1276q100 0 203 12l25 2v0q18 0 28.5 -11t10.5 -34q0 -18 -9 -26q-8 -7 -45 -13q-46 -7 -63 -27q-16 -20 -16 -73v-930q0 -96 67 -96l189 -1q45 0 62 22t17 75v932q0 45 -15.5 67t-52.5 29q-1 1 -2.5 1.5t-3.5 0.5h-10h-2q-47 9 -47 39q0 20 11 32.5t28 12.5v0l24 -2
q101 -12 205 -12q105 0 205 12l24 2v0q19 0 29 -12q10 -11 10 -33q0 -31 -55 -41h-4q-43 -7 -57 -29q-15 -21 -15 -69v-928q0 -45 14 -67q13 -21 46 -29q2 0 8 -1.5t12 -2.5q51 -10 51 -39q0 -22 -10 -33.5t-29 -11.5v0l-26 2q-55 4 -230 4h-1156q-173 0 -229 -4l-27 -2v0
q-17 0 -28 12q-11 13 -11 33q0 31 51 41h4h4q43 7 58 29q14 20 14 69v928q0 46 -13 68q-13 20 -46 28q-5 0 -8 1l-4 2t-5 1q-36 6 -45 15q-10 7 -10 26t11 32q11 11 28 11v0l27 -2q102 -12 202 -12q102 0 205 12l25 2v0q18 0 28.5 -11t10.5 -34q0 -18 -9 -26q-8 -7 -45 -13
q-46 -7 -63 -27q-16 -20 -16 -73v-930q0 -96 67 -96l189 -1q45 0 62 22t17 75v932q0 45 -15.5 67t-52.5 29q-1 1 -2.5 1.5t-3.5 0.5h-10h-2q-47 9 -47 39q0 20 11 32.5t28 12.5v0l24 -2q101 -12 205 -12z" />
    <glyph glyph-name="ocircumflex" unicode="&#xd9;" horiz-adv-x="1844" 
d="M1498 0h-1156q-173 0 -229 -4l-27 -2v0q-17 0 -28 12q-11 13 -11 33q0 31 51 41h4h4q43 7 58 29q14 20 14 69v928q0 46 -13 68q-13 20 -46 28q-5 0 -8 1l-4 2t-5 1q-36 6 -45 15q-10 7 -10 26t11 32q11 11 28 11v0l27 -2q102 -12 202 -12q102 0 205 12l25 2v0
q18 0 28.5 -11t10.5 -34q0 -18 -9 -26q-8 -7 -45 -13q-46 -7 -63 -27q-16 -20 -16 -73v-930q0 -96 67 -96l189 -1q45 0 62 22t17 75v932q0 45 -15.5 67t-52.5 29q-1 1 -2.5 1.5t-3.5 0.5h-10h-2q-47 9 -47 39q0 20 11 32.5t28 12.5v0l24 -2q101 -12 205 -12q100 0 203 12
l25 2v0q18 0 28.5 -11t10.5 -34q0 -18 -9 -26q-8 -7 -45 -13q-46 -7 -63 -27q-16 -20 -16 -73v-930q0 -96 67 -96l189 -1q45 0 62 22t17 75v932q0 45 -15.5 67t-52.5 29q-1 1 -2.5 1.5t-3.5 0.5h-10h-2q-47 9 -47 39q0 20 11 32.5t28 12.5v0l24 -2q101 -12 205 -12
q105 0 205 12l24 2v0q19 0 29 -12q10 -11 10 -33q0 -31 -55 -41h-4q-43 -7 -57 -29q-15 -21 -15 -69v-928q0 -45 14 -67q10 -14 29.5 -25.5t38.5 -11.5q28 0 37.5 -6.5t9.5 -32.5v-208v-21q0 -26 -6 -33q-8 -8 -23 -8q-28 0 -66 76q-43 87 -82 123t-116 36z" />
    <glyph glyph-name="ocircumflex" unicode="&#x429;" horiz-adv-x="1844" 
d="M1498 0h-1156q-173 0 -229 -4l-27 -2v0q-17 0 -28 12q-11 13 -11 33q0 31 51 41h4h4q43 7 58 29q14 20 14 69v928q0 46 -13 68q-13 20 -46 28q-5 0 -8 1l-4 2t-5 1q-36 6 -45 15q-10 7 -10 26t11 32q11 11 28 11v0l27 -2q102 -12 202 -12q102 0 205 12l25 2v0
q18 0 28.5 -11t10.5 -34q0 -18 -9 -26q-8 -7 -45 -13q-46 -7 -63 -27q-16 -20 -16 -73v-930q0 -96 67 -96l189 -1q45 0 62 22t17 75v932q0 45 -15.5 67t-52.5 29q-1 1 -2.5 1.5t-3.5 0.5h-10h-2q-47 9 -47 39q0 20 11 32.5t28 12.5v0l24 -2q101 -12 205 -12q100 0 203 12
l25 2v0q18 0 28.5 -11t10.5 -34q0 -18 -9 -26q-8 -7 -45 -13q-46 -7 -63 -27q-16 -20 -16 -73v-930q0 -96 67 -96l189 -1q45 0 62 22t17 75v932q0 45 -15.5 67t-52.5 29q-1 1 -2.5 1.5t-3.5 0.5h-10h-2q-47 9 -47 39q0 20 11 32.5t28 12.5v0l24 -2q101 -12 205 -12
q105 0 205 12l24 2v0q19 0 29 -12q10 -11 10 -33q0 -31 -55 -41h-4q-43 -7 -57 -29q-15 -21 -15 -69v-928q0 -45 14 -67q10 -14 29.5 -25.5t38.5 -11.5q28 0 37.5 -6.5t9.5 -32.5v-208v-21q0 -26 -6 -33q-8 -8 -23 -8q-28 0 -66 76q-43 87 -82 123t-116 36z" />
    <glyph glyph-name="odieresis" unicode="&#xda;" horiz-adv-x="1276" 
d="M622 1094v-287q0 -43 8 -51t110 -8q114 0 205.5 -25.5t154.5 -75t96 -120t33 -159.5q0 -196 -104 -291t-304 -95q-78 0 -198 12t-162 12q-67 0 -135 -6q-19 -1 -36 -2.5t-23 -2.5t-9 -1q-17 0 -28 12q-11 13 -11 33q0 31 57 41h2h2q47 9 62.5 29.5t15.5 68.5v982
q0 17 -8 27q-7 7 -18 7h-25q-74 0 -115 -43.5t-92 -132.5q-36 -62 -55 -62q-13 0 -21 9q-8 10 -8 26q0 11 20 97q10 42 27.5 130.5t28 118t27.5 29.5q23 0 37 -41q1 -4 4 -14q8 -20 29 -26q16 -5 89 -7q72 -2 207 -2q102 0 205 12l25 2v0q39 0 39 -45q0 -18 -9 -26
q-8 -7 -45 -13q-46 -7 -63 -27q-15 -17 -15 -85zM622 543v-330q0 -80 30 -115t97 -35q91 0 145 77t54 204q0 149 -65 233q-66 85 -179 85q-48 0 -64 -22q-18 -22 -18 -97z" />
    <glyph glyph-name="odieresis" unicode="&#x42a;" horiz-adv-x="1276" 
d="M622 1094v-287q0 -43 8 -51t110 -8q114 0 205.5 -25.5t154.5 -75t96 -120t33 -159.5q0 -196 -104 -291t-304 -95q-78 0 -198 12t-162 12q-67 0 -135 -6q-19 -1 -36 -2.5t-23 -2.5t-9 -1q-17 0 -28 12q-11 13 -11 33q0 31 57 41h2h2q47 9 62.5 29.5t15.5 68.5v982
q0 17 -8 27q-7 7 -18 7h-25q-74 0 -115 -43.5t-92 -132.5q-36 -62 -55 -62q-13 0 -21 9q-8 10 -8 26q0 11 20 97q10 42 27.5 130.5t28 118t27.5 29.5q23 0 37 -41q1 -4 4 -14q8 -20 29 -26q16 -5 89 -7q72 -2 207 -2q102 0 205 12l25 2v0q39 0 39 -45q0 -18 -9 -26
q-8 -7 -45 -13q-46 -7 -63 -27q-15 -17 -15 -85zM622 543v-330q0 -80 30 -115t97 -35q91 0 145 77t54 204q0 149 -65 233q-66 85 -179 85q-48 0 -64 -22q-18 -22 -18 -97z" />
    <glyph glyph-name="otilde" unicode="&#xdb;" horiz-adv-x="1680" 
d="M307 1276q102 0 205 12l25 2v0q18 0 28.5 -11t10.5 -34q0 -18 -9 -26q-8 -7 -45 -13q-46 -7 -63 -27q-17 -22 -17 -85v-287q0 -43 8 -51t110 -8q114 0 205.5 -25.5t154.5 -75t96 -120t33 -159.5q0 -196 -104 -291t-304 -95q-78 0 -198 12t-162 12q-67 0 -135 -6
q-19 -1 -36 -2.5t-23 -2.5t-9 -1q-17 0 -28 12q-11 13 -11 33q0 31 57 41h2h2q47 9 62.5 29.5t15.5 68.5v928q0 46 -15 68q-13 21 -75 32q-59 11 -59 41q0 20 12 32q13 11 33 11v0l32 -2q110 -12 201 -12zM442 543v-330q0 -80 30 -115t97 -35q91 0 145 77t54 204
q0 149 -65 233q-66 85 -179 85q-48 0 -64 -22q-18 -22 -18 -97zM1495 1108v-932q0 -45 15.5 -67.5t51.5 -28.5q4 0 9 -0.5t8 -1.5q49 -9 49 -37q0 -24 -10 -35.5t-29 -11.5v0l-27 2q-106 14 -203 14q-96 0 -202 -14l-27 -2v0q-17 0 -28 12q-11 13 -11 33q0 31 51 41h4h4
q43 7 58 29q14 20 14 69v928q0 44 -14 67q-13 21 -47 29q-1 1 -2 1q-2 0 -5 1h-10q-36 8 -44 16q-9 9 -9 27q0 19 11 32q11 11 28 11v0l25 -2q102 -12 204 -12t205 12l25 2v0q18 0 28.5 -11t10.5 -34q0 -18 -9 -26q-8 -7 -45 -13q-45 -6 -62 -27.5t-17 -70.5z" />
    <glyph glyph-name="otilde" unicode="&#x42b;" horiz-adv-x="1680" 
d="M307 1276q102 0 205 12l25 2v0q18 0 28.5 -11t10.5 -34q0 -18 -9 -26q-8 -7 -45 -13q-46 -7 -63 -27q-17 -22 -17 -85v-287q0 -43 8 -51t110 -8q114 0 205.5 -25.5t154.5 -75t96 -120t33 -159.5q0 -196 -104 -291t-304 -95q-78 0 -198 12t-162 12q-67 0 -135 -6
q-19 -1 -36 -2.5t-23 -2.5t-9 -1q-17 0 -28 12q-11 13 -11 33q0 31 57 41h2h2q47 9 62.5 29.5t15.5 68.5v928q0 46 -15 68q-13 21 -75 32q-59 11 -59 41q0 20 12 32q13 11 33 11v0l32 -2q110 -12 201 -12zM442 543v-330q0 -80 30 -115t97 -35q91 0 145 77t54 204
q0 149 -65 233q-66 85 -179 85q-48 0 -64 -22q-18 -22 -18 -97zM1495 1108v-932q0 -45 15.5 -67.5t51.5 -28.5q4 0 9 -0.5t8 -1.5q49 -9 49 -37q0 -24 -10 -35.5t-29 -11.5v0l-27 2q-106 14 -203 14q-96 0 -202 -14l-27 -2v0q-17 0 -28 12q-11 13 -11 33q0 31 51 41h4h4
q43 7 58 29q14 20 14 69v928q0 44 -14 67q-13 21 -47 29q-1 1 -2 1q-2 0 -5 1h-10q-36 8 -44 16q-9 9 -9 27q0 19 11 32q11 11 28 11v0l25 -2q102 -12 204 -12t205 12l25 2v0q18 0 28.5 -11t10.5 -34q0 -18 -9 -26q-8 -7 -45 -13q-45 -6 -62 -27.5t-17 -70.5z" />
    <glyph glyph-name="uacute" unicode="&#xdc;" horiz-adv-x="1106" 
d="M307 1276q102 0 205 12l25 2v0q18 0 28.5 -11t10.5 -34q0 -18 -9 -26q-8 -7 -45 -13q-46 -7 -63 -27q-17 -22 -17 -85v-287q0 -43 8 -51t110 -8q114 0 205.5 -25.5t154.5 -75t96 -120t33 -159.5q0 -196 -104 -291t-304 -95q-78 0 -198 12t-162 12q-67 0 -135 -6
q-19 -1 -36 -2.5t-23 -2.5t-9 -1q-17 0 -28 12q-11 13 -11 33q0 31 57 41h2h2q47 9 62.5 29.5t15.5 68.5v928q0 46 -15 68q-13 21 -75 32q-59 11 -59 41q0 20 12 32q13 11 33 11v0l32 -2q110 -12 201 -12zM442 543v-330q0 -80 30 -115t97 -35q91 0 145 77t54 204
q0 149 -65 233q-66 85 -179 85q-48 0 -64 -22q-18 -22 -18 -97z" />
    <glyph glyph-name="uacute" unicode="&#x42c;" horiz-adv-x="1106" 
d="M307 1276q102 0 205 12l25 2v0q18 0 28.5 -11t10.5 -34q0 -18 -9 -26q-8 -7 -45 -13q-46 -7 -63 -27q-17 -22 -17 -85v-287q0 -43 8 -51t110 -8q114 0 205.5 -25.5t154.5 -75t96 -120t33 -159.5q0 -196 -104 -291t-304 -95q-78 0 -198 12t-162 12q-67 0 -135 -6
q-19 -1 -36 -2.5t-23 -2.5t-9 -1q-17 0 -28 12q-11 13 -11 33q0 31 57 41h2h2q47 9 62.5 29.5t15.5 68.5v928q0 46 -15 68q-13 21 -75 32q-59 11 -59 41q0 20 12 32q13 11 33 11v0l32 -2q110 -12 201 -12zM442 543v-330q0 -80 30 -115t97 -35q91 0 145 77t54 204
q0 149 -65 233q-66 85 -179 85q-48 0 -64 -22q-18 -22 -18 -97z" />
    <glyph glyph-name="ugrave" unicode="&#xdd;" horiz-adv-x="1108" 
d="M752 647h-277q-51 0 -51 44q0 50 51 50h273q-17 191 -97 330q-100 172 -245 172q-71 0 -123 -34q-51 -34 -96 -111q-13 -22 -27 -49q-31 -64 -57 -64q-15 0 -23 11.5t-8 33.5q0 72 9 139q11 68 18 78q24 30 114 55q91 25 197 25q274 0 452 -193q179 -194 179 -489
q0 -308 -172 -495q-171 -189 -451 -189q-113 0 -203 30q-88 30 -135 83q-15 16 -21 50q-5 35 -5 116q0 89 6 108t24 19q21 0 47 -68q17 -40 27 -66q40 -91 103 -139q65 -51 141 -51q150 0 250 168q51 83 75.5 194t24.5 242z" />
    <glyph glyph-name="ugrave" unicode="&#x42d;" horiz-adv-x="1108" 
d="M752 647h-277q-51 0 -51 44q0 50 51 50h273q-17 191 -97 330q-100 172 -245 172q-71 0 -123 -34q-51 -34 -96 -111q-13 -22 -27 -49q-31 -64 -57 -64q-15 0 -23 11.5t-8 33.5q0 72 9 139q11 68 18 78q24 30 114 55q91 25 197 25q274 0 452 -193q179 -194 179 -489
q0 -308 -172 -495q-171 -189 -451 -189q-113 0 -203 30q-88 30 -135 83q-15 16 -21 50q-5 35 -5 116q0 89 6 108t24 19q21 0 47 -68q17 -40 27 -66q40 -91 103 -139q65 -51 141 -51q150 0 250 168q51 83 75.5 194t24.5 242z" />
    <glyph glyph-name="ucircumflex" unicode="&#xde;" horiz-adv-x="1808" 
d="M638 741q12 105 47 204.5t102.5 185t169.5 137t240 51.5q146 0 273 -79.5t204 -234.5t77 -364q0 -142 -39.5 -266.5t-113 -217.5t-180 -144.5t-231.5 -51.5q-148 0 -273.5 80t-201.5 236t-79 370h-158q-11 0 -17.5 -7t-6.5 -22v-442q0 -45 15.5 -67.5t51.5 -28.5
q2 -1 7 -1q3 -1 10 -1h2q47 -9 47 -37q0 -24 -10 -35.5t-29 -11.5v0l-27 2q-106 14 -203 14q-96 0 -202 -14l-27 -2v0q-17 0 -28 12q-11 13 -11 33q0 31 51 41h4h4q43 7 58 29q14 20 14 69v928q0 46 -13 68q-13 20 -46 28q-5 0 -8 1l-4 2t-5 1q-36 6 -45 15q-10 7 -10 26
t11 32q11 11 28 11v0l27 -2q102 -12 202 -12q102 0 205 12l25 2v0q18 0 28.5 -11t10.5 -34q0 -18 -9 -26q-8 -7 -45 -13q-46 -7 -63 -27q-16 -20 -16 -73v-336q0 -14 6.5 -21.5t17.5 -7.5h163zM1168 1256q-69 0 -125.5 -65.5t-89 -191t-32.5 -299.5q0 -287 82.5 -472
t207.5 -185q66 0 123.5 58t93.5 185t36 326q0 213 -39 358.5t-107 215.5t-150 70z" />
    <glyph glyph-name="ucircumflex" unicode="&#x42e;" horiz-adv-x="1808" 
d="M638 741q12 105 47 204.5t102.5 185t169.5 137t240 51.5q146 0 273 -79.5t204 -234.5t77 -364q0 -142 -39.5 -266.5t-113 -217.5t-180 -144.5t-231.5 -51.5q-148 0 -273.5 80t-201.5 236t-79 370h-158q-11 0 -17.5 -7t-6.5 -22v-442q0 -45 15.5 -67.5t51.5 -28.5
q2 -1 7 -1q3 -1 10 -1h2q47 -9 47 -37q0 -24 -10 -35.5t-29 -11.5v0l-27 2q-106 14 -203 14q-96 0 -202 -14l-27 -2v0q-17 0 -28 12q-11 13 -11 33q0 31 51 41h4h4q43 7 58 29q14 20 14 69v928q0 46 -13 68q-13 20 -46 28q-5 0 -8 1l-4 2t-5 1q-36 6 -45 15q-10 7 -10 26
t11 32q11 11 28 11v0l27 -2q102 -12 202 -12q102 0 205 12l25 2v0q18 0 28.5 -11t10.5 -34q0 -18 -9 -26q-8 -7 -45 -13q-46 -7 -63 -27q-16 -20 -16 -73v-336q0 -14 6.5 -21.5t17.5 -7.5h163zM1168 1256q-69 0 -125.5 -65.5t-89 -191t-32.5 -299.5q0 -287 82.5 -472
t207.5 -185q66 0 123.5 58t93.5 185t36 326q0 213 -39 358.5t-107 215.5t-150 70z" />
    <glyph glyph-name="udieresis" unicode="&#xdf;" horiz-adv-x="1098" 
d="M646 1057q0 90 -20.5 120.5t-72.5 30.5q-56 0 -100 -37.5t-66 -94.5t-22 -122q0 -127 69 -189.5t160 -62.5q31 0 41.5 13.5t10.5 77.5v18v246zM375 672q-127 27 -212 101.5t-85 211.5q0 101 41.5 171.5t124 106t201.5 35.5q26 0 173 -5q148 -5 224 -5q32 0 75 3
q45 3 58 3q35 0 52 -11q16 -10 16 -36q0 -19 -10 -26q-9 -9 -45 -15q-2 0 -4 -1t-5 -2t-8 -1q-33 -8 -46 -28q-13 -22 -13 -68v-928q0 -49 14 -69.5t55 -28.5t50 -15q10 -7 10 -26q0 -20 -11 -33q-10 -12 -28 -12v0l-27 2q-104 14 -198 14q-97 0 -203 -14l-25 -2v0
q-18 0 -29 12q-10 11 -10 35q0 29 45 35q6 1 23 4q36 6 49 28q14 22 14 68v414q0 14 -6 21q-4 7 -16 7h-14q-31 0 -60 -33q-28 -32 -55 -102l-166 -422q-16 -40 -28 -52.5t-42 -12.5q-25 0 -69 4t-78 4q-41 0 -85 -6t-46 -6q-14 0 -24 12q-9 11 -9 27q0 17 29 37l4 2
q34 18 54 41q19 21 34 55l156 356q29 66 63 99t92 51z" />
    <glyph glyph-name="udieresis" unicode="&#x42f;" horiz-adv-x="1098" 
d="M646 1057q0 90 -20.5 120.5t-72.5 30.5q-56 0 -100 -37.5t-66 -94.5t-22 -122q0 -127 69 -189.5t160 -62.5q31 0 41.5 13.5t10.5 77.5v18v246zM375 672q-127 27 -212 101.5t-85 211.5q0 101 41.5 171.5t124 106t201.5 35.5q26 0 173 -5q148 -5 224 -5q32 0 75 3
q45 3 58 3q35 0 52 -11q16 -10 16 -36q0 -19 -10 -26q-9 -9 -45 -15q-2 0 -4 -1t-5 -2t-8 -1q-33 -8 -46 -28q-13 -22 -13 -68v-928q0 -49 14 -69.5t55 -28.5t50 -15q10 -7 10 -26q0 -20 -11 -33q-10 -12 -28 -12v0l-27 2q-104 14 -198 14q-97 0 -203 -14l-25 -2v0
q-18 0 -29 12q-10 11 -10 35q0 29 45 35q6 1 23 4q36 6 49 28q14 22 14 68v414q0 14 -6 21q-4 7 -16 7h-14q-31 0 -60 -33q-28 -32 -55 -102l-166 -422q-16 -40 -28 -52.5t-42 -12.5q-25 0 -69 4t-78 4q-41 0 -85 -6t-46 -6q-14 0 -24 12q-9 11 -9 27q0 17 29 37l4 2
q34 18 54 41q19 21 34 55l156 356q29 66 63 99t92 51z" />
    <glyph glyph-name="daggerdbl" unicode="&#xe0;" horiz-adv-x="862" 
d="M731 705v-89v-374q0 -67 9 -90t32 -23q14 0 33.5 16.5t25.5 16.5q9 0 17 -11q8 -13 8 -26q0 -45 -73.5 -103.5t-149.5 -58.5q-46 0 -75 30t-64 124h-9q-77 -74 -150 -116q-70 -40 -124 -40q-75 0 -121 58q-47 59 -47 151q0 96 53 164q51 66 199 145l164 90q12 9 16 18.5
t4 33.5v131q0 60 -14 90q-15 28 -47 28q-49 0 -105 -108q-8 -17 -18 -37q-32 -60 -77.5 -90.5t-106.5 -30.5q-31 0 -46.5 15t-15.5 45q0 99 120 192q121 92 263 92q141 0 220 -64t79 -179zM479 307v156q0 12 -3 18t-9 6q-2 0 -8 -2q-5 -1 -10 -6l-58 -37q-63 -41 -94 -89
q-33 -48 -33 -101q0 -54 26 -86.5t68 -32.5q59 0 90 45q31 43 31 129z" />
    <glyph glyph-name="daggerdbl" unicode="&#x430;" horiz-adv-x="862" 
d="M731 705v-89v-374q0 -67 9 -90t32 -23q14 0 33.5 16.5t25.5 16.5q9 0 17 -11q8 -13 8 -26q0 -45 -73.5 -103.5t-149.5 -58.5q-46 0 -75 30t-64 124h-9q-77 -74 -150 -116q-70 -40 -124 -40q-75 0 -121 58q-47 59 -47 151q0 96 53 164q51 66 199 145l164 90q12 9 16 18.5
t4 33.5v131q0 60 -14 90q-15 28 -47 28q-49 0 -105 -108q-8 -17 -18 -37q-32 -60 -77.5 -90.5t-106.5 -30.5q-31 0 -46.5 15t-15.5 45q0 99 120 192q121 92 263 92q141 0 220 -64t79 -179zM479 307v156q0 12 -3 18t-9 6q-2 0 -8 -2q-5 -1 -10 -6l-58 -37q-63 -41 -94 -89
q-33 -48 -33 -101q0 -54 26 -86.5t68 -32.5q59 0 90 45q31 43 31 129z" />
    <glyph glyph-name="periodcentered" unicode="&#xe1;" horiz-adv-x="964" 
d="M40 489q0 247 40.5 411.5t126 255t226.5 120.5q100 21 163 40.5t98 44t53 60.5l54 -21q-22 -113 -97 -188t-241 -114q-139 -32 -215.5 -92.5t-100.5 -133t-24 -168.5q0 -48 8 -48q4 0 15.5 24t17.5 36q107 232 332 232q88 0 161.5 -33.5t127.5 -100t82.5 -158
t28.5 -205.5q0 -146 -53 -258t-150.5 -172t-224.5 -60q-117 0 -216 66t-155.5 186t-56.5 276zM456 872q-71 0 -115 -92t-44 -272q0 -140 23.5 -247.5t65 -165.5t95.5 -58q38 0 74 34t59.5 117t23.5 215q0 203 -48.5 336t-133.5 133z" />
    <glyph glyph-name="periodcentered" unicode="&#x431;" horiz-adv-x="964" 
d="M40 489q0 247 40.5 411.5t126 255t226.5 120.5q100 21 163 40.5t98 44t53 60.5l54 -21q-22 -113 -97 -188t-241 -114q-139 -32 -215.5 -92.5t-100.5 -133t-24 -168.5q0 -48 8 -48q4 0 15.5 24t17.5 36q107 232 332 232q88 0 161.5 -33.5t127.5 -100t82.5 -158
t28.5 -205.5q0 -146 -53 -258t-150.5 -172t-224.5 -60q-117 0 -216 66t-155.5 186t-56.5 276zM456 872q-71 0 -115 -92t-44 -272q0 -140 23.5 -247.5t65 -165.5t95.5 -58q38 0 74 34t59.5 117t23.5 215q0 203 -48.5 336t-133.5 133z" />
    <glyph glyph-name="quotesinglbase" unicode="&#xe2;" horiz-adv-x="927" 
d="M393 558q0 -42 51 -42h36q45 0 73.5 41t28.5 121q0 83 -26 118t-82 35q-48 0 -64.5 -25.5t-16.5 -91.5v-156zM393 405v-249q0 -90 78 -90q67 0 104 52.5t37 157.5q0 77 -32 121t-94 44h-48q-45 0 -45 -36zM486 -9q-58 0 -139.5 13.5t-128.5 13.5q-28 0 -45.5 -2.5
t-39.5 -6.5t-57 -9h-4q-12 0 -18.5 -1t-10.5 -1q-13 0 -22 11t-9 26q0 20 9 29q7 9 38 12q8 0 20 2q10 2 17 6q25 12 34 32.5t9 78.5v520q0 50 -6 74t-19.5 32t-39.5 13q-29 5 -34 12q-9 13 -9 28q0 21 8 29t26 8q4 0 50 -3q60 -4 153 -4q33 0 96 4t98 4q182 0 277 -58
t95 -162q0 -131 -174 -206q93 -22 156 -79t63 -139q0 -135 -103 -206t-290 -71z" />
    <glyph glyph-name="quotesinglbase" unicode="&#x432;" horiz-adv-x="927" 
d="M393 558q0 -42 51 -42h36q45 0 73.5 41t28.5 121q0 83 -26 118t-82 35q-48 0 -64.5 -25.5t-16.5 -91.5v-156zM393 405v-249q0 -90 78 -90q67 0 104 52.5t37 157.5q0 77 -32 121t-94 44h-48q-45 0 -45 -36zM486 -9q-58 0 -139.5 13.5t-128.5 13.5q-28 0 -45.5 -2.5
t-39.5 -6.5t-57 -9h-4q-12 0 -18.5 -1t-10.5 -1q-13 0 -22 11t-9 26q0 20 9 29q7 9 38 12q8 0 20 2q10 2 17 6q25 12 34 32.5t9 78.5v520q0 50 -6 74t-19.5 32t-39.5 13q-29 5 -34 12q-9 13 -9 28q0 21 8 29t26 8q4 0 50 -3q60 -4 153 -4q33 0 96 4t98 4q182 0 277 -58
t95 -162q0 -131 -174 -206q93 -22 156 -79t63 -139q0 -135 -103 -206t-290 -71z" />
    <glyph glyph-name="quotedblbase" unicode="&#xe3;" horiz-adv-x="819" 
d="M470 829q-44 0 -60.5 -25t-16.5 -90v-519q0 -54 6 -75q4 -21 19 -32q10 -7 35 -12q36 -4 36 -41q0 -19 -6 -27t-22 -8v0l-21 2q-83 10 -174 10q-89 0 -190 -12h-4q-12 0 -18.5 -1t-10.5 -1q-13 0 -22 11t-9 26q0 20 9 29q7 9 38 12q8 0 20 2q10 2 17 6q25 12 34 32.5
t9 78.5v520q0 50 -6 74t-19.5 32t-39.5 13q-29 5 -34 12q-9 13 -9 28q0 21 8 29t26 8q4 0 50 -3q60 -4 153 -4h125t127 1q86 2 117 8q35 7 48 25q4 5 8 20q12 37 35 37q24 0 39 -80q2 -10 2 -12q14 -77 18 -121q4 -37 4 -53q0 -7 -1 -10q-3 -14 -12 -25q-9 -10 -23 -10
q-15 0 -41 38q-20 31 -45 56q-29 29 -57 40q-26 11 -84 11h-58z" />
    <glyph glyph-name="quotedblbase" unicode="&#x433;" horiz-adv-x="819" 
d="M470 829q-44 0 -60.5 -25t-16.5 -90v-519q0 -54 6 -75q4 -21 19 -32q10 -7 35 -12q36 -4 36 -41q0 -19 -6 -27t-22 -8v0l-21 2q-83 10 -174 10q-89 0 -190 -12h-4q-12 0 -18.5 -1t-10.5 -1q-13 0 -22 11t-9 26q0 20 9 29q7 9 38 12q8 0 20 2q10 2 17 6q25 12 34 32.5
t9 78.5v520q0 50 -6 74t-19.5 32t-39.5 13q-29 5 -34 12q-9 13 -9 28q0 21 8 29t26 8q4 0 50 -3q60 -4 153 -4h125t127 1q86 2 117 8q35 7 48 25q4 5 8 20q12 37 35 37q24 0 39 -80q2 -10 2 -12q14 -77 18 -121q4 -37 4 -53q0 -7 -1 -10q-3 -14 -12 -25q-9 -10 -23 -10
q-15 0 -41 38q-20 31 -45 56q-29 29 -57 40q-26 11 -84 11h-58z" />
    <glyph glyph-name="perthousand" unicode="&#xe4;" horiz-adv-x="1017" 
d="M174 174q108 192 108 531q0 72 -18 97t-58 32q-29 5 -34 12q-9 13 -9 28q0 21 8 29t26 8q4 0 50 -3q60 -4 153 -4h354q88 0 148 4q47 3 50 3q18 0 26 -8t8 -29q0 -19 -9 -28q-11 -11 -34 -12q-43 -1 -53.5 -25t-10.5 -95v-519q0 -54 6 -75q4 -21 19 -32q10 -7 35 -12
q36 -4 37 -39q0 -11 -0.5 -17t-0.5 -13q0 -20 3 -72.5t3 -82.5q0 -36 -7 -51t-26 -15q-26 0 -46 66q-19 66 -42 90q-29 31 -78 44q-55 15 -126 15h-318q-71 0 -126 -15q-49 -13 -78 -44q-22 -24 -42 -90q-19 -66 -46 -66q-18 0 -26 15q-7 15 -7 51q0 30 3 82.5t3 72.5
q0 9 -0.5 15.5t-0.5 14.5q1 33 37 39q70 13 119 98zM360 726q0 -124 -19.5 -263t-48.5 -280q-4 -19 -4 -37q0 -35 22.5 -55.5t52.5 -20.5h186q48 0 67 47q9 20 9 78v520q0 75 -13.5 97t-51.5 22h-140q-33 0 -46.5 -24.5t-13.5 -83.5z" />
    <glyph glyph-name="perthousand" unicode="&#x434;" horiz-adv-x="1017" 
d="M174 174q108 192 108 531q0 72 -18 97t-58 32q-29 5 -34 12q-9 13 -9 28q0 21 8 29t26 8q4 0 50 -3q60 -4 153 -4h354q88 0 148 4q47 3 50 3q18 0 26 -8t8 -29q0 -19 -9 -28q-11 -11 -34 -12q-43 -1 -53.5 -25t-10.5 -95v-519q0 -54 6 -75q4 -21 19 -32q10 -7 35 -12
q36 -4 37 -39q0 -11 -0.5 -17t-0.5 -13q0 -20 3 -72.5t3 -82.5q0 -36 -7 -51t-26 -15q-26 0 -46 66q-19 66 -42 90q-29 31 -78 44q-55 15 -126 15h-318q-71 0 -126 -15q-49 -13 -78 -44q-22 -24 -42 -90q-19 -66 -46 -66q-18 0 -26 15q-7 15 -7 51q0 30 3 82.5t3 72.5
q0 9 -0.5 15.5t-0.5 14.5q1 33 37 39q70 13 119 98zM360 726q0 -124 -19.5 -263t-48.5 -280q-4 -19 -4 -37q0 -35 22.5 -55.5t52.5 -20.5h186q48 0 67 47q9 20 9 78v520q0 75 -13.5 97t-51.5 22h-140q-33 0 -46.5 -24.5t-13.5 -83.5z" />
    <glyph glyph-name="Acircumflex" unicode="&#xe5;" horiz-adv-x="885" 
d="M348 639h107q83 0 119 23.5t36 76.5q0 61 -33 98t-85 37q-66 0 -109 -49q-46 -50 -53 -133l-4 -35v-4q0 -7 6 -10q4 -4 16 -4zM762 557h-416q-17 0 -25 -8t-8 -29v-53q0 -159 77.5 -260t199.5 -101q76 0 140.5 52.5t72.5 52.5q13 0 22 -10t9 -27q0 -56 -115 -134.5
t-248 -78.5q-188 0 -306 139q-120 138 -120 355q0 221 123.5 357t323.5 136q149 0 247 -95q97 -94 97 -235q0 -34 -16.5 -47.5t-57.5 -13.5z" />
    <glyph glyph-name="Acircumflex" unicode="&#x435;" horiz-adv-x="885" 
d="M348 639h107q83 0 119 23.5t36 76.5q0 61 -33 98t-85 37q-66 0 -109 -49q-46 -50 -53 -133l-4 -35v-4q0 -7 6 -10q4 -4 16 -4zM762 557h-416q-17 0 -25 -8t-8 -29v-53q0 -159 77.5 -260t199.5 -101q76 0 140.5 52.5t72.5 52.5q13 0 22 -10t9 -27q0 -56 -115 -134.5
t-248 -78.5q-188 0 -306 139q-120 138 -120 355q0 221 123.5 357t323.5 136q149 0 247 -95q97 -94 97 -235q0 -34 -16.5 -47.5t-57.5 -13.5z" />
    <glyph glyph-name="Ecircumflex" unicode="&#xe6;" horiz-adv-x="1524" 
d="M763 12q-85 0 -178 -10q-10 -2 -11 -2q-11 0 -18 -1t-12 -1q-10 0 -16 10q-5 12 -5 27q0 21 7 29q7 9 34 12h2q26 5 39 12q16 10 24 35q7 21 7 72v231q-1 12 -8 20q-4 7 -15 7q-6 0 -21 -12.5t-24 -26.5l-145 -234q-24 -38 -34 -56q-9 -19 -9 -32q0 -5 11 -27
q11 -24 11 -40q0 -19 -11 -27t-34 -8q-10 0 -62 7t-106 7q-62 0 -145 -8l-29 -2v0q-23 0 -33 9q-10 7 -10 28q0 22 49 47t88 88l277 438q1 2 4 10q2 6 2 9q0 8 -3 15q-1 5 -7 11l-70 68q-49 49 -96 76q-48 28 -115 43h-2q-55 12 -55 43q0 17 7.5 24.5t27.5 7.5q8 0 69 -6
q62 -6 113 -6q38 0 105 5t75 5q22 0 29 -6q8 -8 8 -24q0 -27 -50 -41.5t-50 -40.5q0 -18 21 -45q15 -20 66 -68l144 -135q7 -7 10 -9q5 -3 7 -3q3 0 6 5q4 4 4 13v159q0 71 -11 95t-53 25q-23 1 -34 12q-9 9 -9 28q0 21 8 29t26 8q4 0 50 -3q60 -4 148 -4q93 0 153 4
q47 3 50 3q18 0 26 -8t8 -29q0 -19 -9 -28q-11 -11 -34 -12q-43 -1 -53.5 -25t-10.5 -95v-159q0 -9 3.5 -13.5t6.5 -4.5t6.5 2.5t10.5 9.5l144 135q51 48 66 68q21 27 21 45q0 26 -50 40.5t-50 41.5q0 16 8 24q8 6 29 6q8 0 75 -5t105 -5q52 0 113 6q62 6 69 6q20 0 27 -7
q8 -8 8 -25q0 -31 -55 -43h-2q-67 -15 -115 -43q-47 -27 -96 -76l-70 -68q-6 -6 -7 -11q-3 -7 -3 -15q0 -3 2 -9q3 -8 4 -10l277 -438q39 -63 88 -88t49 -47q0 -21 -10 -28q-10 -9 -33 -9v0l-29 2q-83 8 -145 8q-54 0 -106 -7t-62 -7q-23 0 -34 8t-11 27q0 16 11 40
q11 22 11 27q0 13 -9.5 31.5t-33.5 56.5l-145 234q-9 14 -24 26.5t-21 12.5q-11 0 -15 -7q-7 -8 -8 -20v-231q0 -51 7 -72q8 -25 24 -35q14 -7 39 -12h2q27 -3 34 -12q7 -8 7 -29q0 -15 -5 -27q-6 -10 -16 -10q-5 0 -12 1t-18 1q-1 0 -11 2q-93 10 -179 10z" />
    <glyph glyph-name="Ecircumflex" unicode="&#x436;" horiz-adv-x="1524" 
d="M763 12q-85 0 -178 -10q-10 -2 -11 -2q-11 0 -18 -1t-12 -1q-10 0 -16 10q-5 12 -5 27q0 21 7 29q7 9 34 12h2q26 5 39 12q16 10 24 35q7 21 7 72v231q-1 12 -8 20q-4 7 -15 7q-6 0 -21 -12.5t-24 -26.5l-145 -234q-24 -38 -34 -56q-9 -19 -9 -32q0 -5 11 -27
q11 -24 11 -40q0 -19 -11 -27t-34 -8q-10 0 -62 7t-106 7q-62 0 -145 -8l-29 -2v0q-23 0 -33 9q-10 7 -10 28q0 22 49 47t88 88l277 438q1 2 4 10q2 6 2 9q0 8 -3 15q-1 5 -7 11l-70 68q-49 49 -96 76q-48 28 -115 43h-2q-55 12 -55 43q0 17 7.5 24.5t27.5 7.5q8 0 69 -6
q62 -6 113 -6q38 0 105 5t75 5q22 0 29 -6q8 -8 8 -24q0 -27 -50 -41.5t-50 -40.5q0 -18 21 -45q15 -20 66 -68l144 -135q7 -7 10 -9q5 -3 7 -3q3 0 6 5q4 4 4 13v159q0 71 -11 95t-53 25q-23 1 -34 12q-9 9 -9 28q0 21 8 29t26 8q4 0 50 -3q60 -4 148 -4q93 0 153 4
q47 3 50 3q18 0 26 -8t8 -29q0 -19 -9 -28q-11 -11 -34 -12q-43 -1 -53.5 -25t-10.5 -95v-159q0 -9 3.5 -13.5t6.5 -4.5t6.5 2.5t10.5 9.5l144 135q51 48 66 68q21 27 21 45q0 26 -50 40.5t-50 41.5q0 16 8 24q8 6 29 6q8 0 75 -5t105 -5q52 0 113 6q62 6 69 6q20 0 27 -7
q8 -8 8 -25q0 -31 -55 -43h-2q-67 -15 -115 -43q-47 -27 -96 -76l-70 -68q-6 -6 -7 -11q-3 -7 -3 -15q0 -3 2 -9q3 -8 4 -10l277 -438q39 -63 88 -88t49 -47q0 -21 -10 -28q-10 -9 -33 -9v0l-29 2q-83 8 -145 8q-54 0 -106 -7t-62 -7q-23 0 -34 8t-11 27q0 16 11 40
q11 22 11 27q0 13 -9.5 31.5t-33.5 56.5l-145 234q-9 14 -24 26.5t-21 12.5q-11 0 -15 -7q-7 -8 -8 -20v-231q0 -51 7 -72q8 -25 24 -35q14 -7 39 -12h2q27 -3 34 -12q7 -8 7 -29q0 -15 -5 -27q-6 -10 -16 -10q-5 0 -12 1t-18 1q-1 0 -11 2q-93 10 -179 10z" />
    <glyph glyph-name="Aacute" unicode="&#xe7;" horiz-adv-x="819" 
d="M384 441q-68 0 -68 43q0 38 56 38q51 0 79.5 44.5t28.5 132.5q0 75 -26 125t-78 50q-40 0 -66 -22.5t-48 -71.5q-15 -38 -24 -55q-31 -61 -52 -84q-21 -25 -45 -25q-31 0 -51 56q-20 57 -20 141q0 56 81 96q76 36 221 36q94 0 176.5 -29.5t133 -83.5t50.5 -124
q0 -58 -24.5 -103.5t-63 -73.5t-86.5 -45q84 -21 148.5 -85t64.5 -152q0 -78 -53 -146t-142.5 -108t-191.5 -40q-120 0 -236 77q-103 68 -103 120q0 13 8 22.5t21 9.5q4 0 60 -40q89 -63 184 -63q83 0 137.5 49.5t54.5 145.5q0 77 -32 121t-94 44z" />
    <glyph glyph-name="Aacute" unicode="&#x437;" horiz-adv-x="819" 
d="M384 441q-68 0 -68 43q0 38 56 38q51 0 79.5 44.5t28.5 132.5q0 75 -26 125t-78 50q-40 0 -66 -22.5t-48 -71.5q-15 -38 -24 -55q-31 -61 -52 -84q-21 -25 -45 -25q-31 0 -51 56q-20 57 -20 141q0 56 81 96q76 36 221 36q94 0 176.5 -29.5t133 -83.5t50.5 -124
q0 -58 -24.5 -103.5t-63 -73.5t-86.5 -45q84 -21 148.5 -85t64.5 -152q0 -78 -53 -146t-142.5 -108t-191.5 -40q-120 0 -236 77q-103 68 -103 120q0 13 8 22.5t21 9.5q4 0 60 -40q89 -63 184 -63q83 0 137.5 49.5t54.5 145.5q0 77 -32 121t-94 44z" />
    <glyph glyph-name="Edieresis" unicode="&#xe8;" horiz-adv-x="1036" 
d="M393 195q0 -54 6 -75q4 -21 19 -32q10 -7 35 -12q36 -4 36 -41q0 -19 -6 -27t-22 -8v0l-21 2q-83 10 -174 10q-89 0 -190 -12h-4q-12 0 -18.5 -1t-10.5 -1q-13 0 -22 11t-9 26q0 20 9 29q7 9 38 12q8 0 20 2q10 2 17 6q25 12 34 32.5t9 78.5v520q0 50 -6 74t-19.5 32
t-39.5 13q-29 5 -34 12q-9 13 -9 28q0 21 8 29t26 8q4 0 50 -3q60 -4 153 -4q88 0 148 4q47 3 50 3q18 0 26 -8t8 -29q0 -19 -9 -28q-11 -11 -34 -12q-43 -1 -53.5 -25t-10.5 -95v-396l256 397q0 50 -6 74t-19.5 32t-39.5 13q-29 5 -34 12q-9 13 -9 28q0 21 8 29t26 8
q4 0 50 -3q60 -4 153 -4q88 0 148 4q47 3 50 3q18 0 26 -8t8 -29q0 -19 -9 -28q-11 -11 -34 -12q-43 -1 -53.5 -25t-10.5 -95v-519q0 -54 6 -75q4 -21 19 -32q10 -7 35 -12q36 -4 36 -41q0 -19 -6 -27t-22 -8v0l-21 2q-83 10 -174 10q-89 0 -190 -12h-4q-12 0 -18.5 -1
t-10.5 -1q-13 0 -22 11t-9 26q0 20 9 29q7 9 38 12q8 0 20 2q10 2 17 6q25 12 34 32.5t9 78.5l-1 390z" />
    <glyph glyph-name="Edieresis" unicode="&#x438;" horiz-adv-x="1036" 
d="M393 195q0 -54 6 -75q4 -21 19 -32q10 -7 35 -12q36 -4 36 -41q0 -19 -6 -27t-22 -8v0l-21 2q-83 10 -174 10q-89 0 -190 -12h-4q-12 0 -18.5 -1t-10.5 -1q-13 0 -22 11t-9 26q0 20 9 29q7 9 38 12q8 0 20 2q10 2 17 6q25 12 34 32.5t9 78.5v520q0 50 -6 74t-19.5 32
t-39.5 13q-29 5 -34 12q-9 13 -9 28q0 21 8 29t26 8q4 0 50 -3q60 -4 153 -4q88 0 148 4q47 3 50 3q18 0 26 -8t8 -29q0 -19 -9 -28q-11 -11 -34 -12q-43 -1 -53.5 -25t-10.5 -95v-396l256 397q0 50 -6 74t-19.5 32t-39.5 13q-29 5 -34 12q-9 13 -9 28q0 21 8 29t26 8
q4 0 50 -3q60 -4 153 -4q88 0 148 4q47 3 50 3q18 0 26 -8t8 -29q0 -19 -9 -28q-11 -11 -34 -12q-43 -1 -53.5 -25t-10.5 -95v-519q0 -54 6 -75q4 -21 19 -32q10 -7 35 -12q36 -4 36 -41q0 -19 -6 -27t-22 -8v0l-21 2q-83 10 -174 10q-89 0 -190 -12h-4q-12 0 -18.5 -1
t-10.5 -1q-13 0 -22 11t-9 26q0 20 9 29q7 9 38 12q8 0 20 2q10 2 17 6q25 12 34 32.5t9 78.5l-1 390z" />
    <glyph glyph-name="Egrave" unicode="&#xe9;" horiz-adv-x="1036" 
d="M393 195q0 -54 6 -75q4 -21 19 -32q10 -7 35 -12q36 -4 36 -41q0 -19 -6 -27t-22 -8v0l-21 2q-83 10 -174 10q-89 0 -190 -12h-4q-12 0 -18.5 -1t-10.5 -1q-13 0 -22 11t-9 26q0 20 9 29q7 9 38 12q8 0 20 2q10 2 17 6q25 12 34 32.5t9 78.5v520q0 50 -6 74t-19.5 32
t-39.5 13q-29 5 -34 12q-9 13 -9 28q0 21 8 29t26 8q4 0 50 -3q60 -4 153 -4q88 0 148 4q47 3 50 3q18 0 26 -8t8 -29q0 -19 -9 -28q-11 -11 -34 -12q-43 -1 -53.5 -25t-10.5 -95v-396l256 397q0 50 -6 74t-19.5 32t-39.5 13q-29 5 -34 12q-9 13 -9 28q0 21 8 29t26 8
q4 0 50 -3q60 -4 153 -4q88 0 148 4q47 3 50 3q18 0 26 -8t8 -29q0 -19 -9 -28q-11 -11 -34 -12q-43 -1 -53.5 -25t-10.5 -95v-519q0 -54 6 -75q4 -21 19 -32q10 -7 35 -12q36 -4 36 -41q0 -19 -6 -27t-22 -8v0l-21 2q-83 10 -174 10q-89 0 -190 -12h-4q-12 0 -18.5 -1
t-10.5 -1q-13 0 -22 11t-9 26q0 20 9 29q7 9 38 12q8 0 20 2q10 2 17 6q25 12 34 32.5t9 78.5l-1 390z" />
    <glyph glyph-name="Egrave" unicode="&#x439;" horiz-adv-x="1036" 
d="M393 195q0 -54 6 -75q4 -21 19 -32q10 -7 35 -12q36 -4 36 -41q0 -19 -6 -27t-22 -8v0l-21 2q-83 10 -174 10q-89 0 -190 -12h-4q-12 0 -18.5 -1t-10.5 -1q-13 0 -22 11t-9 26q0 20 9 29q7 9 38 12q8 0 20 2q10 2 17 6q25 12 34 32.5t9 78.5v520q0 50 -6 74t-19.5 32
t-39.5 13q-29 5 -34 12q-9 13 -9 28q0 21 8 29t26 8q4 0 50 -3q60 -4 153 -4q88 0 148 4q47 3 50 3q18 0 26 -8t8 -29q0 -19 -9 -28q-11 -11 -34 -12q-43 -1 -53.5 -25t-10.5 -95v-396l256 397q0 50 -6 74t-19.5 32t-39.5 13q-29 5 -34 12q-9 13 -9 28q0 21 8 29t26 8
q4 0 50 -3q60 -4 153 -4q88 0 148 4q47 3 50 3q18 0 26 -8t8 -29q0 -19 -9 -28q-11 -11 -34 -12q-43 -1 -53.5 -25t-10.5 -95v-519q0 -54 6 -75q4 -21 19 -32q10 -7 35 -12q36 -4 36 -41q0 -19 -6 -27t-22 -8v0l-21 2q-83 10 -174 10q-89 0 -190 -12h-4q-12 0 -18.5 -1
t-10.5 -1q-13 0 -22 11t-9 26q0 20 9 29q7 9 38 12q8 0 20 2q10 2 17 6q25 12 34 32.5t9 78.5l-1 390z" />
    <glyph glyph-name="Iacute" unicode="&#xea;" horiz-adv-x="1028" 
d="M393 714v-159q0 -9 3.5 -13.5t6.5 -4.5t6.5 2.5t10.5 9.5l144 135q51 48 66 68q21 27 21 45q0 26 -50 40.5t-50 41.5q0 16 8 24q8 6 29 6q8 0 75 -5t105 -5q52 0 113 6q62 6 69 6q20 0 27 -7q8 -8 8 -25q0 -31 -55 -43h-2q-67 -15 -115 -43q-47 -27 -96 -76l-70 -68
q-6 -6 -7 -11q-3 -7 -3 -15q0 -3 2 -9q3 -8 4 -10l277 -438q39 -63 88 -88t49 -47q0 -21 -10 -28q-10 -9 -33 -9v0l-29 2q-83 8 -145 8q-54 0 -106 -7t-62 -7q-23 0 -34 8t-11 27q0 16 11 40q11 22 11 27q0 13 -9.5 31.5t-33.5 56.5l-145 234q-9 14 -24 26.5t-21 12.5
q-11 0 -15 -7q-7 -8 -8 -20v-231q0 -51 7 -72q8 -25 24 -35q14 -7 39 -12h2q27 -3 34 -12q7 -8 7 -29q0 -15 -5 -27q-6 -10 -16 -10q-5 0 -12 1t-18 1q-1 0 -11 2q-93 10 -178 10q-89 0 -190 -12h-4q-12 0 -18.5 -1t-10.5 -1q-13 0 -22 11t-9 26q0 20 9 29t38 12q8 0 20 2
q10 2 17 6q25 12 34 32.5t9 78.5v520q0 50 -6 74t-19.5 32t-39.5 13q-29 5 -34 12q-9 13 -9 28q0 21 8 29t26 8q4 0 50 -3q60 -4 153 -4q88 0 148 4q47 3 50 3q18 0 26 -8t8 -29q0 -19 -9 -28q-11 -11 -34 -12q-43 -1 -53.5 -25t-10.5 -95z" />
    <glyph glyph-name="Iacute" unicode="&#x43a;" horiz-adv-x="1028" 
d="M393 714v-159q0 -9 3.5 -13.5t6.5 -4.5t6.5 2.5t10.5 9.5l144 135q51 48 66 68q21 27 21 45q0 26 -50 40.5t-50 41.5q0 16 8 24q8 6 29 6q8 0 75 -5t105 -5q52 0 113 6q62 6 69 6q20 0 27 -7q8 -8 8 -25q0 -31 -55 -43h-2q-67 -15 -115 -43q-47 -27 -96 -76l-70 -68
q-6 -6 -7 -11q-3 -7 -3 -15q0 -3 2 -9q3 -8 4 -10l277 -438q39 -63 88 -88t49 -47q0 -21 -10 -28q-10 -9 -33 -9v0l-29 2q-83 8 -145 8q-54 0 -106 -7t-62 -7q-23 0 -34 8t-11 27q0 16 11 40q11 22 11 27q0 13 -9.5 31.5t-33.5 56.5l-145 234q-9 14 -24 26.5t-21 12.5
q-11 0 -15 -7q-7 -8 -8 -20v-231q0 -51 7 -72q8 -25 24 -35q14 -7 39 -12h2q27 -3 34 -12q7 -8 7 -29q0 -15 -5 -27q-6 -10 -16 -10q-5 0 -12 1t-18 1q-1 0 -11 2q-93 10 -178 10q-89 0 -190 -12h-4q-12 0 -18.5 -1t-10.5 -1q-13 0 -22 11t-9 26q0 20 9 29t38 12q8 0 20 2
q10 2 17 6q25 12 34 32.5t9 78.5v520q0 50 -6 74t-19.5 32t-39.5 13q-29 5 -34 12q-9 13 -9 28q0 21 8 29t26 8q4 0 50 -3q60 -4 153 -4q88 0 148 4q47 3 50 3q18 0 26 -8t8 -29q0 -19 -9 -28q-11 -11 -34 -12q-43 -1 -53.5 -25t-10.5 -95z" />
    <glyph glyph-name="Icircumflex" unicode="&#xeb;" horiz-adv-x="1036" 
d="M294 96q-37 -58 -82 -84.5t-107 -26.5q-49 0 -84.5 27t-35.5 72q0 50 24.5 79t68.5 29q36 0 57 -10.5t30 -10.5q26 0 56 20t49 67q35 84 44.5 183t9.5 264q0 72 -18 97t-58 32q-29 5 -34 12q-9 13 -9 28q0 21 8 29t26 8q4 0 50 -3q60 -4 153 -4h336q88 0 148 4q47 3 50 3
q18 0 26 -8t8 -29q0 -19 -9 -28q-11 -11 -34 -12q-43 -1 -53.5 -25t-10.5 -95v-519q0 -47 6 -75q4 -21 19 -32q10 -7 35 -12q36 -4 36 -41q0 -19 -6 -27t-22 -8v0l-21 2q-83 10 -174 10q-89 0 -190 -12h-4q-12 0 -18.5 -1t-10.5 -1q-13 0 -22 11t-9 26q0 20 9 29q7 9 38 12
q8 0 20 2q10 2 17 6q25 12 34 32.5t9 78.5v520q0 75 -13.5 97t-51.5 22h-122q-33 0 -46.5 -24.5t-13.5 -83.5q0 -199 -20 -362.5t-88 -267.5z" />
    <glyph glyph-name="Icircumflex" unicode="&#x43b;" horiz-adv-x="1036" 
d="M294 96q-37 -58 -82 -84.5t-107 -26.5q-49 0 -84.5 27t-35.5 72q0 50 24.5 79t68.5 29q36 0 57 -10.5t30 -10.5q26 0 56 20t49 67q35 84 44.5 183t9.5 264q0 72 -18 97t-58 32q-29 5 -34 12q-9 13 -9 28q0 21 8 29t26 8q4 0 50 -3q60 -4 153 -4h336q88 0 148 4q47 3 50 3
q18 0 26 -8t8 -29q0 -19 -9 -28q-11 -11 -34 -12q-43 -1 -53.5 -25t-10.5 -95v-519q0 -47 6 -75q4 -21 19 -32q10 -7 35 -12q36 -4 36 -41q0 -19 -6 -27t-22 -8v0l-21 2q-83 10 -174 10q-89 0 -190 -12h-4q-12 0 -18.5 -1t-10.5 -1q-13 0 -22 11t-9 26q0 20 9 29q7 9 38 12
q8 0 20 2q10 2 17 6q25 12 34 32.5t9 78.5v520q0 75 -13.5 97t-51.5 22h-122q-33 0 -46.5 -24.5t-13.5 -83.5q0 -199 -20 -362.5t-88 -267.5z" />
    <glyph glyph-name="Idieresis" unicode="&#xec;" horiz-adv-x="1185" 
d="M72 0h-9q-6 0 -9 -1q-7 -1 -11 -1q-13 0 -22 11t-9 26q0 20 9 29q7 9 38 12q8 0 20 2q10 2 17 6q25 12 34 32.5t9 78.5v520q0 50 -6 74t-19.5 32t-39.5 13q-29 5 -34 12q-9 13 -9 28q0 21 8 29t26 8q4 0 50 -3q60 -4 191 -4q23 0 43.5 -5t33.5 -12.5t19 -16.5l179 -507
q2 -9 6 -13q5 -6 8 -6t6 5q7 10 11 20l189 495q15 40 84 40q137 0 197 4q47 3 50 3q18 0 26 -8t8 -29q0 -19 -9 -28q-11 -11 -34 -12q-43 -1 -53.5 -25t-10.5 -95v-519q0 -54 6 -75q4 -21 19 -32q10 -7 35 -12q36 -4 36 -41q0 -19 -6 -27t-22 -8v0l-21 2q-83 10 -174 10
q-89 0 -190 -12h-4q-12 0 -18.5 -1t-10.5 -1q-13 0 -22 11t-9 26q0 20 9 29q7 9 38 12q8 0 20 2q10 2 17 6q25 12 34 32.5t9 78.5v486l-247 -665q-17 -45 -50 -45q-37 0 -53 47l-227 645v-468q0 -54 6 -75q4 -21 19 -32q10 -7 35 -12q36 -4 36 -41q0 -19 -6 -27t-22 -8v0
l-21 2q-47 5 -66 7.5t-35 2.5q-13 0 -43.5 -4.5t-58.5 -7.5z" />
    <glyph glyph-name="Idieresis" unicode="&#x43c;" horiz-adv-x="1185" 
d="M72 0h-9q-6 0 -9 -1q-7 -1 -11 -1q-13 0 -22 11t-9 26q0 20 9 29q7 9 38 12q8 0 20 2q10 2 17 6q25 12 34 32.5t9 78.5v520q0 50 -6 74t-19.5 32t-39.5 13q-29 5 -34 12q-9 13 -9 28q0 21 8 29t26 8q4 0 50 -3q60 -4 191 -4q23 0 43.5 -5t33.5 -12.5t19 -16.5l179 -507
q2 -9 6 -13q5 -6 8 -6t6 5q7 10 11 20l189 495q15 40 84 40q137 0 197 4q47 3 50 3q18 0 26 -8t8 -29q0 -19 -9 -28q-11 -11 -34 -12q-43 -1 -53.5 -25t-10.5 -95v-519q0 -54 6 -75q4 -21 19 -32q10 -7 35 -12q36 -4 36 -41q0 -19 -6 -27t-22 -8v0l-21 2q-83 10 -174 10
q-89 0 -190 -12h-4q-12 0 -18.5 -1t-10.5 -1q-13 0 -22 11t-9 26q0 20 9 29q7 9 38 12q8 0 20 2q10 2 17 6q25 12 34 32.5t9 78.5v486l-247 -665q-17 -45 -50 -45q-37 0 -53 47l-227 645v-468q0 -54 6 -75q4 -21 19 -32q10 -7 35 -12q36 -4 36 -41q0 -19 -6 -27t-22 -8v0
l-21 2q-47 5 -66 7.5t-35 2.5q-13 0 -43.5 -4.5t-58.5 -7.5z" />
    <glyph glyph-name="Igrave" unicode="&#xed;" horiz-adv-x="1036" 
d="M393 420v-225q0 -54 6 -75q4 -21 19 -32q10 -7 35 -12q36 -4 36 -41q0 -19 -6 -27t-22 -8v0l-21 2q-83 10 -174 10q-89 0 -190 -12h-4q-12 0 -18.5 -1t-10.5 -1q-13 0 -22 11t-9 26q0 20 9 29q7 9 38 12q8 0 20 2q10 2 17 6q25 12 34 32.5t9 78.5v520q0 50 -6 74
t-19.5 32t-39.5 13q-29 5 -34 12q-9 13 -9 28q0 21 8 29t26 8q4 0 50 -3q60 -4 153 -4q88 0 148 4q47 3 50 3q18 0 26 -8t8 -29q0 -19 -9 -28q-11 -11 -34 -12q-43 -1 -53.5 -25t-10.5 -95v-219h256v220q0 50 -6 74t-19.5 32t-39.5 13q-29 5 -34 12q-9 13 -9 28q0 21 8 29
t26 8q4 0 50 -3q60 -4 153 -4q88 0 148 4q47 3 50 3q18 0 26 -8t8 -29q0 -19 -9 -28q-11 -11 -34 -12q-43 -1 -53.5 -25t-10.5 -95v-519q0 -54 6 -75q4 -21 19 -32q10 -7 35 -12q36 -4 36 -41q0 -19 -6 -27t-22 -8v0l-21 2q-83 10 -174 10q-89 0 -190 -12h-4q-12 0 -18.5 -1
t-10.5 -1q-13 0 -22 11t-9 26q0 20 9 29q7 9 38 12q8 0 20 2q10 2 17 6q25 12 34 32.5t9 78.5v225h-256z" />
    <glyph glyph-name="Igrave" unicode="&#x43d;" horiz-adv-x="1036" 
d="M393 420v-225q0 -54 6 -75q4 -21 19 -32q10 -7 35 -12q36 -4 36 -41q0 -19 -6 -27t-22 -8v0l-21 2q-83 10 -174 10q-89 0 -190 -12h-4q-12 0 -18.5 -1t-10.5 -1q-13 0 -22 11t-9 26q0 20 9 29q7 9 38 12q8 0 20 2q10 2 17 6q25 12 34 32.5t9 78.5v520q0 50 -6 74
t-19.5 32t-39.5 13q-29 5 -34 12q-9 13 -9 28q0 21 8 29t26 8q4 0 50 -3q60 -4 153 -4q88 0 148 4q47 3 50 3q18 0 26 -8t8 -29q0 -19 -9 -28q-11 -11 -34 -12q-43 -1 -53.5 -25t-10.5 -95v-219h256v220q0 50 -6 74t-19.5 32t-39.5 13q-29 5 -34 12q-9 13 -9 28q0 21 8 29
t26 8q4 0 50 -3q60 -4 153 -4q88 0 148 4q47 3 50 3q18 0 26 -8t8 -29q0 -19 -9 -28q-11 -11 -34 -12q-43 -1 -53.5 -25t-10.5 -95v-519q0 -54 6 -75q4 -21 19 -32q10 -7 35 -12q36 -4 36 -41q0 -19 -6 -27t-22 -8v0l-21 2q-83 10 -174 10q-89 0 -190 -12h-4q-12 0 -18.5 -1
t-10.5 -1q-13 0 -22 11t-9 26q0 20 9 29q7 9 38 12q8 0 20 2q10 2 17 6q25 12 34 32.5t9 78.5v225h-256z" />
    <glyph glyph-name="Oacute" unicode="&#xee;" horiz-adv-x="989" 
d="M492 948q209 0 330.5 -134t121.5 -363q0 -223 -126 -357q-126 -133 -341 -133q-193 0 -312.5 137t-119.5 357q0 221 124 357t323 136zM481 872q-80 0 -127 -96q-47 -99 -47 -268q0 -213 56 -342t145 -129q79 0 126 98q46 96 46 268q0 215 -55 341q-56 128 -144 128z" />
    <glyph glyph-name="Oacute" unicode="&#x43e;" horiz-adv-x="989" 
d="M492 948q209 0 330.5 -134t121.5 -363q0 -223 -126 -357q-126 -133 -341 -133q-193 0 -312.5 137t-119.5 357q0 221 124 357t323 136zM481 872q-80 0 -127 -96q-47 -99 -47 -268q0 -213 56 -342t145 -129q79 0 126 98q46 96 46 268q0 215 -55 341q-56 128 -144 128z" />
    <glyph glyph-name="Ocircumflex" unicode="&#xef;" horiz-adv-x="1036" 
d="M268 904h510q88 0 148 4q47 3 50 3q18 0 26 -8t8 -29q0 -19 -9 -28q-11 -11 -34 -12q-43 -1 -53.5 -25t-10.5 -95v-519q0 -54 6 -75q4 -21 19 -32q10 -7 35 -12q36 -4 36 -41q0 -19 -6 -27t-22 -8v0l-21 2q-83 10 -174 10q-89 0 -190 -12h-4q-12 0 -18.5 -1t-10.5 -1
q-13 0 -22 11t-9 26q0 20 9 29q7 9 38 12q8 0 20 2q10 2 17 6q25 12 34 32.5t9 78.5v520q0 75 -13.5 97t-51.5 22h-140q-33 0 -42 -24.5t-9 -95.5v-519q0 -54 6 -75q4 -21 19 -32q10 -7 35 -12q36 -4 36 -41q0 -19 -6 -27t-22 -8v0l-21 2q-83 10 -174 10q-89 0 -190 -12h-4
q-12 0 -18.5 -1t-10.5 -1q-13 0 -22 11t-9 26q0 20 9 29q7 9 38 12q8 0 20 2q10 2 17 6q25 12 34 32.5t9 78.5v520q0 50 -6 74t-19.5 32t-39.5 13q-29 5 -34 12q-9 13 -9 28q0 21 8 29t26 8q4 0 50 -3q60 -4 153 -4z" />
    <glyph glyph-name="Ocircumflex" unicode="&#x43f;" horiz-adv-x="1036" 
d="M268 904h510q88 0 148 4q47 3 50 3q18 0 26 -8t8 -29q0 -19 -9 -28q-11 -11 -34 -12q-43 -1 -53.5 -25t-10.5 -95v-519q0 -54 6 -75q4 -21 19 -32q10 -7 35 -12q36 -4 36 -41q0 -19 -6 -27t-22 -8v0l-21 2q-83 10 -174 10q-89 0 -190 -12h-4q-12 0 -18.5 -1t-10.5 -1
q-13 0 -22 11t-9 26q0 20 9 29q7 9 38 12q8 0 20 2q10 2 17 6q25 12 34 32.5t9 78.5v520q0 75 -13.5 97t-51.5 22h-140q-33 0 -42 -24.5t-9 -95.5v-519q0 -54 6 -75q4 -21 19 -32q10 -7 35 -12q36 -4 36 -41q0 -19 -6 -27t-22 -8v0l-21 2q-83 10 -174 10q-89 0 -190 -12h-4
q-12 0 -18.5 -1t-10.5 -1q-13 0 -22 11t-9 26q0 20 9 29q7 9 38 12q8 0 20 2q10 2 17 6q25 12 34 32.5t9 78.5v520q0 50 -6 74t-19.5 32t-39.5 13q-29 5 -34 12q-9 13 -9 28q0 21 8 29t26 8q4 0 50 -3q60 -4 153 -4z" />
    <glyph glyph-name="apple" unicode="&#xf0;" horiz-adv-x="1018" 
d="M389 928v-86q0 -17 1.5 -21t8.5 -4q1 0 7 2q4 2 6 4l20 23q49 52 100 76q55 26 113 26q145 0 236 -135q92 -137 92 -354t-107 -357q-106 -141 -268 -141q-55 0 -102.5 12t-96.5 39l-6 -6v-262q0 -49 8 -71.5t27 -32.5q16 -9 47 -13h2h2q49 -7 49 -43q0 -15 -8.5 -26
t-19.5 -11q-12 0 -37 4q-112 11 -197 11q-84 0 -196 -11q-27 -4 -37 -4q-11 0 -19 11t-8 26q0 19 9 30q10 10 40 11q7 0 21 2q11 1 18 6q27 10 36 33q9 21 9 78v870v41q0 32 -14 49t-55 25h-2q-43 10 -43 37q0 21 12 31q10 10 53 18l10 2q51 13 78 25q77 31 146 104l2 2
q16 18 24.5 24.5t16.5 6.5q11 0 17 -13q5 -15 5 -38zM393 580v-385q0 -75 30 -113q28 -37 89 -37q91 0 145 104.5t54 286.5q0 164 -56.5 264.5t-144.5 100.5q-66 0 -91.5 -43.5t-25.5 -177.5z" />
    <glyph glyph-name="apple" unicode="&#x440;" horiz-adv-x="1018" 
d="M389 928v-86q0 -17 1.5 -21t8.5 -4q1 0 7 2q4 2 6 4l20 23q49 52 100 76q55 26 113 26q145 0 236 -135q92 -137 92 -354t-107 -357q-106 -141 -268 -141q-55 0 -102.5 12t-96.5 39l-6 -6v-262q0 -49 8 -71.5t27 -32.5q16 -9 47 -13h2h2q49 -7 49 -43q0 -15 -8.5 -26
t-19.5 -11q-12 0 -37 4q-112 11 -197 11q-84 0 -196 -11q-27 -4 -37 -4q-11 0 -19 11t-8 26q0 19 9 30q10 10 40 11q7 0 21 2q11 1 18 6q27 10 36 33q9 21 9 78v870v41q0 32 -14 49t-55 25h-2q-43 10 -43 37q0 21 12 31q10 10 53 18l10 2q51 13 78 25q77 31 146 104l2 2
q16 18 24.5 24.5t16.5 6.5q11 0 17 -13q5 -15 5 -38zM393 580v-385q0 -75 30 -113q28 -37 89 -37q91 0 145 104.5t54 286.5q0 164 -56.5 264.5t-144.5 100.5q-66 0 -91.5 -43.5t-25.5 -177.5z" />
    <glyph glyph-name="Ograve" unicode="&#xf1;" horiz-adv-x="831" 
d="M498 948q115 0 196.5 -39.5t81.5 -95.5q0 -84 -20 -141q-20 -56 -51 -56q-24 0 -45 25q-21 23 -52 84q-9 17 -24 55q-42 94 -84 94q-77 0 -140 -106t-63 -256q0 -175 83 -291.5t206 -116.5q62 0 118 40t60 40q14 0 21 -9q8 -10 8 -23q0 -52 -106.5 -122.5t-219.5 -70.5
q-183 0 -302.5 140t-119.5 356q0 224 124 358q125 135 329 135z" />
    <glyph glyph-name="Ograve" unicode="&#x441;" horiz-adv-x="831" 
d="M498 948q115 0 196.5 -39.5t81.5 -95.5q0 -84 -20 -141q-20 -56 -51 -56q-24 0 -45 25q-21 23 -52 84q-9 17 -24 55q-42 94 -84 94q-77 0 -140 -106t-63 -256q0 -175 83 -291.5t206 -116.5q62 0 118 40t60 40q14 0 21 -9q8 -10 8 -23q0 -52 -106.5 -122.5t-219.5 -70.5
q-183 0 -302.5 140t-119.5 356q0 224 124 358q125 135 329 135z" />
    <glyph glyph-name="Uacute" unicode="&#xf2;" horiz-adv-x="988" 
d="M942 915q0 -73 -4 -133q-3 -46 -9 -63q-6 -16 -17 -25q-10 -10 -24 -10q-16 0 -34 38q-8 17 -36 56q-22 29 -49 40q-30 11 -82 11q-36 0 -52.5 -25t-16.5 -90v-519q0 -54 6 -75q4 -21 19 -32q10 -7 35 -12q36 -4 36 -41q0 -19 -6 -27t-22 -8v0l-21 2q-83 10 -174 10
q-89 0 -190 -12h-4q-12 0 -18.5 -1t-10.5 -1q-13 0 -22 11t-9 26q0 20 9 29q7 9 38 12q8 0 20 2q10 2 17 6q25 12 34 32.5t9 78.5v520q0 64 -14.5 89t-48.5 25q-53 0 -86 -11q-32 -12 -63 -40q-29 -25 -55 -56q-32 -38 -47 -38q-14 0 -21 10q-8 11 -8 25q0 18 13 63
q9 35 38 121l4 12q29 80 53 80q22 0 29 -37q1 -11 4 -20q10 -18 44 -25q37 -8 116 -8h370q79 0 119 8q36 7 52 25q8 11 11 20q21 37 42 37q26 0 26 -80z" />
    <glyph glyph-name="Uacute" unicode="&#x442;" horiz-adv-x="988" 
d="M942 915q0 -73 -4 -133q-3 -46 -9 -63q-6 -16 -17 -25q-10 -10 -24 -10q-16 0 -34 38q-8 17 -36 56q-22 29 -49 40q-30 11 -82 11q-36 0 -52.5 -25t-16.5 -90v-519q0 -54 6 -75q4 -21 19 -32q10 -7 35 -12q36 -4 36 -41q0 -19 -6 -27t-22 -8v0l-21 2q-83 10 -174 10
q-89 0 -190 -12h-4q-12 0 -18.5 -1t-10.5 -1q-13 0 -22 11t-9 26q0 20 9 29q7 9 38 12q8 0 20 2q10 2 17 6q25 12 34 32.5t9 78.5v520q0 64 -14.5 89t-48.5 25q-53 0 -86 -11q-32 -12 -63 -40q-29 -25 -55 -56q-32 -38 -47 -38q-14 0 -21 10q-8 11 -8 25q0 18 13 63
q9 35 38 121l4 12q29 80 53 80q22 0 29 -37q1 -11 4 -20q10 -18 44 -25q37 -8 116 -8h370q79 0 119 8q36 7 52 25q8 11 11 20q21 37 42 37q26 0 26 -80z" />
    <glyph glyph-name="Ucircumflex" unicode="&#xf3;" horiz-adv-x="885" 
d="M776 700l-239 -616q-87 -218 -148 -426q-6 -25 -10 -37q-18 -41 -45 -56q-26 -16 -86 -16q-68 0 -92.5 25t-24.5 96q0 70 21 99q19 28 69 28h25q4 -1 8 -1q3 0 4 -1h29q44 0 76 44q30 43 30 98q0 23 -7 50q-7 25 -24 70l-272 693q-24 59 -90 84h-2q-27 6 -34 15
q-9 9 -9 25q0 18 10 26.5t27 8.5v0l26 -2q88 -8 158 -8q114 0 223 6l23 2v0q26 0 34 -7q9 -7 9 -23q0 -37 -53 -45q-54 -7 -54 -41q0 -6 6 -24q3 -14 17 -52l143 -398q3 -7 6.5 -10.5t8.5 -3.5q2 0 6.5 4.5t7.5 14.5l115 323q11 32 19 65q7 29 7 52q0 50 -71 67
q-34 8 -45 18q-11 11 -11 27q0 21 8 29t27 8v0l25 -2q69 -8 121 -8q44 0 96 3q53 3 59 3q18 0 24.5 -6.5t6.5 -23.5q0 -35 -39 -43q-5 0 -8 -1l-8 -4q-32 -11 -56 -42q-23 -29 -47 -87z" />
    <glyph glyph-name="Ucircumflex" unicode="&#x443;" horiz-adv-x="885" 
d="M776 700l-239 -616q-87 -218 -148 -426q-6 -25 -10 -37q-18 -41 -45 -56q-26 -16 -86 -16q-68 0 -92.5 25t-24.5 96q0 70 21 99q19 28 69 28h25q4 -1 8 -1q3 0 4 -1h29q44 0 76 44q30 43 30 98q0 23 -7 50q-7 25 -24 70l-272 693q-24 59 -90 84h-2q-27 6 -34 15
q-9 9 -9 25q0 18 10 26.5t27 8.5v0l26 -2q88 -8 158 -8q114 0 223 6l23 2v0q26 0 34 -7q9 -7 9 -23q0 -37 -53 -45q-54 -7 -54 -41q0 -6 6 -24q3 -14 17 -52l143 -398q3 -7 6.5 -10.5t8.5 -3.5q2 0 6.5 4.5t7.5 14.5l115 323q11 32 19 65q7 29 7 52q0 50 -71 67
q-34 8 -45 18q-11 11 -11 27q0 21 8 29t27 8v0l25 -2q69 -8 121 -8q44 0 96 3q53 3 59 3q18 0 24.5 -6.5t6.5 -23.5q0 -35 -39 -43q-5 0 -8 -1l-8 -4q-32 -11 -56 -42q-23 -29 -47 -87z" />
    <glyph glyph-name="Ugrave" unicode="&#xf4;" horiz-adv-x="1431" 
d="M586 840v284q0 91 -73 113q-23 7 -31 15t-8 22q0 23 15 35q13 11 71 22q5 0 8 1q5 2 14 3q79 17 154.5 52.5t77.5 35.5q15 0 22.5 -11t7.5 -36q0 -2 -2 -56q0 -9 -1.5 -24.5t-2.5 -28.5l-2 -26v-399q0 -16 3 -21q1 -4 7 -4q1 0 7 2q4 2 6 4l20 23q91 102 213 102
q99 0 168 -55t105.5 -164.5t36.5 -263.5q0 -99 -26 -188.5t-74.5 -161.5t-114.5 -113t-142 -41q-42 0 -89 8.5t-110 42.5l-6 -6v-262q0 -49 8 -71.5t27 -32.5q16 -9 47 -13h2h2q49 -7 49 -43q0 -15 -8.5 -26t-19.5 -11q-12 0 -37 4q-112 11 -197 11q-84 0 -196 -11
q-27 -4 -37 -4q-11 0 -19 11t-8 26q0 19 9 30q10 10 40 11q7 0 21 2q11 1 18 6q27 10 36 33q9 21 9 78v262l-6 6q-64 -35 -110.5 -43t-88.5 -8q-99 0 -181.5 70.5t-129 188t-46.5 245.5q0 154 36.5 264t105.5 164.5t168 54.5q122 0 213 -102l20 -23q2 -2 6 -4q2 0 3.5 -1
l1.5 -1q8 0 8 23zM840 580v-385q0 -150 119 -150q76 0 122 101.5t46 313.5q0 110 -22.5 187t-61 115.5t-86.5 38.5q-71 0 -94 -49.5t-23 -171.5zM586 580q0 125 -23 173t-94 48q-48 0 -86.5 -38.5t-61 -115.5t-22.5 -187q0 -212 46.5 -313.5t121.5 -101.5q119 0 119 150v385
z" />
    <glyph glyph-name="Ugrave" unicode="&#x444;" horiz-adv-x="1431" 
d="M586 840v284q0 91 -73 113q-23 7 -31 15t-8 22q0 23 15 35q13 11 71 22q5 0 8 1q5 2 14 3q79 17 154.5 52.5t77.5 35.5q15 0 22.5 -11t7.5 -36q0 -2 -2 -56q0 -9 -1.5 -24.5t-2.5 -28.5l-2 -26v-399q0 -16 3 -21q1 -4 7 -4q1 0 7 2q4 2 6 4l20 23q91 102 213 102
q99 0 168 -55t105.5 -164.5t36.5 -263.5q0 -99 -26 -188.5t-74.5 -161.5t-114.5 -113t-142 -41q-42 0 -89 8.5t-110 42.5l-6 -6v-262q0 -49 8 -71.5t27 -32.5q16 -9 47 -13h2h2q49 -7 49 -43q0 -15 -8.5 -26t-19.5 -11q-12 0 -37 4q-112 11 -197 11q-84 0 -196 -11
q-27 -4 -37 -4q-11 0 -19 11t-8 26q0 19 9 30q10 10 40 11q7 0 21 2q11 1 18 6q27 10 36 33q9 21 9 78v262l-6 6q-64 -35 -110.5 -43t-88.5 -8q-99 0 -181.5 70.5t-129 188t-46.5 245.5q0 154 36.5 264t105.5 164.5t168 54.5q122 0 213 -102l20 -23q2 -2 6 -4q2 0 3.5 -1
l1.5 -1q8 0 8 23zM840 580v-385q0 -150 119 -150q76 0 122 101.5t46 313.5q0 110 -22.5 187t-61 115.5t-86.5 38.5q-71 0 -94 -49.5t-23 -171.5zM586 580q0 125 -23 173t-94 48q-48 0 -86.5 -38.5t-61 -115.5t-22.5 -187q0 -212 46.5 -313.5t121.5 -101.5q119 0 119 150v385
z" />
    <glyph glyph-name="dotlessi" unicode="&#xf5;" horiz-adv-x="909" 
d="M440 741l80 -135q2 -2 10 -11q5 -5 7 -5q4 0 8 4q2 2 8 12l70 125q6 12 16 36q6 18 6 26q0 14 -8 24t-33 17l-4 2q-37 13 -37 38q0 19 8 27t25 8h20q24 -2 52 -3q20 -1 65 -1q48 0 69 1q34 2 56 3h25q19 0 27 -7.5t8 -24.5q0 -34 -46 -37q-35 -5 -53 -13q-33 -15 -71 -59
q-38 -42 -84 -119l-68 -106q-8 -11 -9 -16q-3 -7 -3 -11q0 -3 2 -11q2 -7 6 -11l215 -347q35 -56 88 -79l4 -2h2q31 -13 31 -39q0 -14 -8 -20.5t-27 -6.5v0l-27 2q-99 8 -178 8q-62 0 -147 -5l-82 -5v0q-26 0 -37 9q-10 7 -10 28q0 26 45 35.5t45 36.5q0 9 -14 45
q-16 36 -37 69l-70 115q-4 8 -8 11t-8 3q-2 0 -5 -5q-1 -2 -2.5 -4t-3.5 -5l-75 -131q-13 -25 -19 -44q-8 -27 -8 -38q0 -44 42 -55.5t42 -36.5q0 -19 -7 -26t-28 -7h-14q-53 4 -70 5q-22 1 -69 1q-70 0 -142 -6h-2h-14q-16 0 -22.5 6t-6.5 21q0 19 7 27q7 9 36 18q2 0 4 2
q35 8 54 16q78 35 151 156q8 12 14 22l86 135q3 4 4 7.5t1 15.5q0 3 -2 11q-1 3 -5 9l-139 224q-58 93 -112 145q-54 53 -54 57q0 17 9.5 27t23.5 10v0l14 -2q104 -8 228 -8q70 0 137 10l18 2v0q22 0 29 -7q8 -8 8 -27q0 -21 -33 -41l-2.5 -2.5t-1 -1.5t-2.5 -3
q-24 -16 -24 -28q0 -8 7 -23q8 -18 19 -37z" />
    <glyph glyph-name="dotlessi" unicode="&#x445;" horiz-adv-x="909" 
d="M440 741l80 -135q2 -2 10 -11q5 -5 7 -5q4 0 8 4q2 2 8 12l70 125q6 12 16 36q6 18 6 26q0 14 -8 24t-33 17l-4 2q-37 13 -37 38q0 19 8 27t25 8h20q24 -2 52 -3q20 -1 65 -1q48 0 69 1q34 2 56 3h25q19 0 27 -7.5t8 -24.5q0 -34 -46 -37q-35 -5 -53 -13q-33 -15 -71 -59
q-38 -42 -84 -119l-68 -106q-8 -11 -9 -16q-3 -7 -3 -11q0 -3 2 -11q2 -7 6 -11l215 -347q35 -56 88 -79l4 -2h2q31 -13 31 -39q0 -14 -8 -20.5t-27 -6.5v0l-27 2q-99 8 -178 8q-62 0 -147 -5l-82 -5v0q-26 0 -37 9q-10 7 -10 28q0 26 45 35.5t45 36.5q0 9 -14 45
q-16 36 -37 69l-70 115q-4 8 -8 11t-8 3q-2 0 -5 -5q-1 -2 -2.5 -4t-3.5 -5l-75 -131q-13 -25 -19 -44q-8 -27 -8 -38q0 -44 42 -55.5t42 -36.5q0 -19 -7 -26t-28 -7h-14q-53 4 -70 5q-22 1 -69 1q-70 0 -142 -6h-2h-14q-16 0 -22.5 6t-6.5 21q0 19 7 27q7 9 36 18q2 0 4 2
q35 8 54 16q78 35 151 156q8 12 14 22l86 135q3 4 4 7.5t1 15.5q0 3 -2 11q-1 3 -5 9l-139 224q-58 93 -112 145q-54 53 -54 57q0 17 9.5 27t23.5 10v0l14 -2q104 -8 228 -8q70 0 137 10l18 2v0q22 0 29 -7q8 -8 8 -27q0 -21 -33 -41l-2.5 -2.5t-1 -1.5t-2.5 -3
q-24 -16 -24 -28q0 -8 7 -23q8 -18 19 -37z" />
    <glyph glyph-name="circumflex" unicode="&#xf6;" horiz-adv-x="1036" 
d="M903 195q0 -54 6 -75q4 -21 19 -32q10 -7 35 -12q36 -4 37 -39q0 -11 -0.5 -17t-0.5 -13q0 -20 3 -72.5t3 -82.5q0 -36 -7 -51t-26 -15q-26 0 -46 66q-19 66 -42 90q-29 31 -78 44q-55 15 -126 15l-604 -1h-4q-12 0 -18.5 -1t-10.5 -1q-13 0 -22 11t-9 26q0 20 9 29
q7 9 38 12q8 0 20 2q10 2 17 6q25 12 34 32.5t9 78.5v520q0 50 -6 74t-19.5 32t-39.5 13q-29 5 -34 12q-9 13 -9 28q0 21 8 29t26 8q4 0 50 -3q60 -4 153 -4q88 0 148 4q47 3 50 3q18 0 26 -8t8 -29q0 -19 -9 -28q-11 -11 -34 -12q-43 -1 -53.5 -25t-10.5 -95v-519
q0 -126 69 -126l111 1q76 0 76 125v520q0 50 -6 74t-19.5 32t-39.5 13q-29 5 -34 12q-9 13 -9 28q0 21 8 29t26 8q4 0 50 -3q60 -4 153 -4q88 0 148 4q47 3 50 3q18 0 26 -8t8 -29q0 -19 -9 -28q-11 -11 -34 -12q-43 -1 -53.5 -25t-10.5 -95v-519z" />
    <glyph glyph-name="circumflex" unicode="&#x446;" horiz-adv-x="1036" 
d="M903 195q0 -54 6 -75q4 -21 19 -32q10 -7 35 -12q36 -4 37 -39q0 -11 -0.5 -17t-0.5 -13q0 -20 3 -72.5t3 -82.5q0 -36 -7 -51t-26 -15q-26 0 -46 66q-19 66 -42 90q-29 31 -78 44q-55 15 -126 15l-604 -1h-4q-12 0 -18.5 -1t-10.5 -1q-13 0 -22 11t-9 26q0 20 9 29
q7 9 38 12q8 0 20 2q10 2 17 6q25 12 34 32.5t9 78.5v520q0 50 -6 74t-19.5 32t-39.5 13q-29 5 -34 12q-9 13 -9 28q0 21 8 29t26 8q4 0 50 -3q60 -4 153 -4q88 0 148 4q47 3 50 3q18 0 26 -8t8 -29q0 -19 -9 -28q-11 -11 -34 -12q-43 -1 -53.5 -25t-10.5 -95v-519
q0 -126 69 -126l111 1q76 0 76 125v520q0 50 -6 74t-19.5 32t-39.5 13q-29 5 -34 12q-9 13 -9 28q0 21 8 29t26 8q4 0 50 -3q60 -4 153 -4q88 0 148 4q47 3 50 3q18 0 26 -8t8 -29q0 -19 -9 -28q-11 -11 -34 -12q-43 -1 -53.5 -25t-10.5 -95v-519z" />
    <glyph glyph-name="tilde" unicode="&#xf7;" horiz-adv-x="1036" 
d="M139 573v142q0 50 -6 74t-19.5 32t-39.5 13q-29 5 -34 12q-9 13 -9 28q0 21 8 29t26 8q4 0 50 -3q60 -4 153 -4q88 0 148 4q47 3 50 3q18 0 26 -8t8 -29q0 -19 -9 -28q-11 -11 -34 -12q-43 -1 -53.5 -25t-10.5 -95v-156q0 -43 28 -68.5t67 -25.5q47 0 91.5 27.5
t69.5 69.5v154q0 50 -6 74t-19.5 32t-39.5 13q-29 5 -34 12q-9 13 -9 28q0 21 8 29t26 8q4 0 50 -3q60 -4 153 -4q88 0 148 4q47 3 50 3q18 0 26 -8t8 -29q0 -19 -9 -28q-11 -11 -34 -12q-43 -1 -53.5 -25t-10.5 -95v-519q0 -54 6 -75q4 -21 19 -32q10 -7 35 -12
q36 -4 36 -41q0 -19 -6 -27t-22 -8v0l-21 2q-83 10 -174 10q-89 0 -190 -12h-4q-12 0 -18.5 -1t-10.5 -1q-13 0 -22 11t-9 26q0 20 9 29q7 9 38 12q8 0 20 2q10 2 17 6q25 12 34 32.5t9 78.5l-1 267q-121 -106 -264 -106q-95 0 -170 60.5t-75 156.5z" />
    <glyph glyph-name="tilde" unicode="&#x447;" horiz-adv-x="1036" 
d="M139 573v142q0 50 -6 74t-19.5 32t-39.5 13q-29 5 -34 12q-9 13 -9 28q0 21 8 29t26 8q4 0 50 -3q60 -4 153 -4q88 0 148 4q47 3 50 3q18 0 26 -8t8 -29q0 -19 -9 -28q-11 -11 -34 -12q-43 -1 -53.5 -25t-10.5 -95v-156q0 -43 28 -68.5t67 -25.5q47 0 91.5 27.5
t69.5 69.5v154q0 50 -6 74t-19.5 32t-39.5 13q-29 5 -34 12q-9 13 -9 28q0 21 8 29t26 8q4 0 50 -3q60 -4 153 -4q88 0 148 4q47 3 50 3q18 0 26 -8t8 -29q0 -19 -9 -28q-11 -11 -34 -12q-43 -1 -53.5 -25t-10.5 -95v-519q0 -54 6 -75q4 -21 19 -32q10 -7 35 -12
q36 -4 36 -41q0 -19 -6 -27t-22 -8v0l-21 2q-83 10 -174 10q-89 0 -190 -12h-4q-12 0 -18.5 -1t-10.5 -1q-13 0 -22 11t-9 26q0 20 9 29q7 9 38 12q8 0 20 2q10 2 17 6q25 12 34 32.5t9 78.5l-1 267q-121 -106 -264 -106q-95 0 -170 60.5t-75 156.5z" />
    <glyph glyph-name="macron" unicode="&#xf8;" horiz-adv-x="1542" 
d="M969 70h120q70 0 70 125v520q0 50 -6 74t-19.5 32t-39.5 13q-29 5 -34 12q-9 13 -9 28q0 21 8 29t26 8q4 0 50 -3q60 -4 153 -4q88 0 148 4q47 3 50 3q18 0 26 -8t8 -29q0 -19 -9 -28q-11 -11 -34 -12q-43 -1 -53.5 -25t-10.5 -95v-519q0 -54 6 -75q4 -21 19 -32
q10 -7 35 -12q36 -4 36 -41q0 -19 -6 -27t-22 -8v0l-21 2q-33 4 -692 4h-274q-159 0 -276 -1q-118 -2 -142 -5h-4q-12 0 -18.5 -1t-10.5 -1q-13 0 -22 11t-9 26q0 20 9 29q7 9 38 12q8 0 20 2q10 2 17 6q25 12 34 32.5t9 78.5v520q0 50 -6 74t-19.5 32t-39.5 13
q-29 5 -34 12q-9 13 -9 28q0 21 8 29t26 8q4 0 50 -3q60 -4 153 -4q88 0 148 4q47 3 50 3q18 0 26 -8t8 -29q0 -19 -9 -28q-11 -11 -34 -12q-43 -1 -53.5 -25t-10.5 -95v-519q0 -66 14 -95.5t46 -29.5l117 -1q47 0 63 31.5t16 94.5v520q0 50 -6 74t-19.5 32t-39.5 13
q-29 5 -34 12q-9 13 -9 28q0 21 8 29t26 8q4 0 50 -3q60 -4 153 -4q88 0 148 4q47 3 50 3q18 0 26 -8t8 -29q0 -19 -9 -28q-11 -11 -34 -12q-43 -1 -53.5 -25t-10.5 -95v-519q0 -69 17.5 -97t48.5 -28z" />
    <glyph glyph-name="macron" unicode="&#x448;" horiz-adv-x="1542" 
d="M969 70h120q70 0 70 125v520q0 50 -6 74t-19.5 32t-39.5 13q-29 5 -34 12q-9 13 -9 28q0 21 8 29t26 8q4 0 50 -3q60 -4 153 -4q88 0 148 4q47 3 50 3q18 0 26 -8t8 -29q0 -19 -9 -28q-11 -11 -34 -12q-43 -1 -53.5 -25t-10.5 -95v-519q0 -54 6 -75q4 -21 19 -32
q10 -7 35 -12q36 -4 36 -41q0 -19 -6 -27t-22 -8v0l-21 2q-33 4 -692 4h-274q-159 0 -276 -1q-118 -2 -142 -5h-4q-12 0 -18.5 -1t-10.5 -1q-13 0 -22 11t-9 26q0 20 9 29q7 9 38 12q8 0 20 2q10 2 17 6q25 12 34 32.5t9 78.5v520q0 50 -6 74t-19.5 32t-39.5 13
q-29 5 -34 12q-9 13 -9 28q0 21 8 29t26 8q4 0 50 -3q60 -4 153 -4q88 0 148 4q47 3 50 3q18 0 26 -8t8 -29q0 -19 -9 -28q-11 -11 -34 -12q-43 -1 -53.5 -25t-10.5 -95v-519q0 -66 14 -95.5t46 -29.5l117 -1q47 0 63 31.5t16 94.5v520q0 50 -6 74t-19.5 32t-39.5 13
q-29 5 -34 12q-9 13 -9 28q0 21 8 29t26 8q4 0 50 -3q60 -4 153 -4q88 0 148 4q47 3 50 3q18 0 26 -8t8 -29q0 -19 -9 -28q-11 -11 -34 -12q-43 -1 -53.5 -25t-10.5 -95v-519q0 -69 17.5 -97t48.5 -28z" />
    <glyph glyph-name="breve" unicode="&#xf9;" horiz-adv-x="1542" 
d="M1413 195q0 -54 6 -75q4 -21 19 -32q10 -7 35 -12q36 -4 37 -39q0 -11 -0.5 -17t-0.5 -13q0 -20 3 -72.5t3 -82.5q0 -36 -7 -51t-26 -15q-26 0 -46 66q-19 66 -42 90q-55 56 -204 59q-355 5 -422 5h-274q-159 0 -276 -1q-118 -2 -142 -5h-4q-12 0 -18.5 -1t-10.5 -1
q-13 0 -22 11t-9 26q0 20 9 29q7 9 38 12q8 0 20 2q10 2 17 6q25 12 34 32.5t9 78.5v520q0 50 -6 74t-19.5 32t-39.5 13q-29 5 -34 12q-9 13 -9 28q0 21 8 29t26 8q4 0 50 -3q60 -4 153 -4q88 0 148 4q47 3 50 3q18 0 26 -8t8 -29q0 -19 -9 -28q-11 -11 -34 -12
q-43 -1 -53.5 -25t-10.5 -95v-519q0 -66 14 -95.5t46 -29.5l117 -1q47 0 63 31.5t16 94.5v520q0 50 -6 74t-19.5 32t-39.5 13q-29 5 -34 12q-9 13 -9 28q0 21 8 29t26 8q4 0 50 -3q60 -4 153 -4q88 0 148 4q47 3 50 3q18 0 26 -8t8 -29q0 -19 -9 -28q-11 -11 -34 -12
q-43 -1 -53.5 -25t-10.5 -95v-519q0 -69 17.5 -97t48.5 -28h120q70 0 70 125v520q0 50 -6 74t-19.5 32t-39.5 13q-29 5 -34 12q-9 13 -9 28q0 21 8 29t26 8q4 0 50 -3q60 -4 153 -4q88 0 148 4q47 3 50 3q18 0 26 -8t8 -29q0 -19 -9 -28q-11 -11 -34 -12q-43 -1 -53.5 -25
t-10.5 -95v-519z" />
    <glyph glyph-name="breve" unicode="&#x449;" horiz-adv-x="1542" 
d="M1413 195q0 -54 6 -75q4 -21 19 -32q10 -7 35 -12q36 -4 37 -39q0 -11 -0.5 -17t-0.5 -13q0 -20 3 -72.5t3 -82.5q0 -36 -7 -51t-26 -15q-26 0 -46 66q-19 66 -42 90q-55 56 -204 59q-355 5 -422 5h-274q-159 0 -276 -1q-118 -2 -142 -5h-4q-12 0 -18.5 -1t-10.5 -1
q-13 0 -22 11t-9 26q0 20 9 29q7 9 38 12q8 0 20 2q10 2 17 6q25 12 34 32.5t9 78.5v520q0 50 -6 74t-19.5 32t-39.5 13q-29 5 -34 12q-9 13 -9 28q0 21 8 29t26 8q4 0 50 -3q60 -4 153 -4q88 0 148 4q47 3 50 3q18 0 26 -8t8 -29q0 -19 -9 -28q-11 -11 -34 -12
q-43 -1 -53.5 -25t-10.5 -95v-519q0 -66 14 -95.5t46 -29.5l117 -1q47 0 63 31.5t16 94.5v520q0 50 -6 74t-19.5 32t-39.5 13q-29 5 -34 12q-9 13 -9 28q0 21 8 29t26 8q4 0 50 -3q60 -4 153 -4q88 0 148 4q47 3 50 3q18 0 26 -8t8 -29q0 -19 -9 -28q-11 -11 -34 -12
q-43 -1 -53.5 -25t-10.5 -95v-519q0 -69 17.5 -97t48.5 -28h120q70 0 70 125v520q0 50 -6 74t-19.5 32t-39.5 13q-29 5 -34 12q-9 13 -9 28q0 21 8 29t26 8q4 0 50 -3q60 -4 153 -4q88 0 148 4q47 3 50 3q18 0 26 -8t8 -29q0 -19 -9 -28q-11 -11 -34 -12q-43 -1 -53.5 -25
t-10.5 -95v-519z" />
    <glyph glyph-name="dotaccent" unicode="&#xfa;" horiz-adv-x="1176" 
d="M364 715q0 64 -14.5 89t-48.5 25q-53 0 -86 -11q-32 -12 -63 -40q-29 -25 -55 -56q-32 -38 -47 -38q-14 0 -21 10q-8 11 -8 25q0 18 13 63q9 35 38 121l4 12q29 80 53 80q22 0 29 -37q1 -11 4 -20q10 -18 44 -25q26 -4 127 -6q100 -3 160 -3q88 0 148 4q47 3 50 3
q18 0 26 -8t8 -29q0 -19 -9 -28q-11 -11 -34 -12q-43 -1 -53.5 -25t-10.5 -95v-156q0 -42 63 -42h54q88 0 180 -22.5t155.5 -79.5t63.5 -150q0 -82 -44 -143t-134 -95.5t-215 -34.5q-51 0 -130 13.5t-168 13.5q-28 0 -45.5 -2.5t-39.5 -6.5t-57 -9h-4q-12 0 -18.5 -1
t-10.5 -1q-13 0 -22 11t-9 26q0 20 9 29q7 9 38 12q8 0 20 2q10 2 17 6q25 12 34 32.5t9 78.5v520zM618 405v-249q0 -41 27.5 -65.5t80.5 -24.5q67 0 104 52.5t37 157.5q0 165 -147 165h-57q-45 0 -45 -36z" />
    <glyph glyph-name="dotaccent" unicode="&#x44a;" horiz-adv-x="1176" 
d="M364 715q0 64 -14.5 89t-48.5 25q-53 0 -86 -11q-32 -12 -63 -40q-29 -25 -55 -56q-32 -38 -47 -38q-14 0 -21 10q-8 11 -8 25q0 18 13 63q9 35 38 121l4 12q29 80 53 80q22 0 29 -37q1 -11 4 -20q10 -18 44 -25q26 -4 127 -6q100 -3 160 -3q88 0 148 4q47 3 50 3
q18 0 26 -8t8 -29q0 -19 -9 -28q-11 -11 -34 -12q-43 -1 -53.5 -25t-10.5 -95v-156q0 -42 63 -42h54q88 0 180 -22.5t155.5 -79.5t63.5 -150q0 -82 -44 -143t-134 -95.5t-215 -34.5q-51 0 -130 13.5t-168 13.5q-28 0 -45.5 -2.5t-39.5 -6.5t-57 -9h-4q-12 0 -18.5 -1
t-10.5 -1q-13 0 -22 11t-9 26q0 20 9 29q7 9 38 12q8 0 20 2q10 2 17 6q25 12 34 32.5t9 78.5v520zM618 405v-249q0 -41 27.5 -65.5t80.5 -24.5q67 0 104 52.5t37 157.5q0 165 -147 165h-57q-45 0 -45 -36z" />
    <glyph glyph-name="ring" unicode="&#xfb;" horiz-adv-x="1868" 
d="M393 714v-156q0 -42 63 -42h54q88 0 180 -22.5t155.5 -79.5t63.5 -150q0 -82 -44 -143t-134 -95.5t-215 -34.5q-51 0 -130 13.5t-168 13.5q-28 0 -45.5 -2.5t-39.5 -6.5t-57 -9h-4q-12 0 -18.5 -1t-10.5 -1q-13 0 -22 11t-9 26q0 20 9 29q7 9 38 12q8 0 20 2q10 2 17 6
q25 12 34 32.5t9 78.5v520q0 50 -6 74t-19.5 32t-39.5 13q-29 5 -34 12q-9 13 -9 28q0 21 8 29t26 8q4 0 50 -3q60 -4 153 -4q88 0 148 4q47 3 50 3q18 0 26 -8t8 -29q0 -19 -9 -28q-11 -11 -34 -12q-43 -1 -53.5 -25t-10.5 -95zM393 405v-249q0 -41 27.5 -65.5t80.5 -24.5
q67 0 104 52.5t37 157.5q0 165 -147 165h-57q-45 0 -45 -36z" />
    <glyph glyph-name="ring" unicode="&#x44b;" horiz-adv-x="1868" 
d="M393 714v-156q0 -42 63 -42h54q88 0 180 -22.5t155.5 -79.5t63.5 -150q0 -82 -44 -143t-134 -95.5t-215 -34.5q-51 0 -130 13.5t-168 13.5q-28 0 -45.5 -2.5t-39.5 -6.5t-57 -9h-4q-12 0 -18.5 -1t-10.5 -1q-13 0 -22 11t-9 26q0 20 9 29q7 9 38 12q8 0 20 2q10 2 17 6
q25 12 34 32.5t9 78.5v520q0 50 -6 74t-19.5 32t-39.5 13q-29 5 -34 12q-9 13 -9 28q0 21 8 29t26 8q4 0 50 -3q60 -4 153 -4q88 0 148 4q47 3 50 3q18 0 26 -8t8 -29q0 -19 -9 -28q-11 -11 -34 -12q-43 -1 -53.5 -25t-10.5 -95zM393 405v-249q0 -41 27.5 -65.5t80.5 -24.5
q67 0 104 52.5t37 157.5q0 165 -147 165h-57q-45 0 -45 -36z" />
    <glyph glyph-name="cedilla" unicode="&#xfc;" horiz-adv-x="942" 
d="M393 714v-156q0 -42 63 -42h54q88 0 180 -22.5t155.5 -79.5t63.5 -150q0 -82 -44 -143t-134 -95.5t-215 -34.5q-51 0 -130 13.5t-168 13.5q-28 0 -45.5 -2.5t-39.5 -6.5t-57 -9h-4q-12 0 -18.5 -1t-10.5 -1q-13 0 -22 11t-9 26q0 20 9 29q7 9 38 12q8 0 20 2q10 2 17 6
q25 12 34 32.5t9 78.5v520q0 50 -6 74t-19.5 32t-39.5 13q-29 5 -34 12q-9 13 -9 28q0 21 8 29t26 8q4 0 50 -3q60 -4 153 -4q88 0 148 4q47 3 50 3q18 0 26 -8t8 -29q0 -19 -9 -28q-11 -11 -34 -12q-43 -1 -53.5 -25t-10.5 -95zM393 405v-249q0 -41 27.5 -65.5t80.5 -24.5
q67 0 104 52.5t37 157.5q0 165 -147 165h-57q-45 0 -45 -36z" />
    <glyph glyph-name="cedilla" unicode="&#x44c;" horiz-adv-x="942" 
d="M393 714v-156q0 -42 63 -42h54q88 0 180 -22.5t155.5 -79.5t63.5 -150q0 -82 -44 -143t-134 -95.5t-215 -34.5q-51 0 -130 13.5t-168 13.5q-28 0 -45.5 -2.5t-39.5 -6.5t-57 -9h-4q-12 0 -18.5 -1t-10.5 -1q-13 0 -22 11t-9 26q0 20 9 29q7 9 38 12q8 0 20 2q10 2 17 6
q25 12 34 32.5t9 78.5v520q0 50 -6 74t-19.5 32t-39.5 13q-29 5 -34 12q-9 13 -9 28q0 21 8 29t26 8q4 0 50 -3q60 -4 153 -4q88 0 148 4q47 3 50 3q18 0 26 -8t8 -29q0 -19 -9 -28q-11 -11 -34 -12q-43 -1 -53.5 -25t-10.5 -95zM393 405v-249q0 -41 27.5 -65.5t80.5 -24.5
q67 0 104 52.5t37 157.5q0 165 -147 165h-57q-45 0 -45 -36z" />
    <glyph glyph-name="hungarumlaut" unicode="&#xfd;" horiz-adv-x="831" 
d="M540 495q1 6 1 17q0 150 -63 256t-140 106q-42 0 -84 -94q-15 -38 -24 -55q-31 -61 -52 -84q-21 -25 -45 -25q-31 0 -51 56q-20 57 -20 141q0 56 81 96q83 39 197 39q205 0 329 -135q124 -134 124 -358q0 -216 -120 -356q-119 -140 -302 -140q-113 0 -220 71
q-106 70 -106 122q0 13 8 22.5t21 9.5q4 0 60 -40t118 -40q124 0 206 117q59 82 77 199h-250q-39 0 -39 37q0 38 39 38h255z" />
    <glyph glyph-name="hungarumlaut" unicode="&#x44d;" horiz-adv-x="831" 
d="M540 495q1 6 1 17q0 150 -63 256t-140 106q-42 0 -84 -94q-15 -38 -24 -55q-31 -61 -52 -84q-21 -25 -45 -25q-31 0 -51 56q-20 57 -20 141q0 56 81 96q83 39 197 39q205 0 329 -135q124 -134 124 -358q0 -216 -120 -356q-119 -140 -302 -140q-113 0 -220 71
q-106 70 -106 122q0 13 8 22.5t21 9.5q4 0 60 -40t118 -40q124 0 206 117q59 82 77 199h-250q-39 0 -39 37q0 38 39 38h255z" />
    <glyph glyph-name="ogonek" unicode="&#xfe;" horiz-adv-x="1398" 
d="M508 420h-115v-225q0 -54 6 -75q4 -21 19 -32q10 -7 35 -12q36 -4 36 -41q0 -19 -6 -27t-22 -8v0l-21 2q-83 10 -174 10q-89 0 -190 -12h-4q-12 0 -18.5 -1t-10.5 -1q-13 0 -22 11t-9 26q0 20 9 29q7 9 38 12q8 0 20 2q10 2 17 6q25 12 34 32.5t9 78.5v520q0 50 -6 74
t-19.5 32t-39.5 13q-29 5 -34 12q-9 13 -9 28q0 21 8 29t26 8q4 0 50 -3q60 -4 153 -4q88 0 148 4q47 3 50 3q18 0 26 -8t8 -29q0 -19 -9 -28q-11 -11 -34 -12q-43 -1 -53.5 -25t-10.5 -95v-219h115q5 82 30 162t76.5 146t130 105.5t186.5 39.5q125 0 223 -55t152.5 -167
t54.5 -275q0 -147 -54 -259t-155 -171.5t-235 -59.5q-81 0 -153 30.5t-128 88.5t-90 145.5t-38 194.5zM924 872q-75 0 -115.5 -100.5t-40.5 -263.5q0 -145 21.5 -251.5t60 -163t86.5 -56.5q71 0 118 84.5t47 281.5q0 136 -20.5 243.5t-60.5 166.5t-96 59z" />
    <glyph glyph-name="ogonek" unicode="&#x44e;" horiz-adv-x="1398" 
d="M508 420h-115v-225q0 -54 6 -75q4 -21 19 -32q10 -7 35 -12q36 -4 36 -41q0 -19 -6 -27t-22 -8v0l-21 2q-83 10 -174 10q-89 0 -190 -12h-4q-12 0 -18.5 -1t-10.5 -1q-13 0 -22 11t-9 26q0 20 9 29q7 9 38 12q8 0 20 2q10 2 17 6q25 12 34 32.5t9 78.5v520q0 50 -6 74
t-19.5 32t-39.5 13q-29 5 -34 12q-9 13 -9 28q0 21 8 29t26 8q4 0 50 -3q60 -4 153 -4q88 0 148 4q47 3 50 3q18 0 26 -8t8 -29q0 -19 -9 -28q-11 -11 -34 -12q-43 -1 -53.5 -25t-10.5 -95v-219h115q5 82 30 162t76.5 146t130 105.5t186.5 39.5q125 0 223 -55t152.5 -167
t54.5 -275q0 -147 -54 -259t-155 -171.5t-235 -59.5q-81 0 -153 30.5t-128 88.5t-90 145.5t-38 194.5zM924 872q-75 0 -115.5 -100.5t-40.5 -263.5q0 -145 21.5 -251.5t60 -163t86.5 -56.5q71 0 118 84.5t47 281.5q0 136 -20.5 243.5t-60.5 166.5t-96 59z" />
    <glyph glyph-name="fl" unicode="&#xff;" horiz-adv-x="990" 
d="M501 495h94v220q0 52 -7.5 77t-28 33.5t-61.5 8.5q-48 0 -78 -38t-30 -109q0 -90 33 -141t78 -51zM546 420q-27 0 -49 -25.5t-38 -76.5q-71 -238 -105 -279q-31 -36 -87 -36q-138 0 -188 -6h-4q-12 0 -18.5 -1t-10.5 -1q-13 0 -22 11t-9 26q0 20 9 29q3 4 28 13t45 23
t30 39l86 197q45 103 120 129q-86 8 -146.5 67.5t-60.5 148.5q0 116 88 173.5t224 57.5q69 0 177 -2q107 -3 109 -3q88 0 148 4q47 3 50 3q18 0 26 -8t8 -29q0 -19 -9 -28q-11 -11 -34 -12q-43 -1 -53.5 -25t-10.5 -95v-519q0 -54 6 -75q4 -21 19 -32q10 -7 35 -12
q36 -4 36 -41q0 -19 -6 -27t-22 -8v0l-21 2q-83 10 -174 10q-89 0 -190 -12h-4q-12 0 -18.5 -1t-10.5 -1q-13 0 -22 11t-9 26q0 20 9 29q7 9 38 12q8 0 20 2q10 2 17 6q25 12 34 32.5t9 78.5v225h-49z" />
    <glyph glyph-name="fl" unicode="&#x44f;" horiz-adv-x="990" 
d="M501 495h94v220q0 52 -7.5 77t-28 33.5t-61.5 8.5q-48 0 -78 -38t-30 -109q0 -90 33 -141t78 -51zM546 420q-27 0 -49 -25.5t-38 -76.5q-71 -238 -105 -279q-31 -36 -87 -36q-138 0 -188 -6h-4q-12 0 -18.5 -1t-10.5 -1q-13 0 -22 11t-9 26q0 20 9 29q3 4 28 13t45 23
t30 39l86 197q45 103 120 129q-86 8 -146.5 67.5t-60.5 148.5q0 116 88 173.5t224 57.5q69 0 177 -2q107 -3 109 -3q88 0 148 4q47 3 50 3q18 0 26 -8t8 -29q0 -19 -9 -28q-11 -11 -34 -12q-43 -1 -53.5 -25t-10.5 -95v-519q0 -54 6 -75q4 -21 19 -32q10 -7 35 -12
q36 -4 36 -41q0 -19 -6 -27t-22 -8v0l-21 2q-83 10 -174 10q-89 0 -190 -12h-4q-12 0 -18.5 -1t-10.5 -1q-13 0 -22 11t-9 26q0 20 9 29q7 9 38 12q8 0 20 2q10 2 17 6q25 12 34 32.5t9 78.5v225h-49z" />
    <glyph glyph-name="Otilde" unicode="&#x152;" horiz-adv-x="1120" 
d="M451 1108v-369q0 -12 2 -20q2 -6 6 -6t8 4q7 4 10 10l285 367q17 24 24 37q7 14 7 28q0 40 -54.5 50t-54.5 40q0 20 12 30q11 11 31 11q11 0 64 -7t110 -7q28 0 100 5t93 5q28 0 38 -7q11 -8 11 -26q0 -37 -68 -51q-22 -3 -47 -10q-51 -17 -117 -74q-68 -59 -127 -139
l-100 -135q-7 -10 -9 -17q-3 -6 -3 -12q0 -4 2 -12t4 -12l364 -605q3 -4 5.5 -7t5.5 -9q42 -72 80 -86q9 -3 20 -6q45 -12 45 -49q0 -14 -9 -22q-8 -7 -30 -7q-5 0 -85 8t-142 8q-94 0 -201 -14q-17 -4 -24 -4q-15 0 -26 11t-11 28q0 31 41 42q41 9 41 32q0 18 -21 61
q-24 47 -65 113l-181 288q-6 12 -12 19q-4 6 -6 6q-7 0 -11.5 -7.5t-4.5 -15.5v-399q0 -46 13 -68t44 -28q3 0 7 -0.5t7 -1.5q43 -9 43 -37q0 -22 -9 -34.5t-26 -12.5q-2 0 -6.5 1t-11.5 1q-96 14 -197 14q-96 0 -202 -14l-27 -2v0q-17 0 -28 12q-11 13 -11 33q0 31 51 41h4
h4q43 7 58 29q14 20 14 69v928q0 46 -13 68q-13 20 -46 28q-5 0 -8 1l-4 2t-5 1q-36 6 -45 15q-10 7 -10 26t11 32q11 11 28 11v0l27 -2q102 -12 202 -12q102 0 205 12l25 2v0q18 0 28.5 -11t10.5 -34q0 -18 -9 -26q-8 -7 -45 -13q-45 -6 -62 -27.5t-17 -70.5z" />
    <glyph glyph-name="oe" unicode="&#x153;" horiz-adv-x="743" 
d="M397 948q55 0 108 -10q55 -10 97 -27q26 -9 33 -22q8 -14 8 -47q0 -37 -1 -59q-1 -23 -1 -40q0 -22 -9 -36q-9 -13 -26 -13q-19 0 -79 92.5t-136 92.5q-56 0 -93 -29q-36 -30 -36 -76q0 -70 162 -141q4 -1 15.5 -6.5t21.5 -10.5q128 -57 179.5 -126t51.5 -177
q0 -156 -105.5 -254t-273.5 -98q-118 0 -191 36.5t-73 96.5q0 118 8.5 162.5t30.5 44.5q27 0 53 -68q19 -50 33 -77q32 -64 75 -93q44 -30 101 -30q65 0 108.5 37.5t43.5 93.5q0 52 -26 86q-28 33 -124 80q-2 2 -14.5 8t-26.5 12q-252 123 -252 295q0 138 91.5 220.5
t246.5 82.5z" />
    <glyph glyph-name="Ydieresis.0" unicode="&#x178;" horiz-adv-x="885" 
d="M776 700l-239 -616q-87 -218 -148 -426q-6 -25 -10 -37q-18 -41 -45 -56q-26 -16 -86 -16q-68 0 -92.5 25t-24.5 96q0 70 21 99q19 28 69 28h25q4 -1 8 -1q3 0 4 -1h29q44 0 76 44q30 43 30 98q0 23 -7 50q-7 25 -24 70l-272 693q-24 59 -90 84h-2q-27 6 -34 15
q-9 9 -9 25q0 18 10 26.5t27 8.5v0l26 -2q88 -8 158 -8q114 0 223 6l23 2v0q26 0 34 -7q9 -7 9 -23q0 -37 -53 -45q-54 -7 -54 -41q0 -6 6 -24q3 -14 17 -52l143 -398q3 -7 6.5 -10.5t8.5 -3.5q2 0 6.5 4.5t7.5 14.5l115 323q11 32 19 65q7 29 7 52q0 50 -71 67
q-34 8 -45 18q-11 11 -11 27q0 21 8 29t27 8v0l25 -2q69 -8 121 -8q44 0 96 3q53 3 59 3q18 0 24.5 -6.5t6.5 -23.5q0 -35 -39 -43q-5 0 -8 -1l-8 -4q-32 -11 -56 -42q-23 -29 -47 -87z" />
    <glyph glyph-name="florin" unicode="&#x192;" 
d="M610 1059l-16 -217v-4q0 -12 6.5 -18.5t17.5 -6.5h115q26 0 34 -7q9 -7 9 -44q0 -44 -9 -56t-36 -12h-119q-10 0 -16 -7q-6 -6 -8 -23l-17 -240q-36 -538 -121 -703q-86 -167 -268 -167q-86 0 -137 42t-51 113q0 50 25 79q26 30 67 30q60 0 100 -87q41 -87 52 -87
q46 0 59 381q15 354 29 546l6 93v4q0 11 -7 18q-8 8 -16 8h-102q-26 0 -34.5 8t-8.5 41q0 45 9.5 57.5t35.5 12.5h117q11 0 17 6q6 7 7 23l15 108q29 207 123 321q95 113 237 113q81 0 132.5 -43t51.5 -110q0 -53 -25 -84q-25 -33 -67 -33q-62 0 -101 88t-50 88
q-39 0 -56 -221v-10z" />
    <glyph glyph-name="circumflex.0" unicode="&#x2c6;" horiz-adv-x="1036" 
d="M903 195q0 -54 6 -75q4 -21 19 -32q10 -7 35 -12q36 -4 37 -39q0 -11 -0.5 -17t-0.5 -13q0 -20 3 -72.5t3 -82.5q0 -36 -7 -51t-26 -15q-26 0 -46 66q-19 66 -42 90q-29 31 -78 44q-55 15 -126 15l-604 -1h-4q-12 0 -18.5 -1t-10.5 -1q-13 0 -22 11t-9 26q0 20 9 29
q7 9 38 12q8 0 20 2q10 2 17 6q25 12 34 32.5t9 78.5v520q0 50 -6 74t-19.5 32t-39.5 13q-29 5 -34 12q-9 13 -9 28q0 21 8 29t26 8q4 0 50 -3q60 -4 153 -4q88 0 148 4q47 3 50 3q18 0 26 -8t8 -29q0 -19 -9 -28q-11 -11 -34 -12q-43 -1 -53.5 -25t-10.5 -95v-519
q0 -126 69 -126l111 1q76 0 76 125v520q0 50 -6 74t-19.5 32t-39.5 13q-29 5 -34 12q-9 13 -9 28q0 21 8 29t26 8q4 0 50 -3q60 -4 153 -4q88 0 148 4q47 3 50 3q18 0 26 -8t8 -29q0 -19 -9 -28q-11 -11 -34 -12q-43 -1 -53.5 -25t-10.5 -95v-519z" />
    <glyph glyph-name="tilde.0" unicode="&#x2dc;" horiz-adv-x="1036" 
d="M139 573v142q0 50 -6 74t-19.5 32t-39.5 13q-29 5 -34 12q-9 13 -9 28q0 21 8 29t26 8q4 0 50 -3q60 -4 153 -4q88 0 148 4q47 3 50 3q18 0 26 -8t8 -29q0 -19 -9 -28q-11 -11 -34 -12q-43 -1 -53.5 -25t-10.5 -95v-156q0 -43 28 -68.5t67 -25.5q47 0 91.5 27.5
t69.5 69.5v154q0 50 -6 74t-19.5 32t-39.5 13q-29 5 -34 12q-9 13 -9 28q0 21 8 29t26 8q4 0 50 -3q60 -4 153 -4q88 0 148 4q47 3 50 3q18 0 26 -8t8 -29q0 -19 -9 -28q-11 -11 -34 -12q-43 -1 -53.5 -25t-10.5 -95v-519q0 -54 6 -75q4 -21 19 -32q10 -7 35 -12
q36 -4 36 -41q0 -19 -6 -27t-22 -8v0l-21 2q-83 10 -174 10q-89 0 -190 -12h-4q-12 0 -18.5 -1t-10.5 -1q-13 0 -22 11t-9 26q0 20 9 29q7 9 38 12q8 0 20 2q10 2 17 6q25 12 34 32.5t9 78.5l-1 267q-121 -106 -264 -106q-95 0 -170 60.5t-75 156.5z" />
    <glyph glyph-name="endash.0" unicode="&#x2013;" horiz-adv-x="1024" 
d="M-27 377l47 155q3 11 14 19t19 8h983q7 0 13 -2q4 -3 4 -8v-8q0 -1 -0.5 -3t-1.5 -3l-47 -158q-3 -12 -13.5 -19.5t-19.5 -7.5h-983q-8 0 -12.5 3.5t-4.5 8.5q0 7 1 9q0 4 1 6z" />
    <glyph glyph-name="emdash.0" unicode="&#x2014;" horiz-adv-x="1327" 
d="M-47 377l47 155q3 12 13 19q11 8 20 8h1327q6 0 12 -2q4 -3 4 -8v-8q0 -1 -0.5 -3t-1.5 -3l-47 -158q-3 -12 -13.5 -19.5t-19.5 -7.5h-1327q-7 0 -11.5 3.5t-4.5 8.5q0 7 1 9q0 4 1 6z" />
    <glyph glyph-name="quoteleft.0" unicode="&#x2018;" horiz-adv-x="481" 
d="M313 1327q19 0 26 -6.5t7 -22.5q0 -18 -63 -83q-64 -64 -64 -117q0 -31 55 -47q6 -2 13.5 -5t13.5 -6q38 -15 56 -44q18 -28 18 -74q0 -57 -33 -93t-84 -36q-64 0 -109 59.5t-45 146.5q0 111 82 220q83 108 127 108z" />
    <glyph glyph-name="quoteright.0" unicode="&#x2019;" horiz-adv-x="481" 
d="M229 1327q70 0 116 -58t46 -147q0 -111 -82 -220t-133 -109q-13 0 -21 8t-8 22q0 18 64.5 82.5t64.5 118.5q0 29 -55 45q-21 6 -28 10q-37 17 -54 45q-18 29 -18 74q0 54 31.5 91.5t76.5 37.5z" />
    <glyph glyph-name="quotesinglbase.0" unicode="&#x201a;" horiz-adv-x="927" 
d="M393 558q0 -42 51 -42h36q45 0 73.5 41t28.5 121q0 83 -26 118t-82 35q-48 0 -64.5 -25.5t-16.5 -91.5v-156zM393 405v-249q0 -90 78 -90q67 0 104 52.5t37 157.5q0 77 -32 121t-94 44h-48q-45 0 -45 -36zM486 -9q-58 0 -139.5 13.5t-128.5 13.5q-28 0 -45.5 -2.5
t-39.5 -6.5t-57 -9h-4q-12 0 -18.5 -1t-10.5 -1q-13 0 -22 11t-9 26q0 20 9 29q7 9 38 12q8 0 20 2q10 2 17 6q25 12 34 32.5t9 78.5v520q0 50 -6 74t-19.5 32t-39.5 13q-29 5 -34 12q-9 13 -9 28q0 21 8 29t26 8q4 0 50 -3q60 -4 153 -4q33 0 96 4t98 4q182 0 277 -58
t95 -162q0 -131 -174 -206q93 -22 156 -79t63 -139q0 -135 -103 -206t-290 -71z" />
    <glyph glyph-name="quotedblleft.0" unicode="&#x201c;" horiz-adv-x="721" 
d="M264 1327q20 0 27 -6q8 -8 8 -23q0 -19 -64.5 -83.5t-64.5 -116.5q0 -29 55 -47q18 -6 29 -11q39 -16 55 -43q17 -29 17 -75q0 -56 -33.5 -92.5t-83.5 -36.5q-64 0 -109 59.5t-45 146.5q0 111 82 220q83 108 127 108zM594 1327q20 0 27 -6q8 -8 8 -23q0 -19 -64.5 -83.5
t-64.5 -116.5q0 -31 55 -47q7 -2 14.5 -5t14.5 -6q38 -15 54 -43q17 -29 17 -75q0 -56 -32 -93q-33 -36 -84 -36q-64 0 -109 59.5t-45 146.5q0 111 82 220q83 108 127 108z" />
    <glyph glyph-name="quotedblright.0" unicode="&#x201d;" horiz-adv-x="721" 
d="M174 1327q70 0 115 -58t45 -149q0 -108 -82.5 -217.5t-132.5 -109.5q-12 0 -20 8q-7 7 -7 24q0 18 64 82q63 65 63 117q0 28 -53 45q-20 6 -29 10q-37 17 -54 45q-17 29 -17 74q0 54 31.5 91.5t76.5 37.5zM508 1327q69 0 114.5 -58t45.5 -147q0 -111 -82 -220t-133 -109
q-14 0 -20.5 7.5t-6.5 22.5q0 19 64 83q63 65 63 118q0 28 -53 45q-20 6 -29 10q-40 17 -55 44q-17 29 -17 75q0 54 31.5 91.5t77.5 37.5z" />
    <glyph glyph-name="quotedblbase.0" unicode="&#x201e;" horiz-adv-x="819" 
d="M470 829q-44 0 -60.5 -25t-16.5 -90v-519q0 -54 6 -75q4 -21 19 -32q10 -7 35 -12q36 -4 36 -41q0 -19 -6 -27t-22 -8v0l-21 2q-83 10 -174 10q-89 0 -190 -12h-4q-12 0 -18.5 -1t-10.5 -1q-13 0 -22 11t-9 26q0 20 9 29q7 9 38 12q8 0 20 2q10 2 17 6q25 12 34 32.5
t9 78.5v520q0 50 -6 74t-19.5 32t-39.5 13q-29 5 -34 12q-9 13 -9 28q0 21 8 29t26 8q4 0 50 -3q60 -4 153 -4h125t127 1q86 2 117 8q35 7 48 25q4 5 8 20q12 37 35 37q24 0 39 -80q2 -10 2 -12q14 -77 18 -121q4 -37 4 -53q0 -7 -1 -10q-3 -14 -12 -25q-9 -10 -23 -10
q-15 0 -41 38q-20 31 -45 56q-29 29 -57 40q-26 11 -84 11h-58z" />
    <glyph glyph-name="dagger" unicode="&#x2020;" horiz-adv-x="819" 
d="M432 885v-21h4q55 0 123 41t100 41q44 0 70 -29q25 -28 25 -81q0 -55 -26 -84t-73 -29q-30 0 -98.5 41t-126.5 47q4 -115 26 -206q21 -88 60 -156q-39 -177 -58 -384q-20 -222 -20 -473h-51q-5 278 -23 468q-20 203 -57 389q38 81 61 169q21 87 21 162q0 6 -1 13t-1 20
q-56 -2 -125.5 -45t-103.5 -43q-41 0 -67 30q-25 28 -25 79q0 50 27 81t69 31q35 0 105.5 -40t121.5 -42v25q0 94 -36 200q-36 107 -36 128q0 48 27 79q25 31 66 31t68 -30q26 -32 26 -78q0 -13 -36 -121.5t-36 -212.5z" />
    <glyph glyph-name="daggerdbl.0" unicode="&#x2021;" horiz-adv-x="862" 
d="M731 705v-89v-374q0 -67 9 -90t32 -23q14 0 33.5 16.5t25.5 16.5q9 0 17 -11q8 -13 8 -26q0 -45 -73.5 -103.5t-149.5 -58.5q-46 0 -75 30t-64 124h-9q-77 -74 -150 -116q-70 -40 -124 -40q-75 0 -121 58q-47 59 -47 151q0 96 53 164q51 66 199 145l164 90q12 9 16 18.5
t4 33.5v131q0 60 -14 90q-15 28 -47 28q-49 0 -105 -108q-8 -17 -18 -37q-32 -60 -77.5 -90.5t-106.5 -30.5q-31 0 -46.5 15t-15.5 45q0 99 120 192q121 92 263 92q141 0 220 -64t79 -179zM479 307v156q0 12 -3 18t-9 6q-2 0 -8 -2q-5 -1 -10 -6l-58 -37q-63 -41 -94 -89
q-33 -48 -33 -101q0 -54 26 -86.5t68 -32.5q59 0 90 45q31 43 31 129z" />
    <glyph glyph-name="bullet.0" unicode="&#x2022;" horiz-adv-x="1208" 
d="M307 762q0 124 87 209q88 86 210 86q121 0 209 -86q86 -88 86 -209q0 -122 -87.5 -209.5t-209.5 -87.5q-123 0 -209 87q-86 88 -86 210z" />
    <glyph glyph-name="ellipsis.0" unicode="&#x2026;" horiz-adv-x="2047" 
d="M342 270q54 0 92.5 -42.5t38.5 -102.5t-38.5 -101.5t-92.5 -41.5q-57 0 -95 41t-38 102t38 104q38 41 95 41zM1024 270q54 0 92.5 -42.5t38.5 -102.5t-38.5 -101.5t-92.5 -41.5q-57 0 -95 41t-38 102t38 104q38 41 95 41zM1708 270q54 0 92.5 -42.5t38.5 -102.5
t-38.5 -101.5t-92.5 -41.5q-57 0 -95 41t-38 102t38 104q38 41 95 41z" />
    <glyph glyph-name="perthousand.0" unicode="&#x2030;" horiz-adv-x="1017" 
d="M174 174q108 192 108 531q0 72 -18 97t-58 32q-29 5 -34 12q-9 13 -9 28q0 21 8 29t26 8q4 0 50 -3q60 -4 153 -4h354q88 0 148 4q47 3 50 3q18 0 26 -8t8 -29q0 -19 -9 -28q-11 -11 -34 -12q-43 -1 -53.5 -25t-10.5 -95v-519q0 -54 6 -75q4 -21 19 -32q10 -7 35 -12
q36 -4 37 -39q0 -11 -0.5 -17t-0.5 -13q0 -20 3 -72.5t3 -82.5q0 -36 -7 -51t-26 -15q-26 0 -46 66q-19 66 -42 90q-29 31 -78 44q-55 15 -126 15h-318q-71 0 -126 -15q-49 -13 -78 -44q-22 -24 -42 -90q-19 -66 -46 -66q-18 0 -26 15q-7 15 -7 51q0 30 3 82.5t3 72.5
q0 9 -0.5 15.5t-0.5 14.5q1 33 37 39q70 13 119 98zM360 726q0 -124 -19.5 -263t-48.5 -280q-4 -19 -4 -37q0 -35 22.5 -55.5t52.5 -20.5h186q48 0 67 47q9 20 9 78v520q0 75 -13.5 97t-51.5 22h-140q-33 0 -46.5 -24.5t-13.5 -83.5z" />
    <glyph glyph-name="guilsinglleft.0" unicode="&#x2039;" horiz-adv-x="1700" 
d="M1036 991v-952q0 -47 -13.5 -72.5t-39.5 -25.5q-39 0 -88 79l-2 5l-612 968q-3 4 -9 10q-4 3 -10 3q-3 0 -4 -7q-2 -10 -2 -22v-680q0 -107 13 -149q12 -45 42 -58q20 -9 69 -14q46 -4 46 -35q0 -21 -14 -33q-13 -12 -39 -12q-9 0 -62 6q-52 6 -94 6q-43 0 -90 -6
q-46 -6 -53 -6q-21 0 -33 12t-12 33q0 30 41 35q29 4 49 12q31 10 43 54t12 155v743q0 87 -9 118q-11 32 -34 42q-15 7 -41 8q-47 3 -47 37q0 20 11 32.5t28 12.5v0l14 -2q83 -6 174 -6q39 0 58 1q27 2 51 3h24q23 0 33 -6q9 -5 29 -33l453 -702q4 -7 11 -14q5 -5 9 -5
q7 0 11 9q5 8 5 20v436q0 101 -12 146q-14 46 -45 59q-20 9 -63 14q-50 6 -50 37q0 22 14 33.5t38 11.5q22 0 47 -4q4 -1 8 -1q3 0 4 -1q2 0 4 -2q22 -2 23 -2h8h63h64h8l14 2l8 2v0l9 2q21 4 41 4t32.5 -12t12.5 -33q0 -27 -41 -35q-29 -4 -49 -12q-31 -10 -43 -53
q-13 -42 -13 -156z" />
    <glyph glyph-name="guilsinglright.0" unicode="&#x203a;" horiz-adv-x="995" 
d="M903 1255v-211q0 -40 -7.5 -50.5t-25.5 -10.5q-23 0 -61 68q-21 35 -37 59q-25 40 -70.5 60t-107.5 20q-78 0 -110.5 -25t-32.5 -88v-293q0 -29 19 -39q20 -12 67 -12q71 0 104 10t47 33q18 31 37 84q17 53 43 53q15 0 25 -13t10 -34v0l-2 -24q-6 -70 -6 -135
q0 -33 2 -131l2 -91v0q0 -23 -8.5 -34t-26.5 -11q-16 0 -27 12q-10 10 -24 50q-6 14 -8 22l-9 21q-25 58 -56 77t-91 19h-31q-5 0 -11 -0.5t-9 -1.5l-23 -4q-13 -1 -18 -9q-6 -7 -6 -20v-299v-22q0 -131 34 -168q35 -39 121 -39q60 0 113.5 26t87.5 70q29 38 61 103
q30 63 56 63q17 0 28 -17t11 -47q-4 -18 -9 -51l-24 -172q-6 -38 -19 -52.5t-39 -14.5q-13 0 -49 4q-91 10 -218 16q-128 6 -228 6q-128 0 -271 -14q-23 -4 -32 -4q-21 0 -31 13q-12 12 -12 32q0 30 59 41h4h4q47 8 64 29q16 19 16 69v928q0 46 -15 67.5t-52 28.5
q-3 0 -6.5 1t-7.5 2t-9 1q-59 11 -59 41q0 20 12 32q13 11 33 11v0l20 -2q140 -12 309 -12q99 0 175 4q98 3 186 10q5 1 15 1q9 0 20 1l53 2v0q32 0 41.5 -7t9.5 -32z" />
    <glyph glyph-name="trademark.0" unicode="&#x2122;" horiz-adv-x="1683" 
d="M244 1290h448l10 -188h-30q-8 80 -39.5 115.5t-93.5 35.5h-11v-422q0 -21 11 -35.5t28 -15.5l31 -4v-28h-260v28l33 4q17 1 28 15q9 14 9 36v422h-15q-59 0 -91 -36q-33 -39 -40 -115h-29zM770 1290h199l135 -381l137 381h189v-26l-27 -4q-21 -4 -31 -16.5t-10 -35.5
v-377q0 -22 10 -35t31 -16l27 -4v-28h-246v28l30 4q20 2 30 15q9 14 9 36v377l-163 -465h-27l-170 471v-383q0 -22 10 -35q11 -15 29 -16l35 -4v-31h-197v31l33 4q21 2 31 15t10 36v373q0 23 -11 37q-10 12 -30 14l-33 5v30z" />
    <glyph glyph-name="currency" unicode="&#x2219;" horiz-adv-x="481" 
d="M242 805q67 0 113 -46t46 -114q0 -69 -46.5 -115.5t-112.5 -46.5q-68 0 -115 47.5t-47 114.5t46.5 113.5t115.5 46.5z" />
    <glyph glyph-name="cent" 
d="M461 1051v211q0 17 5.5 22.5t33.5 5.5q23 0 30 -6t7 -22v-207q103 -14 152 -39q50 -27 50 -68q0 -64 -15 -108q-16 -43 -40 -43q-39 0 -79 94t-68 102v-598q7 -1 23 -3q8 -1 32 -1q54 0 94 34q12 11 20.5 18t13 11t5.5 5q13 0 20 -7t7 -20q0 -14 -18 -37q-22 -25 -52 -47
q-34 -27 -69 -41q-39 -16 -76 -20v-258q0 -17 -6 -23t-27 -6q-26 0 -34.5 6t-8.5 23v256q-136 21 -213.5 125.5t-77.5 265.5q0 153 78 253q76 99 213 122zM461 449v524q-52 -49 -77 -113q-26 -66 -26 -147q0 -79 25 -141q24 -64 78 -123z" />
    <glyph glyph-name="sterling" 
d="M543 707h157q23 0 30 -6t7 -29v-17q0 -29 -8 -39q-7 -10 -31 -10h-114q11 -45 15 -74q5 -35 5 -55q0 -42 -13 -85q-12 -41 -46 -107q79 -42 136.5 -64t88.5 -22q30 0 50 17t20 40q0 16 -65.5 54.5t-65.5 117.5q0 53 26 88q26 33 68 33q52 0 87.5 -58.5t35.5 -146.5
q0 -136 -85 -252.5t-173 -116.5q-50 0 -100 33q-49 31 -134 127q-88 -90 -145.5 -124t-114.5 -34q-78 0 -125 50t-47 131q0 93 62.5 151t168.5 58q29 0 68 -9q34 -8 90 -26v6q0 71 -92 250l-10 18h-148q-24 0 -31 7q-8 8 -8 36q0 38 9 48q7 10 30 10h101q-32 57 -45 112
q-15 54 -15 115q0 169 96.5 278t245.5 109q92 0 163 -43.5t71 -99.5q0 -68 -23 -125q-24 -56 -53 -56q-28 0 -70 95l-2 6l-2 6q-58 135 -110 135q-43 0 -72 -44t-29 -112q0 -57 32 -141q31 -82 114 -235zM367 201q-29 40 -49 55q-22 16 -48 16q-27 0 -47 -26t-20 -66
q0 -38 18 -64t45 -26q29 0 53.5 27.5t47.5 83.5z" />
    <glyph glyph-name="acute" horiz-adv-x="1958" 
d="M1083 1282l-782 -1290q-12 -19 -22 -25t-27 -6q-27 0 -38 6t-11 21q0 4 2 10t6 10l784 1288q13 20 21 26q10 5 24 5q25 0 40 -5q12 -6 12 -17q0 -4 -2 -12q-4 -8 -7 -11zM930 551q-54 0 -85 -67q-32 -69 -32 -177q0 -119 36 -196q34 -76 89 -76q53 0 84 65.5t31 178.5
q0 119 -35 197q-34 75 -88 75zM934 625q123 0 210 -95q87 -94 87 -229q0 -142 -87.5 -241t-209.5 -99q-125 0 -212 93.5t-87 230.5q0 140 89 241q89 99 210 99zM360 1253q-52 0 -84 -66q-32 -69 -32 -177q0 -119 35.5 -196t89.5 -77q52 0 83 67q31 65 31 177q0 123 -34 197
q-34 75 -89 75zM365 1327q123 0 210 -94t87 -229q0 -143 -88 -241.5t-209 -98.5q-125 0 -212 93t-87 230q0 143 88 241q89 99 211 99zM1593 625q124 0 210.5 -94.5t86.5 -229.5q0 -142 -87.5 -241t-209.5 -99q-123 0 -211 94t-88 230q0 140 89 241q89 99 210 99zM1589 551
q-53 0 -84 -67q-32 -69 -32 -177q0 -118 35.5 -195t88.5 -77t84 65.5t31 178.5q0 123 -34 197q-34 75 -89 75z" />
    <glyph glyph-name="notequal" horiz-adv-x="1280" 
d="M954 1208l125 -102l-135 -170h246v-162h-354l-199 -250h553v-164h-660l-215 -270l-122 103l135 167h-238v164h344l199 250h-543v162h651z" />
    <glyph glyph-name="AE" horiz-adv-x="915" 
d="M451 1081v-905q0 -48 19 -68q19 -22 67 -28q3 0 9.5 -1t16.5 -3q62 -6 62 -37q0 -23 -13 -33q-13 -12 -39 -12q-9 0 -95 9q-85 9 -163 9q-76 0 -157 -9t-84 -9q-21 0 -31 13q-12 12 -12 32q0 30 59 41h4h4q47 8 64 29q16 19 16 69v928q0 46 -15 67.5t-52 28.5
q-3 0 -6.5 1t-7.5 2t-9 1q-59 11 -59 41q0 20 12 32q13 11 33 11v0l32 -2q110 -12 209 -12h189q95 0 205.5 9t126.5 9q28 0 37.5 -6.5t9.5 -32.5v-208v-21q0 -25 -6 -33q-8 -8 -23 -8q-26 0 -66 76q-7 14 -28 53q-26 43 -68 63q-43 21 -104 21q-73 0 -105 -26t-32 -91z" />
    <glyph glyph-name="Oslash" horiz-adv-x="969" 
d="M470 829q-44 0 -60.5 -25t-16.5 -90v-519q0 -54 6 -75q4 -21 19 -32q10 -7 35 -12q36 -4 36 -41q0 -19 -6 -27t-22 -8v0l-21 2q-83 10 -174 10q-89 0 -190 -12h-4q-12 0 -18.5 -1t-10.5 -1q-13 0 -22 11t-9 26q0 20 9 29q7 9 38 12q8 0 20 2q10 2 17 6q25 12 34 32.5
t9 78.5v520q0 50 -6 74t-19.5 32t-39.5 13q-29 5 -34 12q-9 13 -9 28q0 21 8 29t26 8q4 0 50 -3q60 -4 153 -4h125t127 1q86 2 117 8q35 7 48 25q4 5 8 20q12 37 35 37q24 0 39 -80q2 -10 2 -12q14 -77 18 -121q4 -37 4 -53q0 -7 -1 -10q-3 -14 -12 -25q-9 -10 -23 -10
q-15 0 -41 38q-20 31 -45 56q-29 29 -57 40q-26 11 -84 11h-58z" />
    <glyph glyph-name="infinity" horiz-adv-x="1280" 
d="M623 795q57 119 125 175q70 58 155 58q130 0 216.5 -108.5t86.5 -274.5q0 -168 -74 -274q-75 -105 -194 -105q-80 0 -145.5 52.5t-135.5 175.5q-51 -113 -123.5 -170.5t-162.5 -57.5q-126 0 -210.5 106.5t-84.5 270.5q0 169 75 274t195 105q80 0 144 -52t133 -175z
M571 692q-41 78 -95 114q-56 38 -124 38q-85 0 -138.5 -57t-53.5 -146t49 -145q49 -58 123 -58q68 0 125 60q55 58 114 194zM711 598q41 -77 96 -116.5t125 -39.5q83 0 136.5 58t53.5 147t-49 147t-121 58q-67 0 -121 -55q-53 -55 -120 -199z" />
    <glyph glyph-name="lessequal" horiz-adv-x="1280" 
d="M1190 96h-1100v166h1100v-166zM90 715v159l1100 320v-164l-813 -235l813 -232v-166z" />
    <glyph glyph-name="greaterequal" horiz-adv-x="1280" 
d="M1190 96h-1100v166h1100v-166zM1190 879v-162l-1100 -318v164l813 234l-813 233v164z" />
    <glyph glyph-name="yen" horiz-adv-x="1047" 
d="M414 1104l186 -381q6 -12 12 -18.5t13 -6.5q6 0 12 6.5t12 18.5l152 297q14 30 24 61q9 29 9 47q0 26 -12 42q-13 14 -54 28q-32 10 -43 21q-10 10 -10 28q0 23 11.5 33t39.5 10q3 0 33 -2l28 -4q33 -5 50 -6q26 -2 36 -2q26 0 53 4t33 4q4 1 7.5 1.5t11.5 2.5q16 2 18 2
q25 0 35 -10t10 -33q0 -32 -39 -49h-2l-6 -2q-17 -6 -30 -14q-24 -14 -59 -64q-38 -53 -68 -117l-62 -129h193q22 0 29 -6t7 -32v-11q0 -28 -8 -39q-7 -10 -30 -10h-252l-60 -127h314q22 0 29 -7t7 -34v-10q0 -28 -8 -39q-7 -10 -30 -10h-353v-371q0 -46 13.5 -68t48.5 -28
q3 0 8 -0.5t8 -1.5q45 -9 45 -37q0 -22 -9 -34.5t-26 -12.5q-7 0 -26 4q-94 12 -185 12q-79 0 -168 -12q-21 -4 -30 -4q-16 0 -25.5 11.5t-9.5 33.5q0 30 47 41h4h4q39 8 53 29q13 19 13 69v369h-363q-22 0 -29.5 6.5t-7.5 36.5q0 37 8 48q8 9 29 9h301l-57 127h-244
q-21 0 -29 6t-8 35q0 37 8 48q8 9 29 9h185l-107 213q-22 47 -48 75q-24 27 -60 44q-22 10 -27.5 19.5t-5.5 25.5q0 18 9 29.5t24 11.5h-1l19 -2q90 -12 190 -12q78 0 145 7t73 7q19 0 30 -10.5t11 -28.5q0 -37 -47 -54q-48 -16 -48 -44q0 -9 4 -20q6 -17 13 -29z" />
    <glyph glyph-name="mu" horiz-adv-x="1184" 
d="M172 201q-22 -119 -49 -324q-37 -297 -133 -297q-48 0 -73.5 26.5t-25.5 74.5q0 60 72 294q37 120 64 220t43 178l102 491q5 20 15 29q11 8 30 8h129q17 0 25 -7.5t8 -21.5v-8q0 -1 -0.5 -3t-1.5 -3l-94 -440q-13 -59 -16 -83q-5 -38 -5 -56q0 -64 37 -101t102 -37
q86 0 142 56t78 165l106 502q5 20 15 29q11 8 30 8h127q17 0 25 -7.5t8 -21.5v-8q0 -1 -0.5 -3t-1.5 -3l-107 -506l-2 -10q-16 -70 -16 -115q0 -44 22 -66q23 -24 62 -24q86 0 134.5 99.5t68.5 99.5q12 0 18 -7t6 -24q0 -31 -16 -85q-16 -56 -41 -101q-40 -72 -94 -108
t-125 -36q-83 0 -130 56q-46 55 -46 155q-45 -106 -110 -157q-67 -54 -157 -54q-99 0 -156 58q-58 59 -69 168z" />
    <glyph glyph-name="partialdiff" horiz-adv-x="1075" 
d="M705 504q0 115 -41 179q-41 62 -117 62q-105 0 -174 -131q-36 -68 -53 -153t-17 -185q0 -115 41 -177t117 -62q105 0 174.5 132.5t69.5 334.5zM758 639q18 114 26 187q9 83 9 147q0 119 -29 175q-28 54 -92 54q-62 0 -147.5 -58.5t-121.5 -58.5t-64 25.5t-28 60.5
q0 66 79 115t200 49q176 0 287.5 -159t111.5 -422q0 -337 -150 -558t-376 -221q-161 0 -266 112q-105 113 -105 286q0 192 113 323q113 129 278 129q101 0 168 -45t107 -141z" />
    <glyph glyph-name="summation" horiz-adv-x="641" 
d="M467 1108v-633q0 -7 2 -71q2 -66 2 -72q0 -196 -42 -333q-44 -140 -134 -237q-76 -83 -165 -133q-88 -49 -159 -49t-114 51q-45 51 -45 129q0 77 28.5 119.5t83.5 42.5q33 0 59 -17q25 -19 44 -57q9 -17 22 -59q20 -59 51 -59q51 0 73 90q22 87 22 305v981q0 47 -15.5 68
t-54.5 28q-7 0 -11 1l-6 2t-6 1q-38 6 -49 15q-10 7 -10 26q0 22 12 32q13 11 33 11v0l37 -2q110 -12 207 -12q103 0 205 12l24 2v0q18 0 28.5 -11t10.5 -34q0 -18 -9 -26q-8 -7 -44 -13q-46 -6 -63 -27q-17 -23 -17 -71z" />
    <glyph glyph-name="product" horiz-adv-x="1108" 
d="M53 645q0 295 178.5 488.5t452.5 193.5q106 0 196.5 -25t114.5 -55q8 -10 18 -78q9 -67 9 -139q0 -22 -8 -33q-7 -12 -23 -12q-26 0 -57 64q-14 27 -27 49q-45 77 -96.5 111t-122.5 34q-145 0 -245.5 -172.5t-100.5 -433.5q0 -259 100 -426q101 -168 250 -168
q77 0 141 51q63 48 103 139q11 26 27 66q26 68 47 68q18 0 24 -19t6 -108q0 -81 -5 -116q-6 -34 -21 -50q-47 -53 -135 -83q-90 -30 -203 -30q-280 0 -451 189q-172 187 -172 495z" />
    <glyph glyph-name="pi" horiz-adv-x="831" 
d="M498 948q115 0 196.5 -39.5t81.5 -95.5q0 -84 -20 -141q-20 -56 -51 -56q-24 0 -45 25q-21 23 -52 84q-9 17 -24 55q-42 94 -84 94q-77 0 -140 -106t-63 -256q0 -175 83 -291.5t206 -116.5q62 0 118 40t60 40q14 0 21 -9q8 -10 8 -23q0 -52 -106.5 -122.5t-219.5 -70.5
q-183 0 -302.5 140t-119.5 356q0 224 124 358q125 135 329 135z" />
    <glyph glyph-name="ordmasculine" horiz-adv-x="1024" 
d="M424 1432h178v-758h-178v758zM424 408h178v-758h-178v758z" />
    <glyph glyph-name="Omega" horiz-adv-x="1409" 
 />
    <glyph glyph-name="ae" horiz-adv-x="1292" 
 />
    <glyph glyph-name="oslash" horiz-adv-x="629" 
 />
    <glyph glyph-name="questiondown" horiz-adv-x="526" 
d="M272 1333q60 0 104 -44q42 -45 42 -111q0 -67 -42 -111.5t-104 -44.5q-60 0 -102.5 44.5t-42.5 111.5q0 66 43 110q42 45 102 45zM393 870v-628v-170q0 -152 -35 -242q-35 -86 -125 -170q-58 -55 -111 -82q-56 -29 -97 -29q-17 0 -23 7t-6 24q0 22 41 49q23 16 33 27
q36 35 53 89q16 52 16 138v703q0 57 -6 74.5t-22 27.5q-5 3 -15.5 7t-25.5 5q-1 1 -2 1t-2 -1q-39 8 -39 35q0 19 9.5 28.5t51.5 20.5l4 2q48 14 78 27q73 34 135.5 84.5t67.5 50.5q12 0 16 -13q4 -12 4 -65z" />
    <glyph glyph-name="exclamdown" horiz-adv-x="936" 
d="M768 1186v-21v-174q0 -18 -8 -31q-7 -12 -21 -12q-31 0 -59 88q-7 17 -8 23q-37 105 -75 140q-37 34 -103 34q-76 0 -122 -49q-48 -49 -48 -127q0 -112 151 -187q53 -26 68 -34q80 -43 141 -93t93 -95q69 -97 69 -234q0 -194 -126 -323.5t-317 -129.5q-84 0 -165 27
q-81 25 -117 61q-15 15 -19 36q-6 21 -6 91v172q0 22 10 33q11 12 27 12q26 0 43 -80q11 -49 19 -73q26 -97 80 -145q55 -50 135 -50q101 0 162 58t61 153q0 87 -48 145q-49 59 -192 134q-156 83 -219 171q-63 89 -63 218q0 172 115.5 287.5t283.5 115.5q71 0 138 -18.5
t95 -42.5q15 -15 20 -28q5 -18 5 -52z" />
    <glyph glyph-name="radical" horiz-adv-x="1323" 
d="M1128 1675h197v-110h-108l-594 -1606h-82l-316 872l-131 -49l-28 95l305 108l247 -688z" />
    <glyph glyph-name="approxequal" horiz-adv-x="1280" 
d="M1190 991v-184q-73 -55 -145.5 -82t-147.5 -27q-91 0 -253 61q-165 60 -247 60q-73 0 -144 -30q-72 -32 -163 -103v184q78 59 156 87q75 28 155 28q100 0 262 -61q165 -62 236 -62q62 0 125.5 27t165.5 102zM1190 602v-184q-73 -55 -145.5 -82t-147.5 -27q-88 0 -253 62
q-164 61 -247 61q-72 0 -143 -30q-72 -32 -164 -105v186q74 55 154 85q75 28 157 28q100 0 262 -61q165 -62 236 -62q62 0 125.5 27t165.5 102z" />
    </font>
</defs>
</svg>
