<svg width="131" height="37" viewBox="0 0 131 37" fill="none" xmlns="http://www.w3.org/2000/svg">
<path fill-rule="evenodd" clip-rule="evenodd" d="M94.617 35.9964H101.671V9.5339H94.617V35.9964ZM28.7723 10.5639C27.9767 11.2241 27.0486 12.4126 25.9613 14.182V9.56031H19.3318V36.1285H26.3061V23.4254C26.3061 21.2862 26.5713 19.7281 27.1016 18.6981C28.0563 16.8758 29.9391 15.9779 32.7235 15.9779C32.9356 15.9779 33.2008 15.9779 33.5455 16.0043C33.8903 16.0307 34.2881 16.0571 34.7123 16.1099V9.00571C34.3941 8.9793 34.2085 8.9793 34.1289 8.9793C34.0494 8.9793 33.9168 8.9793 33.8107 8.9793C31.7423 8.95289 30.0717 9.48108 28.7723 10.5639ZM45.5318 16.1363C46.4334 15.1328 47.6798 14.631 49.2974 14.631C50.7824 14.631 52.0287 15.1064 53.0364 16.0571C54.0441 17.0079 54.601 18.3812 54.7071 20.2034H43.8611C44.0733 18.4868 44.6302 17.1399 45.5318 16.1363ZM40.1751 12.6238C37.8415 15.0799 36.6747 18.5924 36.6747 23.1613C36.6747 28.0471 37.9741 31.586 40.5464 33.7516C43.1451 35.9172 46.1152 37 49.5095 37C53.6198 37 56.802 35.7059 59.0826 33.1442C60.5411 31.5332 61.3632 29.9222 61.5488 28.364H54.4419C54.0706 29.1299 53.6464 29.7373 53.1425 30.1863C52.2409 31.005 51.0741 31.4011 49.6421 31.4011C48.2897 31.4011 47.1229 31.0578 46.1682 30.3976C44.5771 29.3412 43.7551 27.4661 43.649 24.7987H61.867C61.8935 22.5011 61.814 20.758 61.6549 19.5432C61.3366 17.4568 60.6737 15.6345 59.6395 14.0764C58.4727 12.3069 57.0142 10.9864 55.2374 10.1677C53.4607 9.34904 51.4719 8.92648 49.2443 8.92648C45.5318 8.95289 42.5087 10.1677 40.1751 12.6238ZM110.369 11.4354C108.433 13.2049 107.478 15.3176 107.478 17.7473C107.478 19.8337 108.088 21.4183 109.335 22.5275C110.581 23.6367 112.702 24.5874 115.726 25.3269C119.915 26.3305 122.355 27.0171 122.991 27.4133C123.654 27.8094 123.973 28.4168 123.973 29.1827C123.973 30.0014 123.575 30.6089 122.753 31.005C121.957 31.4011 120.844 31.6124 119.491 31.6124C117.157 31.6124 115.566 31.137 114.691 30.2127C114.214 29.6845 113.896 28.813 113.737 27.5717H106.656C106.656 30.2919 107.664 32.5368 109.653 34.3062C111.642 36.0757 114.744 36.9472 118.934 36.9472C123.045 36.9472 126.094 36.1021 128.056 34.4383C130.019 32.7744 131 30.6353 131 27.9943C131 25.9872 130.311 24.3233 128.932 23.0029C127.553 21.6824 125.458 20.7052 122.7 20.045C118.536 19.147 116.123 18.4868 115.434 18.1171C114.744 17.7473 114.4 17.1927 114.4 16.374C114.4 15.7402 114.718 15.1856 115.381 14.7102C116.017 14.2348 117.104 13.9971 118.616 13.9971C120.472 13.9971 121.772 14.4725 122.541 15.4233C122.938 15.9515 123.204 16.6381 123.31 17.536H130.284C129.966 14.2877 128.772 11.99 126.678 10.6695C124.583 9.34904 121.878 8.68879 118.536 8.68879C115.01 8.79443 112.305 9.66595 110.369 11.4354ZM0.556883 12.7295H2.01538V11.2769H0.556883V12.7295ZM0.556883 10.6959H2.01538V9.2434H0.556883V10.6959ZM2.6253 10.6959H4.08381V9.2434H2.6253V10.6959ZM4.82632 8.50393H6.28482V7.05139H4.82632V8.50393ZM4.82632 6.44397H6.28482V4.99143H4.82632V6.44397ZM6.86822 6.44397H8.32672V4.99143H6.86822V6.44397ZM4.82632 4.41042H6.28482V2.95789H4.82632V4.41042ZM6.86822 4.41042H8.32672V2.95789H6.86822V4.41042ZM9.06923 4.41042H10.5277V2.95789H9.06923V4.41042ZM4.2164 2.21842V8.66238H0V15.4761H4.2164V30.8729C4.2164 32.5368 4.61417 33.7516 5.3832 34.5439C6.57652 35.7852 8.83057 36.3662 12.1188 36.2605L15.4071 36.1285V30.9522C15.1684 30.9786 14.9563 30.9786 14.7176 30.9786C14.4789 30.9786 14.2668 30.9786 14.0547 30.9786C12.6492 30.9786 11.8006 30.8465 11.5089 30.5824C11.2437 30.3183 11.0846 29.6317 11.0846 28.5489V15.4497H15.301V8.63597H11.0846V2.19201H4.2164V2.21842ZM66.7464 36.1285H73.6411V0.316916H66.7464V36.1285ZM80.6684 36.1285H87.5632V0.316916H80.6684V36.1285ZM94.617 6.44397H101.671V0H94.617V6.44397Z" fill="#174742"/>
</svg>
