<svg xmlns="http://www.w3.org/2000/svg" width="131" height="37" viewBox="0 0 131 37">
  <path id="Shape" d="M49.51,37a13.563,13.563,0,0,1-8.963-3.248c-2.569-2.162-3.872-5.725-3.872-10.59A19.31,19.31,0,0,1,37.55,17.1a11.842,11.842,0,0,1,2.625-4.477,11.477,11.477,0,0,1,4.018-2.76,13.644,13.644,0,0,1,5.052-.938,14.224,14.224,0,0,1,5.993,1.241,10.6,10.6,0,0,1,4.4,3.909,13.465,13.465,0,0,1,2.015,5.468,39.274,39.274,0,0,1,.212,5.255H43.649a9.281,9.281,0,0,0,.7,3.4,5.047,5.047,0,0,0,1.816,2.2,5.981,5.981,0,0,0,3.474,1,5.027,5.027,0,0,0,3.5-1.215,5.737,5.737,0,0,0,1.3-1.822h7.107a8.856,8.856,0,0,1-2.467,4.78,10.917,10.917,0,0,1-4.1,2.888A14.588,14.588,0,0,1,49.51,37ZM49.3,14.631a4.762,4.762,0,0,0-3.766,1.5,7.275,7.275,0,0,0-1.67,4.067H54.707a5.959,5.959,0,0,0-1.671-4.146A5.261,5.261,0,0,0,49.3,14.631Zm69.636,22.316c-4.189,0-7.312-.888-9.282-2.641a8.664,8.664,0,0,1-3-6.735h7.08a4.821,4.821,0,0,0,.955,2.642c.879.929,2.494,1.4,4.8,1.4a7.517,7.517,0,0,0,3.262-.608,1.906,1.906,0,0,0,1.22-1.823,1.934,1.934,0,0,0-.981-1.769c-.616-.384-2.925-1.047-7.266-2.086a15.292,15.292,0,0,1-6.391-2.8,6.014,6.014,0,0,1-1.857-4.781,8.3,8.3,0,0,1,2.891-6.312c1.9-1.74,4.575-2.639,8.167-2.747a15.128,15.128,0,0,1,8.141,1.981c2.074,1.307,3.288,3.617,3.606,6.866H123.31a4.245,4.245,0,0,0-.77-2.112A4.8,4.8,0,0,0,118.616,14a5.574,5.574,0,0,0-3.235.714,2.032,2.032,0,0,0-.981,1.663,1.81,1.81,0,0,0,1.034,1.743,44.482,44.482,0,0,0,7.266,1.928A13.487,13.487,0,0,1,128.931,23,6.647,6.647,0,0,1,131,27.995a8.567,8.567,0,0,1-.736,3.588,8.252,8.252,0,0,1-2.208,2.856C126.093,36.1,123.024,36.947,118.934,36.947Zm-107.56-.674c-2.873,0-4.888-.582-5.991-1.729a5.114,5.114,0,0,1-1.166-3.671v-15.4H0V8.663H4.216V2.192h6.868V8.636H15.3v6.813H11.084v13.1a3.261,3.261,0,0,0,.425,2.033,4.745,4.745,0,0,0,2.545.4h.663a5.857,5.857,0,0,0,.689-.027v5.177l-3.289.131C11.865,36.268,11.615,36.273,11.374,36.273Zm-10.817-25V12.73H2.015V11.277ZM2.625,9.243V10.7H4.084V9.243Zm-2.068,0V10.7H2.015V9.243Zm4.27-2.192V8.5H6.285V7.052Zm2.041-2.06V6.444H8.327V4.991Zm-2.041,0V6.444H6.285V4.991ZM9.069,2.958V4.41h1.458V2.958Zm-2.2,0V4.41H8.327V2.958Zm-2.041,0V4.41H6.285V2.958Zm82.736,33.17H80.669V.317h6.894Zm-13.922,0H66.746V.317H73.64Zm-47.334,0H19.332V9.561h6.629v4.622a15.092,15.092,0,0,1,2.811-3.618,7.42,7.42,0,0,1,4.893-1.586h.464c.079,0,.265,0,.583.026v7.1c-.366-.046-.715-.072-1.023-.095L33.546,16c-.345-.027-.61-.027-.823-.027-2.784,0-4.675.915-5.621,2.721a10.654,10.654,0,0,0-.8,4.727v12.7ZM101.671,36H94.617V9.534h7.054V36Zm0-29.552H94.617V0h7.054V6.443Z" fill="#fff"/>
</svg>
